<?xml version="1.0" encoding="utf-8"?>
<!-- Generator: Adobe Illustrator 15.0.2, SVG Export Plug-In . SVG Version: 6.00 Build 0)  -->
<!DOCTYPE svg PUBLIC "-//W3C//DTD SVG 1.1//EN" "http://www.w3.org/Graphics/SVG/1.1/DTD/svg11.dtd">
<svg version="1.1" id="Слой_1" xmlns="http://www.w3.org/2000/svg" xmlns:xlink="http://www.w3.org/1999/xlink" x="0px" y="0px"
	 width="195.48px" height="195.479px" viewBox="0 0 195.48 195.479" enable-background="new 0 0 195.48 195.479"
	 xml:space="preserve">
<g>
	<path fill="#3C5D7C" d="M195.48,97.74c0,53.98-43.762,97.739-97.742,97.739S0,151.72,0,97.74S43.758,0,97.738,0
		S195.48,43.76,195.48,97.74"/>
	<path fill="#004D7C" d="M95.621,195.453c0.703,0.015,1.41,0.026,2.117,0.026c51.949,0,94.428-40.53,97.551-91.695l-53.604-43.167
		l-24.408,19.068l-9.852,22.34l-11.813,19.511H76.092l-34.188,1.846l-30.359,7.731L95.621,195.453z"/>
	<path fill="#DDDDDD" d="M88.055,128.724c0,0-12.793-9.351-35.641-6.722c-22.85,2.63-29.673,5.529-37.686,6.722
		c0,0,7.674,1.024,18.588-1.022c10.912-2.047,40.242-6.992,53.543,1.278l2.387-0.256"/>
	<polygon fill="#3A3A3A" points="104.809,129.521 14.729,129.521 30.645,117.244 104.809,117.244 	"/>
	<path fill="#2E82C6" d="M90.668,129.521v3.592l-79.123-2c0,0,16.826-13.869,19.1-13.869l-15.916,12.277H90.668z"/>
	<polygon fill="#3A3A3A" points="104.809,129.521 180.75,129.521 164.834,117.244 90.668,117.244 	"/>
	<path fill="#2E82C6" d="M104.809,129.521v3.592l79.125-2c0,0-16.824-13.869-19.1-13.869l15.916,12.277H104.809z"/>
	<path fill="#2E82C6" d="M88.055,129.521c0,0,1.705,7.344,9.32,7.344s10.344-7.344,10.344-7.344H88.055z"/>
	<path fill="#3A3A3A" d="M88.055,128.724c0,0,4.203,3.866,9.887,3.866c5.686,0,9.484-3.866,9.484-3.866H88.055z"/>
	<path fill="#EFF4F2" d="M182.1,121.537l-2.746-3.139c-13.662-1.61-37.668-1.769-37.668-1.769c21.602-2.35,39.266,0,39.266,0
		c-1.938-8.012-7.105-10.318-7.105-10.318c-44.055,3.808-54.496,11.473-54.496,11.473c18.25-15.894,57.488-14.815,57.488-14.815
		c-9.145-24.419-22.635-28.165-22.635-28.165c-22.684,12.627-46.625,42.44-46.625,42.44c21.297-33.653,47.516-46.487,47.516-46.487
		l-8.695-1.894c-26.025,20.756-38.82,42.271-38.82,42.271c10.338-23.144,39.938-46.058,39.938-46.058l-5.145-0.806
		c-13.064,9.643-30.168,33.982-30.168,33.982c9.965-19.01,29.482-37.635,29.482-37.635H129.34
		c-25.338,15.497-30.309,51.267-30.929,56.723c-0.616-5.456-5.587-41.226-30.925-56.723H55.139c0,0,19.518,18.625,29.482,37.635
		c0,0-17.104-24.339-30.166-33.982l-5.146,0.806c0,0,29.6,22.914,39.938,46.058c0,0-12.795-21.515-38.82-42.271l-8.693,1.894
		c0,0,26.215,12.834,47.514,46.487c0,0-23.941-29.813-46.625-42.44c0,0-13.488,3.746-22.633,28.165c0,0,38.646,3.342,55.121,14.636
		c0,0-25.662-10.92-52.129-11.294c0,0-5.168,2.306-7.107,10.318c0,0,17.666-2.35,39.266,0c0,0-24.006,0.159-37.668,1.769
		l-2.742,3.139l8.477-1.641l-8.189,8.279c0,0,12.486,0.497,23.801-1.99c11.314-2.486,40.143-7.174,50.959,1.99h16.244
		c10.816-9.164,40.676-4.476,51.99-1.99c11.314,2.487,23.801,1.99,23.801,1.99l-8.191-8.279L182.1,121.537z"/>
</g>
</svg>
