<?xml version="1.0" encoding="utf-8"?>
<!-- Generator: Adobe Illustrator 15.0.2, SVG Export Plug-In . SVG Version: 6.00 Build 0)  -->
<!DOCTYPE svg PUBLIC "-//W3C//DTD SVG 1.1//EN" "http://www.w3.org/Graphics/SVG/1.1/DTD/svg11.dtd">
<svg version="1.1" id="Capa_1" xmlns="http://www.w3.org/2000/svg" xmlns:xlink="http://www.w3.org/1999/xlink" x="0px" y="0px"
	 width="50px" height="50px" viewBox="375 275 50 50" enable-background="new 375 275 50 50" xml:space="preserve">
<path fill="#222222" d="M401.652,308.507c0.048,1.584-0.764,2.617-2.052,3.343c-2.274,1.283-6.233,0.954-8.298-0.657
	c-2.249-1.755-2.075-4.884,0.354-6.374c1.107-0.679,2.723-1.063,4.593-1.092C398.727,303.689,401.584,306.24,401.652,308.507z
	 M397.302,297.224c1.488-0.49,2.381-1.795,2.41-3.594c-0.201-2.069-0.716-4.096-2.335-5.652c-1.022-0.983-2.266-1.354-3.635-0.916
	c-1.289,0.412-1.902,1.427-2.094,2.722c-0.337,2.274,0.23,4.322,1.61,6.137C394.29,297.277,395.771,297.728,397.302,297.224z
	 M425,275v50h-50v-50H425z M402.333,302.837c-0.894-0.764-1.832-1.477-2.703-2.265c-1.091-0.987-1.079-1.898-0.003-2.908
	c0.403-0.378,0.86-0.697,1.286-1.051c2.687-2.226,2.994-5.949,0.721-8.594c-0.194-0.226-0.498-0.383-0.538-0.875
	c0.925,0.086,1.79-0.056,2.363-0.875c0.151-0.217,0.52-0.356,0.411-0.66c-0.116-0.322-0.481-0.192-0.738-0.192
	c-2.389-0.008-4.776,0.008-7.165-0.004c-1.089-0.005-2.129,0.211-3.149,0.569c-3.177,1.115-5.115,4.184-4.683,7.474
	c0.347,2.644,2.668,5.368,6.318,5.31c0.657-0.011,0.854,0.229,0.743,0.87c-0.108,0.622-0.058,1.262,0.318,1.799
	c0.509,0.728,0.344,0.959-0.535,1.058c-2.25,0.253-4.445,0.743-6.342,2.083c-1.75,1.236-2.669,2.914-2.38,5.076
	c0.281,2.104,1.688,3.342,3.547,4.118c2.171,0.906,4.447,0.975,6.739,0.685c1.877-0.237,3.63-0.836,5.167-2.002
	C404.823,310.09,405.514,305.557,402.333,302.837z M413.795,298.292h-3.121v-3.122h-1.54v3.121h-3.121v1.54h3.121v3.121h1.54v-3.121
	h3.121V298.292z"/>
</svg>
