<?xml version="1.0" encoding="utf-8"?>
<!-- Generator: Adobe Illustrator 15.0.2, SVG Export Plug-In . SVG Version: 6.00 Build 0)  -->
<!DOCTYPE svg PUBLIC "-//W3C//DTD SVG 1.1//EN" "http://www.w3.org/Graphics/SVG/1.1/DTD/svg11.dtd">
<svg version="1.1" id="Layer_1" xmlns="http://www.w3.org/2000/svg" xmlns:xlink="http://www.w3.org/1999/xlink" x="0px" y="0px"
	 width="116.063px" height="116.837px" viewBox="17.24 19.029 116.063 116.837"
	 enable-background="new 17.24 19.029 116.063 116.837" xml:space="preserve">
<circle fill="#00A99D" cx="75.659" cy="77.448" r="58.419"/>
<g>
	<path fill="#FFFFFF" d="M85.539,109.776L74.312,80.926l-0.628-1.619h-2.852H39.775c0.473,9.003,4.433,17.092,10.547,22.938
		c0.886,0.846,1.814,1.645,2.789,2.403c5.784,4.456,13.039,7.119,20.91,7.119C78.062,111.768,81.938,111.062,85.539,109.776z"/>
	<path fill="#FFFFFF" d="M74.889,41.594c-3.44,0-6.758,0.509-9.892,1.452c-1.181,0.353-2.336,0.761-3.455,1.237
		c-7.008,2.959-12.8,8.195-16.513,14.756c0,0-0.746,1.215-1.61,3.218h-0.012c-0.025,0.061-0.044,0.124-0.067,0.184
		c-0.337,0.792-0.679,1.692-1.01,2.703c-0.003,0.008-0.007,0.016-0.01,0.022h0.001c-0.324,0.99-0.635,2.055-0.887,3.213
		c-0.414,1.845-0.693,3.73-0.796,5.669h32.481h1.864l1.446-1.617l20.439-22.863C90.919,44.589,83.255,41.584,74.889,41.594z"/>
	<path fill="#FFFFFF" d="M79.207,78.948L90.516,108c10.95-5.291,18.658-16.233,19.337-29.052c0.024-0.479,0.034-0.964,0.038-1.446
		H78.65L79.207,78.948z"/>
	<path fill="#FFFFFF" d="M107.502,48.353L87.18,69.694l-2.013,2.118l31.12-2.67C115.773,61.193,112.572,53.938,107.502,48.353z"/>
</g>
<g opacity="0.4">
	<g opacity="0.5">
		<path fill="#FFFFFF" d="M17.281,77.447c0,32.263,26.156,58.419,58.418,58.419c11.758,0,22.697-3.486,31.861-9.463
			C30.377,118.426,17.281,77.447,17.281,77.447z"/>
	</g>
	<g opacity="0.5">
		<path fill="#FFFFFF" d="M134.035,77.447c0,0-13.096,40.979-90.279,48.956c9.165,5.977,20.104,9.463,31.861,9.463
			C107.88,135.866,134.035,109.709,134.035,77.447z"/>
	</g>
</g>
</svg>
