<?xml version="1.0" encoding="utf-8"?>
<!-- Generator: Adobe Illustrator 15.0.2, SVG Export Plug-In . SVG Version: 6.00 Build 0)  -->
<!DOCTYPE svg PUBLIC "-//W3C//DTD SVG 1.1//EN" "http://www.w3.org/Graphics/SVG/1.1/DTD/svg11.dtd">
<svg version="1.1" xmlns="http://www.w3.org/2000/svg" xmlns:xlink="http://www.w3.org/1999/xlink" x="0px" y="0px" width="1405px"
	 height="299.885px" viewBox="0 0 1405 299.885" enable-background="new 0 0 1405 299.885" xml:space="preserve">
<g id="Background">
</g>
<g id="Objects">
	<path fill="#0087FF" stroke="#FFFFFF" stroke-miterlimit="10" d="M1108.09-136.52c3.088,0.916,6.155,1.737,9.21,2.543
		l-6.047-10.478l-4.426,7.664C1107.252-136.693,1107.655-136.648,1108.09-136.52z"/>
	<g>
		<g>
			<linearGradient id="SVGID_1_" gradientUnits="userSpaceOnUse" x1="0" y1="149.9424" x2="1417.7148" y2="149.9424">
				<stop  offset="0.2363" style="stop-color:#00D1FF"/>
				<stop  offset="0.3534" style="stop-color:#00C7FF"/>
				<stop  offset="0.5495" style="stop-color:#00AEFF"/>
				<stop  offset="0.7987" style="stop-color:#0084FF"/>
				<stop  offset="1" style="stop-color:#005DFF"/>
			</linearGradient>
			<rect opacity="0.4" fill="url(#SVGID_1_)" stroke="#053192" stroke-miterlimit="10" width="1417.715" height="299.885"/>
		</g>
		<g>
			<g>
				<path fill="#FFFFFF" d="M417.271,250.705V68.153h33.767l75.62,92.358c17.236,21.398,31.303,40.356,42.206,59.316l1.053-0.271
					c-2.81-24.377-3.516-46.587-3.516-74.755V68.153h28.843v182.552H564.29l-75.264-92.63
					c-16.534-20.313-32.361-41.168-43.968-60.94l-1.053,0.271c1.759,23.021,2.108,44.961,2.108,75.296v78.004H417.271z"/>
				<path fill="#FFFFFF" d="M771.116,165.117h-91.798v65.814H782.02v19.773H648.364V68.153h128.377v19.773h-97.423v57.69h91.798
					V165.117z"/>
				<path fill="#FFFFFF" d="M863.623,250.705L803.48,68.153h32.359l28.135,92.358c7.035,23.022,13.365,45.504,17.586,63.108h0.703
					c3.869-18.147,11.258-39.814,19.344-63.379l31.655-92.088h32.006l28.843,92.63c6.683,21.938,13.015,43.336,16.53,62.566h0.702
					c4.925-20.042,11.606-40.356,18.995-63.108l31.302-92.088h31.304l-67.18,182.552h-32.006l-29.896-94.796
					c-7.387-23.565-12.311-41.44-15.475-59.859h-0.706c-3.868,18.419-9.495,36.023-18.288,59.587l-33.767,95.068H863.623z"/>
				<path fill="#FFFFFF" d="M1119.343,221.994c13.718,6.772,33.413,11.919,54.516,11.919c31.304,0,49.591-12.46,49.591-31.148
					c0-16.792-12.662-26.813-44.667-36.022c-38.69-10.833-62.605-26.544-62.605-52.003c0-28.439,30.601-49.566,76.675-49.566
					c23.917,0,41.855,4.334,52.053,8.939l-8.44,19.231c-7.385-3.521-23.212-8.667-44.666-8.667
					c-32.358,0-44.671,14.896-44.671,27.355c0,17.063,14.423,25.458,47.13,35.21c40.096,12.188,60.146,26.813,60.146,53.627
					c0,28.169-26.731,52.815-82.656,52.815c-22.862,0-47.832-5.418-60.494-11.916L1119.343,221.994z"/>
			</g>
		</g>
		<g>
			<g>
				<path fill="#FFFFFF" d="M112.476,66.511h-30.19v-8.392h73.479v8.392h-30.333v68.036h-12.956V66.511z"/>
				<path fill="#FFFFFF" d="M179.622,58.119v31.978h48.003V58.119h12.96v76.428h-12.96V98.715h-48.003v35.832h-12.957V58.119
					H179.622z"/>
				<path fill="#FFFFFF" d="M314.06,98.715h-38.433v27.556h42.997v8.276h-55.953V58.119h53.749v8.277h-40.792v24.154h38.433V98.715z
					"/>
			</g>
		</g>
	</g>
	<path fill="none" stroke="#0085FF" stroke-miterlimit="10" d="M997.756,0"/>
</g>
</svg>
