<?xml version="1.0" encoding="utf-8"?>
<!-- Generator: Adobe Illustrator 15.0.2, SVG Export Plug-In . SVG Version: 6.00 Build 0)  -->
<!DOCTYPE svg PUBLIC "-//W3C//DTD SVG 1.1//EN" "http://www.w3.org/Graphics/SVG/1.1/DTD/svg11.dtd">
<svg version="1.1"
	 id="svg7836" inkscape:version="0.48.4 r9939" sodipodi:docname="psnk.ukr.svg" xmlns:dc="http://purl.org/dc/elements/1.1/" xmlns:cc="http://creativecommons.org/ns#" xmlns:rdf="http://www.w3.org/1999/02/22-rdf-syntax-ns#" xmlns:svg="http://www.w3.org/2000/svg" xmlns:sodipodi="http://sodipodi.sourceforge.net/DTD/sodipodi-0.dtd" xmlns:inkscape="http://www.inkscape.org/namespaces/inkscape"
	 xmlns="http://www.w3.org/2000/svg" xmlns:xlink="http://www.w3.org/1999/xlink" x="0px" y="0px" width="101.882px"
	 height="100.94px" viewBox="50.387 53.924 101.882 100.94" enable-background="new 50.387 53.924 101.882 100.94"
	 xml:space="preserve">
<sodipodi:namedview  id="namedview114" inkscape:pageopacity="0" inkscape:pageshadow="2" inkscape:window-width="1366" inkscape:window-height="732" inkscape:window-x="0" inkscape:window-y="16" inkscape:current-layer="svg7836" pagecolor="#ffffff" bordercolor="#666666" borderopacity="1" objecttolerance="10" gridtolerance="10" guidetolerance="10" showgrid="false" inkscape:zoom="1.8770775" inkscape:cx="152.83421" inkscape:cy="147.56982" inkscape:window-maximized="1">
	</sodipodi:namedview>
<g>
	<linearGradient id="path4414_1_" gradientUnits="userSpaceOnUse" x1="-4044.9773" y1="1992.0034" x2="-4038.7471" y2="2452.4514">
		<stop  offset="0" style="stop-color:#216778"/>
		<stop  offset="0.5479" style="stop-color:#87CDDE"/>
		<stop  offset="0.5831" style="stop-color:#00222B"/>
		<stop  offset="1" style="stop-color:#006680"/>
	</linearGradient>
	<path id="path4414" inkscape:connector-curvature="0" fill="none" stroke="url(#path4414_1_)" stroke-width="1.254" d="
		M127.456,64.643c13.078,8.518,21.717,23.22,21.717,39.928l0,0c0,22.251-15.32,40.943-36.043,46.212"/>
	
		<linearGradient id="path9030-1-6-3_1_" gradientUnits="userSpaceOnUse" x1="-4588.5488" y1="2033.4106" x2="-4568.9556" y2="2484.1418">
		<stop  offset="0" style="stop-color:#216778"/>
		<stop  offset="0.4199" style="stop-color:#87CDDE"/>
		<stop  offset="0.4582" style="stop-color:#00222B"/>
		<stop  offset="1" style="stop-color:#216778"/>
	</linearGradient>
	
		<path id="path9030-1-6-3" inkscape:connector-curvature="0" fill="none" stroke="url(#path9030-1-6-3_1_)" stroke-width="1.254" d="
		M80.05,147.385c-15.876-7.774-26.8-24.025-26.8-42.814c0-26.342,21.473-47.696,47.961-47.696c5.8,0,11.359,1.023,16.505,2.899"/>
	<path id="path9033-5-1-7" inkscape:connector-curvature="0" fill="none" stroke="#000000" stroke-width="1.881" d="M82.067,150.488
		c-18.053-7.5-30.739-25.227-30.739-45.899c0-27.462,22.386-49.724,50-49.724s50.001,22.261,50.001,49.724l0,0
		c0,24.589-17.948,45.009-41.527,49.012"/>
	<path id="path25376-9-4-93-8-4-8" inkscape:connector-curvature="0" fill="none" d="M122.415,63.933
		c-6.686,1.729-14.165,2.958-27.215,0.889c-0.419,0.032-0.632,0.26-0.585,0.753v2.572c-1.87-0.09-3.868-0.082-6.342-0.796
		c-0.228-0.066-0.721,0.369-0.714,0.385v6.147c-3.173,1.243-5.728,2.592-8.355,4.598c-1.342-0.617-2.583-1.105-4.464-2.437
		c-0.468,0.072-0.448,0.286-0.468,0.483v6.705c-5.321,5.812-8.14,12.968-8.14,21.224c0,7.918,2.957,15.189,7.894,20.898
		c1.453,13.814,10.784,24.207,19.838,29.508c2.168-1.053,4.435-2.339,6.219-4.157l3.135,1.488
		c10.603-5.405,17.631-11.429,20.461-21.695c8.189-6.088,13.441-15.488,13.441-26.042c0-11.76-5.766-20.597-13.55-26.305
		l0.05-13.239C123.626,63.925,123.025,63.842,122.415,63.933z"/>
	<path id="path25379-16-2-0-5-85-8" inkscape:connector-curvature="0" fill="none" stroke="#B3B3B3" stroke-width="0.4958" d="
		M77.796,82.232c14.821,5.711,28.948,5.101,42.644,0.561v45.71c-13.778,8.663-30.062,8.137-42.785-4.843L77.796,82.232z"/>
	<path id="path25358-2-0-1-7-3-5" inkscape:connector-curvature="0" fill="#00E3FF" stroke="#E6E6E6" stroke-width="0.4958" d="
		M86.944,134.229c11.187,5.112,22.417,4.384,32.933-1.68c-3.51,7.436-9.84,12.063-16.606,15.886
		C97.291,145.352,91.008,141.676,86.944,134.229z"/>
	<path id="path25356-7-5-9-0-5-7" inkscape:connector-curvature="0" fill="#00E3FF" stroke="#E6E6E6" stroke-width="0.4958" d="
		M123.422,83.065c0,0,10.15,8.497,10.15,21.376c0,13.614-10.25,21.971-10.25,21.971L123.422,83.065z"/>
	<path id="path9722-4-9-4-0-7-4-3-8-6-3-2-88-3-3-4" inkscape:connector-curvature="0" fill="#222222" d="M119.559,66.151
		c-7.501,1.313-15.438,1.556-23.909,0.024v6.362l0.634-0.086l-0.019-5.633c8.115,1.531,19.637,1.125,25.58-0.681l-0.185,12.719
		c-5.087-3.382-12.782-6.325-20.123-6.184c-3.624,0.069-7.937,0.893-11.934,2.309l-0.024-5.279c1.706,0.312,3.628,0.524,5.486,0.667
		v-0.661c-2.076-0.185-4.233-0.446-6.132-0.778v6.294c-3.164,1.178-6.088,2.678-8.257,4.311l0.868,0.379
		c4.748-3.777,13.663-6.552,20.085-6.552c7.732,0,14.838,2.52,20.461,6.736c-1.209,0.435-14.483,5.094-26.631,4.212
		c-12.734-0.924-19.783-5.768-19.783-5.768l-0.055,44.889c-4.312-5.031-6.958-12.121-6.958-18.89c0-7,1.819-12.799,5.936-18.002
		v-1.298c-4.672,5.48-6.847,11.797-6.847,19.387c0,7.349,3.119,14.886,7.851,20.262c0.261,11.117,9.491,23.521,18.429,28.24
		c1.773-0.833,3.402-1.887,4.784-3.307l-0.85-0.478c-1.096,1.1-2.352,1.984-3.91,2.56c-9.655-5.342-17.083-17.79-17.419-26.098
		c2.184,2.307,4.705,4.309,7.487,5.934c1.479,7.578,10.661,15.366,19.064,18.957c8.436-3.834,18.844-13.354,18.951-20.758
		c0.009-0.006,0.017-0.012,0.025-0.019l0.159-49.647c7.482,5.716,12.271,14.461,12.271,24.267c0,10.573-5.119,18.604-11.365,23.422
		v0.974c6.355-4.615,12.099-13.311,12.099-24.31c0-11.384-6.194-20.485-13.009-25.247l0.185-13.974L119.559,66.151z M76.574,79.751
		c0,0,6.004,4.36,18.324,5.253c12.32,0.894,26.705-3.919,26.705-3.919l-0.16,48.319c-4.866,3.313-13.619,6.332-20.036,6.332
		c-10.071,0-18.848-4.584-24.844-11.512L76.574,79.751L76.574,79.751z M121.351,130.488c-1.076,7.185-10.467,15.508-18.146,19.129
		c-7.684-3.407-15.703-9.954-17.813-17.157c4.796,2.532,10.297,3.968,16.146,3.968C107.855,136.427,115.749,134.199,121.351,130.488
		z"/>
	
		<path id="path4110-2-5-9-67-8-4-1-8-2-9-2-4-9-3-7-6-6-9-1-4-1-8-7-3-2-9-7" inkscape:connector-curvature="0" stroke="#FFFFFF" stroke-width="0.4958" d="
		M99.625,93.839l-3.284,11.907l-0.73-1.241l-14.087,0.508l13.479,0.603l1.398,3.698l2.517-8.675l1.109,16.207l3.285-12.271
		l0.648,1.206l14.077-0.719l-13.48-0.391l-1.295-3.289l-2.474,8.676L99.625,93.839z"/>
	<g id="text3318-1-3-3-23-0-2-6-2-8-0-1-6-9-6-1-5-1-6-7-0-8-02-6-0-6-8-0-5" transform="scale(0.96910437,1.0318806)">
		<path id="path3387" stroke="#FFFFFF" stroke-width="0.4958" d="M82.493,99.04v-0.561l1.832-0.287V85.675l-1.832-0.275v-0.562
			h14.483v0.562l-1.831,0.275v12.517l1.831,0.287v0.561h-5.708v-0.561l1.831-0.287V85.791h-6.719v12.401l1.832,0.287v0.561H82.493"
			/>
	</g>
	<g id="text3318-1-3-3-6-9-5-6-7-3-9-3-1-2-9-9-4-3-1-6-3-6-8-87-2-9-4-0-6-0" transform="scale(0.9880473,1.0120973)">
		<path id="path3390" stroke="#FFFFFF" stroke-width="0.4958" d="M113.805,100.893c-1.162,0-2.199-0.162-3.114-0.486
			c-0.906-0.324-1.675-0.792-2.306-1.406c-0.624-0.613-1.098-1.36-1.425-2.241c-0.325-0.889-0.488-1.889-0.488-3.002
			c0-1.268,0.162-2.367,0.488-3.298c0.333-0.93,0.812-1.698,1.435-2.304c0.631-0.613,1.403-1.068,2.318-1.363
			c0.913-0.296,1.959-0.444,3.134-0.444c0.489,0,0.951,0.018,1.383,0.053c0.432,0.028,0.843,0.068,1.233,0.117
			c0.397,0.049,0.773,0.105,1.127,0.169c0.355,0.064,0.699,0.13,1.032,0.201l0.063,3.097h-0.701l-0.319-1.839
			c-0.495-0.303-1.073-0.536-1.733-0.698c-0.651-0.169-1.318-0.254-1.998-0.254c-0.828,0-1.569,0.113-2.221,0.338
			c-0.644,0.226-1.19,0.596-1.637,1.111c-0.447,0.508-0.791,1.18-1.032,2.019c-0.234,0.832-0.351,1.856-0.351,3.076
			c0,1.071,0.117,2.005,0.351,2.801c0.234,0.789,0.571,1.449,1.01,1.977c0.44,0.522,0.974,0.913,1.605,1.174
			c0.638,0.261,1.36,0.391,2.168,0.391c0.44,0,0.858-0.028,1.254-0.084c0.404-0.056,0.776-0.134,1.117-0.233
			c0.347-0.098,0.654-0.211,0.924-0.339c0.277-0.133,0.506-0.271,0.691-0.412l0.393-2.114h0.691l-0.063,3.329
			c-0.298,0.085-0.637,0.169-1.02,0.254c-0.382,0.077-0.791,0.148-1.223,0.211c-0.432,0.064-0.886,0.113-1.36,0.149
			C114.755,100.876,114.28,100.893,113.805,100.893"/>
	</g>
	<g id="text3318-1-3-3-2-6-4-1-3-9-9-6-5-1-6-2-0-2-1-0-4-0-6-1-2-3-1-0-4-4" transform="scale(0.9762946,1.024281)">
		<path id="path3393" stroke="#FFFFFF" stroke-width="0.4958" d="M81.66,120.271v-0.57l1.858-0.29v-12.694l-1.858-0.279v-0.569h5.8
			v0.569l-1.858,0.279v5.659h6.814v-5.659l-1.858-0.279v-0.569h5.789v0.569l-1.858,0.279v12.694l1.858,0.29v0.57h-5.789v-0.57
			l1.858-0.29v-6.068h-6.814v6.068l1.858,0.29v0.57H81.66"/>
	</g>
	<g id="text3318-1-3-3-2-3-7-4-0-4-1-3-1-6-7-4-2-6-9-1-3-5-3-3-3-3-8-2-1-0-1" transform="scale(0.98100663,1.0193611)">
		<path id="path3396" stroke="#FFFFFF" stroke-width="0.4958" d="M120.162,106.392v0.572l-1.682,0.281l-4.611,4.877l5.349,7.879
			l1.574,0.291v0.572h-3.667l-4.775-7.23l-1.856,1.651V120l2.084,0.291v0.572h-6.044v-0.572l1.867-0.291v-12.755l-1.867-0.282
			v-0.571h5.827v0.571l-1.867,0.282v6.873l6.5-6.873l-1.389-0.282v-0.571L120.162,106.392"/>
	</g>
	<path id="path6978-8-5-3-2-0-0-4-4-9-0-5-2-1-5-4-7-7-8-12-6" inkscape:connector-curvature="0" d="M96.759,142.775l-0.063,0.178
		l-0.136,0.24l-1.338-1.54l0.174-0.391l0.344,0.168l1.138-2.734l-0.633,0.023l0.089-0.253l1.181-0.6l0.692,0.22l-1.657,4.194"/>
	<path id="path6980-9-2-7-3-3-8-1-1-50-8-3-6-8-7-81-8-5-6-3-9" inkscape:connector-curvature="0" d="M98.82,139.999
		c0.04-0.38,0.117-0.7,0.232-0.962c0.118-0.264,0.269-0.467,0.449-0.605c0.185-0.142,0.397-0.223,0.639-0.241
		c0.242-0.023,0.508,0.016,0.795,0.115c0.328,0.113,0.604,0.285,0.828,0.516c0.228,0.231,0.402,0.529,0.525,0.893
		c0.126,0.36,0.202,0.792,0.229,1.293c0.027,0.502,0.005,1.079-0.063,1.73c-0.074,0.715-0.199,1.296-0.375,1.742
		c-0.174,0.444-0.379,0.781-0.619,1.011c-0.238,0.227-0.391,0.191-0.678,0.229c-0.285,0.039-0.572-0.086-0.868-0.189
		c-0.26-0.089-0.493-0.272-0.697-0.385c-0.354-0.198-0.539-0.56-0.601-0.782v-1.534l1.048,0.844l0.074,0.44
		c-0.058,0.184-0.115,0.348-0.173,0.557c0.133,0.101,0.263,0.172,0.39,0.216c0.133,0.046,0.262,0.043,0.387-0.009
		c0.126-0.056,0.244-0.174,0.353-0.353c0.113-0.179,0.113-0.163,0.193-0.396c0.094-0.314,0.176-0.71,0.242-1.187
		c-0.143,0.016-0.287,0.017-0.434,0.004c-0.148-0.012-0.303-0.048-0.463-0.104c-0.246-0.085-0.465-0.211-0.658-0.377
		c-0.19-0.169-0.349-0.373-0.476-0.612c-0.125-0.241-0.212-0.518-0.264-0.829C98.786,140.711,98.781,140.37,98.82,139.999
		 M100.062,140.452c-0.03,0.287-0.041,0.537-0.031,0.751c0.013,0.211,0.042,0.388,0.085,0.533c0.046,0.146,0.105,0.261,0.179,0.349
		c0.076,0.083,0.163,0.143,0.262,0.177c0.215,0.074,0.43,0.115,0.645,0.121l0.008-0.077c0.111-1.064,0.146-1.883,0.104-2.455
		c-0.039-0.571-0.182-0.899-0.428-0.984c-0.219-0.076-0.396,0.022-0.53,0.297S100.123,139.866,100.062,140.452"/>
	<path id="path6982-2-9-5-7-6-9-6-5-48-0-6-6-4-9-7-1-6-0-1-3" inkscape:connector-curvature="0" d="M107.196,139.505
		c0.041,0.381-0.004,0.738-0.136,1.072c-0.131,0.33-0.336,0.613-0.613,0.85c0.164,0.007,0.318,0.04,0.46,0.1
		c0.143,0.06,0.268,0.147,0.377,0.264c0.107,0.113,0.197,0.256,0.268,0.43c0.072,0.171,0.119,0.373,0.145,0.604
		c0.071,0.659-0.039,1.22-0.329,1.681c-0.288,0.46-0.774,0.826-1.46,1.096c-0.65,0.257-1.155,0.286-1.517,0.089
		c-0.358-0.201-0.573-0.637-0.646-1.306c-0.025-0.229-0.022-0.448,0.004-0.657c0.029-0.214,0.08-0.412,0.153-0.597
		c0.076-0.189,0.172-0.364,0.287-0.525c0.115-0.164,0.249-0.313,0.402-0.446c-0.302-0.015-0.545-0.125-0.731-0.329
		c-0.186-0.205-0.3-0.502-0.342-0.89c-0.029-0.274-0.019-0.536,0.035-0.789c0.056-0.257,0.152-0.493,0.29-0.71
		c0.137-0.221,0.317-0.419,0.539-0.594c0.222-0.177,0.485-0.326,0.787-0.445c0.294-0.116,0.558-0.178,0.793-0.178
		c0.237-0.007,0.441,0.039,0.613,0.138c0.174,0.098,0.313,0.243,0.418,0.438c0.104,0.189,0.171,0.425,0.2,0.706 M106.432,143.325
		c-0.026-0.246-0.063-0.458-0.11-0.635c-0.045-0.181-0.104-0.324-0.177-0.429c-0.07-0.109-0.156-0.179-0.259-0.207
		c-0.099-0.032-0.219-0.021-0.358,0.033c-0.136,0.053-0.245,0.133-0.326,0.237c-0.079,0.1-0.139,0.227-0.178,0.379
		c-0.036,0.148-0.055,0.322-0.055,0.521c-0.003,0.196,0.011,0.417,0.038,0.662c0.025,0.236,0.058,0.441,0.099,0.617
		c0.04,0.172,0.092,0.311,0.156,0.415c0.066,0.101,0.146,0.167,0.239,0.198c0.096,0.027,0.212,0.014,0.349-0.04
		c0.139-0.056,0.252-0.132,0.337-0.23c0.088-0.104,0.153-0.227,0.197-0.37c0.046-0.148,0.071-0.317,0.075-0.507
		C106.465,143.775,106.455,143.561,106.432,143.325 M105.931,140.004c-0.02-0.188-0.048-0.357-0.082-0.51
		c-0.035-0.152-0.082-0.276-0.142-0.372c-0.057-0.101-0.128-0.166-0.212-0.198c-0.081-0.037-0.18-0.032-0.295,0.014
		c-0.113,0.044-0.201,0.113-0.266,0.207c-0.064,0.091-0.111,0.203-0.14,0.338c-0.03,0.131-0.045,0.279-0.045,0.445
		c0.004,0.165,0.014,0.342,0.032,0.529c0.022,0.201,0.049,0.379,0.081,0.532c0.035,0.151,0.079,0.275,0.133,0.37
		c0.053,0.094,0.118,0.156,0.196,0.188s0.173,0.024,0.285-0.021c0.115-0.045,0.208-0.112,0.275-0.2
		c0.071-0.09,0.123-0.198,0.155-0.327c0.035-0.13,0.054-0.277,0.055-0.444C105.965,140.389,105.953,140.205,105.931,140.004"/>
	<path id="path6984-1-7-6-7-2-3-3-2-1-2-1-9-8-4-3-8-0-9-08-1" inkscape:connector-curvature="0" d="M110.721,141.586l0.055,0.085
		l0.06,0.251l-1.523,1.732l-0.144-0.543l0.295-0.722l-0.708-3.441l-0.456,0.509l-0.198-0.715l0.858-1.039l0.508-0.17l0.947,4.133"/>
	<path id="path4298-01-3-9-0-1-1-0-1-2-3-0-4-7-9-8-0-0-7-9-4-5-7-9-7-5-59-8" inkscape:connector-curvature="0" fill="#222222" d="
		M124.977,96.723c-0.043,0.005-0.089,0.002-0.13,0.012v0.007c-0.623,0.134-0.986,0.618-0.952,1.287
		c0.014,0.549,0.582,1.164,1.213,1.083c0.224-0.029,0.422-0.113,0.584-0.238l1.556,1.382l0.105,3.308l-0.013,0.021l4.26,3.527
		l-0.579,5.732l1.435,1.273l0.274-0.519l-1.156-0.977l0.583-5.802l0.013-0.008l-4.306-3.539l-0.142-3.271l-1.674-1.589
		c0.073-0.182,0.104-0.395,0.082-0.626C126.063,97.065,125.526,96.686,124.977,96.723L124.977,96.723z M124.977,97.298
		c0.309-0.033,0.582,0.21,0.612,0.534s-0.196,0.612-0.505,0.646c-0.309,0.032-0.576-0.204-0.605-0.528
		C124.448,97.626,124.668,97.331,124.977,97.298L124.977,97.298z M125.185,100.417c-0.042,0-0.087,0.008-0.13,0.012
		c-0.044,0.005-0.082,0.002-0.124,0.013c-0.622,0.134-0.875,0.646-0.854,1.262c0.03,0.51,0.451,0.918,0.936,1.013l0.071,1.428
		l4.694,3.864l-0.534,6.023c-0.159,0.146-0.259,0.346-0.313,0.575l-0.215,0.365l-0.98,7.263l0.639-0.978l0.744-5.421
		c0.212,0.293,0.538,0.431,0.855,0.415c0.691-0.036,1.108-0.596,1.068-1.321c-0.036-0.626-0.592-1.094-1.179-1.035
		c-0.016,0.003-0.038-0.014-0.059-0.031l0.023-0.056l0.529-6.024l-4.823-3.962l-0.053-1.113c0.539-0.135,0.823-0.681,0.785-1.204
		C126.225,100.93,125.805,100.418,125.185,100.417L125.185,100.417z M129.897,100.485c-0.043,0.005-0.089,0.002-0.13,0.013
		c-0.623,0.134-0.894,0.647-0.86,1.297c0.027,0.295,0.126,0.527,0.279,0.692l0.013,0.007c0.061,0.063,0.126,0.112,0.201,0.155
		l4.048,3.418l-0.004-0.657l-3.051-2.694c0.444-0.174,0.763-0.614,0.706-1.229C131.032,100.763,130.531,100.453,129.897,100.485
		L129.897,100.485z M125.12,100.994c0.309-0.032,0.582,0.211,0.612,0.534c0.03,0.324-0.196,0.612-0.505,0.646
		c-0.309,0.032-0.582-0.204-0.612-0.527C124.586,101.322,124.812,101.027,125.12,100.994z M129.969,101.043
		c0.309-0.033,0.582,0.21,0.612,0.533c0.03,0.324-0.196,0.612-0.505,0.646s-0.582-0.203-0.612-0.527S129.66,101.076,129.969,101.043
		z M125.956,106.329c-0.043,0.005-0.089,0.002-0.13,0.013c-0.623,0.134-0.968,0.662-0.905,1.34c0.067,0.723,0.554,1.052,1.178,1.016
		c0.359-0.021,0.626-0.165,0.801-0.405l1.122,0.937l-0.395,3.746l-0.612,0.95l-1.13,10.276l0.645-0.802l1.045-9.328l0.577-0.799
		l0.435-4.281l-1.479-1.249c0.014-0.104,0.02-0.212,0.014-0.329C127.092,106.751,126.645,106.255,125.956,106.329L125.956,106.329z
		 M125.984,106.929c0.309-0.031,0.582,0.211,0.612,0.534c0.029,0.324-0.197,0.612-0.506,0.646c-0.309,0.032-0.582-0.204-0.611-0.527
		C125.449,107.257,125.675,106.962,125.984,106.929z M125.916,109.773c-0.043,0.005-0.089,0.002-0.131,0.012
		c-0.622,0.134-0.904,0.711-0.874,1.263c-0.004,0.394,0.208,0.801,0.59,0.987l-1.615,14.124l0.597-0.608l1.563-13.423
		c0.435-0.037,0.999-0.415,0.993-1.221C127.033,110.152,126.457,109.735,125.916,109.773L125.916,109.773z M125.91,110.354
		c0.309-0.032,0.575,0.211,0.605,0.534c0.03,0.324-0.189,0.612-0.498,0.645c-0.309,0.033-0.582-0.203-0.612-0.527
		S125.602,110.387,125.91,110.354z M129.936,114.454c0.309-0.032,0.582,0.211,0.612,0.534c0.042,0.401-0.208,0.66-0.517,0.693
		c-0.308,0.032-0.611-0.27-0.594-0.576C129.407,114.781,129.627,114.486,129.936,114.454z"/>
	<path id="path25330-0-4-8-7-8-8" inkscape:connector-curvature="0" stroke="#E6E6E6" stroke-width="0.4958" d="M82.716,80.282
		c0,0,6.698,3.114,16.573,2.887c10.715-0.245,20.155-3.597,20.155-3.597s-8.7-5.403-18.364-5.236
		C89.68,74.534,82.716,80.282,82.716,80.282z"/>
	<path id="path25340-5-5-8-9-4-6" inkscape:connector-curvature="0" fill="#00E3FF" stroke="#E6E6E6" stroke-width="0.4958" d="
		M97.216,72.174v-4.312c6.679,1.482,16.236,1.374,23.313-0.05l-0.05,8.978c0,0-7.492-3.943-13.78-4.678
		C102.485,71.619,97.216,72.174,97.216,72.174L97.216,72.174z"/>
	<path id="path25350-5-3-7-9-0-1" inkscape:connector-curvature="0" stroke="#E6E6E6" stroke-width="0.4958" d="M90.481,73.911
		v-3.216c1.353,0.299,2.909,0.543,4.329,0.594l-0.05,1.336C93.482,72.909,91.891,73.367,90.481,73.911z"/>
	<path id="path25352-6-0-8-6-5-8" inkscape:connector-curvature="0" stroke="#E6E6E6" stroke-width="0.4958" d="M74.498,120.302
		l0.132-32.191c0,0-5.265,6.376-4.997,16.604C69.869,113.758,74.498,120.302,74.498,120.302z"/>
	<path id="path25354-9-7-6-6-0-4" inkscape:connector-curvature="0" stroke="#E6E6E6" stroke-width="0.4958" d="M77.644,128.046
		l5.771,4.255c1.805,7.185,7.584,12.042,13.833,16.627l-3.185,1.979C85.074,144.817,80.28,136.901,77.644,128.046z"/>
	<g id="text31669-8" transform="matrix(-0.154401,0.28951641,-0.28951641,-0.154401,546.31596,1997.3979)">
		<path id="path3244" fill="#216778" d="M-4325.466,3929.527l0.349,0.059l-0.015,1.161l7.745,1.349l0.361-1.101l0.349,0.06
			l-0.595,3.527l-0.348-0.059l0.019-1.159l-3.452-0.603l-0.7,4.146l3.454,0.6l0.361-1.1l0.346,0.062l-0.592,3.52l-0.348-0.059
			l0.021-1.162l-7.749-1.347l-0.365,1.099l-0.349-0.06l0.594-3.521l0.347,0.063l-0.013,1.159l3.703,0.644l0.698-4.143l-3.703-0.644
			l-0.365,1.099l-0.349-0.06L-4325.466,3929.527"/>
		<path id="path3246" fill="#216778" d="M-4327.436,3941.931l-0.34-0.087l0.704-2.849l0.342,0.085l-0.069,1.027l7.476,5.031
			l-0.306,1.229l-8.963,0.992l-0.446,1.054l-0.342-0.085l0.906-3.666l0.343,0.087l-0.115,1.208l2.709-0.227l0.844-3.414l-2.28-1.505
			L-4327.436,3941.931 M-4320.329,3945.208l-3.832-2.549l-0.746,3.017L-4320.329,3945.208"/>
		<path id="path3248" fill="#216778" d="M-4331.502,3956.488l-0.501,1.097l-3.094-1.159l0.135-0.411l2.976,0.248l2.458-7.453
			l0.333,0.113l-0.186,1.143l7.458,2.505l0.523-1.031l0.336,0.112l-1.124,3.396l-0.333-0.112l0.193-1.144l-7.396-2.483l-1.313,3.989
			l7.396,2.483l0.522-1.032l0.333,0.114l-1.115,3.386l-0.335-0.111l0.196-1.144L-4331.502,3956.488"/>
		<path id="path3250" fill="#216778" d="M-4333.133,3960.678l-0.584,0.998l-0.33-0.131l1.306-3.319l0.326,0.131l-0.253,1.132
			l7.312,2.919l0.582-1.002l0.324,0.133l-1.303,3.319l-0.327-0.133l0.258-1.129L-4333.133,3960.678"/>
		<path id="path3252" fill="#216778" d="M-4330.915,3965.697c-0.562-0.264-1.091-0.459-1.586-0.584
			c-0.491-0.131-0.948-0.165-1.364-0.109c-0.416,0.055-0.792,0.215-1.131,0.478c-0.331,0.266-0.619,0.662-0.859,1.185
			c-0.241,0.523-0.355,0.999-0.339,1.426c0.017,0.429,0.141,0.822,0.366,1.179c0.228,0.358,0.545,0.688,0.963,0.984
			c0.417,0.295,0.907,0.575,1.469,0.839c0.56,0.26,1.085,0.454,1.576,0.578c0.489,0.125,0.938,0.158,1.349,0.094
			c0.412-0.056,0.784-0.219,1.113-0.487c0.326-0.267,0.611-0.662,0.852-1.186c0.24-0.523,0.355-0.997,0.347-1.423
			c-0.011-0.426-0.128-0.816-0.35-1.169c-0.221-0.351-0.535-0.674-0.946-0.971
			C-4329.87,3966.234-4330.355,3965.957-4330.915,3965.697 M-4330.334,3964.433c0.715,0.334,1.292,0.709,1.733,1.125
			c0.439,0.418,0.75,0.875,0.934,1.365c0.185,0.492,0.245,1.021,0.177,1.591c-0.063,0.565-0.242,1.166-0.536,1.803
			c-0.282,0.616-0.618,1.131-1.002,1.543c-0.388,0.418-0.825,0.717-1.324,0.902c-0.493,0.183-1.045,0.247-1.645,0.186
			c-0.604-0.059-1.264-0.259-1.981-0.591c-0.715-0.335-1.295-0.714-1.739-1.142c-0.439-0.425-0.751-0.89-0.938-1.391
			c-0.184-0.502-0.25-1.037-0.19-1.609c0.059-0.566,0.228-1.154,0.513-1.771c0.282-0.616,0.619-1.129,1.006-1.54
			c0.396-0.409,0.839-0.704,1.339-0.886c0.502-0.185,1.056-0.246,1.663-0.184C-4331.714,3963.9-4331.051,3964.1-4330.334,3964.433"
			/>
		<path id="path3254" fill="#216778" d="M-4338.463,3971.327l0.307,0.172l-0.398,1.088l6.866,3.862l0.706-0.915l0.309,0.174
			l-1.736,3.12l-0.309-0.174l0.407-1.084l-3.063-1.721l-2.039,3.666l3.06,1.722l0.707-0.913l0.308,0.172l-1.731,3.116l-0.308-0.173
			l0.405-1.086l-6.863-3.862l-0.715,0.911l-0.308-0.172l1.731-3.116l0.308,0.173l-0.398,1.088l3.281,1.846l2.039-3.666l-3.282-1.847
			l-0.714,0.914l-0.306-0.176L-4338.463,3971.327"/>
		<path id="path3256" fill="#216778" d="M-4344.453,3982.341l-0.293-0.196l1.613-2.446l0.296,0.195l-0.408,0.943l5.383,7.24
			l-0.696,1.054l-8.795-2.072l-0.771,0.843l-0.294-0.197l2.077-3.145l0.293,0.196l-0.51,1.1l2.633,0.692l1.937-2.927l-1.655-2.18
			L-4344.453,3982.341 M-4338.833,3987.806l-2.768-3.685l-1.711,2.591L-4338.833,3987.806"/>
		<path id="path3258" fill="#216778" d="M-4349.322,3988.65c0.122-0.158,0.258-0.288,0.409-0.397
			c0.144-0.103,0.301-0.176,0.459-0.215l1.17,0.853l-0.184,0.237l-0.66-0.117c-0.105-0.001-0.203,0.024-0.288,0.068
			c-0.088,0.05-0.165,0.115-0.226,0.196c-0.114,0.147-0.146,0.338-0.094,0.576c0.052,0.244,0.209,0.551,0.468,0.922
			c0.261,0.375,0.639,0.825,1.132,1.351c0.488,0.529,1.119,1.149,1.89,1.861l1.514,1.409l0.836-0.798l0.278,0.218l-4.225,5.468
			l-0.278-0.218l0.563-1.012l-6.219-4.843l-0.842,0.793l-0.278-0.218l2.178-2.818l0.278,0.218l-0.553,1.013l6.159,4.801l1.632-2.113
			l-1.528-1.417c-0.791-0.736-1.463-1.397-2.021-1.987c-0.556-0.587-0.99-1.116-1.302-1.587c-0.305-0.47-0.485-0.89-0.534-1.26
			C-4349.635,3989.271-4349.547,3988.942-4349.322,3988.65"/>
		<path id="path3260" fill="#216778" d="M-4356.338,4001.204c0.227,0.204,0.456,0.361,0.682,0.468
			c0.228,0.104,0.458,0.15,0.696,0.128c0.239-0.013,0.485-0.097,0.738-0.249c0.251-0.149,0.516-0.38,0.791-0.692l0.678-0.766
			l-2.812-2.509l-0.653,0.736c-0.275,0.312-0.481,0.597-0.615,0.858c-0.136,0.258-0.205,0.502-0.208,0.729
			c-0.006,0.235,0.053,0.454,0.171,0.663C-4356.755,4000.784-4356.578,4000.995-4356.338,4001.204 M-4353.192,4001.493
			c-0.406,0.459-0.794,0.794-1.17,1.012c-0.377,0.216-0.732,0.34-1.07,0.372c-0.337,0.033-0.653-0.016-0.95-0.143
			c-0.298-0.121-0.569-0.295-0.818-0.515c-0.252-0.227-0.455-0.479-0.601-0.76c-0.15-0.274-0.225-0.58-0.224-0.918
			c0.005-0.338,0.096-0.706,0.277-1.106c0.179-0.397,0.478-0.83,0.89-1.298l2.449-2.763l0.263,0.234l-0.626,0.97l5.882,5.249
			l0.836-0.672l0.265,0.237l-2.489,2.81l-0.264-0.236l0.805-1.179l-2.571-2.291l-0.884,0.999"/>
		<path id="path3262" fill="#216778" d="M-4359.583,4001.228l0.249,0.252l-0.691,0.93l5.509,5.643l0.938-0.677l0.247,0.253
			l-2.546,2.5l-0.247-0.254l0.694-0.924l-2.456-2.517l-2.991,2.936l2.456,2.517l0.938-0.677l0.247,0.255l-2.54,2.493l-0.246-0.253
			l0.692-0.922l-5.507-5.646l-0.94,0.672l-0.246-0.253l2.539-2.494l0.247,0.253l-0.689,0.929l2.633,2.698l2.989-2.935l-2.633-2.698
			l-0.941,0.671l-0.247-0.253L-4359.583,4001.228"/>
		<path id="path3264" fill="#216778" d="M-4366.619,4008.092l0.226,0.272l-0.759,0.872l5.059,6.052l0.985-0.6l0.229,0.271
			l-2.733,2.294l-0.226-0.272l0.761-0.868l-4.147-4.961l0.769,7.449l0.17,0.206l0.988-0.601l0.229,0.271l-2.726,2.289l-0.229-0.271
			l0.762-0.868l-5.057-6.053l-0.988,0.595l-0.231-0.27l2.729-2.289l0.226,0.272l-0.759,0.872l4.203,5.028l-0.769-7.449l-0.226-0.272
			l-0.991,0.596l-0.225-0.271L-4366.619,4008.092"/>
		<path id="path3266" fill="#216778" d="M-4374.172,4014.391l0.208,0.288l-0.826,0.811l4.583,6.422l1.029-0.524l0.205,0.289
			l-2.898,2.073l-0.205-0.289l0.826-0.803l-3.753-5.266l0.191,7.486l0.156,0.217l1.03-0.522l0.207,0.287l-2.896,2.07l-0.205-0.289
			l0.829-0.805l-4.582-6.422l-1.033,0.517l-0.207-0.286l2.895-2.073l0.205,0.29l-0.823,0.81l3.807,5.335l-0.193-7.485l-0.208-0.288
			l-1.036,0.519l-0.204-0.287L-4374.172,4014.391 M-4372.212,4024.94c0.398-0.285,0.755-0.48,1.068-0.583
			c0.308-0.1,0.585-0.135,0.829-0.103c0.247,0.039,0.463,0.129,0.652,0.274c0.19,0.141,0.361,0.315,0.518,0.515l-0.886,0.635
			c-0.288-0.357-0.595-0.565-0.917-0.624c-0.325-0.059-0.654,0.032-0.991,0.274c-0.334,0.239-0.528,0.521-0.578,0.846
			c-0.051,0.328,0.048,0.685,0.293,1.073l-0.887,0.633c-0.139-0.211-0.246-0.43-0.32-0.657c-0.073-0.224-0.088-0.462-0.042-0.71
			c0.045-0.238,0.167-0.49,0.367-0.754C-4372.912,4025.5-4372.614,4025.225-4372.212,4024.94"/>
		<path id="path3268" fill="#216778" d="M-4386.536,4022.736l0.176,0.306l-1.135,0.863l3.914,6.796l0.294-0.169
			c0.5-0.289,0.915-0.542,1.246-0.764c0.325-0.219,0.553-0.386,0.679-0.499l-0.543-1.297l0.387-0.223l1.049,1.822l-6.789,3.911
			l-1.049-1.822l0.393-0.226l0.851,1.121c0.078-0.026,0.191-0.073,0.334-0.139c0.14-0.066,0.306-0.148,0.49-0.245
			c0.188-0.092,0.387-0.198,0.606-0.318c0.213-0.112,0.432-0.234,0.653-0.362l0.284-0.163l-3.908-6.784l-1.313,0.548l-0.177-0.307
			l3.558-2.051"/>
		<path id="path3270" fill="#216778" d="M-4392.123,4026.334l-0.944,0.664l3.482,7.08l1.103-0.349l0.156,0.318l-5.995,2.946
			l-0.944-1.923l0.393-0.193l0.829,1.207c0.137-0.048,0.299-0.11,0.487-0.187c0.186-0.075,0.372-0.157,0.56-0.246
			c0.189-0.082,0.367-0.166,0.536-0.249c0.167-0.078,0.297-0.138,0.391-0.185l1.304-0.642l-1.544-3.136l-2.157,1.059l0.287,1.05
			l-0.379,0.187l-1.215-2.469l0.382-0.187l0.662,0.88l2.157-1.059l-1.613-3.277l-1.574,0.774c-0.246,0.121-0.477,0.238-0.694,0.348
			c-0.212,0.115-0.406,0.22-0.575,0.313c-0.172,0.095-0.316,0.179-0.434,0.25c-0.123,0.074-0.209,0.133-0.262,0.173l0.392,1.651
			l-0.393,0.194l-0.931-2.175l6.379-3.135L-4392.123,4026.334"/>
		<path id="path3272" fill="#216778" d="M-4401.128,4030.82l-1.089,0.247l-0.134-0.328l2.697-1.091l0.132,0.33l-0.841,0.535
			l-1.289,4.883l3.839,2.594l0.995-0.215l0.135,0.328l-3.405,1.376l-0.134-0.327l0.983-0.585l-2.75-1.868l-0.877,3.333l1.087-0.251
			l0.135,0.328l-2.703,1.092l-0.132-0.327l0.844-0.529l1.06-4.043l-4.542-3.059l-1.003,0.212l-0.133-0.329l3.404-1.375l0.134,0.327
			l-0.98,0.592l3.471,2.34L-4401.128,4030.82"/>
		<path id="path3274" fill="#216778" d="M-4408.866,4033.34l0.107,0.337l-1.036,0.515l2.39,7.517l1.141-0.178l0.106,0.338
			l-3.4,1.073l-0.105-0.337l1.036-0.509l-1.064-3.352l-3.996,1.261l1.064,3.35l1.141-0.177l0.108,0.335l-3.395,1.072l-0.105-0.337
			l1.037-0.509l-2.39-7.517l-1.144,0.171l-0.108-0.337l3.395-1.072l0.106,0.338l-1.034,0.516l1.141,3.593l3.996-1.261l-1.141-3.594
			l-1.144,0.173l-0.107-0.337L-4408.866,4033.34"/>
		<path id="path3276" fill="#216778" d="M-4420.573,4037.34l-1.151,0.106l-0.088-0.343l3.449-0.876l0.089,0.344l-1.063,0.455
			l1.959,7.641l1.15-0.114l0.088,0.343l-3.45,0.877l-0.087-0.343l1.063-0.449L-4420.573,4037.34"/>
		<path id="path3278" fill="#216778" d="M-4430.563,4038.923l3.622-0.72l0.069,0.349l-1.214,0.423l0.592,2.938
			c0.109-0.068,0.247-0.15,0.417-0.248c0.167-0.091,0.35-0.186,0.545-0.284c0.198-0.094,0.404-0.182,0.617-0.265
			c0.214-0.082,0.42-0.145,0.621-0.184c0.447-0.088,0.84-0.111,1.178-0.07c0.333,0.043,0.622,0.154,0.865,0.332
			c0.24,0.185,0.441,0.438,0.6,0.759c0.16,0.321,0.289,0.718,0.382,1.19l0.528,2.616l1.025-0.027l0.069,0.348l-3.36,0.666
			l-0.07-0.347l1.086-0.392l-0.524-2.609c-0.067-0.327-0.153-0.608-0.259-0.839c-0.105-0.23-0.238-0.409-0.399-0.541
			c-0.167-0.13-0.367-0.214-0.599-0.25c-0.237-0.034-0.516-0.018-0.837,0.043c-0.158,0.032-0.316,0.072-0.479,0.122
			c-0.166,0.056-0.324,0.114-0.479,0.178c-0.159,0.063-0.307,0.126-0.444,0.189c-0.139,0.064-0.264,0.121-0.373,0.17l0.854,4.238
			l1.156-0.053l0.07,0.347l-3.493,0.692l-0.07-0.347l1.087-0.391l-1.557-7.732l-1.156,0.046L-4430.563,4038.923"/>
		<path id="path3280" fill="#216778" d="M-4431.344,4039.065l0.043,0.353l-1.112,0.316l0.986,7.823l1.154,0.033l0.045,0.35
			l-3.541,0.433l-0.045-0.35l1.113-0.31l-0.44-3.488l-4.16,0.508l0.438,3.488l1.156,0.035l0.044,0.349l-3.534,0.433l-0.044-0.351
			l1.113-0.31l-0.986-7.823l-1.156-0.04l-0.044-0.351l3.534-0.432l0.043,0.35l-1.111,0.318l0.47,3.74l4.161-0.509l-0.473-3.739
			l-1.155-0.04l-0.045-0.35L-4431.344,4039.065"/>
		<path id="path3282" fill="#216778" d="M-4441.11,4040.229l0.017,0.354l-1.134,0.229l0.377,7.873l1.149,0.124l0.017,0.354
			l-3.564,0.154l-0.017-0.354l1.133-0.222l-0.307-6.454l-3.895,6.369l0.011,0.267l1.151,0.122l0.015,0.354l-3.558,0.153
			l-0.016-0.352l1.133-0.223l-0.375-7.873l-1.148-0.13l-0.017-0.354l3.558-0.153l0.016,0.352l-1.133,0.229l0.312,6.542l3.895-6.371
			l-0.018-0.353l-1.15-0.129l-0.017-0.354L-4441.11,4040.229"/>
		<path id="path3284" fill="#216778" d="M-4450.941,4040.625l-0.012,0.354l-1.147,0.138l-0.241,7.877l1.137,0.213l-0.012,0.354
			l-3.566-0.129l0.012-0.352l1.146-0.134l0.201-6.455l-4.382,6.039l-0.01,0.266l1.138,0.215l-0.011,0.353l-3.561-0.127l0.011-0.353
			l1.147-0.133l0.243-7.874l-1.137-0.222l0.011-0.353l3.562,0.126l-0.011,0.355l-1.147,0.138l-0.202,6.543l4.382-6.04l0.011-0.353
			l-1.136-0.22l0.011-0.353l3.568,0.126 M-4455.779,4050.164c0.492,0.018,0.896,0.08,1.207,0.189
			c0.306,0.109,0.548,0.251,0.723,0.426c0.173,0.179,0.29,0.383,0.354,0.614c0.065,0.229,0.096,0.47,0.097,0.722l-1.09-0.038
			c-0.012-0.459-0.13-0.811-0.354-1.054c-0.221-0.243-0.539-0.372-0.952-0.386c-0.412-0.017-0.737,0.091-0.973,0.318
			c-0.239,0.227-0.378,0.569-0.418,1.026l-1.089-0.038c0.017-0.253,0.065-0.492,0.142-0.715c0.079-0.226,0.211-0.42,0.398-0.587
			c0.18-0.162,0.431-0.287,0.749-0.374C-4456.673,4050.182-4456.27,4050.147-4455.779,4050.164"/>
		<path id="path3286" fill="#216778" d="M-4466.331,4048.112l0.969,0.313l-0.046,0.35l-3.67-0.519l0.048-0.349l1.143-0.013
			l-1.98-4.937l-2.965,4.238l0.963,0.311l-0.047,0.351l-2.606-0.369l0.047-0.351l0.858-0.053l3.634-5.058
			c0.321-0.448,0.616-0.844,0.885-1.187c0.265-0.338,0.529-0.621,0.787-0.845c0.259-0.222,0.524-0.383,0.795-0.479
			c0.27-0.092,0.568-0.114,0.896-0.068c0.197,0.028,0.39,0.082,0.575,0.162c0.186,0.08,0.337,0.17,0.452,0.272l-0.156,1.599
			l-0.297-0.041l-0.235-0.685c-0.061-0.113-0.147-0.205-0.257-0.28c-0.115-0.074-0.235-0.121-0.356-0.137
			c-0.158-0.022-0.313-0.01-0.469,0.034c-0.158,0.045-0.318,0.127-0.482,0.249c-0.169,0.119-0.342,0.277-0.521,0.472
			c-0.178,0.198-0.369,0.441-0.567,0.726L-4466.331,4048.112"/>
		<path id="path3288" fill="#216778" d="M-4473.729,4038.55l-0.073,0.346l-1.155-0.072l-1.654,7.698l1.082,0.415l-0.073,0.346
			l-3.49-0.77l0.075-0.345l1.155,0.077l0.736-3.432l-4.101-0.903l-0.737,3.431l1.082,0.415l-0.074,0.345l-3.483-0.769l0.074-0.345
			l1.154,0.077l1.654-7.696l-1.08-0.422l0.073-0.346l3.483,0.769l-0.074,0.345l-1.154-0.071l-0.79,3.68l4.1,0.904l0.789-3.679
			l-1.08-0.421l0.076-0.345L-4473.729,4038.55"/>
		<path id="path3290" fill="#216778" d="M-4485.894,4036.167l-1.054-0.484l0.093-0.34l3.434,0.965l-0.091,0.341l-1.151-0.137
			l-2.086,7.587l1.057,0.477l-0.094,0.34l-3.435-0.964l0.095-0.341l1.147,0.142l2.084-7.588"/>
		<path id="path3292" fill="#216778" d="M-4495.527,4039.631c-0.083,0.249-0.118,0.478-0.106,0.687
			c0.011,0.21,0.077,0.403,0.201,0.581c0.122,0.181,0.303,0.346,0.543,0.494c0.24,0.152,0.548,0.293,0.926,0.42l1.305,0.444
			l1.069-3.201l-1.38-0.469c-0.39-0.131-0.729-0.202-1.011-0.21c-0.285-0.003-0.524,0.045-0.721,0.142
			c-0.203,0.1-0.366,0.246-0.497,0.437C-4495.331,4039.145-4495.441,4039.371-4495.527,4039.631 M-4494.829,4035.412
			c-0.099,0.294-0.135,0.565-0.11,0.814c0.021,0.244,0.11,0.471,0.264,0.679c0.15,0.212,0.372,0.402,0.665,0.578
			c0.291,0.179,0.657,0.343,1.099,0.492l1.512,0.514l1.188-3.56c-0.19-0.075-0.39-0.149-0.599-0.224
			c-0.177-0.071-0.376-0.145-0.593-0.223c-0.218-0.074-0.436-0.147-0.649-0.221c-0.396-0.135-0.745-0.203-1.047-0.207
			c-0.302-0.006-0.565,0.043-0.786,0.148c-0.228,0.104-0.416,0.261-0.57,0.466
			C-4494.607,4034.873-4494.732,4035.122-4494.829,4035.412 M-4487.721,4035.142l-0.111,0.334l-1.142-0.199l-2.49,7.463l1.029,0.532
			l-0.112,0.334l-3.864-1.314c-0.593-0.201-1.072-0.415-1.435-0.641c-0.365-0.223-0.639-0.462-0.822-0.715
			c-0.181-0.254-0.282-0.522-0.299-0.805c-0.019-0.279,0.022-0.572,0.125-0.878c0.087-0.266,0.212-0.494,0.374-0.68
			c0.158-0.192,0.341-0.344,0.553-0.459c0.206-0.115,0.437-0.19,0.687-0.231c0.251-0.038,0.511-0.04,0.782-0.009
			c-0.353-0.163-0.657-0.348-0.916-0.557c-0.262-0.209-0.465-0.44-0.614-0.686c-0.147-0.242-0.236-0.503-0.266-0.779
			c-0.034-0.279,0-0.564,0.096-0.861c0.124-0.366,0.297-0.682,0.527-0.946c0.223-0.26,0.504-0.456,0.84-0.584
			c0.337-0.124,0.734-0.177,1.19-0.159c0.455,0.025,0.977,0.137,1.565,0.336c0.47,0.161,0.938,0.326,1.398,0.497
			c0.463,0.172,0.893,0.323,1.287,0.459L-4487.721,4035.142"/>
		<path id="path3294" fill="#216778" d="M-4496.468,4032.499l-1.125-0.277l-3,7.268l0.989,0.603l-0.135,0.326l-6.179-2.589
			l0.814-1.974l0.406,0.17l-0.354,1.418c0.124,0.071,0.278,0.152,0.46,0.244c0.179,0.088,0.364,0.177,0.555,0.26
			c0.189,0.09,0.369,0.169,0.542,0.242c0.169,0.077,0.302,0.134,0.396,0.173l1.344,0.563l1.332-3.221l-2.224-0.932l-0.596,0.903
			l-0.393-0.165l1.045-2.534l0.393,0.165l-0.221,1.075l2.223,0.933l1.389-3.363l-1.621-0.68c-0.254-0.107-0.495-0.205-0.722-0.295
			c-0.228-0.086-0.434-0.163-0.617-0.231c-0.184-0.067-0.341-0.122-0.474-0.162c-0.136-0.042-0.237-0.071-0.303-0.084l-0.979,1.379
			l-0.406-0.17l1.016-2.128l6.579,2.757L-4496.468,4032.499"/>
		<path id="path3296" fill="#216778" d="M-4511.541,4032.189c-0.156,0.319-0.256,0.612-0.297,0.876
			c-0.043,0.266-0.023,0.512,0.063,0.735c0.08,0.229,0.23,0.442,0.45,0.642c0.22,0.197,0.516,0.389,0.889,0.573l0.585,0.29
			l1.857-3.792l-0.62-0.309c-0.374-0.185-0.708-0.296-1-0.333c-0.3-0.034-0.566-0.005-0.799,0.087
			c-0.237,0.09-0.447,0.24-0.629,0.452C-4511.223,4031.624-4511.39,4031.883-4511.541,4032.189 M-4507.727,4030.979l1.304-2.665
			l-1.191-0.792l0.155-0.317l3.372,1.674l-0.156,0.316l-1.028-0.308l-3.458,7.059l0.95,0.665l-0.156,0.318l-3.02-1.5
			c-0.561-0.278-0.998-0.572-1.312-0.881c-0.32-0.306-0.54-0.624-0.663-0.952c-0.123-0.324-0.162-0.652-0.117-0.985
			c0.045-0.336,0.148-0.667,0.31-0.998c0.159-0.328,0.362-0.617,0.606-0.874c0.24-0.256,0.526-0.446,0.862-0.566
			c0.333-0.122,0.718-0.162,1.154-0.118c0.439,0.046,0.934,0.204,1.482,0.476L-4507.727,4030.979"/>
		<path id="path3298" fill="#216778" d="M-4515.01,4022.954c0.628,0.365,1.14,0.781,1.535,1.247
			c0.388,0.462,0.658,0.959,0.808,1.493c0.146,0.531,0.17,1.087,0.07,1.671c-0.101,0.587-0.327,1.183-0.676,1.791
			c-0.397,0.691-0.832,1.24-1.299,1.644c-0.471,0.403-0.972,0.67-1.5,0.804c-0.533,0.136-1.095,0.139-1.683,0.014
			c-0.589-0.128-1.2-0.375-1.839-0.746c-0.263-0.155-0.509-0.309-0.731-0.463c-0.226-0.152-0.437-0.303-0.631-0.453
			c-0.201-0.153-0.387-0.302-0.56-0.449c-0.172-0.146-0.337-0.291-0.495-0.432l0.937-1.71l0.38,0.222l-0.404,1.102
			c0.175,0.322,0.413,0.63,0.72,0.927c0.301,0.298,0.634,0.554,1.003,0.769c0.45,0.261,0.887,0.433,1.311,0.515
			c0.421,0.081,0.832,0.051,1.234-0.088c0.401-0.136,0.799-0.393,1.193-0.776c0.386-0.38,0.772-0.902,1.152-1.568
			c0.336-0.584,0.567-1.129,0.688-1.637c0.121-0.504,0.146-0.97,0.073-1.396c-0.074-0.421-0.241-0.804-0.503-1.145
			c-0.264-0.343-0.613-0.641-1.051-0.896c-0.238-0.136-0.474-0.253-0.707-0.348c-0.235-0.097-0.462-0.172-0.677-0.226
			c-0.22-0.055-0.421-0.091-0.607-0.108c-0.192-0.012-0.36-0.01-0.504,0.009l-0.876,1.027l-0.374-0.217l1.078-1.796
			c0.189,0.048,0.399,0.109,0.633,0.184c0.232,0.079,0.476,0.168,0.73,0.269c0.254,0.104,0.517,0.219,0.784,0.35
			C-4515.533,4022.664-4515.27,4022.804-4515.01,4022.954"/>
		<path id="path3300" fill="#216778" d="M-4518.835,4020.867l-0.198,0.289l-1.047-0.499l-4.409,6.5l0.849,0.792l-0.199,0.292
			l-2.953-2.024l0.197-0.291l1.043,0.504l3.615-5.33l-6.937,2.732l-0.149,0.221l0.851,0.791l-0.199,0.292l-2.948-2.02l0.199-0.292
			l1.042,0.505l4.411-6.501l-0.847-0.797l0.199-0.292l2.949,2.021l-0.2,0.29l-1.045-0.5l-3.665,5.402l6.938-2.731l0.198-0.292
			l-0.845-0.797l0.197-0.291L-4518.835,4020.867"/>
		<path id="path3302" fill="#216778" d="M-4528.282,4014.18l-0.219,0.275l-1.223-0.741l-4.832,6.13l0.265,0.211
			c0.457,0.363,0.848,0.657,1.175,0.881c0.326,0.226,0.564,0.377,0.714,0.45l1.001-0.979l0.351,0.279l-1.295,1.644l-6.161-4.896
			l1.295-1.644l0.355,0.283l-0.718,1.203c0.052,0.062,0.135,0.149,0.252,0.26c0.113,0.105,0.25,0.228,0.408,0.366
			c0.155,0.14,0.329,0.29,0.521,0.448c0.187,0.16,0.38,0.318,0.582,0.479l0.257,0.204l4.823-6.121l-1-1.025l0.217-0.277l3.233,2.568
			"/>
		<path id="path3304" fill="#216778" d="M-4533.704,4010.289l-0.971-0.638l-5.253,5.836l0.736,0.899l-0.237,0.261l-4.972-4.506
			l1.426-1.585l0.326,0.295l-0.805,1.216c0.092,0.107,0.212,0.236,0.354,0.383c0.14,0.145,0.286,0.289,0.438,0.431
			c0.148,0.149,0.292,0.286,0.43,0.411c0.135,0.127,0.24,0.226,0.317,0.295l1.082,0.981l2.331-2.587l-1.791-1.622l-0.865,0.65
			l-0.316-0.287l1.832-2.034l0.317,0.288l-0.567,0.938l1.789,1.621l2.432-2.7l-1.305-1.183c-0.205-0.184-0.398-0.358-0.582-0.519
			c-0.189-0.159-0.357-0.299-0.509-0.423c-0.15-0.126-0.28-0.228-0.392-0.312c-0.114-0.086-0.199-0.145-0.259-0.181l-1.384,0.968
			l-0.326-0.295l1.667-1.662l5.293,4.797L-4533.704,4010.289"/>
		<path id="path3306" fill="#216778" d="M-4540.829,4003.169l-0.253,0.246l-1.117-0.895l-5.592,5.441l0.235,0.245
			c0.406,0.419,0.756,0.76,1.052,1.026c0.292,0.267,0.51,0.447,0.65,0.539l1.121-0.837l0.311,0.32l-1.498,1.46l-5.476-5.657
			l1.5-1.459l0.314,0.327l-0.869,1.097c0.042,0.07,0.116,0.167,0.217,0.291c0.099,0.123,0.218,0.261,0.357,0.417
			c0.134,0.16,0.288,0.331,0.458,0.513c0.165,0.182,0.335,0.366,0.514,0.549l0.229,0.236l5.581-5.432l-0.86-1.147l0.252-0.246
			L-4540.829,4003.169"/>
		<path id="path3308" fill="#216778" d="M-4554.902,4000.23l0.494,0.897l-0.276,0.219l-2.314-2.906l0.275-0.221l0.841,0.78
			l1.947-4.931l-5.069,1.01l0.489,0.891l-0.274,0.219l-1.647-2.066l0.276-0.22l0.663,0.556l6.117-1.141
			c0.542-0.104,1.028-0.184,1.461-0.243c0.427-0.064,0.812-0.085,1.153-0.068s0.646,0.085,0.909,0.205
			c0.259,0.118,0.491,0.308,0.699,0.567c0.125,0.159,0.228,0.329,0.309,0.515c0.079,0.187,0.127,0.357,0.142,0.51l-1.212,1.048
			l-0.186-0.235l0.298-0.658c0.032-0.123,0.033-0.25,0.004-0.38c-0.034-0.134-0.088-0.248-0.166-0.346
			c-0.101-0.125-0.22-0.223-0.365-0.298c-0.146-0.077-0.32-0.129-0.522-0.154c-0.206-0.032-0.438-0.038-0.702-0.02
			c-0.267,0.021-0.572,0.064-0.913,0.133L-4554.902,4000.23"/>
		<path id="path3310" fill="#216778" d="M-4565.786,3986.327l0.29-0.2l0.727,0.756l4.076,0.645l2.139-5.458l-0.398-0.899l0.29-0.2
			l1.275,1.863l-2.01,4.939l1.481,0.368l2.394-1.641l-0.577-1.16l0.291-0.198l2.099,3.066l-0.29,0.2l-0.796-0.845l-6.471,4.438
			l0.507,1.045l-0.29,0.199l-2.024-2.958l0.292-0.199l0.79,0.849l3.487-2.393l-5.746-0.906l0.341,0.803l-0.29,0.199
			L-4565.786,3986.327"/>
		<path id="path3312" fill="#216778" d="M-4566.927,3979.306c-0.302,0.183-0.544,0.375-0.721,0.575
			c-0.181,0.199-0.296,0.416-0.344,0.654c-0.054,0.234-0.042,0.494,0.037,0.78c0.078,0.285,0.226,0.608,0.442,0.965l0.338,0.561
			l3.607-2.179l-0.357-0.594c-0.217-0.359-0.438-0.632-0.667-0.823c-0.234-0.192-0.474-0.31-0.721-0.359
			c-0.247-0.052-0.505-0.039-0.774,0.038C-4566.355,3979.003-4566.635,3979.13-4566.927,3979.306 M-4563.057,3980.354l2.535-1.531
			l-0.581-1.311l0.301-0.181l1.946,3.229l-0.3,0.184l-0.701-0.817l-6.717,4.054l0.443,1.072l-0.301,0.181l-1.743-2.892
			c-0.324-0.537-0.535-1.02-0.634-1.448c-0.104-0.432-0.121-0.818-0.046-1.158c0.069-0.339,0.212-0.636,0.431-0.893
			c0.218-0.256,0.483-0.479,0.797-0.668c0.312-0.188,0.638-0.322,0.981-0.405c0.341-0.085,0.685-0.088,1.033-0.008
			c0.346,0.077,0.693,0.253,1.038,0.527c0.347,0.274,0.678,0.674,0.996,1.199L-4563.057,3980.354"/>
		<path id="path3314" fill="#216778" d="M-4563.43,3973.408l0.312-0.166l1.365,2.61l-0.312,0.163l-0.63-0.818l-8.895,1.214
			l-0.587-1.124l6.011-6.727l-0.368-1.089l0.313-0.163l1.754,3.355l-0.31,0.165l-0.72-0.986l-1.862,1.978l1.634,3.124l2.695-0.393
			L-4563.43,3973.408 M-4570.89,3975.687l4.542-0.641l-1.447-2.763L-4570.89,3975.687"/>
		<path id="path3316" fill="#216778" d="M-4567.901,3964.739l-0.311-1.12l0.321-0.144l1.478,3.256l-0.319,0.147l-0.638-0.972
			l-7.147,3.239l0.318,1.115l-0.32,0.147l-1.481-3.258l0.321-0.144l0.633,0.975L-4567.901,3964.739 M-4577.375,3967.717
			c0.17-0.077,0.34-0.087,0.512-0.03c0.168,0.059,0.291,0.175,0.367,0.347c0.041,0.086,0.059,0.171,0.062,0.26
			c0,0.085-0.016,0.17-0.047,0.254c-0.031,0.077-0.077,0.149-0.135,0.214s-0.127,0.118-0.213,0.157
			c-0.168,0.076-0.337,0.082-0.508,0.018c-0.171-0.064-0.295-0.183-0.373-0.354c-0.078-0.171-0.083-0.337-0.018-0.503
			C-4577.661,3967.914-4577.544,3967.791-4577.375,3967.717 M-4576.393,3969.878c0.17-0.077,0.341-0.084,0.512-0.027
			c0.169,0.062,0.291,0.176,0.37,0.346c0.038,0.084,0.058,0.171,0.059,0.259c0,0.088-0.014,0.173-0.044,0.256
			c-0.031,0.081-0.076,0.155-0.134,0.22c-0.057,0.067-0.127,0.119-0.213,0.157c-0.084,0.038-0.17,0.057-0.258,0.057
			c-0.088,0-0.171-0.017-0.249-0.049c-0.082-0.031-0.156-0.075-0.22-0.132c-0.065-0.06-0.118-0.133-0.156-0.217
			c-0.078-0.171-0.085-0.339-0.017-0.504C-4576.679,3970.078-4576.561,3969.955-4576.393,3969.878"/>
		<path id="path3318" fill="#216778" d="M-4568.307,3962.685l-0.33,0.125l-0.583-1.005l-7.319,2.831l0.255,1.133l-0.327,0.127
			l-1.297-3.339l0.327-0.127l0.577,1.008l3.262-1.264l-1.524-3.926l-3.264,1.261l0.256,1.135l-0.329,0.125l-1.295-3.333l0.327-0.127
			l0.578,1.007l7.317-2.833l-0.247-1.133l0.328-0.128l1.295,3.337l-0.33,0.125l-0.582-1.005l-3.498,1.353l1.524,3.927l3.498-1.353
			l-0.248-1.136l0.33-0.125L-4568.307,3962.685"/>
		<path id="path3320" fill="#216778" d="M-4571.856,3953.461l-0.337,0.102l-0.504-1.047l-7.514,2.26l0.166,1.149l-0.337,0.102
			l-1.039-3.43l0.336-0.101l0.499,1.05l6.162-1.856l-7.129-2.252l-0.254,0.078l0.169,1.148l-0.338,0.099l-1.037-3.421l0.335-0.101
			l0.499,1.046l7.515-2.261l-0.162-1.148l0.336-0.102l1.038,3.423l-0.335,0.102l-0.507-1.049l-6.243,1.879l7.129,2.252l0.335-0.101
			l-0.161-1.149l0.337-0.102L-4571.856,3953.461"/>
		<path id="path3322" fill="#216778" d="M-4587.233,3899.604l0.104-1.31l3.155,0.682l-0.04,0.49L-4587.233,3899.604
			 M-4587.437,3902.161l0.104-1.31l3.155,0.682l-0.042,0.491L-4587.437,3902.161"/>
		<path id="path3324" fill="#216778" d="M-4585.874,3888.26l0.348,0.048l0.033,1.048l2.593,3.228l5.253-2.572l0.307-0.933
			l0.349,0.05l-0.305,2.23l-4.807,2.28l0.853,1.269l2.877,0.408l0.351-1.24l0.349,0.047l-0.501,3.677l-0.349-0.05l-0.022-1.158
			l-7.783-1.105l-0.326,1.112l-0.35-0.05l0.483-3.546l0.349,0.05l0.018,1.161l4.195,0.593l-3.655-4.547l-0.287,0.821l-0.349-0.05
			L-4585.874,3888.26"/>
		<path id="path3326" fill="#216778" d="M-4576.928,3888.771l-0.343-0.074l0.062-1.159l-7.687-1.669l-0.406,1.083l-0.344-0.073
			l0.739-3.5l0.346,0.075l-0.067,1.159l6.299,1.366l-5.173-5.424l-0.26-0.057l-0.406,1.086l-0.344-0.076l0.736-3.492l0.345,0.075
			l-0.066,1.159l7.687,1.669l0.412-1.083l0.344,0.073l-0.739,3.494l-0.344-0.076l0.063-1.157l-6.386-1.387l5.171,5.422l0.344,0.076
			l0.414-1.084l0.344,0.076l-0.737,3.5"/>
		<path id="path3328" fill="#216778" d="M-4574.652,3876.571l0.471-1.058l0.34,0.096l-0.93,3.44l-0.341-0.092l0.125-1.153
			l-7.583-2.092l-0.466,1.058l-0.339-0.092l0.93-3.444l0.339,0.092l-0.131,1.153L-4574.652,3876.571 M-4583.868,3872.787
			c0.18,0.049,0.317,0.151,0.414,0.309c0.092,0.153,0.114,0.321,0.064,0.499c-0.024,0.091-0.065,0.169-0.119,0.235
			c-0.055,0.07-0.121,0.125-0.197,0.169c-0.073,0.039-0.157,0.063-0.242,0.075c-0.084,0.015-0.174,0.009-0.263-0.015
			c-0.18-0.049-0.315-0.155-0.406-0.313c-0.09-0.157-0.111-0.329-0.063-0.506c0.05-0.178,0.15-0.313,0.307-0.399
			C-4584.217,3872.754-4584.048,3872.738-4583.868,3872.787 M-4584.487,3875.074c0.18,0.049,0.318,0.151,0.416,0.308
			c0.093,0.156,0.112,0.321,0.065,0.501c-0.024,0.091-0.063,0.169-0.121,0.236c-0.054,0.069-0.121,0.122-0.196,0.166
			c-0.076,0.044-0.155,0.076-0.242,0.088c-0.086,0.012-0.175,0.006-0.264-0.018c-0.09-0.026-0.169-0.065-0.236-0.12
			c-0.069-0.057-0.123-0.123-0.161-0.198c-0.044-0.077-0.072-0.157-0.085-0.245c-0.014-0.087-0.009-0.174,0.016-0.265
			c0.048-0.181,0.151-0.313,0.307-0.399c0.157-0.084,0.325-0.103,0.504-0.053"/>
		<path id="path3330" fill="#216778" d="M-4578.203,3866.916c-0.251-0.085-0.479-0.119-0.688-0.105c-0.209,0.01-0.4,0.078-0.578,0.2
			c-0.179,0.123-0.342,0.304-0.486,0.546c-0.148,0.241-0.285,0.55-0.41,0.93l-0.428,1.311l3.201,1.065l0.453-1.385
			c0.13-0.39,0.195-0.728,0.2-1.014c0-0.283-0.051-0.526-0.149-0.723c-0.103-0.202-0.248-0.367-0.439-0.498
			C-4577.717,3867.112-4577.942,3866.999-4578.203,3866.916 M-4573.992,3867.608c-0.292-0.097-0.564-0.134-0.811-0.107
			c-0.244,0.022-0.47,0.109-0.676,0.266c-0.207,0.151-0.396,0.373-0.567,0.667c-0.176,0.293-0.335,0.661-0.481,1.103l-0.497,1.516
			l3.563,1.19c0.074-0.191,0.146-0.391,0.217-0.602c0.068-0.178,0.139-0.378,0.216-0.594c0.072-0.22,0.145-0.438,0.213-0.653
			c0.129-0.396,0.195-0.745,0.197-1.05c-0.001-0.303-0.051-0.566-0.155-0.787c-0.108-0.229-0.265-0.418-0.472-0.572
			C-4573.45,3867.832-4573.699,3867.708-4573.992,3867.608 M-4573.647,3874.74l-0.334-0.112l0.186-1.145l-7.467-2.49l-0.52,1.033
			l-0.333-0.109l1.27-3.878c0.193-0.596,0.403-1.075,0.624-1.443c0.218-0.366,0.453-0.64,0.704-0.824
			c0.252-0.182,0.519-0.283,0.8-0.302c0.278-0.02,0.571,0.023,0.877,0.123c0.266,0.091,0.493,0.216,0.684,0.377
			c0.19,0.158,0.344,0.343,0.463,0.556c0.112,0.203,0.194,0.436,0.235,0.688c0.04,0.252,0.044,0.513,0.017,0.784
			c0.159-0.354,0.341-0.661,0.547-0.919c0.208-0.262,0.434-0.468,0.677-0.614c0.24-0.148,0.499-0.239,0.775-0.268
			c0.277-0.033,0.563-0.004,0.857,0.096c0.366,0.122,0.682,0.298,0.949,0.526c0.263,0.224,0.459,0.504,0.592,0.844
			c0.127,0.337,0.184,0.735,0.169,1.191c-0.019,0.458-0.125,0.981-0.317,1.572c-0.155,0.471-0.314,0.94-0.481,1.403
			c-0.165,0.466-0.312,0.895-0.442,1.292L-4573.647,3874.74"/>
		<path id="path3332" fill="#216778" d="M-4568.871,3861.736c-0.274,0.676-0.614,1.239-1.018,1.69
			c-0.404,0.448-0.858,0.781-1.364,0.997c-0.506,0.212-1.052,0.308-1.642,0.285c-0.595-0.027-1.215-0.172-1.864-0.44
			c-0.739-0.307-1.34-0.665-1.803-1.079c-0.464-0.417-0.797-0.881-1.002-1.385c-0.209-0.516-0.291-1.073-0.246-1.673
			c0.044-0.6,0.204-1.242,0.483-1.924c0.115-0.284,0.235-0.547,0.357-0.788c0.118-0.245,0.237-0.474,0.359-0.687
			c0.124-0.218,0.243-0.423,0.363-0.612c0.123-0.19,0.242-0.372,0.361-0.55l1.817,0.707l-0.167,0.409l-1.145-0.26
			c-0.294,0.214-0.565,0.493-0.814,0.836c-0.253,0.337-0.459,0.704-0.62,1.099c-0.198,0.48-0.305,0.935-0.33,1.367
			c-0.021,0.429,0.064,0.833,0.261,1.217c0.188,0.382,0.5,0.745,0.931,1.085c0.428,0.335,0.997,0.652,1.708,0.944
			c0.623,0.258,1.194,0.415,1.712,0.473c0.516,0.056,0.978,0.018,1.389-0.11c0.407-0.129,0.761-0.345,1.062-0.647
			c0.302-0.306,0.55-0.695,0.742-1.161c0.104-0.254,0.185-0.504,0.247-0.749c0.062-0.245,0.104-0.481,0.128-0.702
			c0.025-0.226,0.033-0.429,0.021-0.618c-0.013-0.192-0.039-0.361-0.077-0.499l-1.137-0.736l0.163-0.4l1.925,0.839
			c-0.021,0.194-0.055,0.41-0.095,0.651c-0.044,0.243-0.1,0.495-0.167,0.76c-0.065,0.267-0.143,0.542-0.237,0.824
			C-4568.656,3861.183-4568.758,3861.464-4568.871,3861.736"/>
		<path id="path3334" fill="#216778" d="M-4567.004,3851.532c-0.275-0.133-0.535-0.221-0.781-0.265
			c-0.248-0.043-0.482-0.023-0.704,0.058c-0.226,0.076-0.44,0.225-0.646,0.439c-0.201,0.212-0.393,0.506-0.576,0.881l-0.447,0.92
			l3.375,1.667l0.431-0.884c0.183-0.374,0.304-0.705,0.364-0.994c0.062-0.286,0.062-0.539,0.008-0.76
			c-0.058-0.226-0.171-0.422-0.342-0.59C-4566.493,3851.83-4566.721,3851.675-4567.004,3851.532 M-4570.11,3852.1
			c0.269-0.548,0.553-0.98,0.858-1.288c0.303-0.313,0.613-0.526,0.93-0.647c0.316-0.122,0.634-0.159,0.953-0.117
			c0.318,0.04,0.625,0.132,0.925,0.279c0.303,0.152,0.562,0.338,0.78,0.572c0.218,0.225,0.368,0.499,0.458,0.825
			c0.089,0.326,0.098,0.706,0.028,1.142c-0.066,0.433-0.236,0.929-0.509,1.493l-1.621,3.323l-0.316-0.156l0.345-1.105l-7.061-3.487
			l-0.626,0.87l-0.315-0.156l1.646-3.377l0.316,0.156l-0.46,1.352l3.083,1.523L-4570.11,3852.1"/>
		<path id="path3336" fill="#216778" d="M-4567.472,3838.927l0.304,0.175l-0.36,0.985l1.207,3.957l5.838-0.408l0.634-0.746
			l0.304,0.175l-1.114,1.953l-5.316,0.305l0.319,1.496l2.521,1.458l0.79-1.021l0.304,0.178l-1.837,3.216l-0.306-0.178l0.413-1.083
			l-6.821-3.942l-0.718,0.906l-0.304-0.175l1.772-3.1l0.303,0.176l-0.416,1.079l3.676,2.124l-1.701-5.583l-0.574,0.654l-0.304-0.178
			L-4567.472,3838.927"/>
		<path id="path3338" fill="#216778" d="M-4559.35,3842.759l-0.292-0.199l0.489-1.05l-6.517-4.431l-0.782,0.852l-0.292-0.199
			l1.992-2.962l0.292,0.199l-0.494,1.046l5.344,3.633l-2.782-6.962l-0.22-0.153l-0.782,0.852l-0.292-0.196l1.987-2.959l0.293,0.198
			l-0.493,1.049l6.517,4.431l0.786-0.847l0.292,0.199l-1.987,2.956l-0.294-0.201l0.49-1.048l-5.415-3.683l2.781,6.963l0.292,0.198
			l0.786-0.847l0.292,0.198L-4559.35,3842.759"/>
		<path id="path3340" fill="#216778" d="M-4553.83,3834.613l-0.276-0.22l0.566-1.01l-6.162-4.914l-0.845,0.788l-0.276-0.22
			l2.214-2.8l0.277,0.223l-0.574,1.004l5.052,4.028l-2.243-7.152l-0.209-0.165l-0.845,0.788l-0.276-0.22l2.208-2.793l0.278,0.219
			l-0.574,1.005l6.165,4.916l0.849-0.783l0.276,0.22l-2.207,2.793l-0.278-0.223l0.567-1.008l-5.12-4.083l2.245,7.151l0.276,0.22
			l0.849-0.783l0.277,0.22L-4553.83,3834.613 M-4558.608,3824.998c-0.304,0.385-0.594,0.671-0.864,0.856
			c-0.269,0.183-0.525,0.293-0.771,0.33c-0.247,0.03-0.479,0.002-0.701-0.082c-0.221-0.088-0.433-0.204-0.635-0.356l0.675-0.853
			c0.375,0.262,0.725,0.379,1.052,0.343c0.327-0.032,0.618-0.211,0.874-0.534c0.255-0.325,0.362-0.649,0.322-0.978
			c-0.043-0.328-0.234-0.644-0.575-0.951l0.676-0.854c0.191,0.165,0.355,0.347,0.488,0.542c0.134,0.198,0.211,0.421,0.235,0.671
			c0.022,0.244-0.025,0.523-0.145,0.829C-4558.091,3824.267-4558.301,3824.612-4558.608,3824.998"/>
		<path id="path3342" fill="#216778" d="M-4545.451,3824.363l-0.252-0.246l0.67-0.944l-5.625-5.527l-0.92,0.697l-0.253-0.246
			l6.311-6.465l0.251,0.25l-0.674,0.936l5.625,5.528l0.926-0.693l0.253,0.25l-2.487,2.547l-0.253-0.25l0.668-0.944l-5.571-5.475
			l-2.928,2.998l5.572,5.478l0.926-0.693l0.254,0.249L-4545.451,3824.363"/>
		<path id="path3344" fill="#216778" d="M-4540.342,3812.96c0.411,0.469,0.815,0.861,1.217,1.179
			c0.401,0.316,0.804,0.533,1.208,0.651c0.404,0.119,0.813,0.126,1.229,0.022c0.411-0.108,0.833-0.354,1.264-0.735
			c0.432-0.379,0.729-0.766,0.888-1.162c0.155-0.399,0.203-0.806,0.137-1.223c-0.063-0.422-0.225-0.852-0.485-1.29
			c-0.262-0.44-0.599-0.895-1.008-1.362c-0.408-0.464-0.812-0.855-1.208-1.167c-0.399-0.313-0.799-0.525-1.202-0.634
			c-0.399-0.114-0.805-0.117-1.214-0.007c-0.408,0.113-0.828,0.357-1.259,0.739c-0.432,0.379-0.731,0.764-0.894,1.158
			c-0.162,0.393-0.212,0.795-0.149,1.21c0.059,0.407,0.219,0.831,0.476,1.268c0.26,0.438,0.594,0.887,1.001,1.352
			 M-4541.383,3813.876c-0.523-0.595-0.9-1.169-1.137-1.728c-0.232-0.561-0.333-1.104-0.304-1.626
			c0.03-0.525,0.188-1.031,0.477-1.522c0.289-0.491,0.695-0.968,1.221-1.43c0.507-0.449,1.021-0.781,1.539-1.003
			c0.523-0.221,1.049-0.316,1.579-0.285c0.529,0.031,1.057,0.199,1.584,0.498c0.527,0.302,1.052,0.748,1.573,1.344
			c0.523,0.595,0.902,1.179,1.135,1.749c0.23,0.565,0.332,1.115,0.298,1.649c-0.031,0.533-0.191,1.05-0.472,1.547
			c-0.281,0.491-0.676,0.958-1.184,1.407c-0.509,0.447-1.024,0.779-1.545,0.996c-0.527,0.214-1.056,0.303-1.585,0.269
			c-0.532-0.037-1.063-0.206-1.594-0.51C-4540.334,3814.922-4540.862,3814.471-4541.383,3813.876"/>
		<path id="path3346" fill="#216778" d="M-4530.942,3810.945c-0.158,0.121-0.324,0.214-0.497,0.279
			c-0.17,0.061-0.336,0.092-0.5,0.088l-0.913-1.126l0.237-0.184l0.607,0.287c0.104,0.025,0.205,0.029,0.298,0.01
			c0.098-0.025,0.189-0.067,0.27-0.13c0.147-0.112,0.228-0.29,0.238-0.531c0.012-0.249-0.061-0.588-0.216-1.011
			c-0.154-0.431-0.402-0.963-0.742-1.598c-0.339-0.639-0.788-1.401-1.348-2.287l-1.102-1.753l-1.015,0.551l-0.214-0.281l5.499-4.177
			l0.214,0.281l-0.805,0.831l4.763,6.287l1.018-0.546l0.212,0.285l-2.834,2.149l-0.212-0.281l0.801-0.835l-4.719-6.23l-2.124,1.615
			l1.11,1.762c0.577,0.917,1.056,1.73,1.44,2.443c0.387,0.711,0.673,1.334,0.851,1.87c0.174,0.531,0.238,0.983,0.189,1.353
			C-4530.479,3810.428-4530.648,3810.724-4530.942,3810.945"/>
		<path id="path3348" fill="#216778" d="M-4522.484,3803.962l1.045-0.493l0.2,0.292l-2.946,1.996l-0.199-0.292l0.845-0.788
			l-4.418-6.539l-1.041,0.497l-0.199-0.292l2.946-1.996l0.197,0.293l-0.846,0.785L-4522.484,3803.962"/>
		<path id="path3350" fill="#216778" d="M-4519.069,3802.364l-0.183-0.304l1.115-0.888l-4.061-6.709l-0.291,0.176
			c-0.497,0.302-0.904,0.563-1.227,0.792c-0.324,0.227-0.547,0.396-0.668,0.511l0.569,1.289l-0.379,0.232l-1.088-1.801l6.697-4.057
			l1.09,1.797l-0.385,0.232l-0.877-1.101c-0.076,0.027-0.188,0.077-0.33,0.146c-0.138,0.07-0.3,0.153-0.485,0.255
			c-0.181,0.097-0.382,0.207-0.596,0.331c-0.212,0.12-0.429,0.246-0.649,0.376l-0.278,0.168l4.055,6.699l1.3-0.579l0.185,0.303
			L-4519.069,3802.364"/>
		<path id="path3352" fill="#216778" d="M-4513.563,3798.641l0.93-0.685l-3.637-7.002l-1.094,0.371l-0.164-0.314l5.928-3.077
			l0.987,1.902l-0.389,0.201l-0.855-1.187c-0.134,0.052-0.292,0.115-0.481,0.199c-0.184,0.078-0.368,0.163-0.555,0.256
			c-0.188,0.09-0.365,0.175-0.528,0.262c-0.169,0.08-0.297,0.145-0.389,0.194l-1.289,0.67l1.614,3.103l2.132-1.107l-0.311-1.045
			l0.378-0.195l1.268,2.441l-0.378,0.195l-0.681-0.865l-2.133,1.111l1.683,3.238l1.557-0.806c0.243-0.126,0.472-0.248,0.686-0.366
			c0.212-0.12,0.401-0.228,0.572-0.325c0.169-0.1,0.31-0.185,0.425-0.26c0.12-0.078,0.207-0.137,0.259-0.179l-0.425-1.645
			l0.387-0.203l0.978,2.156l-6.31,3.278L-4513.563,3798.641"/>
		<path id="path3354" fill="#216778" d="M-4504.661,3793.954l1.083-0.271l0.142,0.323l-2.668,1.15l-0.142-0.323l0.831-0.554
			l1.175-4.911l-3.895-2.51l-0.988,0.24l-0.143-0.325l3.375-1.452l0.142,0.323l-0.968,0.607l2.789,1.808l0.801-3.355l-1.081,0.276
			l-0.142-0.323l2.677-1.154l0.139,0.324l-0.833,0.549l-0.969,4.065l4.612,2.955l0.997-0.231l0.142,0.323l-3.372,1.451l-0.142-0.323
			l0.965-0.613l-3.52-2.262L-4504.661,3793.954"/>
		<path id="path3356" fill="#216778" d="M-4496.983,3791.263l-0.114-0.334l1.021-0.538l-2.553-7.462l-1.137,0.202l-0.114-0.334
			l3.374-1.149l0.114,0.334l-1.024,0.533l1.141,3.328l3.961-1.35l-1.137-3.327l-1.14,0.203l-0.114-0.334l3.372-1.147l0.114,0.334
			l-1.027,0.534l2.556,7.461l1.14-0.196l0.114,0.334l-3.368,1.148l-0.115-0.336l1.022-0.538l-1.22-3.566l-3.966,1.349l1.222,3.568
			l1.139-0.199l0.115,0.336L-4496.983,3791.263"/>
		<path id="path3358" fill="#216778" d="M-4485.368,3787.001l1.148-0.13l0.097,0.34l-3.432,0.953l-0.094-0.341l1.051-0.476
			l-2.125-7.596l-1.148,0.136l-0.094-0.341l3.426-0.95l0.097,0.34l-1.053,0.474L-4485.368,3787.001"/>
		<path id="path3360" fill="#216778" d="M-4475.417,3785.199l-3.602,0.798l-0.078-0.343l1.208-0.455l-0.657-2.921
			c-0.109,0.068-0.245,0.154-0.41,0.256c-0.166,0.095-0.345,0.194-0.541,0.295c-0.197,0.098-0.399,0.193-0.613,0.28
			c-0.209,0.088-0.417,0.155-0.613,0.198c-0.446,0.1-0.838,0.13-1.177,0.095c-0.336-0.036-0.624-0.139-0.875-0.313
			c-0.243-0.177-0.449-0.425-0.616-0.744c-0.167-0.319-0.302-0.712-0.408-1.182l-0.583-2.604l-1.024,0.047l-0.078-0.343l3.345-0.742
			l0.08,0.345l-1.08,0.417l0.582,2.597c0.075,0.324,0.168,0.605,0.276,0.834c0.11,0.225,0.249,0.404,0.411,0.53
			c0.17,0.129,0.373,0.206,0.605,0.237c0.238,0.028,0.517,0.008,0.837-0.062c0.156-0.036,0.312-0.079,0.474-0.135
			c0.163-0.056,0.321-0.12,0.475-0.186c0.157-0.067,0.304-0.132,0.437-0.199c0.139-0.067,0.263-0.127,0.371-0.177l-0.947-4.217
			l-1.154,0.076l-0.076-0.344l3.475-0.77l0.077,0.347l-1.077,0.416l1.726,7.695l1.156-0.07L-4475.417,3785.199"/>
		<path id="path3362" fill="#216778" d="M-4474.636,3785.039l-0.054-0.349l1.105-0.343l-1.157-7.799l-1.157-0.007l-0.052-0.35
			l3.531-0.513l0.052,0.35l-1.105,0.337l0.515,3.476l4.149-0.601l-0.515-3.476l-1.156-0.011l-0.053-0.346l3.524-0.513l0.052,0.35
			l-1.105,0.337l1.157,7.799l1.158,0.013l0.052,0.35l-3.522,0.512l-0.053-0.353l1.104-0.339l-0.552-3.73l-4.149,0.601l0.552,3.729
			l1.158,0.014l0.052,0.35L-4474.636,3785.039"/>
		<path id="path3364" fill="#216778" d="M-4464.901,3783.655l-0.025-0.351l1.126-0.253l-0.548-7.864l-1.153-0.1l-0.025-0.351
			l3.56-0.232l0.025,0.351l-1.129,0.248l0.453,6.447l3.749-6.455l-0.018-0.267l-1.151-0.097l-0.027-0.354l3.556-0.233l0.023,0.352
			l-1.127,0.247l0.55,7.863l1.151,0.108l0.025,0.351l-3.551,0.235l-0.027-0.354l1.129-0.255l-0.458-6.532l-3.749,6.455l0.022,0.352
			l1.153,0.107l0.025,0.351L-4464.901,3783.655"/>
		<path id="path3366" fill="#216778" d="M-4455.084,3783.044l0.004-0.353l1.143-0.165l0.067-7.882l-1.141-0.191l0.004-0.353
			l3.569,0.046l-0.002,0.355l-1.147,0.157l-0.053,6.46l4.246-6.137l0.002-0.268l-1.139-0.188l0.001-0.352l3.563,0.046l-0.004,0.353
			l-1.146,0.159l-0.066,7.878l1.144,0.196l-0.004,0.353l-3.563-0.046l0.004-0.353l1.144-0.165l0.057-6.547l-4.246,6.136
			l-0.003,0.356l1.143,0.194l-0.004,0.353l-3.567-0.047 M-4450.46,3773.397c-0.493-0.007-0.896-0.062-1.207-0.163
			c-0.312-0.104-0.556-0.24-0.737-0.409c-0.175-0.177-0.296-0.378-0.366-0.604c-0.069-0.23-0.105-0.47-0.112-0.723l1.089,0.013
			c0.023,0.46,0.148,0.808,0.376,1.047c0.229,0.239,0.55,0.361,0.96,0.365c0.412,0.007,0.735-0.109,0.966-0.34
			c0.233-0.232,0.365-0.58,0.396-1.034l1.089,0.013c-0.012,0.256-0.055,0.491-0.126,0.718c-0.071,0.227-0.202,0.425-0.384,0.596
			c-0.178,0.166-0.426,0.295-0.739,0.391C-4449.566,3773.359-4449.969,3773.401-4450.46,3773.397"/>
		<path id="path3368" fill="#216778" d="M-4439.295,3783.219l1.121,0.293l-0.032,0.351l-3.545-0.349l0.032-0.351l1.155-0.066
			l0.729-7.843l-1.124-0.285l0.035-0.352l3.546,0.349l-0.032,0.351l-1.154,0.063L-4439.295,3783.219"/>
		<path id="path3370" fill="#216778" d="M-4437.318,3783.898l0.054-0.349l1.155-0.002l1.171-7.785l-1.104-0.349l0.053-0.349
			l3.528,0.55l-0.053,0.349l-1.153-0.006l-0.524,3.47l4.146,0.646l0.524-3.47l-1.105-0.345l0.052-0.352l3.522,0.551l-0.051,0.348
			l-1.156-0.004l-1.171,7.785l1.103,0.353l-0.052,0.352l-3.521-0.551l0.049-0.35l1.16-0.001l0.559-3.722l-4.146-0.646l-0.559,3.722
			l1.103,0.353l-0.053,0.349l-3.528-0.55"/>
		<path id="path3372" fill="#216778" d="M-4422.991,3786.67c-0.708-0.165-1.32-0.413-1.831-0.744
			c-0.508-0.326-0.912-0.724-1.211-1.189c-0.292-0.465-0.479-0.993-0.553-1.581c-0.076-0.591-0.035-1.229,0.12-1.913
			c0.178-0.78,0.431-1.431,0.758-1.956c0.333-0.525,0.733-0.927,1.198-1.212c0.47-0.288,1.005-0.455,1.604-0.508
			s1.256,0.008,1.975,0.175c0.296,0.068,0.576,0.145,0.833,0.227c0.259,0.081,0.505,0.162,0.736,0.248
			c0.235,0.087,0.458,0.174,0.664,0.263s0.405,0.178,0.602,0.269l-0.397,1.912l-0.427-0.099l0.063-1.173
			c-0.259-0.257-0.582-0.483-0.958-0.677c-0.374-0.195-0.77-0.342-1.182-0.439c-0.505-0.118-0.972-0.153-1.399-0.107
			s-0.81,0.196-1.157,0.448c-0.344,0.248-0.646,0.611-0.911,1.093c-0.259,0.475-0.475,1.09-0.643,1.837
			c-0.15,0.66-0.21,1.249-0.178,1.772c0.031,0.52,0.146,0.971,0.339,1.357c0.195,0.385,0.467,0.699,0.814,0.952
			c0.352,0.248,0.777,0.432,1.266,0.546c0.269,0.062,0.529,0.106,0.777,0.129c0.255,0.023,0.493,0.027,0.715,0.013
			c0.225-0.009,0.426-0.035,0.609-0.072c0.188-0.046,0.346-0.097,0.479-0.158l0.536-1.24l0.419,0.097l-0.503,2.036
			c-0.194,0.009-0.411,0.013-0.657,0.013c-0.245-0.011-0.501-0.023-0.776-0.045c-0.27-0.025-0.554-0.059-0.848-0.104
			C-4422.409,3786.794-4422.703,3786.736-4422.991,3786.67"/>
		<path id="path3374" fill="#216778" d="M-4417.109,3788.066l0.103-0.338l1.406,0.245l2.258-7.492l-0.326-0.099
			c-0.557-0.172-1.028-0.302-1.412-0.39c-0.383-0.092-0.663-0.142-0.83-0.158l-0.572,1.28l-0.428-0.133l0.606-2.007l7.506,2.305
			l-0.602,2.008l-0.435-0.132l0.23-1.384c-0.069-0.041-0.179-0.09-0.33-0.151c-0.143-0.059-0.315-0.122-0.511-0.193
			c-0.196-0.071-0.41-0.149-0.649-0.224c-0.229-0.081-0.466-0.159-0.712-0.234l-0.314-0.096l-2.25,7.477l1.302,0.587l-0.099,0.34
			L-4417.109,3788.066"/>
		<path id="path3376" fill="#216778" d="M-4410.766,3790.013l0.125-0.329l1.133,0.246l2.804-7.348l-1.007-0.573l0.125-0.33
			l3.333,1.292l-0.124,0.33l-1.129-0.251l-2.299,6.023l6.122-4.257l0.096-0.25l-1.007-0.573l0.125-0.33l3.328,1.288l-0.125,0.33
			l-1.129-0.251l-2.804,7.348l1.004,0.581l-0.127,0.331l-3.327-1.292l0.125-0.329l1.13,0.247l2.331-6.104l-6.12,4.255l-0.125,0.329
			l1.002,0.582l-0.125,0.329L-4410.766,3790.013"/>
		<path id="path3378" fill="#216778" d="M-4400.054,3794.362l0.146-0.321l1.36,0.445l3.307-7.083l-0.306-0.144
			c-0.524-0.25-0.975-0.448-1.343-0.589c-0.369-0.147-0.633-0.239-0.798-0.276l-0.75,1.182l-0.403-0.193l0.886-1.899l7.104,3.365
			l-0.886,1.899l-0.41-0.193l0.427-1.337c-0.066-0.049-0.169-0.115-0.308-0.197c-0.132-0.078-0.293-0.164-0.481-0.263
			c-0.18-0.103-0.383-0.207-0.607-0.317c-0.216-0.114-0.44-0.224-0.674-0.335l-0.294-0.14l-3.303,7.071l1.207,0.77l-0.147,0.318
			L-4400.054,3794.362"/>
		<path id="path3380" fill="#216778" d="M-4389.065,3790.387l-0.792-0.644l0.169-0.309l3.235,1.823l-0.17,0.307l-1.069-0.405
			l0.056,5.31l4.303-2.855l-0.788-0.642l0.174-0.305l2.3,1.296l-0.173,0.308l-0.821-0.268l-5.229,3.376
			c-0.461,0.3-0.879,0.56-1.256,0.781c-0.37,0.217-0.717,0.382-1.04,0.497c-0.322,0.111-0.628,0.163-0.916,0.155
			c-0.284-0.014-0.57-0.101-0.862-0.262c-0.174-0.099-0.333-0.22-0.477-0.363c-0.146-0.141-0.251-0.281-0.324-0.417l0.725-1.429
			l0.264,0.146l-0.032,0.725c0.017,0.126,0.065,0.242,0.141,0.353c0.079,0.11,0.173,0.198,0.283,0.257
			c0.139,0.078,0.288,0.123,0.448,0.139c0.163,0.014,0.342-0.004,0.541-0.055c0.2-0.049,0.42-0.129,0.655-0.245
			c0.242-0.122,0.507-0.277,0.796-0.468L-4389.065,3790.387"/>
		<path id="path3382" fill="#216778" d="M-4384.223,3802.94l0.191-0.294l1.281,0.632l4.271-6.538l-0.282-0.187
			c-0.488-0.32-0.902-0.578-1.247-0.775c-0.346-0.193-0.594-0.324-0.751-0.385l-0.91,1.065l-0.374-0.246l1.146-1.754l6.565,4.334
			l-1.145,1.75l-0.378-0.247l0.611-1.264c-0.059-0.06-0.15-0.136-0.275-0.238c-0.125-0.095-0.27-0.203-0.438-0.329
			c-0.168-0.126-0.353-0.257-0.558-0.401c-0.199-0.14-0.407-0.282-0.621-0.424l-0.275-0.18l-4.263,6.527l1.087,0.931l-0.193,0.295
			L-4384.223,3802.94"/>
		<path id="path3384" fill="#216778" d="M-4371.016,3801.26l1.056,0.779l-2.223,2.333l-0.396-0.294L-4371.016,3801.26
			 M-4373.079,3799.732l1.055,0.783l-2.225,2.33l-0.396-0.294L-4373.079,3799.732"/>
	</g>
</g>
</svg>
