<?xml version="1.0" encoding="utf-8"?>
<!-- Generator: Adobe Illustrator 15.0.2, SVG Export Plug-In . SVG Version: 6.00 Build 0)  -->
<!DOCTYPE svg PUBLIC "-//W3C//DTD SVG 1.1//EN" "http://www.w3.org/Graphics/SVG/1.1/DTD/svg11.dtd">
<svg version="1.1" id="Capa_1" xmlns="http://www.w3.org/2000/svg" xmlns:xlink="http://www.w3.org/1999/xlink" x="0px" y="0px"
	 width="163.5px" height="50px" viewBox="0 0 163.5 50" enable-background="new 0 0 163.5 50" xml:space="preserve">
<g>
	<path fill="#4FC7F4" d="M44.065,20.641h-3.477c-0.413-1.595-1.039-3.101-1.858-4.485l2.46-2.458v-4.11l-2.054-2.054h-4.113
		l-2.458,2.458c-1.385-0.817-2.889-1.448-4.484-1.855V4.657L25.175,1.75h-2.906l-2.906,2.906v3.479
		c-1.595,0.408-3.101,1.038-4.485,1.855l-2.46-2.458H8.308L6.253,9.59v4.109l2.458,2.458c-0.817,1.385-1.44,2.889-1.856,4.484H3.378
		l-2.906,2.906v2.906l2.906,2.904h3.477c0.414,1.597,1.039,3.101,1.856,4.484l-2.458,2.46v4.112l2.054,2.055h4.11l2.46-2.462
		c1.385,0.821,2.889,1.45,4.484,1.86v3.477l2.906,2.906h2.906l2.906-2.906v-3.477c1.595-0.41,3.099-1.039,4.484-1.856l2.458,2.459
		h4.112l2.055-2.056v-4.112l-2.458-2.458c0.817-1.386,1.444-2.89,1.856-4.484h3.477l2.906-2.906v-2.906L44.065,20.641z
		 M23.722,36.625c-6.419,0-11.625-5.206-11.625-11.625c0-6.42,5.206-11.625,11.625-11.625c6.421,0,11.625,5.205,11.625,11.625
		C35.347,31.419,30.141,36.625,23.722,36.625z"/>
</g>
<path fill="#FFFFFF" d="M79.392,11.336H65.503l-7.77,28.919c-0.238,0.83-0.771,1.244-1.601,1.244c-0.44,0-0.834-0.164-1.181-0.494
	c-0.348-0.33-0.521-0.707-0.521-1.131c0-0.152,0.025-0.32,0.076-0.508l8.1-30.138c0.221-0.83,0.754-1.244,1.6-1.244h17.343
	c1.116,0,1.676,0.55,1.676,1.649c0,0.203-0.017,0.364-0.051,0.482L75.1,40.256c-0.22,0.83-0.753,1.244-1.601,1.244
	c-0.439,0-0.834-0.166-1.18-0.496c-0.348-0.33-0.521-0.705-0.521-1.129c0-0.152,0.025-0.322,0.076-0.508L79.392,11.336z"/>
<path fill="#FFFFFF" d="M97.749,38.148c1.117,0,1.676,0.559,1.676,1.676S98.866,41.5,97.749,41.5H90.36
	c-2.388,0-4.274-1.234-5.662-3.707c-0.609-1.1-0.914-2.209-0.914-3.326c0-0.457,0.06-0.904,0.178-1.346l4.469-16.757
	c1.489-5.586,5.139-8.379,10.943-8.379h6.449c1.116,0,1.676,0.559,1.676,1.676s-0.56,1.676-1.676,1.676H98.46
	c-2.016,0-3.741,0.83-5.18,2.488c-0.678,0.762-1.135,1.607-1.371,2.539l-4.494,16.757c-0.118,0.439-0.178,0.855-0.178,1.244
	c0,1.135,0.385,2.049,1.154,2.742c0.771,0.693,1.73,1.041,2.882,1.041H97.749L97.749,38.148z"/>
<path fill="#FFFFFF" d="M135.226,10.118l-8.074,30.138c-0.22,0.83-0.753,1.244-1.6,1.244c-0.439,0-0.834-0.164-1.182-0.494
	c-0.347-0.33-0.521-0.707-0.521-1.131c0-0.152,0.024-0.32,0.076-0.508l3.909-14.625h-13.889l-4.164,15.513
	c-0.236,0.83-0.771,1.244-1.6,1.244c-0.439,0-0.834-0.164-1.182-0.494c-0.346-0.33-0.521-0.707-0.521-1.131
	c0-0.152,0.025-0.32,0.076-0.508l8.101-30.138c0.219-0.83,0.752-1.244,1.6-1.244c1.101,0,1.65,0.55,1.65,1.649
	c0,0.187-0.018,0.347-0.052,0.482l-2.995,11.272h13.889l3.25-12.162c0.22-0.828,0.752-1.244,1.6-1.244
	c1.117,0,1.676,0.551,1.676,1.65C135.276,9.838,135.26,10,135.226,10.118z"/>
<path fill="#4FC7F4" d="M146.651,24.006l-6.094,5.027l-3.021,11.223c-0.236,0.83-0.771,1.244-1.6,1.244
	c-0.439,0-0.834-0.164-1.181-0.494s-0.521-0.707-0.521-1.131c0-0.152,0.024-0.32,0.075-0.508l8.101-30.138
	c0.22-0.83,0.752-1.244,1.6-1.244c1.117,0,1.676,0.55,1.676,1.649c0,0.203-0.017,0.364-0.051,0.482l-3.58,13.354l18.23-15.082
	c0.32-0.271,0.677-0.406,1.065-0.406c1.117,0,1.677,0.56,1.677,1.677c0,0.524-0.203,0.956-0.609,1.295L149.47,21.669l5.408,17.645
	c0.051,0.17,0.076,0.35,0.076,0.533c0,1.102-0.56,1.65-1.676,1.65c-0.83,0-1.363-0.396-1.601-1.193L146.651,24.006z"/>
</svg>
