<?xml version="1.0" encoding="utf-8"?>
<!-- Generator: Adobe Illustrator 15.0.2, SVG Export Plug-In . SVG Version: 6.00 Build 0)  -->
<!DOCTYPE svg PUBLIC "-//W3C//DTD SVG 1.1//EN" "http://www.w3.org/Graphics/SVG/1.1/DTD/svg11.dtd">
<svg version="1.1" id="Слой_1" xmlns="http://www.w3.org/2000/svg" xmlns:xlink="http://www.w3.org/1999/xlink" x="0px" y="0px"
	 width="70px" height="70px" viewBox="-2.664 -3.719 70 70" enable-background="new -2.664 -3.719 70 70" xml:space="preserve">
<g>
	<path fill="#3E5D7C" d="M32.336,66.281c19.277,0,35-15.725,35-35c0-19.276-15.723-35-35-35s-35,15.724-35,34.999
		C-2.664,50.556,13.058,66.281,32.336,66.281z"/>
	<path fill="#FFFFFF" d="M27.925,42.604c2.883,0,5.767-0.787,8.298-2.36L47.398,51.42l5.072-5.075L41.299,35.168
		c3.77-6.068,3.026-14.147-2.244-19.417c-3.073-3.074-7.103-4.608-11.13-4.608v5.603c5.593,0,10.125,4.532,10.125,10.126
		c0,5.591-4.532,10.124-10.125,10.125V42.604z M16.804,38c3.071,3.071,7.095,4.604,11.12,4.604v-5.607l0,0
		c-5.592,0-10.125-4.534-10.125-10.125c0-5.594,4.532-10.126,10.125-10.126l0,0v-5.603c-4.025,0.001-8.048,1.537-11.119,4.608
		C10.661,21.895,10.661,31.856,16.804,38z"/>
</g>
</svg>
