<?xml version="1.0" encoding="utf-8"?>
<!-- Generator: Adobe Illustrator 15.0.2, SVG Export Plug-In . SVG Version: 6.00 Build 0)  -->
<!DOCTYPE svg PUBLIC "-//W3C//DTD SVG 1.1//EN" "http://www.w3.org/Graphics/SVG/1.1/DTD/svg11.dtd">
<svg version="1.1" id="Capa_1" xmlns="http://www.w3.org/2000/svg" xmlns:xlink="http://www.w3.org/1999/xlink" x="0px" y="0px"
	 width="50px" height="50px" viewBox="375 275 50 50" enable-background="new 375 275 50 50" xml:space="preserve">
<path fill="#222222" d="M375,275v50h50v-50H375z M411.471,302.862l4.343,4.989c0.555,0.638,0.102,1.633-0.744,1.633h-4.9
	c-0.773,0-1.52-0.293-2.087-0.82l-1.451-1.35c-1.638-1.433-2.334-1.924-2.988-1.924c-0.655,0-0.819,0.491-0.819,1.76
	c0,1.27-0.245,2.334-4.012,2.334s-6.714-2.824-10.03-7.205s-4.79-9.089-4.79-9.089c-0.183-0.589,0.258-1.187,0.875-1.187h3.921
	c0.746,0,1.425,0.431,1.738,1.108c0.321,0.695,0.873,1.768,1.818,3.354c1.34,2.251,2.628,3.266,3.357,3.698
	c0.271,0.161,0.614-0.038,0.614-0.354v-5.401c0-0.707-0.255-1.39-0.719-1.923l-0.553-0.636c-0.143-0.165-0.026-0.42,0.191-0.42
	h6.198c0.949,0,1.72,0.77,1.72,1.719v6.281c0,0.405,0.525,0.563,0.749,0.226l4.46-6.723c0.352-0.53,0.945-0.849,1.581-0.849h5.236
	c0.716,0,1.151,0.788,0.771,1.394l-4.634,7.364C410.916,301.477,410.979,302.297,411.471,302.862z"/>
</svg>
