<?xml version="1.0" encoding="utf-8"?>
<!-- Generator: Adobe Illustrator 15.0.2, SVG Export Plug-In . SVG Version: 6.00 Build 0)  -->
<!DOCTYPE svg PUBLIC "-//W3C//DTD SVG 1.1//EN" "http://www.w3.org/Graphics/SVG/1.1/DTD/svg11.dtd">
<svg version="1.1" id="Capa_1" xmlns="http://www.w3.org/2000/svg" xmlns:xlink="http://www.w3.org/1999/xlink" x="0px" y="0px"
	 width="50px" height="50px" viewBox="375 275 50 50" enable-background="new 375 275 50 50" xml:space="preserve">
<path fill="#222222" d="M375,275v50h50v-50H375z M413.352,292.811c-0.855,0.746-1.798,1.381-1.798,1.381s0.753,3.186-1.353,8.009
	c-2.104,4.823-6.635,8.565-11.458,9.384c-4.823,0.818-7.366,0.321-9.325-0.234c-1.958-0.555-4.063-2.017-4.063-2.017
	s3.42,0.088,5.525-0.614c2.105-0.701,3.333-1.754,3.333-1.754s-2.251-0.175-4.034-1.753c-1.783-1.579-1.871-2.748-1.871-2.748
	s0.935,0.204,1.841,0.204s1.052-0.059,1.052-0.059s-2.543-0.701-3.946-3.011c-1.403-2.309-1.053-3.186-1.053-3.186
	s0.526,0.438,1.462,0.731c0.936,0.292,1.491,0.087,1.491,0.087s-2.397-1.315-2.572-4.063s0.731-4.034,0.731-4.034
	s1.637,2.982,5.788,4.677s6.665,1.579,6.665,1.579s-1.286-4.736,3.625-6.782c4.911-2.046,7.016,1.579,7.016,1.579
	s1.542-0.446,2.266-0.819c0.723-0.373,1.162-0.855,1.162-0.855s-0.242,1.008-0.877,1.842c-0.637,0.833-1.535,1.622-1.535,1.622
	s0.965-0.241,1.819-0.526c0.855-0.285,1.403-0.504,1.403-0.504S414.206,292.065,413.352,292.811z"/>
</svg>
