<?xml version="1.0" encoding="utf-8"?>
<!-- Generator: Adobe Illustrator 15.0.2, SVG Export Plug-In . SVG Version: 6.00 Build 0)  -->
<!DOCTYPE svg PUBLIC "-//W3C//DTD SVG 1.1//EN" "http://www.w3.org/Graphics/SVG/1.1/DTD/svg11.dtd">
<svg version="1.1" id="Layer_1" xmlns="http://www.w3.org/2000/svg" xmlns:xlink="http://www.w3.org/1999/xlink" x="0px" y="0px"
	 width="309.035px" height="271.139px" viewBox="0 0 309.035 271.139" enable-background="new 0 0 309.035 271.139"
	 xml:space="preserve">
<path fill="#00BACF" d="M0.832,81.962h307.372v66.139v8.319c-84.469,35.569-196.25,37.001-307.372,39.26v-1.106V81.962z"/>
<polygon fill="#00BAFF" points="283.492,74.52 290.418,81.873 280.477,81.873 "/>
<path fill="#00F5FF" d="M191.572,74.52h91.922v12.211c0,4.313-3.547,7.485-7.846,7.843l-76.232,6.351
	c-4.297,0.359-7.844-3.527-7.844-7.843V74.52L191.572,74.52z"/>
<line fill="none" stroke="#649134" stroke-width="0.72" stroke-miterlimit="2.6131" stroke-dasharray="3.6,2.16" x1="70.392" y1="81.873" x2="70.392" y2="194.05"/>
<rect x="81.067" y="100.947" fill="#FFFFFF" width="1.325" height="77.863"/>
<path fill="#5EA6F2" d="M0.832,81.962h69.56v112.087c-23.044,0.72-46.316,1.154-69.56,1.628v-1.105V81.962z"/>
<g>
	<path fill="#FFFFFF" d="M30.027,119.565c0.483,0.365,1.169,0.273,1.535-0.208c1.631-2.139,4.107-3.365,6.791-3.365
		c1.92,0,3.725,0.629,5.196,1.764c-0.451,0.136-0.78,0.553-0.78,1.049c0,0.604,0.488,1.095,1.096,1.095h2.409
		c0.605,0,1.095-0.49,1.095-1.095v-2.41c0-0.604-0.49-1.097-1.095-1.097c-0.558,0-1.019,0.418-1.085,0.958
		c-1.9-1.58-4.294-2.455-6.835-2.455c-3.372,0-6.48,1.541-8.532,4.227C29.456,118.508,29.546,119.198,30.027,119.565z"/>
	<path fill="#FFFFFF" d="M45.007,127.985c0,2.468,2.007,4.475,4.473,4.475c2.468,0,4.476-2.007,4.476-4.475
		c0-2.465-2.007-4.474-4.476-4.474C47.015,123.509,45.007,125.518,45.007,127.985z"/>
	<path fill="#FFFFFF" d="M55.485,134.627l-0.01-0.001l-2.367-0.391c-0.2-0.063-0.415,0.042-0.487,0.242l-2.686,7.37
		c-0.154,0.425-0.756,0.425-0.911,0l-2.687-7.371c-0.06-0.161-0.21-0.261-0.371-0.261c-0.038,0-2.486,0.409-2.486,0.409
		c-1.629,0.542-2.72,2.057-2.72,3.767v6.133c0,0.919,0.745,1.664,1.665,1.664h14.109c0.918,0,1.664-0.745,1.664-1.664v-6.151
		C58.199,136.668,57.106,135.158,55.485,134.627z"/>
	<path fill="#FFFFFF" d="M27.229,132.459c2.468,0,4.475-2.007,4.475-4.475c0-2.465-2.009-4.474-4.475-4.474
		s-4.473,2.008-4.473,4.474C22.753,130.452,24.761,132.459,27.229,132.459z"/>
	<path fill="#FFFFFF" d="M35.945,144.524v-6.151c0-1.703-1.094-3.213-2.714-3.746l-0.01-0.002l-2.366-0.39
		c-0.201-0.063-0.416,0.042-0.488,0.242l-2.688,7.37c-0.154,0.426-0.756,0.426-0.909,0l-2.686-7.37
		c-0.06-0.161-0.21-0.261-0.372-0.261c-0.038,0-2.485,0.409-2.485,0.409c-1.631,0.542-2.72,2.057-2.72,3.767v6.133
		c0,0.919,0.745,1.664,1.664,1.664h14.11C35.202,146.187,35.945,145.442,35.945,144.524z"/>
	<path fill="#FFFFFF" d="M46.938,151.654c-0.483-0.365-1.168-0.274-1.536,0.207c-1.63,2.139-4.106,3.366-6.791,3.366
		c-1.917,0-3.723-0.63-5.194-1.764c0.45-0.137,0.78-0.555,0.78-1.049c0-0.604-0.49-1.097-1.094-1.097h-2.412
		c-0.605,0-1.095,0.491-1.095,1.097v2.408c0,0.604,0.489,1.096,1.095,1.096c0.558,0,1.018-0.417,1.085-0.957
		c1.902,1.58,4.293,2.454,6.834,2.454c3.372,0,6.481-1.542,8.534-4.228C47.511,152.707,47.419,152.021,46.938,151.654z"/>
	<path fill="#FFFFFF" d="M50.521,134.397c-0.112-0.12-0.271-0.181-0.434-0.181h-1.209c-0.161,0-0.323,0.061-0.434,0.181
		c-0.17,0.187-0.195,0.452-0.074,0.662l0.647,0.974l-0.305,2.557l0.599,1.587c0.058,0.162,0.285,0.162,0.34,0l0.596-1.587
		l-0.301-2.557l0.645-0.974C50.713,134.848,50.689,134.581,50.521,134.397z"/>
	<path fill="#FFFFFF" d="M28.266,134.397c-0.11-0.12-0.27-0.181-0.434-0.181h-1.208c-0.163,0-0.324,0.061-0.434,0.181
		c-0.17,0.187-0.194,0.452-0.073,0.662l0.647,0.974l-0.305,2.557l0.599,1.587c0.058,0.162,0.284,0.162,0.339,0l0.597-1.587
		l-0.303-2.555l0.647-0.976C28.46,134.848,28.436,134.581,28.266,134.397z"/>
</g>
<g>
	<path fill="#0082FF" d="M194.359,85.57l0.969-0.251c0.07,0.373,0.268,0.746,0.588,1.119c0.316,0.373,0.74,0.558,1.268,0.558
		c0.537,0,0.959-0.137,1.27-0.412c0.311-0.274,0.465-0.607,0.465-1c0-0.421-0.162-0.755-0.49-1.005
		c-0.328-0.249-0.775-0.374-1.338-0.374h-0.484v-0.883c0.467,0,0.824-0.027,1.072-0.082c0.248-0.053,0.465-0.191,0.656-0.413
		c0.186-0.221,0.285-0.473,0.285-0.755c0-0.335-0.131-0.626-0.391-0.874s-0.607-0.371-1.053-0.371c-0.387,0-0.717,0.097-0.99,0.29
		c-0.273,0.194-0.463,0.45-0.566,0.769c-0.105,0.318-0.158,0.559-0.158,0.714l-0.975-0.221c0.242-1.627,1.141-2.44,2.697-2.44
		c0.75,0,1.344,0.209,1.783,0.625c0.438,0.417,0.658,0.903,0.658,1.461c0,0.714-0.338,1.269-1.016,1.663
		c0.391,0.107,0.717,0.329,0.98,0.66c0.262,0.334,0.395,0.73,0.395,1.195c0,0.657-0.256,1.208-0.766,1.653
		c-0.51,0.444-1.189,0.667-2.031,0.667C195.738,87.864,194.795,87.099,194.359,85.57z"/>
	<path fill="#0082FF" d="M201.129,82.183h2.168c0.533,0,0.93,0.044,1.189,0.133c0.26,0.088,0.482,0.253,0.668,0.489
		c0.188,0.236,0.281,0.521,0.281,0.853c0,0.264-0.057,0.496-0.164,0.691c-0.109,0.197-0.275,0.361-0.494,0.494
		c0.262,0.088,0.479,0.252,0.652,0.488c0.172,0.239,0.258,0.522,0.258,0.851c-0.035,0.526-0.223,0.917-0.563,1.172
		c-0.34,0.254-0.838,0.381-1.49,0.381h-2.504L201.129,82.183L201.129,82.183z M202.068,84.519h1.004c0.4,0,0.676-0.021,0.826-0.063
		c0.15-0.042,0.285-0.126,0.402-0.254c0.119-0.128,0.18-0.281,0.18-0.458c0-0.292-0.105-0.497-0.311-0.611
		c-0.207-0.113-0.563-0.172-1.064-0.172h-1.033v1.559L202.068,84.519L202.068,84.519z M202.068,86.959h1.24
		c0.533,0,0.9-0.062,1.1-0.187c0.199-0.123,0.303-0.335,0.313-0.641c0-0.178-0.059-0.342-0.174-0.492
		c-0.113-0.153-0.262-0.248-0.449-0.288c-0.186-0.04-0.48-0.061-0.889-0.061h-1.141V86.959L202.068,86.959z"/>
	<path fill="#0082FF" d="M206.754,81.084v-1.093h1.008v0.861c0,0.467-0.055,0.805-0.162,1.009c-0.15,0.284-0.383,0.495-0.701,0.638
		l-0.23-0.371c0.188-0.077,0.328-0.196,0.42-0.362c0.092-0.164,0.145-0.394,0.156-0.683L206.754,81.084L206.754,81.084z"/>
	<path fill="#0082FF" d="M213.559,82.183v5.551h-0.934V85.57h-0.543c-0.332,0-0.578,0.042-0.74,0.127
		c-0.162,0.086-0.398,0.359-0.707,0.824l-0.82,1.213h-1.166l1.016-1.495c0.309-0.458,0.617-0.714,0.924-0.775
		c-0.535-0.071-0.936-0.265-1.193-0.58c-0.26-0.313-0.389-0.674-0.389-1.082c0-0.48,0.168-0.87,0.508-1.171
		c0.338-0.3,0.832-0.449,1.475-0.449L213.559,82.183L213.559,82.183z M212.625,82.96h-1.338c-0.561,0-0.924,0.087-1.084,0.262
		c-0.162,0.174-0.242,0.378-0.242,0.61c0,0.331,0.119,0.575,0.357,0.729c0.24,0.154,0.662,0.231,1.27,0.231h1.041L212.625,82.96
		L212.625,82.96z"/>
	<path fill="#0082FF" d="M218.342,82.183v2.398c0.301,0,0.51-0.057,0.633-0.172c0.121-0.115,0.301-0.449,0.533-1.004
		c0.219-0.526,0.416-0.861,0.59-1.008c0.17-0.144,0.441-0.214,0.814-0.214h0.346v0.778L221,82.957c-0.25,0-0.41,0.038-0.48,0.111
		c-0.074,0.077-0.188,0.305-0.336,0.684c-0.137,0.363-0.266,0.614-0.385,0.754s-0.303,0.267-0.555,0.383
		c0.408,0.107,0.805,0.483,1.193,1.129l1.031,1.72h-1.031l-1.008-1.72c-0.207-0.349-0.385-0.578-0.539-0.686
		c-0.154-0.106-0.334-0.161-0.549-0.161v2.565h-0.961v-2.567c-0.209,0-0.391,0.055-0.543,0.16c-0.154,0.106-0.334,0.335-0.539,0.688
		l-1.006,1.72h-1.035l1.029-1.72c0.389-0.646,0.787-1.022,1.197-1.129c-0.279-0.13-0.475-0.27-0.586-0.422
		c-0.111-0.15-0.277-0.512-0.502-1.084c-0.076-0.189-0.158-0.31-0.246-0.354c-0.09-0.045-0.223-0.068-0.4-0.068
		c-0.045,0-0.139,0.002-0.279,0.006v-0.779h0.131c0.363,0,0.617,0.021,0.768,0.064c0.146,0.043,0.279,0.137,0.396,0.278
		c0.115,0.14,0.27,0.433,0.457,0.879c0.232,0.548,0.408,0.88,0.525,1c0.121,0.118,0.334,0.178,0.635,0.178v-2.398h0.963
		L218.342,82.183L218.342,82.183z"/>
	<path fill="#0082FF" d="M222.152,81.153v-1.082h0.941v1.081L222.152,81.153L222.152,81.153z M222.152,87.734v-5.551h0.941v5.551
		H222.152z"/>
	<path fill="#0082FF" d="M224.02,82.183h4.51v0.778h-1.787v4.772h-0.936v-4.772h-1.787V82.183L224.02,82.183z"/>
	<path fill="#0082FF" d="M229.414,82.183h0.939v2.169h1.193c0.775,0,1.375,0.15,1.795,0.453c0.42,0.301,0.633,0.717,0.633,1.246
		c0,0.464-0.176,0.859-0.527,1.189c-0.352,0.329-0.908,0.494-1.68,0.494h-2.352L229.414,82.183L229.414,82.183z M230.354,86.959
		h0.988c0.596,0,1.021-0.072,1.277-0.219c0.254-0.146,0.381-0.375,0.381-0.685c0-0.239-0.092-0.455-0.283-0.644
		c-0.189-0.187-0.605-0.282-1.25-0.282h-1.113V86.959L230.354,86.959z"/>
	<path fill="#0082FF" d="M238.631,85.699l0.924,0.121c-0.1,0.638-0.359,1.137-0.775,1.497c-0.418,0.361-0.93,0.542-1.533,0.542
		c-0.762,0-1.373-0.249-1.832-0.745c-0.461-0.498-0.693-1.209-0.693-2.136c0-0.6,0.1-1.124,0.297-1.574
		c0.199-0.45,0.502-0.786,0.908-1.011c0.404-0.227,0.848-0.337,1.326-0.337c0.602,0,1.096,0.152,1.479,0.458s0.629,0.737,0.734,1.3
		l-0.912,0.141c-0.088-0.373-0.242-0.654-0.463-0.841c-0.221-0.188-0.488-0.284-0.803-0.284c-0.475,0-0.857,0.17-1.154,0.51
		c-0.295,0.339-0.445,0.877-0.445,1.612c0,0.746,0.145,1.288,0.43,1.625c0.285,0.338,0.658,0.508,1.117,0.508
		c0.371,0,0.682-0.112,0.93-0.339C238.408,86.52,238.563,86.17,238.631,85.699z"/>
	<path fill="#0082FF" d="M244.729,82.183v5.551h-0.936V85.57h-0.543c-0.332,0-0.578,0.042-0.74,0.127
		c-0.16,0.086-0.398,0.359-0.705,0.824l-0.822,1.213h-1.166l1.014-1.495c0.309-0.458,0.617-0.714,0.926-0.775
		c-0.537-0.071-0.936-0.265-1.193-0.58c-0.262-0.313-0.389-0.674-0.389-1.082c0-0.48,0.168-0.87,0.508-1.171
		c0.338-0.3,0.832-0.449,1.475-0.449L244.729,82.183L244.729,82.183z M243.793,82.96h-1.338c-0.561,0-0.922,0.087-1.082,0.262
		c-0.162,0.174-0.242,0.378-0.242,0.61c0,0.331,0.117,0.575,0.357,0.729c0.238,0.154,0.66,0.231,1.268,0.231h1.041L243.793,82.96
		L243.793,82.96z"/>
	<path fill="#0082FF" d="M250.357,85.225v-0.737c0.396-0.004,0.668-0.021,0.813-0.047c0.145-0.028,0.283-0.111,0.41-0.251
		c0.129-0.14,0.191-0.313,0.191-0.522c0-0.254-0.084-0.459-0.254-0.608c-0.168-0.152-0.387-0.229-0.656-0.229
		c-0.529,0-0.9,0.313-1.109,0.937l-0.896-0.146c0.281-1.042,0.953-1.563,2.02-1.563c0.592,0,1.057,0.16,1.393,0.485
		c0.336,0.324,0.504,0.71,0.504,1.159c0,0.455-0.217,0.814-0.656,1.082c0.279,0.15,0.488,0.341,0.629,0.573
		c0.139,0.231,0.209,0.507,0.209,0.823c0,0.498-0.184,0.902-0.543,1.212c-0.363,0.31-0.869,0.465-1.523,0.465
		c-1.266,0-1.996-0.563-2.199-1.688l0.881-0.188c0.08,0.355,0.242,0.632,0.488,0.827c0.246,0.194,0.527,0.292,0.846,0.292
		c0.316,0,0.58-0.088,0.791-0.269c0.209-0.18,0.316-0.409,0.316-0.688c0-0.217-0.066-0.404-0.199-0.564
		c-0.135-0.16-0.273-0.26-0.424-0.301c-0.15-0.04-0.422-0.061-0.814-0.061C250.541,85.22,250.469,85.221,250.357,85.225z"/>
	<path fill="#0082FF" d="M257.018,82.183h0.941v2.31h2.607v-2.31h0.941v5.551h-0.941v-2.462h-2.607v2.462h-0.941V82.183z"/>
	<path fill="#0082FF" d="M266.547,87.048c-0.35,0.297-0.684,0.507-1.004,0.628c-0.324,0.122-0.668,0.184-1.039,0.184
		c-0.609,0-1.078-0.149-1.404-0.447c-0.328-0.297-0.492-0.678-0.492-1.142c0-0.271,0.063-0.521,0.186-0.744
		c0.123-0.227,0.285-0.406,0.484-0.542c0.199-0.135,0.428-0.239,0.68-0.31c0.186-0.049,0.461-0.096,0.834-0.141
		c0.76-0.09,1.32-0.198,1.678-0.324c0.004-0.129,0.006-0.211,0.006-0.246c0-0.384-0.088-0.652-0.266-0.81
		c-0.24-0.211-0.6-0.319-1.072-0.319c-0.443,0-0.77,0.079-0.98,0.234c-0.209,0.155-0.365,0.43-0.467,0.823l-0.92-0.125
		c0.084-0.395,0.221-0.711,0.41-0.954c0.193-0.241,0.469-0.43,0.832-0.559c0.361-0.131,0.781-0.195,1.26-0.195
		c0.475,0,0.857,0.056,1.152,0.167c0.297,0.11,0.514,0.252,0.656,0.421c0.137,0.169,0.234,0.382,0.293,0.64
		c0.029,0.161,0.045,0.45,0.045,0.868v1.253c0,0.876,0.02,1.428,0.061,1.66s0.121,0.455,0.238,0.667h-0.982
		C266.637,87.537,266.574,87.311,266.547,87.048z M266.469,84.948c-0.342,0.138-0.855,0.258-1.537,0.355
		c-0.387,0.056-0.662,0.117-0.822,0.188c-0.16,0.068-0.283,0.171-0.371,0.306c-0.086,0.135-0.131,0.283-0.131,0.447
		c0,0.251,0.094,0.458,0.285,0.627c0.191,0.168,0.469,0.251,0.834,0.251c0.361,0,0.684-0.079,0.967-0.236
		c0.283-0.158,0.49-0.376,0.621-0.65c0.104-0.213,0.152-0.527,0.152-0.941v-0.346H266.469z"/>
	<path fill="#0082FF" d="M268.902,82.183h1.465l1.459,4.442l1.621-4.442h1.352v5.551h-0.941v-4.469l-1.641,4.469h-0.842
		l-1.553-4.685v4.685h-0.92V82.183L268.902,82.183z"/>
	<path fill="#0082FF" d="M276.236,82.183h0.941v4.233l2.611-4.233h1.012v5.551h-0.941v-4.208l-2.607,4.208h-1.014v-5.551H276.236z"
		/>
</g>
<g>
	<path fill="#FFFFFF" d="M89.42,114.468c0-1.032-0.015-1.864-0.065-2.631h1.316l0.083,1.382h0.033c0.583-1,1.549-1.565,2.848-1.565
		c1.967,0,3.432,1.648,3.432,4.097c0,2.898-1.782,4.329-3.664,4.329c-1.083,0-1.998-0.465-2.481-1.265h-0.035v4.379h-1.465
		L89.42,114.468L89.42,114.468z M90.885,116.616c0,0.2,0.017,0.415,0.067,0.599c0.25,1.017,1.149,1.716,2.182,1.716
		c1.548,0,2.447-1.267,2.447-3.114c0-1.615-0.833-2.998-2.381-2.998c-1.001,0-1.948,0.701-2.231,1.799
		c-0.035,0.2-0.085,0.417-0.085,0.599L90.885,116.616L90.885,116.616z"/>
	<path fill="#FFFFFF" d="M98.695,118.414c0.45,0.268,1.216,0.566,1.947,0.566c1.049,0,1.549-0.517,1.549-1.199
		c0-0.7-0.417-1.083-1.482-1.482c-1.465-0.532-2.148-1.314-2.148-2.281c0-1.301,1.066-2.365,2.781-2.365
		c0.816,0,1.532,0.216,1.967,0.5l-0.35,1.049c-0.316-0.184-0.901-0.466-1.648-0.466c-0.866,0-1.333,0.5-1.333,1.099
		c0,0.684,0.466,0.982,1.515,1.382c1.382,0.518,2.117,1.217,2.117,2.433c0,1.432-1.115,2.431-2.997,2.431
		c-0.883,0-1.699-0.232-2.267-0.564L98.695,118.414z"/>
	<path fill="#FFFFFF" d="M105.49,114.019c0-0.851-0.017-1.516-0.067-2.182h1.299l0.085,1.315h0.034c0.399-0.749,1.332-1.5,2.665-1.5
		c1.115,0,2.847,0.666,2.847,3.431v4.813h-1.467v-4.646c0-1.301-0.483-2.397-1.865-2.397c-0.949,0-1.697,0.682-1.965,1.499
		c-0.066,0.184-0.1,0.449-0.1,0.683v4.862h-1.465v-5.878H105.49z"/>
	<path fill="#FFFFFF" d="M116.197,115.534h0.033c0.2-0.284,0.466-0.649,0.699-0.916l2.381-2.781h1.749l-3.114,3.313l3.547,4.747
		h-1.78l-2.764-3.88l-0.75,0.85v3.031h-1.465v-11.824h1.465L116.197,115.534L116.197,115.534z"/>
	<path fill="#FFFFFF" d="M130.051,119.413c-0.916,0.484-1.848,0.667-2.964,0.667c-2.731,0-5.044-1.998-5.044-5.195
		c0-3.431,2.381-6.395,6.078-6.395c2.897,0,4.829,2.032,4.829,4.813c0,2.497-1.382,3.963-2.948,3.963
		c-0.666,0-1.265-0.435-1.232-1.466h-0.05c-0.6,0.981-1.366,1.466-2.365,1.466c-0.966,0-1.798-0.783-1.798-2.1
		c0-2.063,1.632-3.945,3.946-3.945c0.716,0,1.366,0.149,1.782,0.35l-0.549,3.014c-0.25,1.267-0.067,1.849,0.483,1.865
		c0.849,0.033,1.797-1.116,1.797-3.031c0-2.432-1.449-4.163-4.028-4.163c-2.714,0-4.996,2.147-4.996,5.544
		c0,2.765,1.815,4.479,4.28,4.479c0.966,0,1.847-0.2,2.515-0.582L130.051,119.413z M129.152,112.238
		c-0.167-0.067-0.452-0.134-0.833-0.134c-1.482,0-2.664,1.382-2.664,2.998c0,0.75,0.366,1.267,1.101,1.267
		c0.966,0,1.865-1.232,2.046-2.266L129.152,112.238z"/>
	<path fill="#FFFFFF" d="M136.279,115.534h0.035c0.2-0.284,0.464-0.649,0.699-0.916l2.381-2.781h1.748l-3.112,3.313l3.547,4.747
		h-1.782l-2.764-3.88l-0.75,0.85v3.031h-1.465v-11.824h1.465L136.279,115.534L136.279,115.534z"/>
	<path fill="#FFFFFF" d="M142.924,114.468c0-1.032-0.015-1.864-0.065-2.631h1.315l0.083,1.382h0.033
		c0.583-1,1.549-1.565,2.848-1.565c1.967,0,3.432,1.648,3.432,4.097c0,2.898-1.782,4.329-3.664,4.329
		c-1.083,0-1.999-0.465-2.481-1.265h-0.034v4.379h-1.466L142.924,114.468L142.924,114.468z M144.39,116.616
		c0,0.2,0.017,0.415,0.067,0.599c0.25,1.017,1.151,1.716,2.181,1.716c1.549,0,2.448-1.267,2.448-3.114
		c0-1.615-0.833-2.998-2.381-2.998c-0.999,0-1.949,0.701-2.231,1.799c-0.035,0.2-0.085,0.417-0.085,0.599L144.39,116.616
		L144.39,116.616z"/>
	<path fill="#FFFFFF" d="M153.099,110.356c-0.549,0-0.916-0.435-0.916-0.949c0-0.517,0.383-0.933,0.949-0.933
		s0.933,0.417,0.933,0.933c0,0.515-0.366,0.949-0.95,0.949H153.099z M152.399,119.898v-8.061h1.465v8.061H152.399z"/>
	<path fill="#FFFFFF" d="M156.912,120.08c-0.566,0-0.967-0.45-0.967-1.049s0.418-1.049,1-1.049c0.584,0,0.982,0.433,0.982,1.049
		c0,0.6-0.398,1.049-1,1.049H156.912z"/>
	<path fill="#FFFFFF" d="M166.486,117.699c0,0.833,0.018,1.565,0.066,2.198h-1.301l-0.084-1.316h-0.033
		c-0.367,0.649-1.232,1.499-2.664,1.499c-1.266,0-2.781-0.716-2.781-3.53v-4.712h1.465v4.446c0,1.532,0.484,2.581,1.799,2.581
		c0.98,0,1.666-0.682,1.932-1.349c0.084-0.2,0.133-0.467,0.133-0.749v-4.93h1.465L166.486,117.699L166.486,117.699z"/>
	<path fill="#FFFFFF" d="M174.596,117.965c0,0.699,0.035,1.383,0.117,1.933h-1.314l-0.135-1.017h-0.049
		c-0.436,0.634-1.316,1.199-2.465,1.199c-1.633,0-2.465-1.148-2.465-2.313c0-1.949,1.73-3.016,4.844-2.998v-0.167
		c0-0.666-0.184-1.881-1.832-1.865c-0.766,0-1.549,0.217-2.113,0.6l-0.336-0.981c0.666-0.416,1.648-0.7,2.664-0.7
		c2.482,0,3.082,1.682,3.082,3.297v3.015L174.596,117.965L174.596,117.965z M173.166,115.783c-1.6-0.033-3.414,0.25-3.414,1.815
		c0,0.966,0.631,1.399,1.365,1.399c1.064,0,1.748-0.666,1.98-1.35c0.051-0.15,0.066-0.315,0.066-0.467v-1.398H173.166z"/>
	<path fill="#FFFFFF" d="M92.522,139.88v-10.514h-3.928v-1.407h9.449v1.407h-3.943v10.514H92.522z"/>
	<path fill="#FFFFFF" d="M104.452,137.1l1.512,0.187c-0.238,0.883-0.682,1.569-1.326,2.058c-0.645,0.486-1.469,0.73-2.47,0.73
		c-1.263,0-2.267-0.387-3.006-1.166c-0.74-0.778-1.108-1.869-1.108-3.273c0-1.452,0.374-2.579,1.122-3.382
		c0.749-0.803,1.718-1.203,2.911-1.203c1.154,0,2.098,0.394,2.831,1.18c0.731,0.785,1.099,1.892,1.099,3.315
		c0,0.087-0.003,0.218-0.01,0.392h-6.438c0.054,0.948,0.322,1.675,0.805,2.179s1.084,0.756,1.805,0.756
		c0.537,0,0.994-0.141,1.375-0.423C103.927,138.167,104.229,137.717,104.452,137.1z M99.646,134.734h4.82
		c-0.063-0.728-0.249-1.272-0.553-1.634c-0.467-0.564-1.071-0.847-1.814-0.847c-0.672,0-1.237,0.226-1.697,0.676
		C99.947,133.378,99.694,133.98,99.646,134.734z"/>
	<path fill="#FFFFFF" d="M107.963,131.245h6.8v8.635h-1.455v-7.423h-3.878v4.3c0,1.005-0.035,1.666-0.098,1.984
		c-0.065,0.321-0.244,0.601-0.536,0.837c-0.293,0.239-0.716,0.359-1.269,0.359c-0.341,0-0.734-0.021-1.179-0.065v-1.22h0.643
		c0.303,0,0.521-0.031,0.65-0.093c0.132-0.063,0.217-0.161,0.261-0.297c0.043-0.136,0.065-0.577,0.065-1.325v-5.692H107.963z"/>
	<path fill="#FFFFFF" d="M122.876,137.1l1.512,0.187c-0.237,0.883-0.68,1.569-1.326,2.058c-0.645,0.486-1.469,0.73-2.472,0.73
		c-1.263,0-2.265-0.387-3.004-1.166c-0.74-0.778-1.11-1.869-1.11-3.273c0-1.452,0.374-2.579,1.122-3.382s1.72-1.203,2.912-1.203
		c1.152,0,2.096,0.394,2.83,1.18c0.731,0.785,1.098,1.892,1.098,3.315c0,0.087-0.003,0.218-0.008,0.392h-6.439
		c0.054,0.948,0.322,1.675,0.805,2.179c0.482,0.504,1.083,0.756,1.803,0.756c0.536,0,0.996-0.141,1.375-0.423
		C122.353,138.167,122.653,137.717,122.876,137.1z M118.07,134.734h4.821c-0.064-0.728-0.249-1.272-0.553-1.634
		c-0.466-0.564-1.072-0.847-1.815-0.847c-0.672,0-1.237,0.226-1.695,0.676C118.373,133.378,118.12,133.98,118.07,134.734z"/>
	<path fill="#FFFFFF" d="M131.251,127.959h1.463v4.124c0.305-0.347,0.637-0.606,1.002-0.776c0.361-0.172,0.753-0.257,1.171-0.257
		c1.024,0,1.836,0.428,2.436,1.281c0.599,0.854,0.899,1.929,0.899,3.224c0,1.35-0.323,2.439-0.969,3.272
		c-0.645,0.831-1.447,1.248-2.407,1.248c-0.313,0-0.632-0.049-0.958-0.146c-0.326-0.098-0.715-0.361-1.173-0.798v4.059h-1.463
		v-4.059c-0.292,0.315-0.617,0.552-0.972,0.708c-0.355,0.158-0.739,0.235-1.151,0.235c-0.905,0-1.698-0.396-2.375-1.19
		c-0.68-0.795-1.016-1.932-1.016-3.41c0-1.252,0.306-2.303,0.918-3.151c0.613-0.848,1.437-1.272,2.472-1.272
		c0.434,0,0.827,0.085,1.177,0.257c0.35,0.171,0.667,0.431,0.943,0.777v-4.126H131.251z M127.227,135.433
		c0,1.22,0.205,2.098,0.614,2.634c0.409,0.536,0.917,0.806,1.524,0.806c0.634,0,1.109-0.267,1.425-0.801
		c0.312-0.533,0.472-1.334,0.472-2.403c0-1.139-0.166-1.992-0.496-2.561c-0.333-0.569-0.83-0.854-1.498-0.854
		c-0.602,0-1.093,0.277-1.472,0.832C127.417,133.643,127.227,134.424,127.227,135.433z M132.707,135.596
		c0,1.301,0.179,2.175,0.537,2.622c0.358,0.448,0.805,0.671,1.342,0.671c0.596,0,1.103-0.275,1.524-0.825
		c0.42-0.551,0.632-1.405,0.632-2.565c0-1.095-0.194-1.911-0.582-2.447c-0.386-0.536-0.883-0.806-1.492-0.806
		c-0.651,0-1.14,0.281-1.468,0.837C132.871,133.641,132.707,134.479,132.707,135.596z"/>
	<path fill="#FFFFFF" d="M139.381,135.563c0-1.599,0.444-2.783,1.333-3.554c0.743-0.639,1.648-0.959,2.716-0.959
		c1.187,0,2.157,0.39,2.911,1.167c0.755,0.779,1.13,1.854,1.13,3.224c0,1.111-0.167,1.985-0.5,2.623
		c-0.335,0.637-0.818,1.131-1.456,1.482c-0.637,0.354-1.332,0.528-2.085,0.528c-1.209,0-2.187-0.386-2.934-1.163
		C139.754,138.138,139.381,137.022,139.381,135.563z M140.886,135.563c0,1.105,0.241,1.934,0.724,2.484
		c0.483,0.552,1.09,0.826,1.822,0.826c0.726,0,1.329-0.275,1.813-0.831c0.482-0.553,0.724-1.395,0.724-2.528
		c0-1.067-0.243-1.876-0.728-2.428c-0.485-0.551-1.088-0.826-1.809-0.826c-0.731,0-1.339,0.274-1.822,0.821
		C141.127,133.63,140.886,134.457,140.886,135.563z"/>
	<path fill="#FFFFFF" d="M149.196,131.245h1.463v3.594h4.058v-3.594h1.462v8.635h-1.462v-3.829h-4.058v3.829h-1.463V131.245
		L149.196,131.245z"/>
	<path fill="#FFFFFF" d="M159.119,140.064c-0.566,0-0.967-0.449-0.967-1.032c0-0.616,0.416-1.049,0.982-1.049
		c0.6,0,0.979,0.433,0.979,1.049c0,0.583-0.383,1.032-0.979,1.032H159.119z M159.135,134.186c-0.566,0-0.965-0.451-0.965-1.033
		c0-0.616,0.414-1.049,0.98-1.049c0.6,0,0.982,0.433,0.982,1.049c0,0.582-0.385,1.033-0.982,1.033H159.135z"/>
	<path fill="#FFFFFF" d="M178.227,128.323c-1.215,1.649-2.082,3.796-2.082,6.828c0,2.964,0.916,5.078,2.082,6.744h-1.131
		c-1.049-1.382-2.182-3.515-2.182-6.762c0.016-3.264,1.133-5.412,2.182-6.811H178.227z"/>
	<path fill="#FFFFFF" d="M182.773,140.064c-2.117,0-3.563-1.981-3.6-5.563c0-3.646,1.584-5.628,3.781-5.628
		c2.264,0,3.58,2.032,3.58,5.479c0,3.681-1.381,5.712-3.746,5.712H182.773L182.773,140.064z M182.838,138.931
		c1.482,0,2.199-1.747,2.199-4.514c0-2.665-0.666-4.413-2.199-4.413c-1.33,0-2.197,1.698-2.197,4.413
		c-0.035,2.814,0.832,4.514,2.182,4.514H182.838z"/>
	<path fill="#FFFFFF" d="M192.396,139.88v-2.946h-5.029v-0.949l4.83-6.927h1.582v6.743h1.516v1.132h-1.516v2.946L192.396,139.88
		L192.396,139.88z M192.396,135.8v-3.631c0-0.565,0.018-1.131,0.051-1.696h-0.051c-0.332,0.632-0.6,1.099-0.898,1.614l-2.648,3.681
		v0.034L192.396,135.8L192.396,135.8z"/>
	<path fill="#FFFFFF" d="M200.939,139.88v-2.946h-5.027v-0.949l4.828-6.927h1.58v6.743h1.518v1.132h-1.518v2.946L200.939,139.88
		L200.939,139.88z M200.939,135.8v-3.631c0-0.565,0.016-1.131,0.051-1.696h-0.051c-0.334,0.632-0.6,1.099-0.9,1.614l-2.646,3.681
		v0.034L200.939,135.8L200.939,135.8z"/>
	<path fill="#FFFFFF" d="M204.535,141.896c1.166-1.648,2.082-3.798,2.082-6.794c0-2.998-0.9-5.113-2.082-6.778h1.133
		c1.049,1.365,2.18,3.514,2.18,6.778c-0.016,3.263-1.131,5.378-2.18,6.794H204.535L204.535,141.896z"/>
	<path fill="#FFFFFF" d="M213.211,139.88v-0.898l1.15-1.116c2.764-2.631,4.029-4.03,4.029-5.661c0-1.1-0.518-2.116-2.131-2.116
		c-0.982,0-1.799,0.5-2.299,0.916l-0.465-1.03c0.73-0.616,1.816-1.101,3.063-1.101c2.316,0,3.297,1.6,3.297,3.147
		c0,1.999-1.447,3.613-3.729,5.812l-0.852,0.799v0.034h4.846v1.215H213.211L213.211,139.88z"/>
	<path fill="#FFFFFF" d="M225.201,140.064c-2.117,0-3.563-1.981-3.598-5.563c0-3.646,1.58-5.628,3.779-5.628
		c2.266,0,3.58,2.032,3.58,5.479c0,3.681-1.381,5.712-3.748,5.712H225.201L225.201,140.064z M225.268,138.931
		c1.482,0,2.199-1.747,2.199-4.514c0-2.665-0.666-4.413-2.199-4.413c-1.33,0-2.197,1.698-2.197,4.413
		c-0.033,2.814,0.832,4.514,2.184,4.514H225.268z"/>
	<path fill="#FFFFFF" d="M234.826,139.88v-2.946h-5.029v-0.949l4.83-6.927h1.582v6.743h1.516v1.132h-1.516v2.946L234.826,139.88
		L234.826,139.88z M234.826,135.8v-3.631c0-0.565,0.016-1.131,0.051-1.696h-0.051c-0.332,0.632-0.6,1.099-0.898,1.614l-2.648,3.681
		v0.034L234.826,135.8L234.826,135.8z"/>
	<path fill="#FFFFFF" d="M242.703,134.851v1.065h-4.113v-1.065H242.703z"/>
	<path fill="#FFFFFF" d="M244.801,138.865c0.314,0.016,0.682,0,1.18-0.066c0.852-0.1,1.65-0.449,2.268-1.051
		c0.717-0.648,1.232-1.598,1.432-2.88h-0.049c-0.602,0.733-1.467,1.166-2.566,1.166c-1.947,0-3.195-1.466-3.195-3.331
		c0-2.031,1.498-3.83,3.713-3.83s3.58,1.782,3.58,4.563c0,2.381-0.799,4.048-1.865,5.096c-0.832,0.799-1.982,1.315-3.146,1.448
		c-0.533,0.066-1.018,0.1-1.35,0.085V138.865L244.801,138.865z M247.449,129.989c-1.23,0-2.117,1.1-2.117,2.631
		c0,1.35,0.814,2.298,2.082,2.298c0.982,0,1.75-0.482,2.148-1.133c0.066-0.133,0.115-0.299,0.115-0.532
		c0.016-1.864-0.682-3.264-2.215-3.264H247.449z"/>
	<path fill="#FFFFFF" d="M258.955,130.288h-4.129l-0.418,2.748c0.252-0.033,0.482-0.064,0.883-0.064c0.85,0,1.666,0.183,2.332,0.582
		c0.848,0.467,1.547,1.415,1.547,2.813c0,2.115-1.682,3.697-4.029,3.697c-1.182,0-2.164-0.334-2.697-0.666l0.365-1.116
		c0.451,0.267,1.334,0.6,2.332,0.6c1.365,0,2.566-0.898,2.547-2.364c0-1.433-0.949-2.415-3.098-2.415
		c-0.631,0-1.115,0.05-1.514,0.116l0.697-5.161h5.18v1.23H258.955z"/>
	<path fill="#FFFFFF" d="M264.898,134.851v1.065h-4.113v-1.065H264.898z"/>
	<path fill="#FFFFFF" d="M270.678,139.88v-2.946h-5.029v-0.949l4.83-6.927h1.582v6.743h1.516v1.132h-1.516v2.946L270.678,139.88
		L270.678,139.88z M270.678,135.8v-3.631c0-0.565,0.016-1.131,0.049-1.696h-0.049c-0.334,0.632-0.6,1.099-0.9,1.614l-2.646,3.681
		v0.034L270.678,135.8L270.678,135.8z"/>
	<path fill="#FFFFFF" d="M281.717,129.057v0.966l-4.711,9.855h-1.5l4.68-9.574v-0.033h-5.297v-1.214H281.717z"/>
	<path fill="#FFFFFF" d="M93.799,149.375v-1.528h1.48v1.528c1.518,0.082,2.714,0.537,3.594,1.37
		c0.878,0.832,1.317,1.866,1.317,3.103c0,1.209-0.426,2.235-1.276,3.082c-0.851,0.848-2.063,1.313-3.632,1.399v1.537h-1.48v-1.537
		c-1.409-0.054-2.583-0.483-3.521-1.289c-0.938-0.805-1.406-1.869-1.406-3.19c0-1.328,0.468-2.392,1.402-3.188
		C91.21,149.865,92.384,149.434,93.799,149.375z M93.799,150.732c-0.981,0.044-1.775,0.335-2.382,0.871s-0.911,1.284-0.911,2.244
		c0,0.946,0.299,1.692,0.898,2.234c0.599,0.542,1.399,0.835,2.395,0.88V150.732z M95.279,150.724v6.243
		c1.019-0.049,1.822-0.344,2.407-0.886c0.583-0.542,0.878-1.288,0.878-2.234c0-0.934-0.286-1.673-0.862-2.218
		C97.127,151.085,96.319,150.784,95.279,150.724z"/>
	<path fill="#FFFFFF" d="M107.598,158.798c-0.542,0.459-1.064,0.785-1.565,0.977c-0.503,0.189-1.04,0.285-1.616,0.285
		c-0.948,0-1.676-0.233-2.188-0.694c-0.508-0.465-0.764-1.057-0.764-1.777c0-0.423,0.097-0.809,0.289-1.157
		c0.192-0.35,0.444-0.632,0.756-0.843s0.663-0.371,1.053-0.479c0.287-0.076,0.721-0.148,1.301-0.219
		c1.182-0.143,2.052-0.31,2.612-0.505c0.005-0.2,0.008-0.329,0.008-0.384c0-0.597-0.136-1.017-0.415-1.261
		c-0.374-0.33-0.93-0.496-1.667-0.496c-0.689,0-1.197,0.121-1.524,0.362c-0.33,0.241-0.57,0.668-0.73,1.28l-1.429-0.195
		c0.13-0.612,0.342-1.106,0.64-1.483s0.731-0.667,1.295-0.87c0.562-0.203,1.217-0.307,1.959-0.307c0.735,0,1.336,0.088,1.797,0.262
		c0.461,0.174,0.799,0.392,1.016,0.654c0.217,0.263,0.369,0.595,0.458,0.997c0.049,0.249,0.073,0.699,0.073,1.351v1.951
		c0,1.36,0.031,2.219,0.091,2.581c0.062,0.36,0.187,0.706,0.37,1.036h-1.526C107.738,159.56,107.642,159.204,107.598,158.798z
		 M107.477,155.53c-0.533,0.216-1.328,0.401-2.392,0.553c-0.602,0.087-1.028,0.187-1.276,0.293
		c-0.249,0.108-0.442,0.268-0.577,0.477c-0.136,0.209-0.206,0.438-0.206,0.693c0,0.391,0.147,0.716,0.443,0.979
		c0.295,0.26,0.729,0.389,1.299,0.389c0.562,0,1.065-0.123,1.502-0.368c0.438-0.247,0.761-0.585,0.967-1.013
		c0.159-0.332,0.236-0.818,0.236-1.463L107.477,155.53L107.477,155.53z"/>
	<path fill="#FFFFFF" d="M111.216,151.228h1.463v3.731c0.466,0,0.793-0.09,0.979-0.268c0.187-0.181,0.462-0.7,0.827-1.563
		c0.286-0.682,0.521-1.133,0.699-1.35c0.179-0.217,0.384-0.362,0.618-0.438c0.233-0.075,0.607-0.113,1.123-0.113h0.292v1.212
		l-0.409-0.009c-0.384,0-0.632,0.058-0.738,0.172c-0.114,0.118-0.288,0.475-0.521,1.063c-0.223,0.563-0.428,0.953-0.609,1.171
		c-0.185,0.217-0.47,0.415-0.854,0.595c0.629,0.168,1.247,0.753,1.852,1.757l1.602,2.674h-1.61l-1.561-2.674
		c-0.32-0.537-0.599-0.892-0.837-1.063c-0.237-0.171-0.523-0.257-0.854-0.257v3.992h-1.464L111.216,151.228L111.216,151.228z"/>
	<path fill="#FFFFFF" d="M124.332,156.7l1.439,0.188c-0.158,0.99-0.558,1.768-1.208,2.328c-0.647,0.561-1.443,0.842-2.386,0.842
		c-1.182,0-2.132-0.386-2.85-1.158c-0.718-0.772-1.078-1.879-1.078-3.321c0-0.933,0.154-1.749,0.461-2.448
		c0.31-0.698,0.781-1.223,1.411-1.571c0.632-0.353,1.318-0.525,2.062-0.525c0.938,0,1.705,0.236,2.301,0.711
		c0.596,0.476,0.979,1.147,1.146,2.021l-1.423,0.219c-0.135-0.582-0.375-1.018-0.719-1.31c-0.344-0.292-0.76-0.438-1.249-0.438
		c-0.737,0-1.336,0.264-1.796,0.793c-0.459,0.527-0.691,1.364-0.691,2.508c0,1.16,0.223,2.004,0.667,2.528
		c0.444,0.525,1.025,0.788,1.74,0.788c0.576,0,1.054-0.176,1.439-0.529C123.984,157.974,124.229,157.432,124.332,156.7z"/>
	<path fill="#FFFFFF" d="M127.756,160.046c-0.566,0-0.966-0.448-0.966-1.028c0-0.617,0.417-1.053,0.982-1.053
		c0.6,0,0.982,0.436,0.982,1.053c0,0.582-0.384,1.028-0.982,1.028H127.756z M127.773,154.168c-0.566,0-0.966-0.45-0.966-1.031
		c0-0.616,0.417-1.05,0.982-1.05c0.6,0,0.981,0.434,0.981,1.05c0,0.581-0.383,1.031-0.981,1.031H127.773z"/>
	<path fill="#FFFFFF" d="M177.998,148.307c-1.217,1.647-2.082,3.798-2.082,6.826c0,2.966,0.916,5.079,2.082,6.744h-1.133
		c-1.049-1.382-2.182-3.514-2.182-6.761c0.016-3.263,1.133-5.412,2.182-6.811L177.998,148.307L177.998,148.307z"/>
	<path fill="#FFFFFF" d="M182.543,160.046c-2.115,0-3.564-1.979-3.598-5.562c0-3.647,1.582-5.628,3.779-5.628
		c2.266,0,3.58,2.032,3.58,5.479c0,3.681-1.381,5.711-3.746,5.711H182.543L182.543,160.046z M182.607,158.915
		c1.482,0,2.199-1.748,2.199-4.514c0-2.664-0.668-4.413-2.199-4.413c-1.332,0-2.197,1.698-2.197,4.413
		c-0.033,2.813,0.834,4.514,2.182,4.514H182.607z"/>
	<path fill="#FFFFFF" d="M192.168,159.863v-2.947h-5.029v-0.949l4.83-6.927h1.582v6.745h1.516v1.132h-1.516v2.947L192.168,159.863
		L192.168,159.863z M192.168,155.783v-3.63c0-0.566,0.016-1.133,0.051-1.699h-0.051c-0.334,0.633-0.6,1.101-0.9,1.615l-2.646,3.682
		v0.033L192.168,155.783L192.168,155.783z"/>
	<path fill="#FFFFFF" d="M200.709,159.863v-2.947h-5.029v-0.949l4.83-6.927h1.582v6.745h1.516v1.132h-1.516v2.947L200.709,159.863
		L200.709,159.863z M200.709,155.783v-3.63c0-0.566,0.018-1.133,0.051-1.699h-0.051c-0.332,0.633-0.6,1.101-0.898,1.615
		l-2.646,3.682v0.033L200.709,155.783L200.709,155.783z"/>
	<path fill="#FFFFFF" d="M204.307,161.878c1.166-1.646,2.082-3.797,2.082-6.795c0-2.996-0.9-5.11-2.082-6.776h1.131
		c1.051,1.366,2.182,3.514,2.182,6.776c-0.016,3.266-1.131,5.379-2.182,6.795H204.307z"/>
	<path fill="#FFFFFF" d="M212.982,159.863v-0.898l1.15-1.116c2.764-2.632,4.029-4.028,4.029-5.662c0-1.1-0.516-2.114-2.133-2.114
		c-0.98,0-1.797,0.499-2.297,0.916l-0.465-1.033c0.732-0.616,1.814-1.099,3.063-1.099c2.316,0,3.299,1.599,3.299,3.146
		c0,1.997-1.451,3.612-3.73,5.813l-0.85,0.8v0.034h4.846v1.217h-6.912V159.863L212.982,159.863z"/>
	<path fill="#FFFFFF" d="M224.973,160.046c-2.117,0-3.563-1.979-3.6-5.562c0-3.647,1.584-5.628,3.779-5.628
		c2.266,0,3.582,2.032,3.582,5.479c0,3.681-1.381,5.711-3.748,5.711H224.973L224.973,160.046z M225.039,158.915
		c1.48,0,2.197-1.748,2.197-4.514c0-2.664-0.666-4.413-2.197-4.413c-1.332,0-2.199,1.698-2.199,4.413
		c-0.033,2.813,0.834,4.514,2.184,4.514H225.039z"/>
	<path fill="#FFFFFF" d="M234.596,159.863v-2.947h-5.029v-0.949l4.83-6.927h1.58v6.745h1.518v1.132h-1.518v2.947L234.596,159.863
		L234.596,159.863z M234.596,155.783v-3.63c0-0.566,0.016-1.133,0.051-1.699h-0.051c-0.334,0.633-0.6,1.101-0.9,1.615l-2.646,3.682
		v0.033L234.596,155.783L234.596,155.783z"/>
	<path fill="#FFFFFF" d="M242.473,154.834v1.065h-4.113v-1.065H242.473z"/>
	<path fill="#FFFFFF" d="M247.354,148.857c2.096,0,3.162,1.298,3.162,2.664c0,0.915-0.465,1.915-1.797,2.531v0.05
		c1.348,0.532,2.182,1.5,2.182,2.799c0,1.896-1.615,3.146-3.68,3.146c-2.266,0-3.631-1.332-3.631-2.912
		c0-1.364,0.814-2.348,2.133-2.913v-0.052c-1.217-0.565-1.732-1.498-1.732-2.431c0-1.715,1.447-2.881,3.346-2.881L247.354,148.857
		L247.354,148.857z M247.268,158.981c1.314,0,2.166-0.815,2.166-1.934c0-1.298-0.916-1.944-2.381-2.362
		c-1.266,0.365-1.947,1.215-1.947,2.248c-0.051,1.08,0.781,2.046,2.148,2.046L247.268,158.981L247.268,158.981z M247.303,149.906
		c-1.215,0-1.881,0.799-1.881,1.732c-0.018,1.081,0.814,1.664,2.064,1.996c0.932-0.313,1.648-0.98,1.648-1.965
		c0-0.864-0.516-1.765-1.818-1.765L247.303,149.906L247.303,149.906z"/>
	<path fill="#FFFFFF" d="M258.727,150.272h-4.129l-0.418,2.747c0.25-0.033,0.484-0.066,0.883-0.066c0.85,0,1.666,0.185,2.332,0.582
		c0.85,0.466,1.549,1.416,1.549,2.814c0,2.114-1.682,3.696-4.027,3.696c-1.184,0-2.168-0.334-2.699-0.666l0.367-1.115
		c0.449,0.267,1.33,0.599,2.332,0.599c1.363,0,2.564-0.898,2.547-2.364c0-1.432-0.951-2.415-3.096-2.415
		c-0.635,0-1.117,0.051-1.518,0.116l0.701-5.163h5.178L258.727,150.272L258.727,150.272z"/>
	<path fill="#FFFFFF" d="M264.668,154.834v1.065h-4.113v-1.065H264.668z"/>
	<path fill="#FFFFFF" d="M269.363,160.046c-2.113,0-3.563-1.979-3.596-5.562c0-3.647,1.582-5.628,3.779-5.628
		c2.266,0,3.58,2.032,3.58,5.479c0,3.681-1.381,5.711-3.746,5.711H269.363L269.363,160.046z M269.434,158.915
		c1.48,0,2.197-1.748,2.197-4.514c0-2.664-0.668-4.413-2.197-4.413c-1.332,0-2.199,1.698-2.199,4.413
		c-0.033,2.813,0.834,4.514,2.184,4.514H269.434z"/>
	<path fill="#FFFFFF" d="M277.641,150.405h-0.033l-1.881,1.016l-0.285-1.115l2.365-1.266h1.25v10.824h-1.416V150.405
		L277.641,150.405z"/>
</g>
</svg>
