<?xml version="1.0" encoding="utf-8"?>
<!-- Generator: Adobe Illustrator 15.0.2, SVG Export Plug-In . SVG Version: 6.00 Build 0)  -->
<!DOCTYPE svg PUBLIC "-//W3C//DTD SVG 1.1//EN" "http://www.w3.org/Graphics/SVG/1.1/DTD/svg11.dtd">
<svg version="1.1" id="Layer_1" xmlns="http://www.w3.org/2000/svg" xmlns:xlink="http://www.w3.org/1999/xlink" x="0px" y="0px"
	 width="114.393px" height="35.878px" viewBox="140.1 0 114.393 35.878" enable-background="new 140.1 0 114.393 35.878"
	 xml:space="preserve">
<polygon fill="#4FA6F4" points="246.366,0 230.577,0 238.704,6.041 254.493,6.041 "/>
<polygon fill="#00A6F4" points="145.508,35.878 161.295,35.878 153.168,29.837 137.381,29.837 "/>
<rect y="5.857" fill="#4B4B4D" width="259.2" height="26.359"/>
<polygon fill="#4FC7F4" points="246.389,0 177.377,0 145.521,35.878 214.532,35.878 "/>
<g>
	<path fill="#0082FF" d="M180.986,19.977c0,0.013-0.002,0.021-0.006,0.028c-0.004,0.009-0.013,0.015-0.022,0.02
		s-0.024,0.01-0.045,0.012c-0.02,0.004-0.045,0.006-0.078,0.006c-0.027,0-0.051-0.002-0.069-0.006
		c-0.019-0.002-0.033-0.007-0.045-0.012c-0.013-0.005-0.021-0.011-0.025-0.02c-0.004-0.008-0.007-0.018-0.007-0.028v-0.94h-3.031
		v0.94c0,0.013-0.004,0.021-0.009,0.028c-0.005,0.009-0.013,0.015-0.024,0.02c-0.011,0.005-0.026,0.01-0.045,0.012
		c-0.02,0.004-0.041,0.006-0.068,0.006c-0.031,0-0.057-0.002-0.076-0.006c-0.02-0.002-0.035-0.007-0.047-0.012
		s-0.02-0.011-0.023-0.02c-0.003-0.008-0.006-0.018-0.006-0.028v-1.119c-0.004-0.047,0.002-0.081,0.02-0.104
		c0.017-0.021,0.043-0.032,0.078-0.032h0.246c0.057-0.074,0.109-0.147,0.158-0.224c0.051-0.074,0.098-0.163,0.143-0.265
		s0.09-0.227,0.133-0.374s0.085-0.329,0.128-0.548c0.041-0.219,0.084-0.481,0.127-0.787s0.088-0.67,0.135-1.094
		c0.011-0.063,0.027-0.109,0.056-0.139c0.024-0.03,0.061-0.045,0.104-0.045h1.646c0.045,0,0.08,0.015,0.108,0.045
		c0.028,0.03,0.043,0.077,0.043,0.139v3.29h0.41c0.035,0,0.062,0.012,0.073,0.033c0.017,0.022,0.022,0.058,0.022,0.104v1.12H180.986
		z M180.122,15.571h-1.256c-0.046,0.398-0.09,0.745-0.133,1.039s-0.085,0.548-0.126,0.762s-0.082,0.394-0.123,0.541
		s-0.083,0.27-0.124,0.371c-0.043,0.101-0.086,0.184-0.129,0.252c-0.045,0.065-0.09,0.129-0.137,0.186h2.027V15.571L180.122,15.571z
		"/>
	<path fill="#0082FF" d="M183.725,17.516c0,0.07-0.02,0.119-0.057,0.145c-0.037,0.026-0.072,0.04-0.107,0.04h-1.809
		c0,0.164,0.018,0.313,0.049,0.445c0.033,0.133,0.086,0.247,0.16,0.342c0.074,0.094,0.17,0.168,0.289,0.219s0.267,0.076,0.439,0.076
		c0.123,0,0.232-0.012,0.331-0.033c0.099-0.021,0.183-0.045,0.254-0.072c0.07-0.024,0.129-0.049,0.177-0.07
		c0.045-0.021,0.077-0.031,0.098-0.031c0.012,0,0.021,0.002,0.031,0.008s0.019,0.016,0.023,0.028
		c0.006,0.013,0.012,0.028,0.014,0.048c0.004,0.021,0.004,0.045,0.004,0.073c0,0.015,0,0.026-0.002,0.039
		c-0.002,0.015-0.004,0.024-0.009,0.035c-0.002,0.012-0.007,0.021-0.013,0.03c-0.006,0.011-0.014,0.021-0.023,0.029
		c-0.009,0.01-0.039,0.027-0.091,0.051c-0.051,0.025-0.116,0.049-0.198,0.074c-0.082,0.023-0.179,0.047-0.285,0.065
		c-0.109,0.021-0.227,0.028-0.352,0.028c-0.205,0-0.387-0.029-0.545-0.092c-0.158-0.062-0.291-0.152-0.398-0.271
		c-0.106-0.121-0.188-0.27-0.244-0.447c-0.055-0.178-0.084-0.384-0.084-0.618c0-0.225,0.029-0.426,0.088-0.604
		c0.057-0.178,0.14-0.329,0.246-0.453c0.107-0.124,0.236-0.219,0.389-0.284s0.32-0.098,0.506-0.098c0.199,0,0.369,0.033,0.51,0.1
		s0.256,0.156,0.348,0.268c0.091,0.112,0.156,0.243,0.199,0.391c0.041,0.148,0.063,0.305,0.063,0.469L183.725,17.516L183.725,17.516
		z M183.366,17.414c0.006-0.281-0.06-0.501-0.193-0.659c-0.135-0.158-0.332-0.237-0.59-0.237c-0.133,0-0.25,0.025-0.35,0.075
		c-0.102,0.05-0.188,0.116-0.256,0.198s-0.122,0.177-0.159,0.286c-0.036,0.109-0.06,0.221-0.063,0.338L183.366,17.414
		L183.366,17.414z"/>
	<path fill="#0082FF" d="M188.079,18.978c0,0.012-0.002,0.021-0.009,0.031c-0.006,0.011-0.016,0.019-0.028,0.023
		c-0.012,0.006-0.029,0.012-0.053,0.016s-0.05,0.006-0.082,0.006c-0.035,0-0.064-0.002-0.088-0.006s-0.04-0.01-0.053-0.016
		c-0.014-0.006-0.021-0.014-0.027-0.023c-0.006-0.008-0.009-0.02-0.009-0.031V17.75h-1.497v1.228c0,0.012-0.003,0.021-0.009,0.031
		c-0.007,0.011-0.017,0.019-0.028,0.023c-0.012,0.006-0.029,0.012-0.053,0.016s-0.051,0.006-0.086,0.006
		c-0.033,0-0.063-0.002-0.084-0.006s-0.04-0.01-0.055-0.016c-0.014-0.006-0.022-0.014-0.027-0.023
		c-0.005-0.008-0.008-0.02-0.008-0.031v-2.651c0-0.012,0.003-0.022,0.008-0.032c0.005-0.01,0.016-0.018,0.027-0.025
		c0.014-0.007,0.031-0.012,0.055-0.015s0.051-0.004,0.084-0.004c0.035,0,0.063,0.001,0.086,0.004s0.04,0.008,0.053,0.015
		c0.014,0.007,0.021,0.015,0.028,0.025c0.006,0.01,0.009,0.021,0.009,0.032v1.125h1.497v-1.125c0-0.012,0.003-0.022,0.009-0.032
		c0.006-0.01,0.016-0.018,0.027-0.025s0.029-0.012,0.053-0.015s0.053-0.004,0.088-0.004c0.032,0,0.061,0.001,0.082,0.004
		s0.04,0.008,0.053,0.015c0.014,0.007,0.022,0.015,0.028,0.025c0.007,0.01,0.009,0.021,0.009,0.032V18.978z"/>
	<path fill="#0082FF" d="M190.915,18.978c0,0.02-0.006,0.035-0.02,0.045c-0.014,0.012-0.029,0.02-0.049,0.023
		c-0.021,0.006-0.049,0.008-0.084,0.008c-0.033,0-0.063-0.002-0.086-0.008c-0.022-0.004-0.041-0.012-0.053-0.023
		c-0.015-0.01-0.021-0.025-0.021-0.045v-0.296c-0.119,0.129-0.25,0.229-0.396,0.299c-0.143,0.069-0.291,0.104-0.445,0.104
		c-0.139,0-0.264-0.019-0.374-0.053c-0.11-0.037-0.203-0.089-0.279-0.156c-0.075-0.066-0.135-0.148-0.176-0.244
		s-0.062-0.203-0.062-0.322c0-0.146,0.029-0.274,0.09-0.382c0.062-0.108,0.146-0.199,0.259-0.271
		c0.112-0.072,0.245-0.126,0.401-0.163c0.155-0.037,0.33-0.054,0.521-0.054h0.422v-0.229c0-0.113-0.013-0.213-0.035-0.3
		s-0.062-0.16-0.114-0.218c-0.052-0.058-0.121-0.103-0.205-0.132s-0.187-0.044-0.308-0.044c-0.116,0-0.223,0.014-0.315,0.042
		c-0.094,0.028-0.176,0.06-0.246,0.095c-0.07,0.035-0.129,0.067-0.176,0.095c-0.045,0.028-0.078,0.042-0.098,0.042
		c-0.012,0-0.021-0.002-0.031-0.006c-0.011-0.004-0.02-0.011-0.025-0.022c-0.008-0.011-0.012-0.024-0.016-0.041
		c-0.002-0.017-0.004-0.037-0.004-0.06c0-0.041,0.004-0.074,0.01-0.098s0.021-0.049,0.045-0.073
		c0.023-0.024,0.067-0.053,0.131-0.086c0.063-0.033,0.134-0.064,0.216-0.092c0.08-0.028,0.168-0.051,0.262-0.069
		c0.095-0.018,0.188-0.026,0.281-0.026c0.183,0,0.335,0.022,0.46,0.066s0.227,0.107,0.305,0.189
		c0.075,0.082,0.131,0.183,0.164,0.303c0.033,0.12,0.051,0.256,0.051,0.409V18.978L190.915,18.978z M190.566,17.727h-0.483
		c-0.141,0-0.264,0.013-0.369,0.038c-0.104,0.025-0.192,0.063-0.264,0.111c-0.07,0.048-0.123,0.107-0.156,0.176
		c-0.035,0.068-0.051,0.146-0.051,0.234c0,0.152,0.047,0.273,0.146,0.365c0.096,0.091,0.231,0.136,0.407,0.136
		c0.14,0,0.269-0.035,0.39-0.105c0.119-0.072,0.247-0.182,0.382-0.33L190.566,17.727L190.566,17.727z"/>
	<path fill="#0082FF" d="M193.733,18.585c0,0.022-0.001,0.045-0.003,0.063c-0.002,0.02-0.005,0.035-0.009,0.049
		s-0.01,0.025-0.016,0.037c-0.009,0.01-0.023,0.028-0.05,0.055c-0.026,0.025-0.067,0.058-0.127,0.096
		c-0.062,0.039-0.127,0.074-0.2,0.104c-0.074,0.03-0.154,0.055-0.24,0.071c-0.086,0.021-0.176,0.028-0.268,0.028
		c-0.184,0-0.347-0.03-0.486-0.094c-0.144-0.061-0.262-0.152-0.356-0.271c-0.097-0.121-0.169-0.269-0.218-0.443
		c-0.051-0.175-0.075-0.376-0.075-0.605c0-0.258,0.03-0.479,0.093-0.662c0.061-0.184,0.146-0.334,0.253-0.451
		c0.107-0.117,0.233-0.204,0.376-0.259c0.145-0.056,0.299-0.083,0.463-0.083c0.088,0,0.172,0.008,0.252,0.025
		s0.152,0.039,0.221,0.066c0.066,0.027,0.128,0.059,0.181,0.094c0.054,0.035,0.091,0.065,0.115,0.089
		c0.024,0.024,0.041,0.043,0.051,0.056c0.008,0.013,0.015,0.027,0.021,0.042c0.004,0.015,0.008,0.033,0.011,0.051
		c0.002,0.018,0.003,0.041,0.003,0.066c0,0.057-0.01,0.096-0.025,0.119s-0.033,0.034-0.054,0.034c-0.026,0-0.062-0.018-0.101-0.053
		c-0.041-0.035-0.092-0.074-0.154-0.116s-0.139-0.081-0.227-0.116c-0.091-0.035-0.195-0.053-0.318-0.053
		c-0.254,0-0.449,0.098-0.588,0.293c-0.137,0.195-0.207,0.478-0.207,0.847c0,0.186,0.02,0.348,0.057,0.488
		c0.037,0.14,0.09,0.256,0.16,0.35c0.068,0.092,0.152,0.162,0.253,0.207c0.101,0.047,0.212,0.068,0.337,0.068
		c0.117,0,0.221-0.02,0.311-0.056c0.09-0.037,0.168-0.078,0.234-0.123c0.066-0.046,0.121-0.086,0.166-0.123
		c0.043-0.037,0.076-0.056,0.098-0.056c0.013,0,0.021,0.003,0.031,0.01c0.008,0.007,0.016,0.018,0.021,0.031
		c0.006,0.017,0.01,0.033,0.014,0.054C193.731,18.535,193.733,18.558,193.733,18.585z"/>
	<path fill="#0082FF" d="M197.524,18.243c0,0.127-0.023,0.242-0.072,0.346c-0.05,0.104-0.121,0.191-0.213,0.267
		c-0.094,0.074-0.207,0.131-0.344,0.172c-0.137,0.039-0.291,0.06-0.467,0.06c-0.102,0-0.196-0.008-0.284-0.022
		s-0.168-0.034-0.239-0.058c-0.07-0.021-0.131-0.047-0.178-0.072c-0.049-0.027-0.082-0.049-0.104-0.066
		c-0.021-0.018-0.035-0.033-0.043-0.045c-0.011-0.014-0.017-0.027-0.021-0.041c-0.004-0.016-0.007-0.031-0.009-0.052
		s-0.004-0.044-0.004-0.073c0-0.023,0.002-0.043,0.004-0.062c0.005-0.019,0.008-0.032,0.013-0.046
		c0.005-0.012,0.013-0.021,0.021-0.027s0.018-0.009,0.028-0.009c0.021,0,0.052,0.014,0.089,0.041
		c0.036,0.026,0.088,0.058,0.153,0.093c0.063,0.033,0.146,0.064,0.246,0.096c0.099,0.028,0.22,0.043,0.364,0.043
		c0.104,0,0.199-0.012,0.285-0.035c0.084-0.022,0.158-0.057,0.219-0.102c0.061-0.043,0.107-0.1,0.141-0.168
		c0.034-0.068,0.051-0.147,0.051-0.237c0-0.076-0.017-0.145-0.05-0.207c-0.03-0.062-0.083-0.114-0.151-0.157
		c-0.069-0.043-0.157-0.076-0.266-0.1c-0.107-0.024-0.236-0.035-0.387-0.035h-0.299c-0.016,0-0.028-0.003-0.038-0.009
		c-0.011-0.006-0.019-0.015-0.026-0.028c-0.007-0.013-0.013-0.029-0.017-0.048c-0.003-0.02-0.005-0.042-0.005-0.067
		c0-0.025,0.002-0.047,0.005-0.066c0.004-0.019,0.009-0.034,0.017-0.045c0.008-0.011,0.018-0.021,0.026-0.026
		s0.022-0.009,0.038-0.009h0.293c0.131,0,0.244-0.011,0.341-0.034c0.099-0.022,0.178-0.055,0.242-0.098
		c0.063-0.043,0.112-0.095,0.144-0.157c0.032-0.062,0.047-0.132,0.047-0.212c0-0.072-0.015-0.135-0.043-0.189
		c-0.029-0.054-0.07-0.098-0.121-0.133s-0.111-0.062-0.183-0.079c-0.071-0.018-0.147-0.026-0.229-0.026
		c-0.125,0-0.235,0.014-0.332,0.042c-0.096,0.028-0.178,0.06-0.246,0.094c-0.067,0.034-0.123,0.065-0.166,0.092
		s-0.073,0.041-0.092,0.041c-0.01,0-0.019-0.002-0.023-0.007c-0.008-0.005-0.014-0.013-0.02-0.023
		c-0.006-0.01-0.011-0.025-0.015-0.042c-0.002-0.018-0.004-0.038-0.004-0.062c0-0.045,0.004-0.081,0.012-0.107
		c0.009-0.026,0.023-0.051,0.048-0.075c0.023-0.024,0.063-0.051,0.121-0.082c0.057-0.031,0.125-0.06,0.2-0.085
		c0.076-0.025,0.159-0.046,0.249-0.062c0.09-0.016,0.184-0.023,0.277-0.023c0.132,0,0.253,0.015,0.365,0.044
		c0.111,0.029,0.209,0.074,0.289,0.133s0.143,0.134,0.188,0.224s0.068,0.195,0.068,0.316c0,0.068-0.012,0.135-0.035,0.199
		c-0.025,0.064-0.061,0.124-0.104,0.179s-0.1,0.104-0.163,0.146c-0.064,0.042-0.138,0.076-0.218,0.1h-0.006
		c0.071,0.006,0.146,0.027,0.222,0.063c0.074,0.036,0.143,0.083,0.203,0.142s0.109,0.128,0.148,0.209
		C197.504,18.056,197.524,18.145,197.524,18.243z"/>
	<path fill="#0082FF" d="M200.506,18.978c0,0.012-0.004,0.021-0.01,0.031c-0.006,0.011-0.016,0.019-0.027,0.023
		c-0.012,0.006-0.03,0.012-0.053,0.016c-0.023,0.004-0.051,0.006-0.084,0.006c-0.035,0-0.063-0.002-0.086-0.006
		c-0.023-0.004-0.041-0.01-0.054-0.016s-0.021-0.014-0.026-0.023c-0.006-0.008-0.01-0.02-0.01-0.031V17.75h-1.496v1.228
		c0,0.012-0.004,0.021-0.01,0.031c-0.006,0.011-0.016,0.019-0.027,0.023c-0.013,0.006-0.031,0.012-0.054,0.016
		s-0.051,0.006-0.086,0.006c-0.032,0-0.062-0.002-0.084-0.006s-0.04-0.01-0.054-0.016s-0.023-0.014-0.028-0.023
		c-0.005-0.008-0.007-0.02-0.007-0.031v-2.651c0-0.012,0.002-0.022,0.007-0.032c0.005-0.01,0.015-0.018,0.028-0.025
		c0.013-0.007,0.031-0.012,0.054-0.015s0.052-0.004,0.084-0.004c0.035,0,0.063,0.001,0.086,0.004s0.04,0.008,0.054,0.015
		c0.013,0.007,0.021,0.015,0.027,0.025c0.006,0.01,0.01,0.021,0.01,0.032v1.125h1.496v-1.125c0-0.012,0.004-0.022,0.01-0.032
		c0.006-0.01,0.015-0.018,0.026-0.025c0.013-0.007,0.03-0.012,0.054-0.015c0.022-0.003,0.051-0.004,0.086-0.004
		c0.033,0,0.062,0.001,0.084,0.004c0.021,0.003,0.039,0.008,0.053,0.015c0.013,0.007,0.021,0.015,0.027,0.025
		c0.006,0.01,0.01,0.021,0.01,0.032V18.978z"/>
	<path fill="#0082FF" d="M203.342,18.978c0,0.02-0.008,0.035-0.021,0.045c-0.013,0.012-0.028,0.02-0.049,0.023
		c-0.021,0.006-0.049,0.008-0.084,0.008c-0.033,0-0.062-0.002-0.085-0.008c-0.023-0.004-0.042-0.012-0.055-0.023
		c-0.014-0.01-0.02-0.025-0.02-0.045v-0.296c-0.119,0.129-0.25,0.229-0.395,0.299c-0.143,0.069-0.293,0.104-0.446,0.104
		c-0.14,0-0.265-0.019-0.374-0.053c-0.109-0.037-0.203-0.089-0.279-0.156c-0.076-0.066-0.135-0.148-0.176-0.244
		s-0.063-0.203-0.063-0.322c0-0.146,0.031-0.274,0.092-0.382c0.061-0.108,0.146-0.199,0.258-0.271
		c0.111-0.072,0.245-0.126,0.4-0.163c0.156-0.037,0.33-0.054,0.521-0.054h0.422v-0.229c0-0.113-0.012-0.213-0.035-0.3
		c-0.022-0.087-0.062-0.16-0.113-0.218c-0.053-0.058-0.121-0.103-0.205-0.132s-0.188-0.044-0.309-0.044
		c-0.117,0-0.223,0.014-0.315,0.042s-0.177,0.06-0.246,0.095c-0.07,0.035-0.129,0.067-0.175,0.095
		c-0.047,0.028-0.078,0.042-0.098,0.042c-0.013,0-0.022-0.002-0.033-0.006c-0.01-0.004-0.019-0.011-0.023-0.022
		c-0.008-0.011-0.012-0.024-0.016-0.041c-0.002-0.017-0.004-0.037-0.004-0.06c0-0.041,0.002-0.074,0.008-0.098
		c0.007-0.024,0.021-0.049,0.047-0.073c0.023-0.024,0.066-0.053,0.13-0.086c0.063-0.033,0.134-0.064,0.216-0.092
		c0.08-0.028,0.168-0.051,0.262-0.069s0.188-0.026,0.281-0.026c0.182,0,0.335,0.022,0.46,0.066s0.226,0.107,0.304,0.189
		c0.076,0.082,0.133,0.183,0.166,0.303c0.033,0.12,0.049,0.256,0.049,0.409v1.793H203.342z M202.995,17.727h-0.483
		c-0.142,0-0.265,0.013-0.369,0.038s-0.192,0.063-0.265,0.111c-0.07,0.048-0.123,0.107-0.155,0.176
		c-0.035,0.068-0.052,0.146-0.052,0.234c0,0.152,0.047,0.273,0.146,0.365c0.097,0.091,0.231,0.136,0.408,0.136
		c0.139,0,0.269-0.035,0.389-0.105c0.119-0.072,0.247-0.182,0.382-0.33V17.727L202.995,17.727z"/>
	<path fill="#0082FF" d="M206.518,18.978c0,0.012-0.003,0.021-0.01,0.031c-0.006,0.011-0.016,0.019-0.027,0.023
		c-0.012,0.006-0.029,0.012-0.053,0.016s-0.051,0.006-0.086,0.006c-0.033,0-0.063-0.002-0.084-0.006
		c-0.022-0.004-0.041-0.01-0.055-0.016s-0.022-0.014-0.027-0.023c-0.006-0.008-0.008-0.02-0.008-0.031V17.27
		c0-0.074,0.002-0.148,0.006-0.223c0.002-0.074,0.006-0.148,0.01-0.223c-0.045,0.076-0.094,0.151-0.146,0.224
		c-0.052,0.073-0.105,0.147-0.16,0.221l-1.248,1.708c-0.01,0.015-0.02,0.024-0.028,0.035c-0.009,0.01-0.021,0.019-0.031,0.022
		c-0.014,0.006-0.028,0.01-0.046,0.014c-0.018,0.002-0.04,0.004-0.066,0.004c-0.027,0-0.051-0.002-0.068-0.006
		c-0.02-0.004-0.034-0.008-0.047-0.014c-0.012-0.007-0.021-0.015-0.023-0.023c-0.006-0.01-0.008-0.021-0.008-0.032v-2.651
		c0-0.012,0.002-0.022,0.008-0.032c0.004-0.01,0.014-0.018,0.027-0.025c0.013-0.007,0.031-0.012,0.055-0.015
		c0.021-0.003,0.051-0.004,0.083-0.004c0.067,0,0.114,0.006,0.14,0.019c0.023,0.013,0.037,0.032,0.037,0.057v1.726
		c0,0.072-0.002,0.144-0.006,0.214c-0.002,0.07-0.007,0.141-0.013,0.211c0.045-0.07,0.089-0.14,0.134-0.208
		c0.043-0.068,0.092-0.137,0.145-0.205l1.267-1.737c0.01-0.014,0.021-0.025,0.028-0.035c0.01-0.01,0.021-0.018,0.037-0.023
		c0.015-0.006,0.031-0.01,0.049-0.013c0.02-0.003,0.044-0.004,0.072-0.004c0.027,0,0.051,0.001,0.068,0.004s0.034,0.008,0.046,0.015
		c0.013,0.007,0.021,0.015,0.024,0.025c0.004,0.01,0.008,0.021,0.008,0.032v2.65H206.518z M206.237,15.087
		c0,0.107-0.016,0.208-0.047,0.303c-0.031,0.095-0.08,0.178-0.145,0.249c-0.066,0.071-0.149,0.127-0.252,0.168
		c-0.102,0.041-0.224,0.062-0.365,0.062c-0.125,0-0.238-0.018-0.338-0.053c-0.103-0.035-0.188-0.086-0.258-0.152
		c-0.069-0.066-0.123-0.148-0.16-0.246s-0.057-0.208-0.057-0.331c0-0.016,0.004-0.029,0.01-0.04
		c0.006-0.011,0.016-0.019,0.028-0.025s0.031-0.01,0.056-0.013c0.021-0.003,0.049-0.004,0.082-0.004
		c0.037,0,0.065,0.002,0.088,0.006c0.02,0.004,0.035,0.01,0.045,0.02c0.01,0.009,0.016,0.02,0.02,0.034
		c0.002,0.014,0.004,0.03,0.004,0.05c0,0.066,0.01,0.128,0.031,0.186c0.02,0.058,0.051,0.107,0.092,0.149s0.092,0.075,0.152,0.098
		s0.13,0.035,0.208,0.035c0.075,0,0.144-0.012,0.202-0.035c0.058-0.023,0.107-0.057,0.148-0.1c0.041-0.043,0.071-0.094,0.094-0.152
		c0.02-0.059,0.029-0.122,0.029-0.19c0-0.018,0.001-0.032,0.004-0.044c0.002-0.012,0.008-0.022,0.02-0.031
		c0.01-0.009,0.025-0.015,0.047-0.02c0.02-0.004,0.049-0.006,0.086-0.006c0.033,0,0.061,0.001,0.084,0.004
		c0.021,0.003,0.04,0.007,0.055,0.013c0.014,0.006,0.022,0.014,0.028,0.025C206.234,15.058,206.237,15.072,206.237,15.087z"/>
	<path fill="#0082FF" d="M209.292,16.429c0,0.023-0.002,0.045-0.006,0.064s-0.01,0.036-0.018,0.05s-0.018,0.024-0.027,0.032
		c-0.011,0.008-0.023,0.012-0.037,0.012h-0.863v2.391c0,0.012-0.004,0.021-0.01,0.031c-0.006,0.011-0.016,0.019-0.027,0.023
		c-0.012,0.006-0.03,0.012-0.053,0.016c-0.023,0.004-0.051,0.006-0.086,0.006c-0.033,0-0.063-0.002-0.084-0.006
		c-0.022-0.004-0.041-0.01-0.055-0.016s-0.023-0.014-0.027-0.023c-0.006-0.008-0.008-0.02-0.008-0.031v-2.391h-0.863
		c-0.015,0-0.026-0.004-0.037-0.012c-0.012-0.008-0.021-0.019-0.027-0.032c-0.007-0.013-0.014-0.03-0.018-0.05
		s-0.006-0.041-0.006-0.064s0.002-0.045,0.006-0.066s0.01-0.038,0.018-0.053s0.018-0.026,0.027-0.034
		c0.01-0.008,0.022-0.012,0.037-0.012h2.076c0.014,0,0.025,0.004,0.037,0.012c0.01,0.008,0.021,0.019,0.027,0.034
		s0.014,0.032,0.018,0.053S209.292,16.406,209.292,16.429z"/>
	<path fill="#0082FF" d="M212.023,18.978c0,0.012-0.003,0.021-0.009,0.031c-0.006,0.011-0.016,0.019-0.027,0.023
		c-0.014,0.006-0.031,0.012-0.053,0.016c-0.023,0.004-0.053,0.006-0.087,0.006c-0.033,0-0.062-0.002-0.083-0.006
		c-0.023-0.004-0.041-0.01-0.055-0.016c-0.015-0.006-0.023-0.014-0.027-0.023c-0.006-0.01-0.008-0.02-0.008-0.031V17.27
		c0-0.074,0.002-0.148,0.004-0.223c0.004-0.074,0.007-0.148,0.011-0.223c-0.045,0.076-0.094,0.151-0.146,0.224
		c-0.053,0.073-0.106,0.147-0.162,0.221l-1.248,1.708c-0.01,0.015-0.02,0.024-0.026,0.035c-0.01,0.01-0.021,0.019-0.032,0.022
		c-0.013,0.006-0.027,0.01-0.046,0.014c-0.018,0.002-0.04,0.004-0.067,0.004c-0.026,0-0.051-0.002-0.068-0.006
		s-0.033-0.008-0.045-0.014c-0.012-0.007-0.021-0.015-0.025-0.023c-0.004-0.01-0.007-0.021-0.007-0.032v-2.651
		c0-0.012,0.002-0.022,0.007-0.032c0.006-0.01,0.016-0.018,0.028-0.025s0.03-0.012,0.054-0.015s0.051-0.004,0.084-0.004
		c0.068,0,0.114,0.006,0.139,0.019c0.025,0.013,0.037,0.032,0.037,0.057v1.726c0,0.072-0.002,0.144-0.004,0.214
		c-0.004,0.07-0.008,0.141-0.014,0.211c0.045-0.07,0.09-0.14,0.133-0.208c0.045-0.068,0.094-0.137,0.146-0.205l1.266-1.737
		c0.01-0.014,0.02-0.025,0.029-0.035c0.009-0.01,0.021-0.018,0.035-0.023c0.017-0.006,0.031-0.01,0.052-0.013
		c0.019-0.003,0.042-0.004,0.071-0.004c0.027,0,0.05,0.001,0.068,0.004c0.018,0.003,0.033,0.008,0.045,0.015
		s0.021,0.015,0.025,0.025c0.004,0.01,0.007,0.021,0.007,0.032v2.65H212.023z"/>
	<path fill="#0082FF" d="M215,16.13c0,0.176-0.025,0.332-0.076,0.467c-0.051,0.135-0.123,0.25-0.213,0.344
		c-0.092,0.094-0.199,0.166-0.326,0.217c-0.127,0.051-0.268,0.079-0.422,0.085l-0.019,0.782c0,0.025-0.012,0.044-0.034,0.057
		c-0.023,0.013-0.065,0.019-0.127,0.019c-0.029,0-0.055-0.001-0.076-0.004c-0.021-0.003-0.039-0.008-0.051-0.015
		c-0.014-0.007-0.021-0.015-0.027-0.025c-0.006-0.01-0.01-0.021-0.01-0.032l-0.015-0.879c0-0.035,0.005-0.064,0.013-0.088
		c0.01-0.023,0.021-0.042,0.039-0.057c0.016-0.015,0.036-0.025,0.061-0.031c0.025-0.006,0.055-0.009,0.088-0.009h0.076
		c0.141,0,0.26-0.022,0.356-0.066s0.177-0.103,0.235-0.176c0.059-0.073,0.104-0.159,0.129-0.256c0.027-0.098,0.04-0.2,0.04-0.308
		c0-0.121-0.017-0.232-0.05-0.333c-0.033-0.101-0.084-0.188-0.15-0.261c-0.068-0.073-0.152-0.13-0.256-0.17
		c-0.102-0.04-0.225-0.06-0.364-0.06c-0.118,0-0.224,0.013-0.315,0.04c-0.09,0.026-0.168,0.056-0.234,0.088
		s-0.121,0.062-0.163,0.088c-0.042,0.026-0.071,0.04-0.092,0.04c-0.015,0-0.026-0.002-0.037-0.007s-0.021-0.014-0.024-0.026
		c-0.009-0.013-0.014-0.029-0.018-0.05s-0.006-0.045-0.006-0.075c0-0.035,0.002-0.063,0.007-0.083s0.019-0.04,0.037-0.059
		s0.058-0.043,0.114-0.075c0.058-0.032,0.127-0.061,0.207-0.088s0.168-0.05,0.265-0.069s0.192-0.028,0.293-0.028
		c0.197,0,0.367,0.028,0.513,0.085c0.143,0.057,0.262,0.135,0.354,0.234c0.093,0.099,0.163,0.216,0.209,0.35
		C214.977,15.83,215,15.976,215,16.13z M214.043,18.776c0,0.056-0.004,0.101-0.01,0.136c-0.008,0.037-0.021,0.065-0.039,0.088
		c-0.02,0.021-0.045,0.035-0.078,0.045c-0.031,0.008-0.072,0.014-0.121,0.014c-0.051,0-0.092-0.006-0.125-0.014
		c-0.031-0.01-0.059-0.023-0.078-0.045c-0.018-0.022-0.032-0.051-0.039-0.088c-0.008-0.035-0.01-0.08-0.01-0.136
		c0-0.055,0.002-0.101,0.01-0.138c0.007-0.037,0.021-0.066,0.039-0.086c0.021-0.021,0.047-0.035,0.078-0.045
		c0.033-0.008,0.074-0.014,0.125-0.014c0.049,0,0.09,0.006,0.121,0.014c0.033,0.01,0.059,0.023,0.078,0.045
		c0.02,0.02,0.031,0.049,0.039,0.086C214.04,18.675,214.043,18.721,214.043,18.776z"/>
</g>
</svg>
