<?xml version="1.0" encoding="utf-8"?>
<!-- Generator: Adobe Illustrator 15.0.2, SVG Export Plug-In . SVG Version: 6.00 Build 0)  -->
<!DOCTYPE svg PUBLIC "-//W3C//DTD SVG 1.1//EN" "http://www.w3.org/Graphics/SVG/1.1/DTD/svg11.dtd">
<svg version="1.1" id="Layer_1" xmlns="http://www.w3.org/2000/svg" xmlns:xlink="http://www.w3.org/1999/xlink" x="0px" y="0px"
	 width="113.809px" height="35.877px" viewBox="3.941 0 113.809 35.877" enable-background="new 3.941 0 113.809 35.877"
	 xml:space="preserve">
<polygon fill="#4FA6F4" points="12.067,0 27.856,0 19.729,6.041 3.941,6.041 "/>
<polygon fill="#4FA6F4" points="112.925,35.877 97.137,35.877 105.264,29.837 121.052,29.837 "/>
<rect x="-0.767" y="5.857" fill="#4B4B4D" width="259.201" height="26.359"/>
<polygon fill="#4FC7F4" points="12.044,0 81.055,0 112.912,35.876 43.901,35.876 "/>
<g>
	<path fill="#0082FF" d="M39.911,18.38c0,0.012-0.003,0.022-0.009,0.032c-0.006,0.01-0.016,0.018-0.029,0.023
		c-0.013,0.005-0.032,0.011-0.056,0.015s-0.052,0.006-0.085,0.006c-0.035,0-0.064-0.002-0.086-0.006s-0.041-0.01-0.054-0.015
		c-0.013-0.006-0.023-0.014-0.029-0.023c-0.006-0.009-0.009-0.021-0.009-0.032v-1.767h-1.893v1.767c0,0.012-0.003,0.022-0.009,0.032
		c-0.006,0.01-0.016,0.018-0.029,0.023c-0.013,0.005-0.032,0.011-0.054,0.015s-0.051,0.006-0.086,0.006
		c-0.033,0-0.062-0.002-0.085-0.006s-0.042-0.01-0.056-0.015c-0.014-0.006-0.023-0.014-0.029-0.023
		c-0.006-0.009-0.009-0.021-0.009-0.032v-3.674c0-0.012,0.003-0.022,0.009-0.032c0.006-0.01,0.016-0.018,0.029-0.023
		c0.013-0.005,0.032-0.011,0.056-0.015c0.024-0.004,0.052-0.006,0.085-0.006c0.035,0,0.064,0.002,0.086,0.006
		c0.022,0.004,0.041,0.009,0.054,0.015c0.013,0.006,0.023,0.014,0.029,0.023c0.006,0.009,0.009,0.021,0.009,0.032v1.588h1.893
		v-1.588c0-0.012,0.003-0.022,0.009-0.032c0.006-0.01,0.016-0.018,0.029-0.023c0.013-0.005,0.032-0.011,0.054-0.015
		c0.022-0.004,0.051-0.006,0.086-0.006c0.033,0,0.062,0.002,0.085,0.006c0.023,0.004,0.042,0.009,0.056,0.015
		c0.014,0.006,0.023,0.014,0.029,0.023c0.006,0.009,0.009,0.021,0.009,0.032V18.38z"/>
	<path fill="#0082FF" d="M42.812,18.38c0,0.02-0.006,0.035-0.019,0.045c-0.013,0.01-0.029,0.02-0.05,0.023
		c-0.021,0.006-0.048,0.008-0.083,0.008c-0.033,0-0.062-0.002-0.085-0.008c-0.023-0.004-0.042-0.012-0.054-0.023
		c-0.012-0.011-0.019-0.026-0.019-0.045v-0.296c-0.119,0.129-0.25,0.229-0.394,0.299c-0.144,0.07-0.292,0.104-0.447,0.104
		c-0.139,0-0.263-0.019-0.374-0.053c-0.11-0.036-0.204-0.088-0.28-0.155c-0.076-0.067-0.135-0.149-0.176-0.245
		c-0.041-0.096-0.062-0.203-0.062-0.322c0-0.146,0.03-0.274,0.091-0.382s0.146-0.199,0.258-0.271
		c0.112-0.072,0.245-0.126,0.401-0.163c0.156-0.037,0.33-0.054,0.521-0.054h0.422v-0.229c0-0.113-0.012-0.213-0.035-0.3
		c-0.023-0.087-0.062-0.16-0.114-0.218c-0.052-0.058-0.121-0.103-0.205-0.132c-0.084-0.029-0.187-0.044-0.308-0.044
		c-0.117,0-0.223,0.014-0.316,0.042c-0.093,0.028-0.176,0.06-0.246,0.095c-0.07,0.035-0.128,0.067-0.174,0.095
		c-0.046,0.028-0.079,0.042-0.098,0.042c-0.012,0-0.022-0.002-0.032-0.006c-0.01-0.004-0.018-0.011-0.025-0.022
		c-0.007-0.011-0.012-0.024-0.015-0.041s-0.004-0.037-0.004-0.06c0-0.041,0.003-0.074,0.009-0.098
		c0.006-0.024,0.021-0.049,0.045-0.073s0.068-0.053,0.13-0.086c0.062-0.033,0.134-0.064,0.215-0.092
		c0.081-0.028,0.168-0.051,0.262-0.069c0.094-0.018,0.188-0.026,0.281-0.026c0.182,0,0.335,0.022,0.46,0.066
		s0.226,0.107,0.303,0.189c0.077,0.082,0.132,0.183,0.166,0.303c0.034,0.12,0.05,0.256,0.05,0.409L42.812,18.38L42.812,18.38z
		 M42.463,17.129H41.98c-0.141,0-0.264,0.013-0.369,0.038s-0.193,0.063-0.264,0.111c-0.071,0.048-0.123,0.107-0.157,0.176
		c-0.034,0.069-0.051,0.146-0.051,0.234c0,0.152,0.048,0.274,0.145,0.365c0.097,0.091,0.233,0.136,0.409,0.136
		c0.139,0,0.268-0.036,0.388-0.107c0.12-0.071,0.248-0.181,0.382-0.33V17.129z"/>
	<path fill="#0082FF" d="M45.987,18.38c0,0.012-0.003,0.022-0.009,0.032c-0.006,0.01-0.015,0.018-0.028,0.023
		c-0.013,0.005-0.03,0.011-0.053,0.015s-0.051,0.006-0.086,0.006c-0.033,0-0.061-0.002-0.083-0.006s-0.041-0.01-0.054-0.015
		c-0.013-0.006-0.023-0.014-0.028-0.023c-0.005-0.009-0.007-0.021-0.007-0.032v-1.708c0-0.074,0.001-0.148,0.004-0.223
		c0.003-0.075,0.006-0.148,0.01-0.223c-0.045,0.076-0.094,0.151-0.146,0.224c-0.052,0.073-0.106,0.147-0.161,0.221l-1.248,1.708
		c-0.01,0.014-0.019,0.025-0.028,0.035c-0.009,0.01-0.02,0.018-0.032,0.023c-0.012,0.005-0.028,0.01-0.045,0.014
		c-0.018,0.002-0.04,0.004-0.067,0.004c-0.027,0-0.05-0.002-0.069-0.006c-0.019-0.005-0.034-0.009-0.045-0.015
		s-0.02-0.014-0.025-0.023c-0.005-0.009-0.007-0.021-0.007-0.032v-2.651c0-0.012,0.002-0.022,0.007-0.032
		c0.005-0.01,0.014-0.018,0.028-0.025s0.032-0.012,0.054-0.015c0.022-0.003,0.05-0.004,0.083-0.004c0.068,0,0.115,0.006,0.139,0.019
		c0.024,0.013,0.037,0.032,0.037,0.057v1.726c0,0.072-0.001,0.144-0.004,0.214s-0.007,0.141-0.013,0.211
		c0.045-0.07,0.089-0.14,0.133-0.208c0.044-0.068,0.092-0.137,0.145-0.205l1.266-1.737c0.01-0.014,0.02-0.025,0.029-0.035
		c0.009-0.01,0.022-0.018,0.037-0.023c0.015-0.005,0.031-0.01,0.05-0.013s0.042-0.004,0.072-0.004c0.027,0,0.05,0.001,0.069,0.004
		s0.034,0.008,0.045,0.015c0.011,0.007,0.02,0.015,0.025,0.025c0.005,0.01,0.007,0.021,0.007,0.032v2.65H45.987z M45.706,14.489
		c0,0.107-0.016,0.208-0.047,0.303c-0.031,0.095-0.08,0.178-0.145,0.249c-0.065,0.071-0.149,0.127-0.25,0.168
		s-0.224,0.062-0.366,0.062c-0.125,0-0.238-0.018-0.338-0.053c-0.1-0.035-0.186-0.086-0.256-0.152
		c-0.07-0.066-0.124-0.148-0.161-0.246c-0.037-0.098-0.056-0.208-0.056-0.331c0-0.016,0.003-0.029,0.009-0.04
		c0.006-0.011,0.016-0.019,0.029-0.025c0.013-0.006,0.032-0.01,0.054-0.013s0.05-0.004,0.083-0.004c0.037,0,0.066,0.002,0.086,0.006
		s0.036,0.01,0.045,0.019c0.009,0.009,0.016,0.02,0.019,0.034c0.003,0.014,0.004,0.03,0.004,0.05c0,0.066,0.01,0.128,0.031,0.186
		c0.021,0.058,0.051,0.107,0.092,0.149s0.092,0.075,0.152,0.098c0.06,0.023,0.13,0.035,0.208,0.035c0.076,0,0.144-0.012,0.202-0.035
		c0.058-0.023,0.108-0.057,0.149-0.1s0.072-0.094,0.092-0.152c0.02-0.058,0.031-0.122,0.031-0.19c0-0.018,0.001-0.032,0.003-0.044
		c0.002-0.012,0.008-0.022,0.019-0.031c0.011-0.009,0.026-0.015,0.047-0.019s0.049-0.006,0.086-0.006
		c0.033,0,0.061,0.001,0.083,0.004s0.041,0.007,0.054,0.013c0.013,0.006,0.023,0.014,0.029,0.025
		C45.7,14.46,45.706,14.474,45.706,14.489z"/>
	<path fill="#0082FF" d="M48.735,18.38c0,0.012-0.003,0.022-0.009,0.032c-0.006,0.01-0.015,0.018-0.028,0.023
		c-0.013,0.005-0.03,0.011-0.053,0.015s-0.05,0.006-0.083,0.006s-0.062-0.002-0.085-0.006s-0.042-0.01-0.056-0.015
		c-0.014-0.006-0.023-0.014-0.028-0.023c-0.005-0.009-0.007-0.021-0.007-0.032v-1.151c-0.115,0.055-0.238,0.098-0.369,0.13
		c-0.131,0.032-0.27,0.048-0.416,0.048c-0.176,0-0.321-0.023-0.437-0.069c-0.116-0.046-0.208-0.11-0.277-0.192
		c-0.069-0.082-0.118-0.179-0.146-0.292c-0.028-0.113-0.042-0.254-0.042-0.426v-0.7c0-0.012,0.002-0.022,0.007-0.032
		c0.005-0.01,0.014-0.018,0.028-0.025c0.014-0.007,0.032-0.012,0.054-0.015c0.022-0.003,0.05-0.004,0.083-0.004
		c0.035,0,0.064,0.001,0.086,0.004c0.022,0.003,0.04,0.008,0.053,0.015c0.013,0.007,0.022,0.015,0.028,0.025
		c0.006,0.01,0.009,0.021,0.009,0.032v0.647c0,0.172,0.013,0.302,0.04,0.39c0.027,0.088,0.064,0.158,0.114,0.209
		c0.05,0.051,0.112,0.088,0.186,0.108c0.074,0.02,0.16,0.031,0.258,0.031c0.129,0,0.254-0.017,0.376-0.05
		c0.122-0.033,0.244-0.08,0.365-0.141v-1.195c0-0.012,0.002-0.022,0.007-0.032c0.005-0.01,0.014-0.018,0.028-0.025
		c0.014-0.007,0.032-0.012,0.056-0.015c0.024-0.003,0.052-0.004,0.085-0.004s0.061,0.001,0.083,0.004
		c0.022,0.003,0.04,0.008,0.053,0.015c0.013,0.007,0.022,0.015,0.028,0.025c0.006,0.01,0.009,0.021,0.009,0.032V18.38z"/>
	<path fill="#0082FF" d="M51.571,18.38c0,0.02-0.006,0.035-0.019,0.045c-0.013,0.01-0.029,0.02-0.05,0.023
		c-0.021,0.006-0.048,0.008-0.083,0.008c-0.033,0-0.062-0.002-0.085-0.008c-0.023-0.004-0.042-0.012-0.054-0.023
		c-0.012-0.011-0.019-0.026-0.019-0.045v-0.296c-0.119,0.129-0.25,0.229-0.394,0.299c-0.144,0.07-0.292,0.104-0.447,0.104
		c-0.139,0-0.263-0.019-0.374-0.053c-0.11-0.036-0.204-0.088-0.28-0.155c-0.076-0.067-0.135-0.149-0.176-0.245
		c-0.041-0.096-0.062-0.203-0.062-0.322c0-0.146,0.03-0.274,0.091-0.382s0.146-0.199,0.258-0.271
		c0.112-0.072,0.245-0.126,0.401-0.163c0.156-0.037,0.33-0.054,0.521-0.054h0.422v-0.229c0-0.113-0.012-0.213-0.035-0.3
		s-0.062-0.16-0.114-0.218c-0.052-0.058-0.121-0.103-0.205-0.132c-0.084-0.029-0.187-0.044-0.308-0.044
		c-0.117,0-0.223,0.014-0.316,0.042c-0.093,0.028-0.176,0.06-0.246,0.095c-0.07,0.035-0.128,0.067-0.174,0.095
		c-0.046,0.028-0.079,0.042-0.098,0.042c-0.012,0-0.022-0.002-0.032-0.006c-0.01-0.004-0.018-0.011-0.025-0.022
		c-0.007-0.011-0.012-0.024-0.015-0.041s-0.004-0.037-0.004-0.06c0-0.041,0.003-0.074,0.009-0.098
		c0.006-0.024,0.021-0.049,0.045-0.073s0.068-0.053,0.13-0.086c0.062-0.033,0.134-0.064,0.215-0.092
		c0.081-0.028,0.168-0.051,0.262-0.069c0.094-0.018,0.188-0.026,0.281-0.026c0.182,0,0.335,0.022,0.46,0.066
		s0.226,0.107,0.303,0.189s0.132,0.183,0.166,0.303c0.034,0.12,0.05,0.256,0.05,0.409L51.571,18.38L51.571,18.38z M51.223,17.129
		H50.74c-0.141,0-0.264,0.013-0.369,0.038s-0.193,0.063-0.264,0.111c-0.071,0.048-0.123,0.107-0.157,0.176
		c-0.034,0.069-0.051,0.146-0.051,0.234c0,0.152,0.048,0.274,0.145,0.365c0.097,0.091,0.233,0.136,0.409,0.136
		c0.139,0,0.268-0.036,0.388-0.107c0.12-0.071,0.248-0.181,0.382-0.33V17.129z"/>
	<path fill="#0082FF" d="M54.39,17.987c0,0.023-0.001,0.044-0.003,0.063c-0.002,0.019-0.005,0.035-0.009,0.048
		c-0.004,0.013-0.009,0.026-0.016,0.037c-0.007,0.011-0.023,0.029-0.048,0.054s-0.068,0.058-0.127,0.097s-0.126,0.073-0.201,0.103
		c-0.075,0.03-0.154,0.053-0.24,0.071c-0.086,0.02-0.175,0.027-0.267,0.027c-0.184,0-0.346-0.029-0.488-0.091
		c-0.142-0.062-0.26-0.152-0.356-0.272c-0.096-0.12-0.168-0.268-0.218-0.442c-0.05-0.174-0.075-0.376-0.075-0.605
		c0-0.258,0.031-0.479,0.092-0.662s0.146-0.334,0.253-0.451c0.107-0.117,0.233-0.204,0.376-0.259
		c0.143-0.055,0.297-0.083,0.461-0.083c0.088,0,0.172,0.008,0.252,0.025s0.154,0.039,0.221,0.066
		c0.067,0.027,0.127,0.059,0.18,0.094c0.053,0.035,0.091,0.065,0.116,0.089s0.041,0.043,0.05,0.056
		c0.009,0.013,0.016,0.027,0.021,0.042c0.005,0.015,0.008,0.033,0.01,0.051s0.003,0.041,0.003,0.066
		c0,0.057-0.008,0.096-0.025,0.119s-0.035,0.034-0.054,0.034c-0.027,0-0.061-0.018-0.101-0.053c-0.04-0.035-0.091-0.074-0.154-0.116
		c-0.063-0.042-0.138-0.081-0.227-0.116s-0.195-0.053-0.318-0.053c-0.254,0-0.45,0.098-0.587,0.293
		c-0.137,0.195-0.207,0.479-0.207,0.847c0,0.186,0.019,0.348,0.056,0.488c0.037,0.14,0.09,0.256,0.16,0.349
		c0.07,0.093,0.154,0.162,0.253,0.208c0.099,0.046,0.212,0.069,0.337,0.069c0.117,0,0.221-0.019,0.311-0.056
		c0.09-0.037,0.168-0.078,0.234-0.123c0.066-0.045,0.122-0.086,0.166-0.123c0.044-0.037,0.077-0.056,0.098-0.056
		c0.012,0,0.022,0.003,0.031,0.01c0.009,0.007,0.016,0.018,0.022,0.032c0.006,0.014,0.01,0.032,0.013,0.053
		C54.388,17.938,54.39,17.96,54.39,17.987z"/>
	<path fill="#0082FF" d="M56.886,15.831c0,0.023-0.002,0.045-0.006,0.064s-0.01,0.036-0.018,0.05
		c-0.008,0.014-0.017,0.024-0.028,0.032c-0.011,0.008-0.023,0.012-0.037,0.012h-0.864v2.391c0,0.012-0.003,0.022-0.009,0.032
		c-0.006,0.01-0.015,0.018-0.028,0.023c-0.013,0.005-0.03,0.011-0.053,0.015c-0.023,0.004-0.051,0.006-0.086,0.006
		c-0.033,0-0.061-0.002-0.083-0.006s-0.041-0.01-0.054-0.015c-0.013-0.006-0.023-0.014-0.028-0.023
		c-0.005-0.009-0.007-0.021-0.007-0.032v-2.391h-0.864c-0.014,0-0.026-0.004-0.037-0.012c-0.011-0.008-0.02-0.019-0.028-0.032
		c-0.008-0.013-0.014-0.03-0.018-0.05c-0.004-0.02-0.006-0.041-0.006-0.064s0.002-0.045,0.006-0.066
		c0.004-0.021,0.01-0.038,0.018-0.053c0.008-0.015,0.017-0.026,0.028-0.034c0.011-0.008,0.023-0.012,0.037-0.012h2.077
		c0.014,0,0.026,0.004,0.037,0.012c0.011,0.008,0.02,0.02,0.028,0.034c0.008,0.015,0.014,0.032,0.018,0.053
		S56.886,15.808,56.886,15.831z"/>
	<path fill="#0082FF" d="M57.809,14.835c0,0.094-0.017,0.157-0.05,0.19c-0.033,0.033-0.094,0.05-0.182,0.05
		c-0.086,0-0.145-0.016-0.177-0.048c-0.032-0.032-0.048-0.095-0.048-0.189c0-0.094,0.017-0.157,0.05-0.19
		c0.033-0.033,0.094-0.05,0.182-0.05c0.086,0,0.145,0.016,0.177,0.048C57.793,14.678,57.809,14.741,57.809,14.835z M57.756,18.38
		c0,0.012-0.003,0.022-0.009,0.032c-0.006,0.01-0.015,0.018-0.028,0.023c-0.013,0.005-0.03,0.011-0.053,0.015
		s-0.051,0.006-0.086,0.006c-0.033,0-0.061-0.002-0.083-0.006s-0.041-0.01-0.054-0.015c-0.013-0.006-0.023-0.014-0.028-0.023
		c-0.005-0.009-0.007-0.021-0.007-0.032v-2.651c0-0.012,0.002-0.022,0.007-0.032c0.005-0.01,0.014-0.018,0.028-0.025
		c0.014-0.007,0.032-0.012,0.054-0.015c0.022-0.003,0.05-0.004,0.083-0.004c0.035,0,0.064,0.001,0.086,0.004
		c0.022,0.003,0.04,0.008,0.053,0.015c0.013,0.007,0.022,0.015,0.028,0.025c0.006,0.01,0.009,0.021,0.009,0.032V18.38z"/>
	<path fill="#0082FF" d="M62.013,18.304c0,0.045-0.012,0.079-0.035,0.101c-0.023,0.021-0.052,0.033-0.085,0.033h-3.041
		c-0.033,0-0.062-0.011-0.085-0.033c-0.023-0.023-0.035-0.056-0.035-0.101v-2.575c0-0.012,0.002-0.022,0.007-0.032
		c0.005-0.01,0.014-0.018,0.028-0.025c0.014-0.007,0.032-0.012,0.054-0.015c0.022-0.003,0.05-0.004,0.083-0.004
		c0.035,0,0.064,0.001,0.086,0.004c0.022,0.003,0.04,0.008,0.053,0.015c0.013,0.007,0.022,0.015,0.028,0.025
		c0.006,0.01,0.009,0.021,0.009,0.032v2.405h1.119v-2.405c0-0.012,0.003-0.022,0.009-0.032c0.006-0.01,0.015-0.018,0.028-0.025
		c0.013-0.007,0.03-0.012,0.051-0.015c0.021-0.003,0.05-0.004,0.085-0.004c0.031,0,0.058,0.001,0.081,0.004
		c0.023,0.003,0.04,0.008,0.053,0.015c0.013,0.007,0.022,0.015,0.028,0.025c0.006,0.01,0.009,0.021,0.009,0.032v2.405h1.122v-2.405
		c0-0.012,0.002-0.022,0.007-0.032c0.005-0.01,0.014-0.018,0.028-0.025c0.014-0.007,0.032-0.012,0.054-0.015
		c0.022-0.003,0.05-0.004,0.083-0.004c0.035,0,0.064,0.001,0.086,0.004c0.022,0.003,0.04,0.008,0.053,0.015
		c0.013,0.007,0.022,0.015,0.028,0.025c0.006,0.01,0.009,0.021,0.009,0.032V18.304z"/>
	<path fill="#0082FF" d="M63.393,14.835c0,0.094-0.017,0.157-0.05,0.19c-0.033,0.033-0.094,0.05-0.182,0.05
		c-0.086,0-0.145-0.016-0.177-0.048c-0.032-0.032-0.048-0.095-0.048-0.189c0-0.094,0.017-0.157,0.05-0.19
		c0.033-0.033,0.094-0.05,0.182-0.05c0.086,0,0.145,0.016,0.177,0.048C63.377,14.678,63.393,14.741,63.393,14.835z M63.34,18.38
		c0,0.012-0.003,0.022-0.009,0.032c-0.006,0.01-0.015,0.018-0.028,0.023c-0.013,0.005-0.03,0.011-0.053,0.015
		s-0.051,0.006-0.086,0.006c-0.033,0-0.061-0.002-0.083-0.006s-0.041-0.01-0.054-0.015c-0.013-0.006-0.023-0.014-0.028-0.023
		c-0.005-0.009-0.007-0.021-0.007-0.032v-2.651c0-0.012,0.002-0.022,0.007-0.032c0.005-0.01,0.014-0.018,0.028-0.025
		c0.014-0.007,0.032-0.012,0.054-0.015c0.022-0.003,0.05-0.004,0.083-0.004c0.035,0,0.064,0.001,0.086,0.004
		c0.022,0.003,0.04,0.008,0.053,0.015c0.013,0.007,0.022,0.015,0.028,0.025c0.006,0.01,0.009,0.021,0.009,0.032V18.38z"/>
	<path fill="#0082FF" d="M67.772,18.38c0,0.012-0.003,0.022-0.009,0.032c-0.006,0.01-0.015,0.018-0.028,0.023
		c-0.013,0.005-0.03,0.011-0.053,0.015s-0.05,0.006-0.083,0.006c-0.035,0-0.064-0.002-0.086-0.006s-0.041-0.01-0.054-0.015
		c-0.013-0.006-0.023-0.014-0.028-0.023c-0.005-0.009-0.007-0.021-0.007-0.032v-2.414h-1.403v2.414c0,0.012-0.003,0.022-0.009,0.032
		c-0.006,0.01-0.015,0.018-0.028,0.023c-0.013,0.005-0.03,0.011-0.053,0.015s-0.051,0.006-0.086,0.006
		c-0.033,0-0.061-0.002-0.083-0.006s-0.041-0.01-0.054-0.015c-0.013-0.006-0.023-0.014-0.028-0.023
		c-0.005-0.009-0.007-0.021-0.007-0.032v-2.575c0-0.047,0.012-0.082,0.035-0.104s0.052-0.034,0.085-0.034h1.863
		c0.033,0,0.061,0.011,0.083,0.034c0.022,0.023,0.034,0.057,0.034,0.104L67.772,18.38L67.772,18.38z"/>
	<path fill="#0082FF" d="M70.96,18.38c0,0.012-0.003,0.022-0.009,0.032c-0.006,0.01-0.015,0.018-0.028,0.023
		c-0.013,0.005-0.03,0.011-0.053,0.015s-0.051,0.006-0.086,0.006c-0.033,0-0.061-0.002-0.083-0.006s-0.041-0.01-0.054-0.015
		c-0.013-0.006-0.023-0.014-0.028-0.023c-0.005-0.009-0.007-0.021-0.007-0.032v-1.708c0-0.074,0.001-0.148,0.004-0.223
		c0.003-0.075,0.006-0.148,0.01-0.223c-0.045,0.076-0.094,0.151-0.146,0.224c-0.052,0.073-0.106,0.147-0.161,0.221L69.07,18.38
		c-0.01,0.014-0.019,0.025-0.028,0.035s-0.02,0.018-0.032,0.023c-0.012,0.004-0.028,0.01-0.045,0.014
		c-0.018,0.002-0.04,0.004-0.067,0.004s-0.05-0.002-0.069-0.006s-0.034-0.01-0.045-0.015c-0.011-0.006-0.02-0.014-0.025-0.023
		c-0.005-0.009-0.007-0.021-0.007-0.032v-2.651c0-0.012,0.002-0.022,0.007-0.032c0.005-0.01,0.014-0.018,0.028-0.025
		c0.014-0.007,0.032-0.012,0.054-0.015c0.022-0.003,0.05-0.004,0.083-0.004c0.068,0,0.115,0.006,0.139,0.019
		c0.024,0.013,0.037,0.032,0.037,0.057v1.726c0,0.072-0.001,0.144-0.004,0.214c-0.003,0.07-0.007,0.141-0.013,0.211
		c0.045-0.07,0.089-0.14,0.133-0.208c0.044-0.068,0.092-0.137,0.145-0.205l1.266-1.737c0.01-0.014,0.02-0.025,0.029-0.035
		c0.009-0.01,0.022-0.018,0.037-0.023c0.015-0.005,0.031-0.01,0.05-0.013s0.042-0.004,0.072-0.004c0.027,0,0.05,0.001,0.069,0.004
		c0.019,0.003,0.034,0.008,0.045,0.015c0.011,0.007,0.02,0.015,0.025,0.025c0.005,0.01,0.007,0.021,0.007,0.032L70.96,18.38
		L70.96,18.38z"/>
	<path fill="#0082FF" d="M73.734,15.831c0,0.023-0.002,0.045-0.006,0.064s-0.01,0.036-0.018,0.05
		c-0.008,0.014-0.017,0.024-0.028,0.032c-0.011,0.008-0.023,0.012-0.037,0.012h-0.864v2.391c0,0.012-0.003,0.022-0.009,0.032
		c-0.006,0.01-0.015,0.018-0.028,0.023c-0.013,0.005-0.03,0.011-0.053,0.015s-0.051,0.006-0.086,0.006
		c-0.033,0-0.061-0.002-0.083-0.006s-0.041-0.01-0.054-0.015c-0.013-0.006-0.023-0.014-0.028-0.023
		c-0.005-0.009-0.007-0.021-0.007-0.032v-2.391h-0.864c-0.014,0-0.026-0.004-0.037-0.012c-0.011-0.008-0.02-0.019-0.028-0.032
		c-0.008-0.013-0.014-0.03-0.018-0.05c-0.004-0.02-0.006-0.041-0.006-0.064s0.002-0.045,0.006-0.066
		c0.004-0.021,0.01-0.038,0.018-0.053c0.008-0.015,0.017-0.026,0.028-0.034c0.011-0.008,0.023-0.012,0.037-0.012h2.077
		c0.014,0,0.026,0.004,0.037,0.012c0.011,0.008,0.02,0.02,0.028,0.034c0.008,0.015,0.014,0.032,0.018,0.053
		S73.734,15.808,73.734,15.831z"/>
	<path fill="#0082FF" d="M76.113,18.38c0,0.02-0.006,0.035-0.019,0.045c-0.013,0.01-0.029,0.02-0.05,0.023
		c-0.021,0.006-0.048,0.008-0.083,0.008c-0.033,0-0.062-0.002-0.085-0.008c-0.023-0.004-0.042-0.012-0.054-0.023
		c-0.012-0.011-0.019-0.026-0.019-0.045v-0.296c-0.119,0.129-0.25,0.229-0.394,0.299c-0.144,0.07-0.292,0.104-0.447,0.104
		c-0.139,0-0.263-0.019-0.374-0.053c-0.11-0.036-0.204-0.088-0.28-0.155c-0.076-0.067-0.135-0.149-0.176-0.245
		c-0.041-0.096-0.062-0.203-0.062-0.322c0-0.146,0.03-0.274,0.091-0.382s0.146-0.199,0.258-0.271
		c0.112-0.072,0.245-0.126,0.401-0.163c0.156-0.037,0.33-0.054,0.521-0.054h0.422v-0.229c0-0.113-0.012-0.213-0.035-0.3
		s-0.062-0.16-0.114-0.218c-0.052-0.058-0.121-0.103-0.205-0.132c-0.084-0.029-0.187-0.044-0.308-0.044
		c-0.117,0-0.223,0.014-0.316,0.042c-0.093,0.028-0.176,0.06-0.246,0.095c-0.07,0.035-0.128,0.067-0.174,0.095
		c-0.046,0.028-0.079,0.042-0.098,0.042c-0.012,0-0.022-0.002-0.032-0.006c-0.01-0.004-0.018-0.011-0.025-0.022
		c-0.007-0.011-0.012-0.024-0.015-0.041c-0.003-0.017-0.004-0.037-0.004-0.06c0-0.041,0.003-0.074,0.009-0.098
		c0.006-0.024,0.021-0.049,0.045-0.073s0.068-0.053,0.13-0.086c0.062-0.033,0.134-0.064,0.215-0.092
		c0.081-0.028,0.168-0.051,0.262-0.069c0.094-0.018,0.188-0.026,0.281-0.026c0.182,0,0.335,0.022,0.46,0.066
		s0.226,0.107,0.303,0.189s0.132,0.183,0.166,0.303c0.034,0.12,0.05,0.256,0.05,0.409L76.113,18.38L76.113,18.38z M75.765,17.129
		h-0.483c-0.141,0-0.264,0.013-0.369,0.038s-0.193,0.063-0.264,0.111c-0.071,0.048-0.123,0.107-0.157,0.176
		c-0.034,0.069-0.051,0.146-0.051,0.234c0,0.152,0.048,0.274,0.145,0.365c0.097,0.091,0.233,0.136,0.409,0.136
		c0.139,0,0.268-0.036,0.388-0.107c0.12-0.071,0.248-0.181,0.382-0.33V17.129z"/>
	<path fill="#0082FF" d="M79.274,18.38c0,0.012-0.003,0.022-0.009,0.032c-0.006,0.01-0.015,0.018-0.028,0.023
		c-0.013,0.005-0.03,0.011-0.053,0.015s-0.05,0.006-0.083,0.006c-0.035,0-0.064-0.002-0.086-0.006s-0.04-0.01-0.053-0.015
		c-0.013-0.006-0.022-0.014-0.028-0.023c-0.006-0.009-0.009-0.021-0.009-0.032v-1.228h-1.497v1.228c0,0.012-0.003,0.022-0.009,0.032
		c-0.006,0.01-0.015,0.018-0.028,0.023c-0.013,0.005-0.03,0.011-0.053,0.015s-0.051,0.006-0.086,0.006
		c-0.033,0-0.061-0.002-0.083-0.006s-0.041-0.01-0.054-0.015c-0.013-0.006-0.023-0.014-0.028-0.023
		c-0.005-0.009-0.007-0.021-0.007-0.032v-2.651c0-0.012,0.002-0.022,0.007-0.032c0.005-0.01,0.014-0.018,0.028-0.025
		c0.014-0.007,0.032-0.012,0.054-0.015c0.022-0.003,0.05-0.004,0.083-0.004c0.035,0,0.064,0.001,0.086,0.004
		c0.022,0.003,0.04,0.008,0.053,0.015c0.013,0.007,0.022,0.015,0.028,0.025c0.006,0.01,0.009,0.021,0.009,0.032v1.125h1.497v-1.125
		c0-0.012,0.003-0.022,0.009-0.032c0.006-0.01,0.015-0.018,0.028-0.025c0.013-0.007,0.03-0.012,0.053-0.015
		c0.023-0.003,0.051-0.004,0.086-0.004c0.033,0,0.061,0.001,0.083,0.004c0.022,0.003,0.04,0.008,0.053,0.015
		c0.013,0.007,0.022,0.015,0.028,0.025c0.006,0.01,0.009,0.021,0.009,0.032V18.38z"/>
	<path fill="#0082FF" d="M82.447,18.38c0,0.012-0.003,0.022-0.009,0.032c-0.006,0.01-0.015,0.018-0.028,0.023
		c-0.013,0.005-0.03,0.011-0.053,0.015s-0.05,0.006-0.083,0.006c-0.035,0-0.064-0.002-0.086-0.006s-0.04-0.01-0.053-0.015
		c-0.013-0.006-0.022-0.014-0.028-0.023c-0.006-0.009-0.009-0.021-0.009-0.032v-1.228h-1.497v1.228c0,0.012-0.003,0.022-0.009,0.032
		c-0.006,0.01-0.015,0.018-0.028,0.023c-0.013,0.005-0.03,0.011-0.053,0.015c-0.023,0.004-0.051,0.006-0.086,0.006
		c-0.033,0-0.061-0.002-0.083-0.006s-0.041-0.01-0.054-0.015c-0.013-0.006-0.023-0.014-0.028-0.023
		c-0.005-0.009-0.007-0.021-0.007-0.032v-2.651c0-0.012,0.002-0.022,0.007-0.032c0.005-0.01,0.014-0.018,0.028-0.025
		c0.014-0.007,0.032-0.012,0.054-0.015c0.022-0.003,0.05-0.004,0.083-0.004c0.035,0,0.064,0.001,0.086,0.004
		c0.022,0.003,0.04,0.008,0.053,0.015c0.013,0.007,0.022,0.015,0.028,0.025c0.006,0.01,0.009,0.021,0.009,0.032v1.125h1.497v-1.125
		c0-0.012,0.003-0.022,0.009-0.032c0.006-0.01,0.015-0.018,0.028-0.025c0.013-0.007,0.03-0.012,0.053-0.015
		c0.023-0.003,0.051-0.004,0.086-0.004c0.033,0,0.061,0.001,0.083,0.004c0.022,0.003,0.04,0.008,0.053,0.015
		c0.013,0.007,0.022,0.015,0.028,0.025c0.006,0.01,0.009,0.021,0.009,0.032V18.38z"/>
	<path fill="#0082FF" d="M85.213,18.38c0,0.012-0.003,0.022-0.009,0.032c-0.006,0.01-0.015,0.018-0.028,0.023
		c-0.013,0.005-0.03,0.011-0.053,0.015s-0.051,0.006-0.086,0.006c-0.033,0-0.061-0.002-0.083-0.006s-0.041-0.01-0.054-0.015
		c-0.013-0.006-0.023-0.014-0.028-0.023c-0.005-0.009-0.007-0.021-0.007-0.032v-1.181h-0.322c-0.139,0-0.246,0.011-0.321,0.034
		c-0.075,0.023-0.143,0.058-0.202,0.107c-0.059,0.049-0.112,0.111-0.158,0.186c-0.046,0.075-0.089,0.166-0.13,0.271l-0.234,0.548
		c-0.01,0.023-0.02,0.042-0.029,0.057c-0.009,0.015-0.023,0.026-0.04,0.034c-0.017,0.008-0.037,0.013-0.062,0.017
		c-0.024,0.002-0.055,0.004-0.092,0.004c-0.02,0-0.038-0.001-0.056-0.003c-0.018-0.002-0.034-0.005-0.048-0.012
		c-0.015-0.004-0.026-0.01-0.035-0.02c-0.009-0.009-0.013-0.02-0.013-0.034c0-0.01,0.004-0.027,0.013-0.053
		c0.009-0.026,0.028-0.072,0.057-0.141l0.229-0.539c0.055-0.129,0.124-0.241,0.207-0.335c0.083-0.094,0.177-0.164,0.283-0.207
		c-0.193-0.033-0.348-0.107-0.463-0.223c-0.115-0.116-0.173-0.27-0.173-0.463c0-0.123,0.025-0.233,0.076-0.331
		c0.051-0.098,0.125-0.181,0.224-0.249c0.099-0.068,0.219-0.121,0.36-0.158s0.303-0.056,0.485-0.056
		c0.037,0,0.083,0.001,0.139,0.004c0.056,0.003,0.114,0.006,0.174,0.01s0.119,0.008,0.174,0.012
		c0.055,0.004,0.101,0.008,0.136,0.012c0.057,0.006,0.099,0.026,0.127,0.062c0.028,0.036,0.042,0.078,0.042,0.129V18.38z
		 M84.864,15.951c-0.08-0.01-0.161-0.017-0.243-0.021c-0.082-0.004-0.158-0.006-0.229-0.006c-0.148,0-0.272,0.013-0.371,0.038
		s-0.178,0.061-0.237,0.105c-0.059,0.044-0.102,0.098-0.126,0.16c-0.024,0.062-0.037,0.128-0.037,0.201
		c0,0.076,0.014,0.146,0.042,0.205c0.028,0.06,0.072,0.112,0.132,0.154s0.136,0.074,0.229,0.097
		c0.093,0.023,0.224,0.034,0.394,0.034h0.445L84.864,15.951L84.864,15.951z"/>
</g>
</svg>
