<?xml version="1.0" encoding="utf-8"?>
<!-- Generator: Adobe Illustrator 15.0.2, SVG Export Plug-In . SVG Version: 6.00 Build 0)  -->
<!DOCTYPE svg PUBLIC "-//W3C//DTD SVG 1.1//EN" "http://www.w3.org/Graphics/SVG/1.1/DTD/svg11.dtd">
<svg version="1.1" id="Слой_1" xmlns="http://www.w3.org/2000/svg" xmlns:xlink="http://www.w3.org/1999/xlink" x="0px" y="0px"
	 width="50px" height="50px" viewBox="0 0 50 50" enable-background="new 0 0 50 50" xml:space="preserve">
<polygon fill="#222222" points="50,0 0,0 0,50 50,50 50,0 "/>
<path fill="#FFFFFF" d="M17.958,24.114h3.169v-1.173v-1.149v-0.191c0-1.106,0.035-2.815,1.021-3.873
	c1.039-1.121,2.465-1.881,4.919-1.881c3.997,0,5.682,0.464,5.682,0.464l-0.792,3.83c0,0-1.32-0.312-2.553-0.312
	c-1.232,0-2.336,0.359-2.336,1.364v0.407v1.34v1.173h5.054l-0.353,3.739h-4.701v12.994h-5.94V27.853h-3.169V24.114L17.958,24.114z"
	/>
</svg>
