<?xml version="1.0" encoding="utf-8"?>
<!-- Generator: Adobe Illustrator 15.0.2, SVG Export Plug-In . SVG Version: 6.00 Build 0)  -->
<!DOCTYPE svg PUBLIC "-//W3C//DTD SVG 1.1//EN" "http://www.w3.org/Graphics/SVG/1.1/DTD/svg11.dtd">
<svg version="1.1" id="Слой_1" xmlns="http://www.w3.org/2000/svg" xmlns:xlink="http://www.w3.org/1999/xlink" x="0px" y="0px"
	 width="50px" height="50px" viewBox="0 0 50 50" enable-background="new 0 0 50 50" xml:space="preserve">
<polygon fill="#231F20" points="50,50 0,50 0,0 50,0 50,50 "/>
<g>
	<defs>
		<polygon id="SVGID_1_" points="44.379,15.894 37.9,15.894 37.9,9.414 36.28,9.414 36.28,15.894 29.801,15.894 29.801,17.514 
			36.28,17.514 36.28,23.992 37.9,23.992 37.9,17.514 44.379,17.514 44.379,15.894 		"/>
	</defs>
	<clipPath id="SVGID_2_">
		<use xlink:href="#SVGID_1_"  overflow="visible"/>
	</clipPath>
	<g clip-path="url(#SVGID_2_)">
		<defs>
			<rect id="SVGID_3_" x="29.801" y="9.414" width="14.578" height="14.578"/>
		</defs>
		<clipPath id="SVGID_4_">
			<use xlink:href="#SVGID_3_"  overflow="visible"/>
		</clipPath>
		<g transform="matrix(1 0 0 1 -5.954837e-007 9.670913e-007)" clip-path="url(#SVGID_4_)">
			
				<image overflow="visible" width="260" height="257" xlink:href="B5DC2919.png"  transform="matrix(0.0578 0 0 -0.0578 29.645 24.1616)">
			</image>
		</g>
	</g>
</g>
<g>
	<defs>
		<path id="SVGID_5_" d="M22.703,28.026c-0.905-0.641-2.636-2.199-2.636-3.115c0-1.073,0.306-1.602,1.922-2.864
			c1.656-1.294,2.828-3.113,2.828-5.229c0-2.519-1.122-4.974-3.228-5.784h3.175l2.241-1.62c0,0-7.51,0-10.013,0
			c-4.489,0-8.714,3.401-8.714,7.34c0,4.026,3.061,7.275,7.627,7.275c0.318,0,0.626-0.007,0.929-0.028
			c-0.296,0.567-0.508,1.206-0.508,1.87c0,1.119,0.602,2.026,1.363,2.767c-0.575,0-1.13,0.017-1.736,0.017
			c-5.561,0-9.84,3.541-9.84,7.213c0,3.616,4.691,5.879,10.252,5.879c6.339,0,9.84-3.597,9.84-7.214
			C26.204,31.633,25.348,29.897,22.703,28.026L22.703,28.026z M17.353,23.009L17.353,23.009c-2.58-0.077-5.031-2.886-5.477-6.273
			c-0.446-3.388,1.284-5.981,3.863-5.904c2.58,0.077,5.032,2.796,5.478,6.183C21.662,20.403,19.932,23.086,17.353,23.009
			L17.353,23.009z M16.343,40.148L16.343,40.148c-3.843,0-6.619-2.433-6.619-5.355c0-2.864,3.442-5.248,7.286-5.207
			c0.897,0.009,1.733,0.154,2.492,0.399c2.086,1.451,3.583,2.271,4.005,3.924c0.08,0.336,0.123,0.681,0.123,1.033
			C23.629,37.865,21.746,40.148,16.343,40.148L16.343,40.148z"/>
	</defs>
	<clipPath id="SVGID_6_">
		<use xlink:href="#SVGID_5_"  overflow="visible"/>
	</clipPath>
	<g clip-path="url(#SVGID_6_)">
		<defs>
			<rect id="SVGID_7_" x="6.111" y="9.414" width="20.893" height="32.333"/>
		</defs>
		<clipPath id="SVGID_8_">
			<use xlink:href="#SVGID_7_"  overflow="visible"/>
		</clipPath>
		<g transform="matrix(1 0 0 1 2.120411e-007 1.333456e-008)" clip-path="url(#SVGID_8_)">
			
				<image overflow="visible" width="368" height="563" xlink:href="B5DC291B.png"  transform="matrix(0.0578 0 0 -0.0578 5.9565 41.9053)">
			</image>
		</g>
	</g>
</g>
</svg>
