<?xml version="1.0" encoding="utf-8"?>
<!-- Generator: Adobe Illustrator 15.0.2, SVG Export Plug-In . SVG Version: 6.00 Build 0)  -->
<!DOCTYPE svg PUBLIC "-//W3C//DTD SVG 1.1//EN" "http://www.w3.org/Graphics/SVG/1.1/DTD/svg11.dtd">
<svg version="1.1" id="Слой_1" xmlns="http://www.w3.org/2000/svg" xmlns:xlink="http://www.w3.org/1999/xlink" x="0px" y="0px"
	 width="50px" height="50px" viewBox="0 0 50 50" enable-background="new 0 0 50 50" xml:space="preserve">
<polygon fill="#222222" points="50,50 0,50 0,0 50,0 50,50 "/>
<g>
	<defs>
		<path id="SVGID_1_" d="M29.466,26.777c-0.658-0.466-1.916-1.598-1.916-2.264c0-0.78,0.223-1.165,1.397-2.082
			c1.204-0.941,2.055-2.263,2.055-3.801c0-1.831-0.815-3.615-2.346-4.204h2.308l1.628-1.178c0,0-5.458,0-7.278,0
			c-3.263,0-6.334,2.472-6.334,5.335c0,2.926,2.225,5.288,5.544,5.288c0.231,0,0.455-0.004,0.675-0.021
			c-0.215,0.413-0.37,0.877-0.37,1.359c0,0.813,0.438,1.473,0.991,2.011c-0.418,0-0.821,0.012-1.262,0.012
			c-4.042,0-7.152,2.574-7.152,5.244c0,2.628,3.41,4.273,7.452,4.273c4.607,0,7.152-2.614,7.152-5.243
			C32.011,29.4,31.389,28.137,29.466,26.777L29.466,26.777z M25.578,23.131L25.578,23.131c-1.875-0.056-3.657-2.098-3.981-4.56
			c-0.324-2.462,0.934-4.347,2.809-4.292c1.875,0.057,3.657,2.032,3.981,4.495S27.453,23.187,25.578,23.131L25.578,23.131z
			 M24.844,35.589L24.844,35.589c-2.793,0-4.811-1.769-4.811-3.893c0-2.082,2.502-3.815,5.296-3.785
			c0.652,0.007,1.259,0.112,1.811,0.291c1.516,1.055,2.604,1.65,2.911,2.853c0.058,0.244,0.089,0.494,0.089,0.75
			C30.14,33.929,28.771,35.589,24.844,35.589L24.844,35.589z"/>
	</defs>
	<clipPath id="SVGID_2_">
		<use xlink:href="#SVGID_1_"  overflow="visible"/>
	</clipPath>
	<g clip-path="url(#SVGID_2_)">
		<defs>
			<rect id="SVGID_3_" x="17.407" y="13.249" width="15.187" height="23.502"/>
		</defs>
		<clipPath id="SVGID_4_">
			<use xlink:href="#SVGID_3_"  overflow="visible"/>
		</clipPath>
		<g transform="matrix(1 0 0 1 -7.433683e-007 -1.639910e-008)" clip-path="url(#SVGID_4_)">
			
				<image overflow="visible" width="368" height="563" xlink:href="B5DC291A.png"  transform="matrix(0.042 0 0 -0.042 17.2939 36.8662)">
			</image>
		</g>
	</g>
</g>
</svg>
