<?xml version="1.0" encoding="utf-8"?>
<!-- Generator: Adobe Illustrator 15.0.2, SVG Export Plug-In . SVG Version: 6.00 Build 0)  -->
<!DOCTYPE svg PUBLIC "-//W3C//DTD SVG 1.1//EN" "http://www.w3.org/Graphics/SVG/1.1/DTD/svg11.dtd">
<svg version="1.1" id="Layer_1" xmlns="http://www.w3.org/2000/svg" xmlns:xlink="http://www.w3.org/1999/xlink" x="0px" y="0px"
	 width="297.996px" height="158.199px" viewBox="1.438 0 297.996 158.199" enable-background="new 1.438 0 297.996 158.199"
	 xml:space="preserve">
<g>
	<path fill="#00BACF" d="M1.438,17.525h297.996v82.342v10.357c-81.892,44.284-190.264,46.067-297.996,48.878v-1.377V17.525z"/>
	<polygon fill="#00BAFF" points="275.476,8.257 282.192,17.413 272.552,17.413 	"/>
	<path fill="#00F5FF" d="M186.361,8.257h89.117v15.203c0,5.371-3.437,9.32-7.604,9.767l-73.908,7.907
		c-4.168,0.447-7.604-4.394-7.604-9.766L186.361,8.257L186.361,8.257z"/>
	
		<line fill="none" stroke="#649134" stroke-width="0.72" stroke-miterlimit="2.6131" stroke-dasharray="3.6,2.16" x1="68.875" y1="17.413" x2="68.875" y2="157.074"/>
	<rect x="79.227" y="41.161" fill="#FFFFFF" width="1.285" height="96.941"/>
	<path fill="#5EA6F2" d="M1.438,17.525h67.438v139.549c-22.341,0.896-44.904,1.438-67.438,2.028v-1.377V17.525z"/>
	<g>
		<path fill="#FFFFFF" d="M29.743,64.338c0.468,0.455,1.134,0.342,1.488-0.259c1.582-2.664,3.981-4.189,6.583-4.189
			c1.861,0,3.611,0.786,5.038,2.198c-0.438,0.168-0.756,0.687-0.756,1.305c0,0.754,0.473,1.362,1.061,1.362h2.337
			c0.586,0,1.062-0.608,1.062-1.362v-3c0-0.754-0.476-1.365-1.062-1.365c-0.542,0-0.988,0.52-1.053,1.191
			c-1.843-1.964-4.163-3.056-6.627-3.056c-3.268,0-6.282,1.919-8.271,5.263C29.188,63.024,29.277,63.881,29.743,64.338z"/>
		<path fill="#FFFFFF" d="M44.266,74.823c0,3.072,1.945,5.57,4.337,5.57c2.393,0,4.338-2.498,4.338-5.57
			c0-3.071-1.945-5.57-4.338-5.57C46.211,69.251,44.266,71.75,44.266,74.823z"/>
		<path fill="#FFFFFF" d="M54.424,83.094l-0.01-0.002l-2.294-0.486c-0.193-0.077-0.403,0.053-0.473,0.302l-2.604,9.175
			c-0.15,0.531-0.732,0.531-0.883,0.002l-2.605-9.177c-0.058-0.2-0.204-0.324-0.36-0.324c-0.037,0-2.411,0.508-2.411,0.508
			c-1.58,0.676-2.637,2.561-2.637,4.69v7.636c0,1.144,0.723,2.07,1.614,2.07h13.679c0.89,0,1.613-0.927,1.613-2.07v-7.659
			C57.055,85.634,55.995,83.754,54.424,83.094z"/>
		<path fill="#FFFFFF" d="M27.028,80.394c2.393,0,4.339-2.498,4.339-5.57c0-3.071-1.948-5.57-4.339-5.57
			c-2.39,0-4.337,2.499-4.337,5.57C22.69,77.896,24.637,80.394,27.028,80.394z"/>
		<path fill="#FFFFFF" d="M35.48,95.413v-7.658c0-2.12-1.06-3.999-2.631-4.664l-0.01-0.002l-2.295-0.485
			c-0.195-0.077-0.403,0.052-0.473,0.301l-2.605,9.177c-0.15,0.529-0.733,0.529-0.881,0l-2.604-9.175
			c-0.058-0.2-0.204-0.323-0.36-0.323c-0.036,0-2.41,0.508-2.41,0.508c-1.581,0.676-2.636,2.559-2.636,4.688v7.636
			c0,1.144,0.722,2.072,1.613,2.072h13.68C34.759,97.485,35.48,96.557,35.48,95.413z"/>
		<path fill="#FFFFFF" d="M46.137,104.289c-0.468-0.453-1.131-0.34-1.488,0.262c-1.581,2.661-3.98,4.188-6.584,4.188
			c-1.858,0-3.609-0.783-5.035-2.196c0.437-0.17,0.756-0.689,0.756-1.306c0-0.753-0.476-1.366-1.061-1.366h-2.337
			c-0.588,0-1.062,0.613-1.062,1.366v2.999c0,0.755,0.474,1.364,1.062,1.364c0.54,0,0.986-0.519,1.052-1.19
			c1.844,1.967,4.162,3.056,6.625,3.056c3.27,0,6.283-1.919,8.273-5.263C46.693,105.604,46.604,104.746,46.137,104.289z"/>
		<path fill="#FFFFFF" d="M49.61,82.807c-0.109-0.151-0.263-0.226-0.421-0.226h-1.172c-0.156,0-0.313,0.074-0.42,0.226
			c-0.166,0.23-0.189,0.561-0.072,0.823l0.628,1.211l-0.295,3.184L48.438,90c0.056,0.2,0.275,0.2,0.33,0l0.578-1.976l-0.292-3.184
			l0.626-1.211C49.798,83.367,49.774,83.033,49.61,82.807z"/>
		<path fill="#FFFFFF" d="M28.034,82.807c-0.107-0.151-0.261-0.226-0.42-0.226h-1.172c-0.158,0-0.314,0.074-0.421,0.226
			c-0.164,0.23-0.188,0.561-0.071,0.823l0.628,1.211l-0.296,3.184L26.863,90c0.056,0.2,0.275,0.2,0.329,0l0.578-1.976l-0.294-3.182
			l0.628-1.213C28.223,83.367,28.199,83.033,28.034,82.807z"/>
	</g>
	<g>
		<path fill="#0082FF" d="M189.063,22.015l0.938-0.313c0.069,0.464,0.26,0.929,0.569,1.393s0.72,0.695,1.229,0.695
			c0.52,0,0.93-0.17,1.231-0.513c0.302-0.343,0.451-0.757,0.451-1.245c0-0.526-0.156-0.941-0.478-1.252
			c-0.317-0.309-0.75-0.464-1.297-0.464h-0.468v-1.1c0.45,0,0.799-0.033,1.039-0.102c0.239-0.066,0.451-0.239,0.638-0.513
			c0.18-0.275,0.274-0.59,0.274-0.94c0-0.417-0.126-0.78-0.376-1.09c-0.252-0.307-0.59-0.461-1.021-0.461
			c-0.375,0-0.696,0.121-0.961,0.361c-0.266,0.242-0.446,0.56-0.549,0.958c-0.102,0.396-0.152,0.694-0.152,0.888l-0.944-0.272
			c0.233-2.026,1.104-3.04,2.614-3.04c0.727,0,1.303,0.261,1.728,0.778c0.426,0.519,0.638,1.126,0.638,1.819
			c0,0.889-0.326,1.579-0.982,2.071c0.376,0.133,0.694,0.41,0.949,0.821c0.253,0.416,0.383,0.91,0.383,1.487
			c0,0.818-0.249,1.505-0.743,2.059c-0.493,0.553-1.15,0.83-1.968,0.83C190.399,24.872,189.486,23.919,189.063,22.015z"/>
		<path fill="#0082FF" d="M195.625,17.797h2.103c0.516,0,0.901,0.054,1.152,0.166c0.253,0.11,0.469,0.315,0.648,0.608
			c0.181,0.295,0.272,0.649,0.272,1.064c0,0.328-0.054,0.618-0.157,0.859c-0.107,0.246-0.269,0.451-0.479,0.617
			c0.253,0.107,0.465,0.311,0.633,0.608c0.166,0.297,0.251,0.649,0.251,1.057c-0.034,0.657-0.217,1.142-0.545,1.46
			c-0.33,0.317-0.813,0.476-1.446,0.476h-2.428L195.625,17.797L195.625,17.797z M196.538,20.707h0.974
			c0.388,0,0.653-0.025,0.8-0.077c0.146-0.051,0.276-0.158,0.391-0.316c0.115-0.159,0.174-0.349,0.174-0.57
			c0-0.364-0.102-0.619-0.302-0.761c-0.2-0.142-0.543-0.215-1.03-0.215h-1.003v1.938L196.538,20.707L196.538,20.707z
			 M196.538,23.746h1.201c0.517,0,0.873-0.078,1.065-0.232c0.192-0.153,0.296-0.417,0.303-0.797c0-0.221-0.056-0.424-0.167-0.612
			c-0.11-0.19-0.256-0.308-0.437-0.358c-0.182-0.049-0.467-0.074-0.86-0.074h-1.104L196.538,23.746L196.538,23.746z"/>
		<path fill="#0082FF" d="M201.079,16.431v-1.36h0.976v1.073c0,0.581-0.051,1.001-0.156,1.255c-0.146,0.352-0.373,0.614-0.681,0.793
			l-0.224-0.462c0.182-0.095,0.317-0.246,0.408-0.451c0.088-0.205,0.139-0.489,0.15-0.849H201.079L201.079,16.431z"/>
		<path fill="#0082FF" d="M207.678,17.797v6.91h-0.906v-2.694h-0.528c-0.322,0-0.561,0.052-0.717,0.16
			c-0.156,0.107-0.386,0.447-0.686,1.025l-0.797,1.509h-1.129l0.982-1.862c0.301-0.569,0.6-0.889,0.898-0.964
			c-0.519-0.089-0.905-0.33-1.158-0.723c-0.253-0.389-0.379-0.838-0.379-1.346c0-0.599,0.166-1.085,0.494-1.458
			c0.328-0.373,0.806-0.56,1.43-0.56L207.678,17.797L207.678,17.797z M206.77,18.767h-1.298c-0.542,0-0.896,0.107-1.052,0.325
			c-0.156,0.217-0.233,0.471-0.233,0.762c0,0.413,0.114,0.716,0.349,0.91c0.231,0.193,0.641,0.289,1.229,0.289h1.009L206.77,18.767
			L206.77,18.767z"/>
		<path fill="#0082FF" d="M212.313,17.797v2.987c0.291,0,0.494-0.073,0.613-0.215c0.118-0.142,0.292-0.56,0.516-1.25
			c0.214-0.655,0.402-1.071,0.571-1.253c0.166-0.177,0.43-0.266,0.792-0.266h0.334v0.97l-0.25-0.006
			c-0.243,0-0.396,0.047-0.466,0.139c-0.072,0.095-0.183,0.379-0.325,0.85c-0.134,0.451-0.259,0.764-0.373,0.94
			c-0.115,0.173-0.294,0.33-0.538,0.475c0.396,0.135,0.78,0.602,1.156,1.405l1.002,2.142h-1.002l-0.978-2.142
			c-0.199-0.434-0.371-0.719-0.522-0.852c-0.148-0.133-0.325-0.201-0.531-0.201v3.193h-0.933v-3.193
			c-0.204,0-0.378,0.068-0.527,0.199c-0.148,0.133-0.323,0.417-0.521,0.856l-0.975,2.141h-1.004l0.996-2.141
			c0.376-0.803,0.764-1.272,1.163-1.405c-0.272-0.161-0.46-0.335-0.568-0.524c-0.107-0.188-0.27-0.638-0.486-1.351
			c-0.075-0.237-0.155-0.386-0.239-0.442c-0.086-0.056-0.217-0.085-0.39-0.085c-0.043,0-0.132,0.002-0.269,0.008v-0.973h0.127
			c0.35,0,0.599,0.027,0.743,0.08c0.143,0.054,0.271,0.17,0.385,0.346c0.112,0.176,0.261,0.541,0.443,1.096
			c0.226,0.681,0.396,1.094,0.509,1.244c0.118,0.146,0.323,0.221,0.617,0.221v-2.987h0.931L212.313,17.797L212.313,17.797z"/>
		<path fill="#0082FF" d="M216.008,16.515v-1.346h0.911v1.346H216.008L216.008,16.515z M216.008,24.709v-6.912h0.911v6.912H216.008z
			"/>
		<path fill="#0082FF" d="M217.817,17.797h4.372v0.97h-1.733v5.942h-0.906v-5.942h-1.732V17.797L217.817,17.797z"/>
		<path fill="#0082FF" d="M223.047,17.797h0.911v2.699h1.157c0.754,0,1.334,0.188,1.742,0.563c0.406,0.375,0.613,0.893,0.613,1.552
			c0,0.577-0.173,1.071-0.513,1.481s-0.879,0.614-1.627,0.614h-2.278L223.047,17.797L223.047,17.797z M223.959,23.746h0.958
			c0.578,0,0.99-0.091,1.239-0.273c0.246-0.182,0.37-0.467,0.37-0.853c0-0.298-0.091-0.567-0.274-0.802
			c-0.184-0.231-0.589-0.35-1.214-0.35h-1.079V23.746L223.959,23.746z"/>
		<path fill="#0082FF" d="M231.982,22.177l0.897,0.15c-0.098,0.793-0.348,1.416-0.752,1.864c-0.404,0.451-0.902,0.674-1.487,0.674
			c-0.736,0-1.332-0.309-1.776-0.928c-0.446-0.618-0.67-1.504-0.67-2.658c0-0.747,0.095-1.399,0.288-1.96
			c0.191-0.559,0.485-0.977,0.878-1.257c0.394-0.282,0.823-0.419,1.285-0.419c0.586,0,1.063,0.189,1.434,0.569
			c0.372,0.382,0.611,0.918,0.713,1.618l-0.885,0.175c-0.085-0.465-0.234-0.815-0.448-1.048c-0.216-0.233-0.474-0.353-0.78-0.353
			c-0.459,0-0.83,0.211-1.118,0.635c-0.287,0.42-0.432,1.092-0.432,2.007c0,0.928,0.139,1.604,0.418,2.022
			c0.276,0.419,0.637,0.633,1.084,0.633c0.357,0,0.66-0.142,0.9-0.424C231.768,23.197,231.917,22.762,231.982,22.177z"/>
		<path fill="#0082FF" d="M237.896,17.797v6.91h-0.908v-2.694h-0.528c-0.32,0-0.56,0.052-0.716,0.16
			c-0.154,0.107-0.386,0.447-0.685,1.025l-0.797,1.509h-1.131l0.982-1.862c0.3-0.569,0.6-0.889,0.898-0.964
			c-0.52-0.089-0.906-0.33-1.158-0.723c-0.252-0.391-0.376-0.838-0.376-1.346c0-0.599,0.164-1.085,0.492-1.458
			c0.328-0.373,0.806-0.56,1.431-0.56L237.896,17.797L237.896,17.797z M236.986,18.767h-1.298c-0.542,0-0.893,0.107-1.049,0.325
			c-0.155,0.217-0.233,0.471-0.233,0.762c0,0.413,0.113,0.716,0.348,0.91c0.229,0.193,0.639,0.289,1.229,0.289h1.008L236.986,18.767
			L236.986,18.767z"/>
		<path fill="#0082FF" d="M243.354,21.586v-0.917c0.385-0.004,0.647-0.024,0.789-0.06c0.138-0.035,0.272-0.138,0.396-0.313
			c0.126-0.173,0.187-0.39,0.187-0.651c0-0.316-0.084-0.57-0.247-0.757c-0.163-0.19-0.375-0.283-0.637-0.283
			c-0.515,0-0.874,0.388-1.078,1.164l-0.868-0.182c0.272-1.297,0.926-1.946,1.957-1.946c0.574,0,1.024,0.201,1.352,0.605
			c0.325,0.404,0.49,0.884,0.49,1.443c0,0.565-0.211,1.013-0.637,1.346c0.271,0.187,0.474,0.425,0.609,0.713
			c0.134,0.29,0.204,0.632,0.204,1.025c0,0.622-0.178,1.126-0.527,1.51c-0.351,0.386-0.843,0.579-1.477,0.579
			c-1.226,0-1.935-0.698-2.132-2.102l0.854-0.233c0.078,0.443,0.234,0.787,0.474,1.03c0.238,0.243,0.513,0.363,0.819,0.363
			c0.306,0,0.563-0.109,0.767-0.334c0.204-0.224,0.307-0.51,0.307-0.856c0-0.269-0.063-0.503-0.192-0.703
			c-0.131-0.199-0.265-0.324-0.411-0.374c-0.146-0.049-0.408-0.076-0.791-0.076C243.529,21.578,243.461,21.58,243.354,21.586z"/>
		<path fill="#0082FF" d="M249.809,17.797h0.912v2.875h2.529v-2.875h0.912v6.91h-0.912v-3.066h-2.529v3.066h-0.912V17.797z"/>
		<path fill="#0082FF" d="M259.047,23.855c-0.338,0.37-0.66,0.632-0.972,0.784c-0.314,0.152-0.649,0.229-1.007,0.229
			c-0.589,0-1.045-0.187-1.361-0.557c-0.319-0.371-0.477-0.846-0.477-1.421c0-0.338,0.061-0.647,0.181-0.927
			c0.119-0.281,0.276-0.505,0.469-0.675c0.194-0.168,0.415-0.296,0.659-0.383c0.181-0.062,0.446-0.119,0.808-0.175
			c0.737-0.112,1.281-0.248,1.627-0.404c0.004-0.16,0.006-0.262,0.006-0.305c0-0.479-0.085-0.814-0.257-1.008
			c-0.231-0.264-0.58-0.397-1.04-0.397c-0.429,0-0.746,0.099-0.95,0.292c-0.203,0.193-0.353,0.535-0.451,1.025l-0.894-0.157
			c0.083-0.491,0.215-0.886,0.398-1.187c0.187-0.3,0.455-0.535,0.804-0.695c0.353-0.164,0.76-0.245,1.223-0.245
			c0.458,0,0.83,0.07,1.117,0.209c0.287,0.139,0.498,0.313,0.636,0.523c0.133,0.211,0.227,0.477,0.283,0.797
			c0.03,0.201,0.045,0.56,0.045,1.08v1.561c0,1.089,0.019,1.778,0.059,2.065c0.038,0.29,0.116,0.566,0.231,0.83h-0.954
			C259.136,24.466,259.074,24.183,259.047,23.855z M258.972,21.24c-0.33,0.172-0.829,0.323-1.489,0.442
			c-0.376,0.07-0.641,0.148-0.798,0.234c-0.156,0.085-0.276,0.213-0.359,0.382c-0.084,0.167-0.126,0.352-0.126,0.555
			c0,0.313,0.089,0.572,0.276,0.783c0.184,0.209,0.453,0.311,0.807,0.311c0.35,0,0.663-0.098,0.938-0.295
			c0.275-0.198,0.474-0.467,0.602-0.81c0.1-0.264,0.149-0.656,0.149-1.17L258.972,21.24L258.972,21.24z"/>
		<path fill="#0082FF" d="M261.333,17.797h1.419l1.414,5.531l1.573-5.531h1.311v6.91h-0.912v-5.564l-1.592,5.564h-0.816
			l-1.505-5.831v5.831h-0.893L261.333,17.797L261.333,17.797z"/>
		<path fill="#0082FF" d="M268.443,17.797h0.911v5.272l2.53-5.272h0.982v6.91h-0.912V19.47l-2.529,5.238h-0.982V17.797
			L268.443,17.797z"/>
	</g>
	<g>
		<path fill="#FFFFFF" d="M87.324,57.995c0-1.286-0.014-2.323-0.063-3.277h1.275l0.081,1.721h0.032
			c0.565-1.246,1.502-1.949,2.761-1.949c1.907,0,3.328,2.052,3.328,5.1c0,3.606-1.727,5.391-3.552,5.391
			c-1.049,0-1.937-0.581-2.406-1.577h-0.034v5.451h-1.421L87.324,57.995L87.324,57.995z M88.745,60.669
			c0,0.248,0.016,0.516,0.064,0.747c0.242,1.264,1.114,2.134,2.115,2.134c1.501,0,2.373-1.575,2.373-3.876
			c0-2.012-0.807-3.732-2.308-3.732c-0.97,0-1.889,0.871-2.164,2.239c-0.034,0.248-0.083,0.519-0.083,0.747L88.745,60.669
			L88.745,60.669z"/>
		<path fill="#FFFFFF" d="M96.316,62.908c0.437,0.332,1.179,0.705,1.888,0.705c1.017,0,1.501-0.641,1.501-1.493
			c0-0.873-0.404-1.347-1.437-1.844c-1.421-0.665-2.083-1.638-2.083-2.841c0-1.619,1.033-2.946,2.695-2.946
			c0.792,0,1.485,0.268,1.907,0.625l-0.34,1.307c-0.306-0.231-0.874-0.583-1.598-0.583c-0.839,0-1.292,0.624-1.292,1.369
			c0,0.85,0.453,1.223,1.469,1.722c1.34,0.642,2.053,1.512,2.053,3.028c0,1.782-1.081,3.027-2.906,3.027
			c-0.856,0-1.647-0.29-2.198-0.705L96.316,62.908z"/>
		<path fill="#FFFFFF" d="M102.904,57.435c0-1.06-0.016-1.888-0.065-2.717h1.259l0.083,1.638h0.032
			c0.388-0.933,1.292-1.866,2.583-1.866c1.082,0,2.761,0.83,2.761,4.271v5.992h-1.422v-5.785c0-1.62-0.468-2.985-1.809-2.985
			c-0.92,0-1.645,0.849-1.904,1.866c-0.064,0.229-0.097,0.559-0.097,0.85v6.052h-1.421L102.904,57.435L102.904,57.435z"/>
		<path fill="#FFFFFF" d="M113.283,59.322h0.033c0.194-0.355,0.453-0.809,0.678-1.141l2.309-3.463h1.695l-3.019,4.125l3.438,5.909
			h-1.725l-2.681-4.83l-0.727,1.059v3.775h-1.421V50.035h1.421L113.283,59.322L113.283,59.322z"/>
		<path fill="#FFFFFF" d="M126.717,64.151c-0.888,0.602-1.792,0.83-2.874,0.83c-2.647,0-4.889-2.486-4.889-6.466
			c0-4.273,2.308-7.963,5.892-7.963c2.809,0,4.682,2.529,4.682,5.993c0,3.109-1.34,4.934-2.857,4.934
			c-0.646,0-1.228-0.54-1.195-1.825h-0.049c-0.582,1.223-1.324,1.825-2.293,1.825c-0.936,0-1.743-0.975-1.743-2.611
			c0-2.57,1.583-4.915,3.826-4.915c0.695,0,1.326,0.188,1.728,0.435l-0.532,3.752c-0.242,1.575-0.065,2.298,0.468,2.321
			c0.823,0.042,1.742-1.387,1.742-3.773c0-3.029-1.405-5.183-3.905-5.183c-2.632,0-4.843,2.674-4.843,6.902
			c0,3.442,1.759,5.576,4.149,5.576c0.936,0,1.79-0.249,2.438-0.724L126.717,64.151z M125.845,55.216
			c-0.162-0.083-0.438-0.168-0.808-0.168c-1.438,0-2.584,1.722-2.584,3.733c0,0.935,0.355,1.578,1.067,1.578
			c0.936,0,1.808-1.535,1.984-2.823L125.845,55.216z"/>
		<path fill="#FFFFFF" d="M132.755,59.322h0.034c0.193-0.355,0.45-0.809,0.678-1.141l2.308-3.463h1.694l-3.017,4.125l3.439,5.909
			h-1.728l-2.68-4.83l-0.727,1.059v3.775h-1.421V50.035h1.421L132.755,59.322L132.755,59.322z"/>
		<path fill="#FFFFFF" d="M139.196,57.995c0-1.286-0.015-2.323-0.063-3.277h1.275l0.081,1.721h0.032
			c0.565-1.246,1.502-1.949,2.761-1.949c1.906,0,3.328,2.052,3.328,5.1c0,3.606-1.728,5.391-3.551,5.391
			c-1.05,0-1.938-0.581-2.406-1.577h-0.033v5.451h-1.422L139.196,57.995L139.196,57.995z M140.617,60.669
			c0,0.248,0.016,0.516,0.065,0.747c0.242,1.264,1.115,2.134,2.115,2.134c1.502,0,2.374-1.575,2.374-3.876
			c0-2.012-0.808-3.732-2.309-3.732c-0.968,0-1.889,0.871-2.163,2.239c-0.035,0.248-0.083,0.519-0.083,0.747L140.617,60.669
			L140.617,60.669z"/>
		<path fill="#FFFFFF" d="M149.061,52.874c-0.532,0-0.888-0.541-0.888-1.182c0-0.643,0.371-1.16,0.92-1.16
			c0.549,0,0.904,0.517,0.904,1.16c0,0.64-0.355,1.182-0.92,1.182H149.061z M148.382,64.753V54.718h1.42v10.036H148.382z"/>
		<path fill="#FFFFFF" d="M152.758,64.981c-0.549,0-0.937-0.559-0.937-1.307c0-0.746,0.403-1.306,0.97-1.306
			c0.565,0,0.953,0.54,0.953,1.306c0,0.748-0.388,1.307-0.971,1.307H152.758z"/>
		<path fill="#FFFFFF" d="M162.039,62.017c0,1.037,0.017,1.948,0.065,2.736h-1.262l-0.082-1.639h-0.031
			c-0.357,0.808-1.195,1.867-2.584,1.867c-1.226,0-2.695-0.893-2.695-4.396v-5.869h1.419v5.539c0,1.907,0.469,3.212,1.745,3.212
			c0.951,0,1.614-0.849,1.871-1.681c0.081-0.248,0.129-0.581,0.129-0.933v-6.14h1.422L162.039,62.017L162.039,62.017z"/>
		<path fill="#FFFFFF" d="M169.902,62.349c0,0.871,0.034,1.72,0.114,2.404h-1.275l-0.131-1.264h-0.048
			c-0.421,0.787-1.274,1.493-2.391,1.493c-1.583,0-2.389-1.432-2.389-2.882c0-2.426,1.676-3.754,4.697-3.734v-0.207
			c0-0.83-0.179-2.342-1.777-2.323c-0.744,0-1.501,0.271-2.05,0.748l-0.324-1.221c0.646-0.52,1.598-0.873,2.583-0.873
			c2.405,0,2.987,2.093,2.987,4.104v3.752H169.902z M168.515,59.633c-1.549-0.043-3.31,0.31-3.31,2.259
			c0,1.203,0.613,1.744,1.326,1.744c1.032,0,1.694-0.831,1.92-1.683c0.049-0.186,0.064-0.391,0.064-0.581V59.633L168.515,59.633z"/>
		<path fill="#FFFFFF" d="M90.332,89.633v-13.09h-3.808v-1.751h9.161v1.751h-3.823v13.09H90.332z"/>
		<path fill="#FFFFFF" d="M101.896,86.171l1.467,0.232c-0.231,1.099-0.662,1.953-1.285,2.562c-0.625,0.604-1.424,0.909-2.394,0.909
			c-1.226,0-2.198-0.481-2.915-1.452c-0.717-0.97-1.074-2.327-1.074-4.075c0-1.809,0.363-3.213,1.088-4.211
			c0.726-1.002,1.666-1.5,2.823-1.5c1.12,0,2.034,0.491,2.744,1.466c0.709,0.978,1.065,2.357,1.065,4.13
			c0,0.107-0.002,0.27-0.01,0.484h-6.242c0.053,1.185,0.313,2.086,0.781,2.714c0.469,0.63,1.051,0.941,1.75,0.941
			c0.52,0,0.964-0.175,1.333-0.526C101.389,87.501,101.681,86.939,101.896,86.171z M97.237,83.224h4.673
			c-0.062-0.905-0.242-1.583-0.536-2.033c-0.452-0.701-1.038-1.053-1.758-1.053c-0.652,0-1.2,0.28-1.646,0.84
			C97.53,81.538,97.285,82.286,97.237,83.224z"/>
		<path fill="#FFFFFF" d="M105.301,78.882h6.593v10.751h-1.411v-9.242h-3.76v5.353c0,1.249-0.033,2.075-0.095,2.47
			c-0.063,0.399-0.237,0.748-0.52,1.043c-0.285,0.298-0.694,0.446-1.23,0.446c-0.331,0-0.712-0.024-1.143-0.077v-1.522h0.623
			c0.294,0,0.505-0.036,0.631-0.112c0.128-0.078,0.209-0.201,0.253-0.371c0.042-0.169,0.063-0.721,0.063-1.65v-7.087H105.301
			L105.301,78.882z"/>
		<path fill="#FFFFFF" d="M119.759,86.171l1.466,0.232c-0.229,1.099-0.66,1.953-1.285,2.562c-0.625,0.604-1.424,0.909-2.397,0.909
			c-1.225,0-2.196-0.481-2.912-1.452c-0.718-0.97-1.076-2.327-1.076-4.075c0-1.809,0.363-3.213,1.088-4.211
			c0.726-1.002,1.667-1.5,2.823-1.5c1.118,0,2.032,0.491,2.744,1.466c0.709,0.978,1.064,2.357,1.064,4.13
			c0,0.107-0.002,0.27-0.008,0.484h-6.244c0.052,1.185,0.313,2.086,0.78,2.714c0.468,0.63,1.049,0.941,1.749,0.941
			c0.521,0,0.966-0.175,1.334-0.526C119.251,87.501,119.543,86.939,119.759,86.171z M115.1,83.224h4.674
			c-0.063-0.905-0.241-1.583-0.536-2.033c-0.452-0.701-1.04-1.053-1.76-1.053c-0.652,0-1.2,0.28-1.644,0.84
			C115.393,81.538,115.148,82.286,115.1,83.224z"/>
		<path fill="#FFFFFF" d="M127.878,74.792h1.42v5.135c0.295-0.431,0.617-0.756,0.971-0.969c0.349-0.213,0.731-0.318,1.135-0.318
			c0.994,0,1.78,0.531,2.361,1.592c0.581,1.065,0.873,2.402,0.873,4.015c0,1.682-0.313,3.038-0.939,4.076
			c-0.625,1.032-1.403,1.552-2.333,1.552c-0.303,0-0.612-0.06-0.928-0.181c-0.316-0.122-0.694-0.45-1.138-0.992v5.051h-1.418v-5.051
			c-0.283,0.391-0.598,0.685-0.942,0.878c-0.343,0.198-0.716,0.294-1.115,0.294c-0.877,0-1.646-0.493-2.302-1.481
			c-0.659-0.989-0.985-2.405-0.985-4.247c0-1.558,0.297-2.864,0.891-3.923c0.594-1.056,1.392-1.585,2.396-1.585
			c0.42,0,0.801,0.108,1.141,0.321c0.339,0.211,0.646,0.537,0.914,0.969L127.878,74.792L127.878,74.792z M123.977,84.096
			c0,1.519,0.199,2.61,0.595,3.28c0.397,0.667,0.889,1.001,1.478,1.001c0.615,0,1.075-0.329,1.382-0.997
			c0.303-0.664,0.457-1.66,0.457-2.992c0-1.419-0.161-2.48-0.48-3.189c-0.323-0.709-0.806-1.063-1.453-1.063
			c-0.584,0-1.059,0.344-1.427,1.034C124.161,81.866,123.977,82.84,123.977,84.096z M129.29,84.297c0,1.62,0.173,2.708,0.521,3.265
			c0.346,0.557,0.781,0.834,1.3,0.834c0.579,0,1.069-0.342,1.479-1.026c0.407-0.685,0.612-1.749,0.612-3.192
			c0-1.366-0.188-2.383-0.564-3.048c-0.374-0.668-0.855-1.002-1.446-1.002c-0.631,0-1.106,0.35-1.424,1.043
			C129.449,81.864,129.29,82.907,129.29,84.297z"/>
		<path fill="#FFFFFF" d="M135.762,84.256c0-1.989,0.431-3.465,1.292-4.424c0.721-0.795,1.598-1.194,2.633-1.194
			c1.15,0,2.091,0.484,2.822,1.455c0.732,0.969,1.096,2.305,1.096,4.012c0,1.384-0.162,2.473-0.485,3.265
			c-0.324,0.793-0.793,1.408-1.412,1.848c-0.617,0.438-1.292,0.657-2.021,0.657c-1.172,0-2.12-0.479-2.844-1.446
			C136.123,87.464,135.762,86.075,135.762,84.256z M137.22,84.256c0,1.378,0.234,2.409,0.702,3.095
			c0.468,0.686,1.056,1.027,1.766,1.027c0.704,0,1.288-0.344,1.758-1.033c0.467-0.688,0.702-1.736,0.702-3.147
			c0-1.331-0.235-2.337-0.706-3.022c-0.47-0.686-1.055-1.027-1.754-1.027c-0.709,0-1.298,0.34-1.766,1.022
			C137.454,81.85,137.22,82.88,137.22,84.256z"/>
		<path fill="#FFFFFF" d="M145.277,78.882h1.418v4.475h3.934v-4.475h1.418v10.751h-1.418v-4.769h-3.934v4.769h-1.418V78.882
			L145.277,78.882z"/>
		<path fill="#FFFFFF" d="M154.896,89.861c-0.548,0-0.936-0.561-0.936-1.285c0-0.768,0.403-1.307,0.952-1.307
			c0.583,0,0.951,0.539,0.951,1.307c0,0.724-0.373,1.285-0.951,1.285H154.896z M154.912,82.542c-0.548,0-0.936-0.562-0.936-1.285
			c0-0.768,0.401-1.307,0.95-1.307c0.581,0,0.953,0.539,0.953,1.307c0,0.724-0.374,1.285-0.953,1.285H154.912z"/>
		<path fill="#FFFFFF" d="M173.422,75.244c-1.18,2.052-2.018,4.728-2.018,8.5c0,3.688,0.887,6.32,2.018,8.396h-1.097
			c-1.018-1.72-2.116-4.374-2.116-8.417c0.015-4.063,1.098-6.74,2.116-8.479H173.422z"/>
		<path fill="#FFFFFF" d="M177.83,89.861c-2.052,0-3.454-2.467-3.488-6.926c0-4.541,1.534-7.008,3.663-7.008
			c2.198,0,3.472,2.53,3.472,6.821c0,4.582-1.338,7.111-3.633,7.111L177.83,89.861L177.83,89.861z M177.893,88.451
			c1.436,0,2.13-2.176,2.13-5.618c0-3.318-0.646-5.494-2.13-5.494c-1.291,0-2.13,2.112-2.13,5.494
			c-0.034,3.504,0.804,5.618,2.115,5.618H177.893z"/>
		<path fill="#FFFFFF" d="M187.16,89.633v-3.67h-4.876v-1.181l4.682-8.625h1.534v8.398h1.468v1.407H188.5v3.67H187.16z
			 M187.16,84.553v-4.519c0-0.706,0.016-1.408,0.049-2.115h-0.049c-0.324,0.789-0.581,1.371-0.873,2.012l-2.567,4.584v0.043
			L187.16,84.553L187.16,84.553z"/>
		<path fill="#FFFFFF" d="M195.442,89.633v-3.67h-4.875v-1.181l4.682-8.625h1.533v8.398h1.47v1.407h-1.47v3.67H195.442z
			 M195.442,84.553v-4.519c0-0.706,0.015-1.408,0.05-2.115h-0.05c-0.324,0.789-0.58,1.371-0.873,2.012l-2.565,4.584v0.043
			L195.442,84.553L195.442,84.553z"/>
		<path fill="#FFFFFF" d="M198.929,92.141c1.13-2.051,2.018-4.729,2.018-8.458c0-3.732-0.872-6.367-2.018-8.438h1.098
			c1.018,1.7,2.114,4.375,2.114,8.438c-0.016,4.062-1.097,6.696-2.114,8.458H198.929L198.929,92.141z"/>
		<path fill="#FFFFFF" d="M207.341,89.633v-1.119l1.115-1.39c2.679-3.275,3.906-5.017,3.906-7.05c0-1.371-0.502-2.634-2.066-2.634
			c-0.952,0-1.743,0.622-2.229,1.14l-0.451-1.285c0.71-0.765,1.763-1.37,2.971-1.37c2.245,0,3.196,1.991,3.196,3.918
			c0,2.488-1.405,4.497-3.616,7.234l-0.826,0.996v0.043h4.696v1.513L207.341,89.633L207.341,89.633z"/>
		<path fill="#FFFFFF" d="M218.964,89.861c-2.053,0-3.454-2.467-3.487-6.926c0-4.541,1.532-7.008,3.663-7.008
			c2.198,0,3.473,2.53,3.473,6.821c0,4.582-1.342,7.111-3.635,7.111L218.964,89.861L218.964,89.861z M219.028,88.451
			c1.437,0,2.129-2.176,2.129-5.618c0-3.318-0.645-5.494-2.129-5.494c-1.29,0-2.129,2.112-2.129,5.494
			c-0.034,3.504,0.806,5.618,2.114,5.618H219.028z"/>
		<path fill="#FFFFFF" d="M228.295,89.633v-3.67h-4.876v-1.181l4.681-8.625h1.535v8.398h1.469v1.407h-1.469v3.67H228.295z
			 M228.295,84.553v-4.519c0-0.706,0.016-1.408,0.048-2.115h-0.048c-0.323,0.789-0.581,1.371-0.871,2.012l-2.568,4.584v0.043
			L228.295,84.553L228.295,84.553z"/>
		<path fill="#FFFFFF" d="M235.93,83.371v1.328h-3.987v-1.328H235.93z"/>
		<path fill="#FFFFFF" d="M237.965,88.369c0.305,0.021,0.662,0,1.144-0.081c0.826-0.125,1.599-0.562,2.199-1.309
			c0.693-0.809,1.193-1.99,1.388-3.588h-0.05c-0.583,0.913-1.423,1.452-2.486,1.452c-1.888,0-3.099-1.824-3.099-4.147
			c0-2.529,1.453-4.768,3.6-4.768s3.472,2.218,3.472,5.681c0,2.963-0.775,5.041-1.81,6.344c-0.807,0.995-1.922,1.639-3.051,1.805
			c-0.517,0.082-0.985,0.125-1.311,0.105L237.965,88.369L237.965,88.369z M240.533,77.318c-1.193,0-2.053,1.371-2.053,3.275
			c0,1.683,0.79,2.862,2.018,2.862c0.953,0,1.695-0.602,2.084-1.411c0.062-0.166,0.111-0.372,0.111-0.663
			c0.015-2.321-0.661-4.063-2.149-4.063H240.533L240.533,77.318z"/>
		<path fill="#FFFFFF" d="M251.687,77.692h-4.001l-0.405,3.42c0.246-0.042,0.469-0.081,0.856-0.081c0.824,0,1.615,0.228,2.261,0.725
			c0.824,0.579,1.501,1.763,1.501,3.502c0,2.635-1.631,4.604-3.905,4.604c-1.146,0-2.1-0.416-2.615-0.829l0.354-1.39
			c0.437,0.333,1.292,0.748,2.263,0.748c1.324,0,2.486-1.12,2.467-2.944c0-1.784-0.92-3.009-3.003-3.009
			c-0.612,0-1.081,0.063-1.469,0.146l0.678-6.429h5.021L251.687,77.692L251.687,77.692z"/>
		<path fill="#FFFFFF" d="M257.45,83.371v1.328h-3.988v-1.328H257.45z"/>
		<path fill="#FFFFFF" d="M263.052,89.633v-3.67h-4.877v-1.181l4.683-8.625h1.535v8.398h1.469v1.407h-1.469v3.67H263.052z
			 M263.052,84.553v-4.519c0-0.706,0.018-1.408,0.049-2.115h-0.049c-0.324,0.789-0.58,1.371-0.871,2.012l-2.567,4.584v0.043
			L263.052,84.553L263.052,84.553z"/>
		<path fill="#FFFFFF" d="M273.756,76.158v1.201l-4.569,12.272h-1.452l4.536-11.923v-0.04h-5.134v-1.511H273.756L273.756,76.158z"/>
		<path fill="#FFFFFF" d="M91.569,101.453v-1.901h1.435v1.901c1.471,0.102,2.631,0.667,3.484,1.708
			c0.852,1.033,1.277,2.322,1.277,3.86c0,1.507-0.414,2.786-1.238,3.839c-0.825,1.057-1.999,1.634-3.522,1.742v1.913h-1.434v-1.913
			c-1.366-0.068-2.504-0.602-3.414-1.605c-0.909-1.001-1.364-2.329-1.364-3.972c0-1.653,0.453-2.978,1.359-3.968
			C89.059,102.063,90.197,101.527,91.569,101.453z M91.569,103.144c-0.951,0.054-1.72,0.417-2.31,1.082
			c-0.588,0.669-0.883,1.6-0.883,2.794c0,1.182,0.29,2.11,0.871,2.785c0.581,0.676,1.356,1.038,2.322,1.094L91.569,103.144
			L91.569,103.144z M93.004,103.132v7.775c0.987-0.062,1.766-0.427,2.333-1.103s0.853-1.604,0.853-2.785
			c0-1.159-0.277-2.08-0.836-2.759C94.796,103.584,94.014,103.208,93.004,103.132z"/>
		<path fill="#FFFFFF" d="M104.947,113.186c-0.526,0.57-1.032,0.977-1.518,1.214c-0.488,0.238-1.008,0.356-1.567,0.356
			c-0.919,0-1.625-0.292-2.121-0.867c-0.493-0.577-0.741-1.313-0.741-2.211c0-0.526,0.093-1.006,0.279-1.442
			c0.187-0.435,0.431-0.784,0.733-1.048c0.302-0.262,0.643-0.462,1.021-0.597c0.279-0.095,0.698-0.187,1.262-0.272
			c1.146-0.177,1.989-0.385,2.532-0.629c0.005-0.251,0.008-0.412,0.008-0.479c0-0.743-0.132-1.266-0.402-1.568
			c-0.363-0.413-0.901-0.618-1.616-0.618c-0.668,0-1.161,0.151-1.479,0.451c-0.32,0.298-0.553,0.831-0.708,1.593l-1.385-0.242
			c0.126-0.762,0.332-1.378,0.621-1.847c0.289-0.47,0.708-0.83,1.255-1.083c0.544-0.254,1.18-0.381,1.9-0.381
			c0.713,0,1.295,0.108,1.742,0.323c0.446,0.217,0.775,0.487,0.986,0.817c0.209,0.325,0.357,0.739,0.443,1.242
			c0.047,0.309,0.071,0.87,0.071,1.681v2.43c0,1.693,0.03,2.761,0.088,3.213c0.06,0.448,0.181,0.879,0.358,1.291h-1.48
			C105.083,114.133,104.99,113.692,104.947,113.186z M104.829,109.115c-0.517,0.27-1.288,0.5-2.318,0.689
			c-0.583,0.108-0.996,0.229-1.237,0.363c-0.242,0.137-0.429,0.334-0.561,0.593c-0.132,0.261-0.199,0.548-0.199,0.864
			c0,0.484,0.143,0.892,0.43,1.218c0.287,0.325,0.708,0.483,1.259,0.483c0.545,0,1.033-0.154,1.457-0.459
			c0.426-0.308,0.738-0.728,0.938-1.26c0.154-0.414,0.229-1.02,0.229-1.821L104.829,109.115L104.829,109.115z"/>
		<path fill="#FFFFFF" d="M108.455,103.761h1.419v4.647c0.453,0,0.769-0.11,0.95-0.334c0.181-0.223,0.448-0.87,0.802-1.943
			c0.276-0.851,0.504-1.411,0.678-1.683c0.174-0.27,0.372-0.452,0.599-0.546c0.226-0.096,0.589-0.143,1.088-0.143h0.284v1.509
			l-0.396-0.011c-0.372,0-0.612,0.071-0.715,0.211c-0.11,0.15-0.278,0.594-0.504,1.327c-0.216,0.701-0.416,1.188-0.592,1.46
			c-0.179,0.27-0.455,0.515-0.828,0.738c0.61,0.209,1.208,0.94,1.796,2.187l1.552,3.33h-1.561l-1.514-3.33
			c-0.31-0.669-0.581-1.107-0.812-1.32c-0.229-0.213-0.508-0.321-0.828-0.321v4.971h-1.419L108.455,103.761L108.455,103.761z"/>
		<path fill="#FFFFFF" d="M121.17,110.573l1.396,0.233c-0.154,1.235-0.542,2.202-1.171,2.9c-0.628,0.696-1.399,1.047-2.313,1.047
			c-1.146,0-2.066-0.479-2.762-1.44c-0.697-0.963-1.046-2.34-1.046-4.136c0-1.158,0.151-2.176,0.448-3.047
			c0.3-0.871,0.756-1.524,1.368-1.958c0.612-0.438,1.277-0.655,1.998-0.655c0.909,0,1.653,0.294,2.231,0.886
			c0.578,0.591,0.949,1.429,1.111,2.514l-1.379,0.272c-0.131-0.724-0.364-1.266-0.697-1.629c-0.334-0.365-0.737-0.546-1.21-0.546
			c-0.715,0-1.295,0.327-1.742,0.987c-0.445,0.659-0.67,1.697-0.67,3.123c0,1.443,0.216,2.493,0.646,3.148
			c0.432,0.655,0.994,0.98,1.688,0.98c0.559,0,1.021-0.219,1.395-0.657C120.833,112.16,121.07,111.483,121.17,110.573z"/>
		<path fill="#FFFFFF" d="M124.491,114.741c-0.549,0-0.936-0.562-0.936-1.282c0-0.768,0.404-1.31,0.953-1.31
			c0.581,0,0.953,0.539,0.953,1.31c0,0.723-0.373,1.282-0.953,1.282H124.491z M124.507,107.421c-0.548,0-0.937-0.56-0.937-1.284
			c0-0.767,0.404-1.309,0.953-1.309c0.58,0,0.95,0.541,0.95,1.309c0,0.723-0.371,1.284-0.95,1.284H124.507z"/>
		<path fill="#FFFFFF" d="M173.2,100.124c-1.179,2.052-2.018,4.729-2.018,8.499c0,3.691,0.887,6.323,2.018,8.397h-1.097
			c-1.018-1.721-2.115-4.375-2.115-8.417c0.015-4.063,1.097-6.739,2.115-8.479H173.2L173.2,100.124z"/>
		<path fill="#FFFFFF" d="M177.604,114.741c-2.051,0-3.454-2.468-3.488-6.926c0-4.542,1.534-7.01,3.665-7.01
			c2.197,0,3.471,2.529,3.471,6.822c0,4.582-1.339,7.111-3.632,7.111h-0.016V114.741z M177.67,113.331
			c1.437,0,2.129-2.176,2.129-5.619c0-3.318-0.645-5.494-2.129-5.494c-1.292,0-2.131,2.113-2.131,5.494
			c-0.033,3.5,0.808,5.619,2.115,5.619H177.67z"/>
		<path fill="#FFFFFF" d="M186.938,114.512v-3.669h-4.875v-1.182l4.681-8.626h1.532v8.397h1.471v1.41h-1.471v3.669H186.938
			L186.938,114.512z M186.938,109.433v-4.521c0-0.706,0.016-1.41,0.05-2.116h-0.05c-0.324,0.788-0.581,1.37-0.873,2.013
			l-2.565,4.583v0.04L186.938,109.433L186.938,109.433z"/>
		<path fill="#FFFFFF" d="M195.218,114.512v-3.669h-4.876v-1.182l4.683-8.626h1.531v8.397h1.472v1.41h-1.472v3.669H195.218
			L195.218,114.512z M195.218,109.433v-4.521c0-0.706,0.017-1.41,0.049-2.116h-0.049c-0.323,0.788-0.582,1.37-0.872,2.013
			l-2.567,4.583v0.04L195.218,109.433L195.218,109.433z"/>
		<path fill="#FFFFFF" d="M198.707,117.021c1.13-2.052,2.018-4.729,2.018-8.459c0-3.733-0.874-6.365-2.018-8.438h1.095
			c1.02,1.702,2.115,4.374,2.115,8.438c-0.015,4.063-1.096,6.696-2.115,8.459H198.707z"/>
		<path fill="#FFFFFF" d="M207.118,114.512v-1.12l1.115-1.391c2.678-3.275,3.906-5.014,3.906-7.05c0-1.368-0.5-2.634-2.066-2.634
			c-0.952,0-1.743,0.621-2.228,1.141l-0.451-1.286c0.709-0.768,1.761-1.368,2.971-1.368c2.245,0,3.195,1.989,3.195,3.918
			c0,2.485-1.404,4.497-3.614,7.234l-0.824,0.997v0.043h4.697v1.514h-6.701V114.512z"/>
		<path fill="#FFFFFF" d="M218.741,114.741c-2.053,0-3.453-2.468-3.487-6.926c0-4.542,1.532-7.01,3.663-7.01
			c2.196,0,3.472,2.529,3.472,6.822c0,4.582-1.34,7.111-3.634,7.111h-0.014V114.741z M218.805,113.331
			c1.438,0,2.132-2.176,2.132-5.619c0-3.318-0.647-5.494-2.132-5.494c-1.29,0-2.13,2.113-2.13,5.494
			c-0.032,3.5,0.807,5.619,2.116,5.619H218.805z"/>
		<path fill="#FFFFFF" d="M228.073,114.512v-3.669h-4.877v-1.182l4.683-8.626h1.532v8.397h1.469v1.41h-1.469v3.669H228.073
			L228.073,114.512z M228.073,109.433v-4.521c0-0.706,0.016-1.41,0.048-2.116h-0.048c-0.324,0.788-0.583,1.37-0.873,2.013
			l-2.566,4.583v0.04L228.073,109.433L228.073,109.433z"/>
		<path fill="#FFFFFF" d="M235.707,108.251v1.326h-3.986v-1.326H235.707z"/>
		<path fill="#FFFFFF" d="M240.44,100.808c2.031,0,3.065,1.618,3.065,3.315c0,1.142-0.451,2.386-1.743,3.152v0.063
			c1.309,0.663,2.116,1.866,2.116,3.482c0,2.361-1.567,3.918-3.568,3.918c-2.195,0-3.521-1.657-3.521-3.625
			c0-1.702,0.792-2.925,2.066-3.63v-0.063c-1.179-0.705-1.68-1.865-1.68-3.028c0-2.134,1.406-3.586,3.245-3.586H240.44
			L240.44,100.808z M240.356,113.412c1.276,0,2.102-1.014,2.102-2.403c0-1.618-0.889-2.422-2.309-2.944
			c-1.229,0.454-1.89,1.512-1.89,2.798c-0.048,1.346,0.758,2.548,2.083,2.548L240.356,113.412L240.356,113.412z M240.392,102.114
			c-1.178,0-1.824,0.994-1.824,2.156c-0.016,1.346,0.791,2.074,2.002,2.485c0.902-0.392,1.598-1.221,1.598-2.446
			c0-1.077-0.499-2.199-1.761-2.199L240.392,102.114L240.392,102.114z"/>
		<path fill="#FFFFFF" d="M251.465,102.57h-4.001l-0.403,3.419c0.242-0.042,0.468-0.081,0.854-0.081
			c0.825,0,1.617,0.229,2.262,0.725c0.824,0.579,1.501,1.765,1.501,3.502c0,2.635-1.629,4.604-3.905,4.604
			c-1.146,0-2.1-0.416-2.616-0.827l0.356-1.391c0.436,0.329,1.29,0.745,2.261,0.745c1.324,0,2.487-1.118,2.47-2.944
			c0-1.781-0.922-3.006-3.003-3.006c-0.613,0-1.081,0.063-1.471,0.142l0.68-6.427h5.021L251.465,102.57L251.465,102.57z"/>
		<path fill="#FFFFFF" d="M257.227,108.251v1.326h-3.987v-1.326H257.227z"/>
		<path fill="#FFFFFF" d="M261.78,114.741c-2.05,0-3.453-2.468-3.488-6.926c0-4.542,1.534-7.01,3.663-7.01
			c2.197,0,3.473,2.529,3.473,6.822c0,4.582-1.338,7.111-3.632,7.111h-0.016V114.741z M261.847,113.331
			c1.436,0,2.129-2.176,2.129-5.619c0-3.318-0.646-5.494-2.129-5.494c-1.292,0-2.13,2.113-2.13,5.494
			c-0.034,3.5,0.807,5.619,2.115,5.619H261.847z"/>
		<path fill="#FFFFFF" d="M269.804,102.734h-0.033l-1.822,1.267l-0.276-1.39l2.293-1.576h1.212v13.477h-1.373V102.734
			L269.804,102.734z"/>
	</g>
</g>
</svg>
