<?xml version="1.0" encoding="utf-8"?>
<!-- Generator: Adobe Illustrator 15.0.2, SVG Export Plug-In . SVG Version: 6.00 Build 0)  -->
<!DOCTYPE svg PUBLIC "-//W3C//DTD SVG 1.1//EN" "http://www.w3.org/Graphics/SVG/1.1/DTD/svg11.dtd">
<svg version="1.1" id="Layer_1" xmlns="http://www.w3.org/2000/svg" xmlns:xlink="http://www.w3.org/1999/xlink" x="0px" y="0px"
	 width="516.824px" height="352.069px" viewBox="0 -80.93 516.824 352.069" enable-background="new 0 -80.93 516.824 352.069"
	 xml:space="preserve">
<path fill="#00BACF" d="M0,12.516h516.824v111.206v13.989C374.796,197.518,186.844,199.926,0,203.721v-1.859V12.516z"/>
<polygon fill="#00BAFF" points="475.273,0 486.921,12.365 470.203,12.365 "/>
<path fill="#00F5FF" d="M320.719,0h154.558v20.532c0,7.254-5.96,12.587-13.188,13.188L333.907,44.398
	c-7.227,0.604-13.188-5.933-13.188-13.187L320.719,0L320.719,0z"/>
<line fill="none" stroke="#649134" stroke-width="0.72" stroke-miterlimit="2.6131" stroke-dasharray="3.6,2.16" x1="116.96" y1="12.365" x2="116.96" y2="200.982"/>
<rect x="134.912" y="44.436" fill="#FFFFFF" width="2.228" height="130.923"/>
<path fill="#5EA6F2" d="M0,12.516h116.96v188.466C78.212,202.191,39.082,202.924,0,203.72v-1.859V12.516z"/>
<g>
	<path fill="#FFFFFF" d="M49.092,75.74c0.812,0.613,1.966,0.46,2.58-0.351c2.743-3.596,6.906-5.658,11.418-5.658
		c3.228,0,6.263,1.059,8.736,2.967c-0.758,0.228-1.311,0.929-1.311,1.762c0,1.018,0.821,1.841,1.842,1.841h4.051
		c1.018,0,1.842-0.823,1.842-1.841v-4.052c0-1.017-0.824-1.843-1.842-1.843c-0.938,0-1.713,0.703-1.825,1.611
		c-3.195-2.656-7.22-4.127-11.493-4.127c-5.669,0-10.896,2.59-14.346,7.105C48.129,73.965,48.283,75.122,49.092,75.74z"/>
	<path fill="#FFFFFF" d="M74.279,89.899c0,4.149,3.374,7.523,7.521,7.523c4.15,0,7.525-3.374,7.525-7.523
		c0-4.146-3.375-7.521-7.525-7.521C77.653,82.374,74.279,85.75,74.279,89.899z"/>
	<path fill="#FFFFFF" d="M91.897,101.069l-0.017-0.003l-3.979-0.656c-0.336-0.104-0.698,0.071-0.82,0.407l-4.516,12.392
		c-0.26,0.716-1.271,0.716-1.531,0.001l-4.518-12.393c-0.101-0.271-0.354-0.438-0.624-0.438c-0.064,0-4.181,0.688-4.181,0.688
		c-2.739,0.912-4.573,3.457-4.573,6.332v10.313c0,1.545,1.253,2.798,2.8,2.798h23.723c1.543,0,2.797-1.253,2.797-2.798v-10.343
		C96.46,104.5,94.621,101.961,91.897,101.069z"/>
	<path fill="#FFFFFF" d="M44.384,97.422c4.149,0,7.524-3.374,7.524-7.523c0-4.146-3.378-7.521-7.524-7.521s-7.521,3.375-7.521,7.521
		C36.86,94.048,40.236,97.422,44.384,97.422z"/>
	<path fill="#FFFFFF" d="M59.042,117.707v-10.343c0-2.863-1.839-5.402-4.563-6.298l-0.017-0.003l-3.979-0.656
		c-0.338-0.104-0.699,0.071-0.82,0.407l-4.519,12.392c-0.259,0.716-1.271,0.716-1.528,0.001L39.1,100.816
		c-0.101-0.271-0.354-0.438-0.626-0.438c-0.063,0-4.178,0.688-4.178,0.688c-2.742,0.912-4.573,3.457-4.573,6.332v10.313
		c0,1.545,1.252,2.798,2.797,2.798h23.725C57.79,120.504,59.042,119.251,59.042,117.707z"/>
	<path fill="#FFFFFF" d="M77.525,129.696c-0.813-0.614-1.964-0.461-2.582,0.35c-2.741,3.596-6.905,5.659-11.418,5.659
		c-3.223,0-6.26-1.059-8.733-2.965c0.757-0.229,1.312-0.933,1.312-1.764c0-1.018-0.824-1.843-1.84-1.843h-4.055
		c-1.018,0-1.841,0.825-1.841,1.843v4.05c0,1.019,0.823,1.843,1.841,1.843c0.938,0,1.712-0.701,1.825-1.609
		c3.198,2.656,7.219,4.127,11.491,4.127c5.67,0,10.897-2.592,14.349-7.107C78.489,131.468,78.334,130.313,77.525,129.696z"/>
	<path fill="#FFFFFF" d="M83.548,100.679c-0.188-0.202-0.456-0.302-0.729-0.302h-2.033c-0.271,0-0.543,0.1-0.729,0.302
		c-0.287,0.313-0.328,0.76-0.125,1.112l1.088,1.639l-0.513,4.299l1.007,2.668c0.098,0.271,0.479,0.271,0.572,0l1.003-2.668
		l-0.507-4.299l1.085-1.639C83.873,101.439,83.833,100.99,83.548,100.679z"/>
	<path fill="#FFFFFF" d="M46.128,100.679c-0.186-0.202-0.454-0.302-0.729-0.302h-2.033c-0.273,0-0.544,0.1-0.729,0.302
		c-0.285,0.313-0.326,0.76-0.123,1.112l1.088,1.639l-0.513,4.299l1.007,2.668c0.098,0.271,0.477,0.271,0.571,0l1.004-2.668
		l-0.51-4.297l1.089-1.641C46.455,101.439,46.414,100.99,46.128,100.679z"/>
</g>
<g>
	<path fill="#0082FF" d="M325.405,18.58l1.626-0.422c0.122,0.627,0.452,1.254,0.989,1.881c0.535,0.627,1.246,0.938,2.131,0.938
		c0.902,0,1.613-0.229,2.136-0.692s0.782-1.022,0.782-1.681c0-0.709-0.272-1.271-0.826-1.69c-0.551-0.418-1.301-0.628-2.25-0.628
		h-0.814v-1.485c0.785,0,1.387-0.045,1.803-0.137c0.416-0.09,0.783-0.321,1.104-0.693c0.314-0.372,0.479-0.796,0.479-1.271
		c0-0.563-0.219-1.054-0.653-1.47c-0.438-0.416-1.024-0.624-1.771-0.624c-0.65,0-1.207,0.163-1.666,0.487
		c-0.461,0.326-0.777,0.756-0.953,1.293c-0.176,0.535-0.265,0.938-0.265,1.199l-1.638-0.369c0.404-2.736,1.916-4.104,4.535-4.104
		c1.26,0,2.259,0.352,2.996,1.051c0.738,0.701,1.107,1.52,1.107,2.457c0,1.2-0.568,2.133-1.705,2.795
		c0.656,0.182,1.205,0.553,1.646,1.109c0.441,0.563,0.664,1.229,0.664,2.011c0,1.105-0.43,2.032-1.287,2.78
		c-0.855,0.746-1.997,1.12-3.415,1.12C327.722,22.438,326.138,21.152,325.405,18.58z"/>
	<path fill="#0082FF" d="M336.786,12.885h3.646c0.896,0,1.563,0.074,2,0.225c0.437,0.148,0.812,0.425,1.125,0.821
		c0.313,0.398,0.471,0.876,0.471,1.435c0,0.443-0.094,0.834-0.273,1.162c-0.188,0.332-0.465,0.608-0.831,0.831
		c0.438,0.146,0.804,0.423,1.095,0.821c0.289,0.402,0.436,0.878,0.436,1.429c-0.059,0.887-0.375,1.541-0.946,1.971
		c-0.573,0.428-1.409,0.642-2.507,0.642h-4.21L336.786,12.885L336.786,12.885z M338.368,16.813h1.688
		c0.674,0,1.137-0.035,1.389-0.104c0.253-0.07,0.479-0.212,0.678-0.427c0.199-0.215,0.302-0.472,0.302-0.771
		c0-0.492-0.178-0.835-0.522-1.028c-0.348-0.191-0.944-0.29-1.789-0.29h-1.739v2.619H338.368z M338.368,20.918h2.083
		c0.896,0,1.515-0.104,1.849-0.313c0.334-0.207,0.51-0.564,0.524-1.076c0-0.299-0.097-0.574-0.29-0.828
		c-0.19-0.258-0.442-0.416-0.756-0.484c-0.312-0.066-0.81-0.101-1.494-0.101h-1.916V20.918L338.368,20.918z"/>
	<path fill="#0082FF" d="M346.243,11.039V9.202h1.695v1.448c0,0.785-0.09,1.353-0.271,1.696c-0.255,0.477-0.646,0.832-1.181,1.072
		l-0.387-0.624c0.315-0.129,0.551-0.332,0.707-0.611c0.154-0.275,0.241-0.66,0.26-1.146L346.243,11.039L346.243,11.039z"/>
	<path fill="#0082FF" d="M357.687,12.885v9.334h-1.572V18.58H355.2c-0.557,0-0.971,0.07-1.244,0.215
		c-0.271,0.145-0.669,0.604-1.188,1.385l-1.381,2.039h-1.959l1.704-2.514c0.521-0.77,1.04-1.201,1.556-1.303
		c-0.901-0.121-1.571-0.446-2.008-0.976c-0.438-0.527-0.654-1.134-0.654-1.819c0-0.809,0.285-1.465,0.855-1.969
		c0.569-0.504,1.396-0.756,2.48-0.756L357.687,12.885L357.687,12.885z M356.114,14.194h-2.25c-0.94,0-1.551,0.146-1.824,0.439
		c-0.271,0.293-0.405,0.636-0.405,1.028c0,0.557,0.198,0.966,0.603,1.227c0.402,0.261,1.111,0.391,2.132,0.391h1.749L356.114,14.194
		L356.114,14.194z"/>
	<path fill="#0082FF" d="M365.729,12.885v4.034c0.504,0,0.857-0.097,1.063-0.29s0.507-0.756,0.896-1.688
		c0.369-0.885,0.699-1.448,0.992-1.694c0.287-0.24,0.744-0.36,1.371-0.36h0.58v1.31l-0.434-0.009c-0.422,0-0.688,0.063-0.809,0.187
		c-0.123,0.129-0.313,0.513-0.563,1.149c-0.231,0.609-0.448,1.031-0.647,1.268c-0.199,0.233-0.51,0.446-0.935,0.642
		c0.688,0.183,1.354,0.814,2.007,1.898l1.736,2.892h-1.736l-1.695-2.892c-0.347-0.586-0.647-0.972-0.906-1.151
		c-0.258-0.18-0.563-0.271-0.922-0.271v4.313h-1.617v-4.313c-0.353,0-0.656,0.09-0.914,0.269s-0.561,0.563-0.905,1.155l-1.692,2.892
		h-1.74l1.73-2.892c0.653-1.084,1.324-1.718,2.014-1.898c-0.47-0.217-0.797-0.452-0.984-0.708c-0.188-0.254-0.469-0.861-0.844-1.823
		c-0.129-0.32-0.268-0.521-0.414-0.598c-0.151-0.076-0.377-0.114-0.676-0.114c-0.076,0-0.231,0.003-0.467,0.011V12.89h0.221
		c0.608,0,1.037,0.037,1.287,0.109c0.248,0.073,0.471,0.229,0.668,0.467c0.195,0.236,0.453,0.729,0.77,1.479
		c0.39,0.921,0.686,1.479,0.884,1.681c0.202,0.198,0.562,0.299,1.067,0.299V12.89h1.617L365.729,12.885L365.729,12.885z"/>
	<path fill="#0082FF" d="M372.136,11.153V9.334h1.582v1.817L372.136,11.153L372.136,11.153z M372.136,22.219v-9.334h1.582v9.334
		H372.136z"/>
	<path fill="#0082FF" d="M375.274,12.885h7.584v1.31h-3.006v8.024h-1.572v-8.024h-3.006V12.885L375.274,12.885z"/>
	<path fill="#0082FF" d="M384.344,12.885h1.582v3.647h2.005c1.307,0,2.313,0.254,3.02,0.761c0.705,0.507,1.063,1.205,1.063,2.096
		c0,0.779-0.296,1.445-0.887,2c-0.59,0.553-1.527,0.83-2.822,0.83h-3.955L384.344,12.885L384.344,12.885z M385.927,20.918h1.661
		c1.002,0,1.718-0.123,2.146-0.369s0.644-0.63,0.644-1.151c0-0.402-0.157-0.765-0.478-1.081c-0.316-0.314-1.017-0.475-2.101-0.475
		h-1.872V20.918L385.927,20.918z"/>
	<path fill="#0082FF" d="M399.842,18.8l1.556,0.202c-0.17,1.072-0.604,1.912-1.305,2.518c-0.701,0.607-1.563,0.91-2.58,0.91
		c-1.277,0-2.308-0.418-3.08-1.252c-0.776-0.836-1.164-2.032-1.164-3.591c0-1.008,0.166-1.89,0.5-2.646
		c0.334-0.756,0.842-1.32,1.525-1.699c0.682-0.379,1.426-0.566,2.229-0.566c1.014,0,1.843,0.257,2.486,0.77
		c0.645,0.515,1.059,1.24,1.236,2.186l-1.535,0.237c-0.146-0.628-0.406-1.101-0.777-1.415c-0.373-0.316-0.822-0.477-1.353-0.477
		c-0.797,0-1.44,0.285-1.938,0.857c-0.498,0.568-0.748,1.475-0.748,2.711c0,1.254,0.24,2.165,0.722,2.731
		c0.481,0.568,1.106,0.854,1.881,0.854c0.621,0,1.144-0.19,1.56-0.571C399.469,20.178,399.728,19.591,399.842,18.8z"/>
	<path fill="#0082FF" d="M410.097,12.885v9.334h-1.574V18.58h-0.914c-0.557,0-0.971,0.07-1.242,0.215s-0.67,0.604-1.188,1.385
		l-1.381,2.039h-1.96l1.702-2.514c0.521-0.77,1.04-1.201,1.559-1.303c-0.902-0.121-1.572-0.446-2.009-0.976
		c-0.438-0.528-0.653-1.134-0.653-1.819c0-0.809,0.285-1.465,0.854-1.969c0.57-0.504,1.398-0.756,2.482-0.756L410.097,12.885
		L410.097,12.885z M408.522,14.194h-2.25c-0.942,0-1.551,0.146-1.822,0.439s-0.406,0.636-0.406,1.028
		c0,0.557,0.197,0.966,0.604,1.227c0.399,0.261,1.11,0.391,2.131,0.391h1.748L408.522,14.194L408.522,14.194z"/>
	<path fill="#0082FF" d="M419.562,18v-1.24c0.668-0.006,1.123-0.032,1.367-0.079c0.242-0.047,0.474-0.188,0.688-0.422
		c0.219-0.234,0.325-0.527,0.325-0.879c0-0.428-0.144-0.771-0.427-1.023c-0.284-0.256-0.652-0.383-1.104-0.383
		c-0.891,0-1.516,0.524-1.869,1.573l-1.506-0.246c0.472-1.752,1.604-2.628,3.396-2.628c0.995,0,1.774,0.271,2.342,0.817
		c0.565,0.545,0.849,1.193,0.849,1.949c0,0.764-0.366,1.368-1.104,1.819c0.47,0.252,0.82,0.573,1.056,0.963
		c0.234,0.39,0.354,0.853,0.354,1.384c0,0.838-0.308,1.52-0.914,2.039c-0.608,0.521-1.462,0.782-2.561,0.782
		c-2.127,0-3.356-0.946-3.697-2.839l1.481-0.316c0.136,0.6,0.408,1.063,0.822,1.391c0.412,0.328,0.887,0.49,1.42,0.49
		c0.532,0,0.977-0.148,1.33-0.45c0.354-0.304,0.532-0.688,0.532-1.156c0-0.363-0.11-0.68-0.334-0.949
		c-0.226-0.269-0.46-0.438-0.712-0.506c-0.254-0.066-0.71-0.101-1.371-0.101C419.869,17.991,419.749,17.994,419.562,18z"/>
	<path fill="#0082FF" d="M430.76,12.885h1.582v3.885h4.386v-3.885h1.582v9.334h-1.582v-4.14h-4.386v4.14h-1.582V12.885z"/>
	<path fill="#0082FF" d="M446.781,21.067c-0.586,0.498-1.147,0.852-1.688,1.057c-0.543,0.205-1.124,0.308-1.745,0.308
		c-1.024,0-1.813-0.25-2.363-0.752c-0.552-0.5-0.826-1.141-0.826-1.92c0-0.457,0.104-0.875,0.313-1.252
		c0.207-0.379,0.479-0.682,0.813-0.91c0.337-0.228,0.72-0.401,1.142-0.519c0.312-0.082,0.776-0.161,1.403-0.237
		c1.277-0.152,2.221-0.334,2.821-0.545c0.006-0.217,0.009-0.354,0.009-0.413c0-0.646-0.146-1.099-0.445-1.362
		c-0.404-0.355-1.008-0.536-1.805-0.536c-0.744,0-1.294,0.133-1.646,0.394c-0.354,0.261-0.615,0.722-0.786,1.384l-1.547-0.211
		c0.142-0.662,0.372-1.196,0.691-1.604c0.322-0.405,0.788-0.722,1.396-0.938c0.609-0.221,1.315-0.33,2.118-0.33
		c0.797,0,1.441,0.094,1.939,0.281c0.498,0.187,0.864,0.424,1.102,0.707c0.231,0.285,0.396,0.644,0.492,1.077
		c0.053,0.27,0.077,0.756,0.077,1.459v2.107c0,1.473,0.032,2.401,0.103,2.79c0.066,0.393,0.201,0.765,0.4,1.121h-1.652
		C446.934,21.89,446.828,21.507,446.781,21.067z M446.65,17.534c-0.574,0.232-1.437,0.434-2.584,0.598
		c-0.65,0.094-1.11,0.199-1.381,0.316c-0.271,0.115-0.479,0.287-0.624,0.515c-0.146,0.226-0.22,0.476-0.22,0.751
		c0,0.422,0.156,0.771,0.479,1.055c0.32,0.283,0.787,0.422,1.401,0.422c0.606,0,1.148-0.133,1.626-0.397
		c0.476-0.268,0.823-0.632,1.046-1.095c0.171-0.357,0.256-0.887,0.256-1.582V17.534z"/>
	<path fill="#0082FF" d="M450.745,12.885h2.461l2.452,7.471l2.728-7.471h2.273v9.334h-1.582v-7.515l-2.76,7.515h-1.415l-2.61-7.875
		v7.875h-1.547V12.885L450.745,12.885z"/>
	<path fill="#0082FF" d="M463.076,12.885h1.582v7.119l4.389-7.119h1.702v9.334h-1.582v-7.075l-4.386,7.075h-1.705V12.885
		L463.076,12.885z"/>
</g>
<g>
	<path fill="#FFFFFF" d="M148.956,67.172c0-1.736-0.025-3.136-0.109-4.424h2.212l0.14,2.324h0.056
		c0.98-1.682,2.604-2.634,4.788-2.634c3.307,0,5.771,2.772,5.771,6.89c0,4.872-2.996,7.278-6.16,7.278
		c-1.82,0-3.36-0.782-4.172-2.128h-0.059v7.364h-2.464L148.956,67.172L148.956,67.172z M151.42,70.784
		c0,0.336,0.028,0.698,0.112,1.008c0.42,1.708,1.932,2.884,3.668,2.884c2.604,0,4.116-2.128,4.116-5.236
		c0-2.716-1.4-5.04-4.004-5.04c-1.683,0-3.276,1.178-3.752,3.024c-0.059,0.336-0.143,0.7-0.143,1.008L151.42,70.784L151.42,70.784z"
		/>
	<path fill="#FFFFFF" d="M164.552,73.808c0.756,0.448,2.044,0.952,3.273,0.952c1.764,0,2.604-0.868,2.604-2.016
		c0-1.178-0.7-1.82-2.492-2.492c-2.464-0.896-3.612-2.212-3.612-3.836c0-2.186,1.792-3.978,4.676-3.978
		c1.372,0,2.576,0.364,3.307,0.842l-0.588,1.764c-0.532-0.31-1.515-0.784-2.772-0.784c-1.456,0-2.24,0.84-2.24,1.848
		c0,1.148,0.784,1.652,2.548,2.324c2.324,0.868,3.559,2.044,3.559,4.088c0,2.408-1.876,4.088-5.04,4.088
		c-1.484,0-2.856-0.392-3.811-0.95L164.552,73.808z"/>
	<path fill="#FFFFFF" d="M175.976,66.416c0-1.43-0.028-2.548-0.112-3.668h2.184l0.143,2.212h0.056c0.672-1.26,2.24-2.521,4.48-2.521
		c1.876,0,4.788,1.12,4.788,5.77V76.3h-2.467v-7.812c0-2.188-0.812-4.032-3.136-4.032c-1.596,0-2.854,1.146-3.304,2.52
		c-0.112,0.31-0.168,0.756-0.168,1.148V76.3h-2.464V66.416L175.976,66.416z"/>
	<path fill="#FFFFFF" d="M193.979,68.964h0.056c0.336-0.478,0.784-1.092,1.176-1.54l4.004-4.676h2.94l-5.236,5.57l5.964,7.98h-2.993
		l-4.648-6.524l-1.26,1.43V76.3h-2.464V56.42h2.464L193.979,68.964L193.979,68.964z"/>
	<path fill="#FFFFFF" d="M217.275,75.488c-1.54,0.813-3.108,1.12-4.984,1.12c-4.592,0-8.481-3.358-8.481-8.734
		c0-5.77,4.004-10.752,10.22-10.752c4.872,0,8.12,3.416,8.12,8.092c0,4.2-2.324,6.664-4.956,6.664c-1.12,0-2.128-0.729-2.072-2.464
		h-0.084c-1.008,1.65-2.296,2.464-3.976,2.464c-1.624,0-3.024-1.316-3.024-3.528c0-3.472,2.744-6.636,6.636-6.636
		c1.204,0,2.297,0.252,2.996,0.588l-0.924,5.068c-0.42,2.128-0.112,3.106,0.813,3.136c1.428,0.056,3.021-1.876,3.021-5.096
		c0-4.09-2.436-7-6.773-7c-4.564,0-8.4,3.61-8.4,9.322c0,4.648,3.052,7.532,7.196,7.532c1.624,0,3.105-0.336,4.228-0.979
		L217.275,75.488z M215.763,63.42c-0.28-0.112-0.759-0.226-1.4-0.226c-2.492,0-4.48,2.324-4.48,5.04c0,1.262,0.616,2.13,1.851,2.13
		c1.624,0,3.136-2.072,3.441-3.81L215.763,63.42z"/>
	<path fill="#FFFFFF" d="M227.747,68.964h0.059c0.336-0.478,0.781-1.092,1.176-1.54l4.004-4.676h2.938l-5.233,5.57l5.964,7.98
		h-2.996l-4.648-6.524l-1.26,1.43V76.3h-2.464V56.42h2.464L227.747,68.964L227.747,68.964z"/>
	<path fill="#FFFFFF" d="M238.919,67.172c0-1.736-0.025-3.136-0.109-4.424h2.212l0.14,2.324h0.056
		c0.98-1.682,2.604-2.634,4.788-2.634c3.307,0,5.771,2.772,5.771,6.89c0,4.872-2.996,7.278-6.16,7.278
		c-1.82,0-3.36-0.782-4.172-2.128h-0.058v7.364h-2.465L238.919,67.172L238.919,67.172z M241.383,70.784
		c0,0.336,0.028,0.698,0.112,1.008c0.42,1.708,1.935,2.884,3.668,2.884c2.604,0,4.116-2.128,4.116-5.236
		c0-2.716-1.4-5.04-4.004-5.04c-1.68,0-3.276,1.178-3.752,3.024c-0.059,0.336-0.143,0.7-0.143,1.008L241.383,70.784L241.383,70.784z
		"/>
	<path fill="#FFFFFF" d="M256.027,60.256c-0.924,0-1.54-0.729-1.54-1.596c0-0.868,0.644-1.568,1.596-1.568s1.568,0.7,1.568,1.568
		c0,0.866-0.616,1.596-1.597,1.596H256.027z M254.851,76.3V62.748h2.464V76.3H254.851z"/>
	<path fill="#FFFFFF" d="M262.439,76.608c-0.952,0-1.624-0.756-1.624-1.764s0.7-1.764,1.68-1.764s1.652,0.728,1.652,1.764
		c0,1.008-0.672,1.764-1.683,1.764H262.439z"/>
	<path fill="#FFFFFF" d="M278.537,72.604c0,1.4,0.028,2.632,0.112,3.696h-2.188l-0.14-2.212h-0.056
		c-0.616,1.092-2.072,2.52-4.48,2.52c-2.128,0-4.676-1.204-4.676-5.936v-7.924h2.464v7.476c0,2.576,0.813,4.34,3.024,4.34
		c1.648,0,2.8-1.146,3.247-2.268c0.141-0.336,0.225-0.784,0.225-1.26v-8.288h2.464L278.537,72.604L278.537,72.604z"/>
	<path fill="#FFFFFF" d="M292.174,73.052c0,1.176,0.06,2.324,0.196,3.248h-2.212l-0.226-1.708h-0.084
		c-0.729,1.064-2.211,2.016-4.146,2.016c-2.744,0-4.144-1.932-4.144-3.892c0-3.276,2.91-5.068,8.146-5.04v-0.28
		c0-1.12-0.308-3.164-3.08-3.136c-1.288,0-2.604,0.364-3.556,1.008l-0.563-1.65c1.119-0.7,2.771-1.178,4.479-1.178
		c4.172,0,5.18,2.828,5.18,5.544v5.068H292.174z M289.767,69.384c-2.688-0.056-5.74,0.42-5.74,3.052
		c0,1.624,1.063,2.354,2.297,2.354c1.791,0,2.938-1.12,3.332-2.27c0.084-0.252,0.111-0.53,0.111-0.784V69.384L289.767,69.384z"/>
	<path fill="#FFFFFF" d="M154.172,109.9V92.222h-6.604v-2.365h15.887v2.365h-6.631V109.9H154.172z"/>
	<path fill="#FFFFFF" d="M174.229,105.224l2.543,0.314c-0.401,1.484-1.146,2.639-2.229,3.459c-1.085,0.818-2.47,1.229-4.153,1.229
		c-2.124,0-3.811-0.651-5.055-1.961c-1.244-1.309-1.863-3.143-1.863-5.504c0-2.442,0.629-4.338,1.887-5.687
		c1.258-1.351,2.889-2.023,4.895-2.023c1.941,0,3.527,0.661,4.759,1.982c1.23,1.32,1.848,3.181,1.848,5.576
		c0,0.146-0.005,0.365-0.017,0.656h-10.825c0.091,1.597,0.542,2.816,1.354,3.664c0.813,0.849,1.823,1.271,3.035,1.271
		c0.902,0,1.672-0.236,2.311-0.711C173.349,107.021,173.855,106.263,174.229,105.224z M166.149,101.246h8.104
		c-0.106-1.223-0.419-2.139-0.93-2.748c-0.784-0.948-1.8-1.422-3.049-1.422c-1.13,0-2.081,0.378-2.854,1.135
		C166.656,98.968,166.231,99.979,166.149,101.246z"/>
	<path fill="#FFFFFF" d="M180.135,95.381h11.433V109.9h-2.447V97.418H182.6v7.23c0,1.688-0.058,2.801-0.164,3.336
		c-0.109,0.539-0.41,1.01-0.902,1.408c-0.492,0.402-1.203,0.604-2.133,0.604c-0.574,0-1.235-0.036-1.982-0.109v-2.051h1.08
		c0.51,0,0.875-0.052,1.094-0.156c0.222-0.104,0.364-0.271,0.438-0.5c0.073-0.227,0.109-0.971,0.109-2.229v-9.57H180.135z"/>
	<path fill="#FFFFFF" d="M205.209,105.224l2.543,0.314c-0.398,1.484-1.144,2.639-2.229,3.459c-1.085,0.818-2.47,1.229-4.156,1.229
		c-2.124,0-3.808-0.651-5.052-1.961c-1.244-1.309-1.866-3.143-1.866-5.504c0-2.442,0.629-4.338,1.887-5.687
		c1.258-1.351,2.892-2.023,4.896-2.023c1.938,0,3.524,0.661,4.758,1.982c1.229,1.32,1.846,3.181,1.846,5.576
		c0,0.146-0.005,0.365-0.014,0.656h-10.828c0.091,1.597,0.542,2.816,1.354,3.664c0.811,0.849,1.82,1.271,3.032,1.271
		c0.902,0,1.675-0.236,2.313-0.711C204.329,107.021,204.835,106.263,205.209,105.224z M197.129,101.246h8.107
		c-0.109-1.223-0.419-2.139-0.93-2.748c-0.784-0.948-1.803-1.422-3.052-1.422c-1.13,0-2.081,0.378-2.851,1.135
		C197.637,98.968,197.211,99.979,197.129,101.246z"/>
	<path fill="#FFFFFF" d="M219.291,89.857h2.461v6.934c0.513-0.583,1.071-1.021,1.685-1.308c0.607-0.287,1.267-0.431,1.969-0.431
		c1.723,0,3.087,0.718,4.095,2.153c1.007,1.436,1.512,3.243,1.512,5.42c0,2.27-0.542,4.104-1.628,5.504
		c-1.085,1.396-2.434,2.098-4.047,2.098c-0.526,0-1.063-0.082-1.61-0.246c-0.549-0.164-1.203-0.607-1.972-1.34v6.822h-2.461v-6.822
		c-0.491,0.529-1.037,0.926-1.634,1.189c-0.597,0.265-1.242,0.396-1.935,0.396c-1.522,0-2.854-0.667-3.992-2.002
		c-1.143-1.336-1.709-3.248-1.709-5.734c0-2.105,0.515-3.871,1.545-5.299c1.03-1.426,2.415-2.14,4.156-2.14
		c0.729,0,1.39,0.144,1.979,0.431s1.121,0.725,1.586,1.308V89.857L219.291,89.857z M212.524,102.421c0,2.051,0.344,3.527,1.032,4.43
		s1.542,1.354,2.563,1.354c1.066,0,1.864-0.448,2.396-1.348c0.525-0.896,0.793-2.242,0.793-4.041c0-1.914-0.278-3.349-0.834-4.306
		c-0.559-0.957-1.396-1.436-2.519-1.436c-1.012,0-1.837,0.467-2.475,1.399C212.843,99.412,212.524,100.726,212.524,102.421z
		 M221.739,102.695c0,2.188,0.301,3.658,0.902,4.41s1.354,1.127,2.256,1.127c1.002,0,1.854-0.462,2.563-1.387
		c0.706-0.926,1.063-2.363,1.063-4.313c0-1.842-0.326-3.214-0.979-4.115c-0.649-0.902-1.485-1.354-2.509-1.354
		c-1.094,0-1.917,0.472-2.468,1.408C222.014,99.409,221.739,100.818,221.739,102.695z"/>
	<path fill="#FFFFFF" d="M232.963,102.64c0-2.688,0.747-4.68,2.242-5.974c1.249-1.075,2.771-1.613,4.566-1.613
		c1.996,0,3.627,0.654,4.895,1.962c1.27,1.31,1.9,3.115,1.9,5.42c0,1.869-0.28,3.339-0.841,4.41
		c-0.563,1.07-1.376,1.902-2.447,2.494c-1.071,0.593-2.24,0.889-3.507,0.889c-2.033,0-3.676-0.648-4.932-1.955
		C233.59,106.97,232.963,105.093,232.963,102.64z M235.492,102.64c0,1.859,0.405,3.252,1.217,4.178
		c0.813,0.927,1.832,1.389,3.063,1.389c1.221,0,2.234-0.465,3.049-1.396c0.811-0.93,1.217-2.346,1.217-4.252
		c0-1.795-0.408-3.155-1.224-4.081c-0.816-0.925-1.83-1.388-3.042-1.388c-1.23,0-2.251,0.46-3.063,1.381
		C235.898,99.391,235.492,100.781,235.492,102.64z"/>
	<path fill="#FFFFFF" d="M249.465,95.381h2.461v6.043h6.822v-6.043h2.461V109.9h-2.461v-6.438h-6.822v6.438h-2.461V95.381
		L249.465,95.381z"/>
	<path fill="#FFFFFF" d="M266.149,110.208c-0.952,0-1.624-0.756-1.624-1.736c0-1.035,0.7-1.764,1.652-1.764
		c1.008,0,1.648,0.729,1.648,1.764c0,0.98-0.644,1.736-1.648,1.736H266.149z M266.177,100.324c-0.952,0-1.624-0.758-1.624-1.736
		c0-1.036,0.696-1.764,1.648-1.764c1.008,0,1.652,0.728,1.652,1.764c0,0.979-0.646,1.736-1.652,1.736H266.177z"/>
	<path fill="#FFFFFF" d="M298.278,90.468c-2.045,2.772-3.5,6.384-3.5,11.48c0,4.983,1.539,8.538,3.5,11.34h-1.904
		c-1.764-2.324-3.668-5.908-3.668-11.368c0.027-5.488,1.904-9.102,3.668-11.452H298.278z"/>
	<path fill="#FFFFFF" d="M305.923,110.208c-3.559,0-5.99-3.332-6.051-9.354c0-6.132,2.66-9.464,6.355-9.464
		c3.809,0,6.021,3.416,6.021,9.212c0,6.188-2.321,9.604-6.3,9.604L305.923,110.208L305.923,110.208z M306.032,108.304
		c2.492,0,3.695-2.938,3.695-7.588c0-4.48-1.119-7.42-3.695-7.42c-2.237,0-3.693,2.854-3.693,7.42
		c-0.059,4.732,1.396,7.588,3.668,7.588H306.032z"/>
	<path fill="#FFFFFF" d="M322.104,109.9v-4.955h-8.457v-1.596l8.121-11.646h2.66v11.34h2.547v1.902h-2.547v4.955H322.104z
		 M322.104,103.04v-6.104c0-0.952,0.027-1.902,0.084-2.854h-0.084c-0.561,1.063-1.008,1.848-1.513,2.716l-4.452,6.188v0.059
		L322.104,103.04L322.104,103.04z"/>
	<path fill="#FFFFFF" d="M336.469,109.9v-4.955h-8.456v-1.596l8.12-11.646h2.658v11.34h2.55v1.902h-2.55v4.955H336.469z
		 M336.469,103.04v-6.104c0-0.952,0.025-1.902,0.085-2.854h-0.085c-0.563,1.063-1.008,1.848-1.515,2.716l-4.449,6.188v0.059
		L336.469,103.04L336.469,103.04z"/>
	<path fill="#FFFFFF" d="M342.515,113.288c1.959-2.771,3.5-6.387,3.5-11.424c0-5.04-1.513-8.598-3.5-11.396h1.903
		c1.765,2.296,3.668,5.908,3.668,11.396c-0.028,5.487-1.903,9.043-3.668,11.424H342.515L342.515,113.288z"/>
	<path fill="#FFFFFF" d="M357.103,109.9v-1.512l1.934-1.876c4.646-4.424,6.775-6.776,6.775-9.52c0-1.85-0.869-3.558-3.584-3.558
		c-1.651,0-3.023,0.84-3.865,1.54l-0.782-1.734c1.231-1.036,3.055-1.85,5.151-1.85c3.893,0,5.543,2.688,5.543,5.292
		c0,3.36-2.436,6.076-6.271,9.772l-1.431,1.344v0.057h8.146v2.043L357.103,109.9L357.103,109.9z"/>
	<path fill="#FFFFFF" d="M377.263,110.208c-3.56,0-5.992-3.332-6.049-9.354c0-6.132,2.657-9.464,6.354-9.464
		c3.812,0,6.021,3.416,6.021,9.212c0,6.188-2.324,9.604-6.303,9.604L377.263,110.208L377.263,110.208z M377.374,108.304
		c2.492,0,3.695-2.938,3.695-7.588c0-4.48-1.119-7.42-3.695-7.42c-2.236,0-3.693,2.854-3.693,7.42
		c-0.059,4.732,1.397,7.588,3.668,7.588H377.374z"/>
	<path fill="#FFFFFF" d="M393.446,109.9v-4.955h-8.456v-1.596l8.12-11.646h2.66v11.34h2.547v1.902h-2.547v4.955H393.446z
		 M393.446,103.04v-6.104c0-0.952,0.027-1.902,0.084-2.854h-0.084c-0.561,1.063-1.008,1.848-1.512,2.716l-4.453,6.188v0.059
		L393.446,103.04L393.446,103.04z"/>
	<path fill="#FFFFFF" d="M406.688,101.444v1.792h-6.916v-1.792H406.688z"/>
	<path fill="#FFFFFF" d="M410.219,108.193c0.528,0.027,1.146,0,1.984-0.11c1.431-0.168,2.772-0.757,3.812-1.767
		c1.203-1.092,2.071-2.688,2.407-4.843h-0.084c-1.011,1.232-2.467,1.96-4.313,1.96c-3.275,0-5.375-2.465-5.375-5.601
		c0-3.416,2.521-6.44,6.244-6.44c3.723,0,6.02,2.996,6.02,7.672c0,4.003-1.344,6.806-3.137,8.568
		c-1.398,1.344-3.332,2.212-5.291,2.436c-0.896,0.112-1.709,0.168-2.269,0.143L410.219,108.193L410.219,108.193z M414.671,93.268
		c-2.07,0-3.559,1.85-3.559,4.424c0,2.27,1.371,3.864,3.5,3.864c1.652,0,2.939-0.812,3.611-1.904
		c0.111-0.224,0.195-0.504,0.195-0.896c0.025-3.136-1.146-5.488-3.727-5.488H414.671z"/>
	<path fill="#FFFFFF" d="M434.016,93.772h-6.943l-0.7,4.62c0.424-0.056,0.813-0.11,1.484-0.11c1.428,0,2.8,0.308,3.92,0.979
		c1.428,0.784,2.604,2.38,2.604,4.731c0,3.557-2.828,6.217-6.775,6.217c-1.988,0-3.641-0.563-4.536-1.12l0.615-1.876
		c0.757,0.448,2.24,1.008,3.921,1.008c2.296,0,4.313-1.512,4.283-3.976c0-2.408-1.597-4.062-5.208-4.062
		c-1.063,0-1.876,0.084-2.548,0.196l1.176-8.68h8.708V93.772z"/>
	<path fill="#FFFFFF" d="M444.011,101.444v1.792h-6.916v-1.792H444.011z"/>
	<path fill="#FFFFFF" d="M453.727,109.9v-4.955h-8.456v-1.596l8.12-11.646h2.66v11.34h2.548v1.902h-2.548v4.955H453.727z
		 M453.727,103.04v-6.104c0-0.952,0.028-1.902,0.084-2.854h-0.084c-0.563,1.063-1.008,1.848-1.512,2.716l-4.452,6.188v0.059
		L453.727,103.04L453.727,103.04z"/>
	<path fill="#FFFFFF" d="M472.29,91.7v1.624l-7.924,16.573h-2.521l7.868-16.1v-0.056h-8.904V91.7H472.29z"/>
	<path fill="#FFFFFF" d="M156.319,125.865v-2.57h2.488v2.57c2.552,0.137,4.563,0.902,6.043,2.304
		c1.477,1.398,2.215,3.138,2.215,5.216c0,2.032-0.716,3.76-2.146,5.182c-1.431,1.426-3.468,2.207-6.108,2.354v2.584h-2.488v-2.584
		c-2.37-0.091-4.343-0.813-5.92-2.167c-1.577-1.354-2.365-3.145-2.365-5.366c0-2.233,0.786-4.02,2.358-5.359
		C151.965,126.687,153.94,125.964,156.319,125.865z M156.319,128.147c-1.65,0.073-2.985,0.563-4.006,1.463
		c-1.021,0.902-1.531,2.16-1.531,3.773c0,1.595,0.503,2.849,1.511,3.76c1.007,0.911,2.352,1.403,4.026,1.479V128.147z
		 M158.807,128.133v10.5c1.713-0.082,3.063-0.579,4.047-1.49c0.981-0.911,1.477-2.165,1.477-3.76c0-1.567-0.48-2.81-1.449-3.726
		C161.915,128.741,160.557,128.234,158.807,128.133z"/>
	<path fill="#FFFFFF" d="M179.52,141.709c-0.912,0.772-1.789,1.32-2.632,1.641c-0.846,0.319-1.748,0.479-2.717,0.479
		c-1.595,0-2.818-0.393-3.678-1.169c-0.854-0.779-1.285-1.775-1.285-2.987c0-0.711,0.162-1.36,0.485-1.948
		c0.323-0.588,0.747-1.06,1.271-1.415c0.524-0.354,1.114-0.624,1.771-0.807c0.483-0.128,1.212-0.251,2.188-0.369
		c1.987-0.237,3.45-0.52,4.392-0.848c0.009-0.337,0.014-0.554,0.014-0.645c0-1.003-0.229-1.709-0.697-2.119
		c-0.629-0.556-1.563-0.834-2.803-0.834c-1.158,0-2.012,0.203-2.563,0.608c-0.555,0.405-0.959,1.123-1.227,2.153l-2.403-0.328
		c0.219-1.03,0.576-1.861,1.077-2.495s1.229-1.121,2.177-1.463c0.945-0.342,2.046-0.515,3.295-0.515
		c1.236,0,2.247,0.146,3.021,0.438s1.344,0.658,1.709,1.101c0.364,0.442,0.62,1,0.769,1.677c0.082,0.419,0.123,1.176,0.123,2.27
		v3.281c0,2.288,0.052,3.731,0.154,4.341c0.104,0.605,0.313,1.188,0.622,1.743h-2.567
		C179.757,142.99,179.593,142.393,179.52,141.709z M179.315,136.213c-0.896,0.364-2.233,0.675-4.021,0.93
		c-1.012,0.146-1.728,0.312-2.146,0.492c-0.419,0.183-0.743,0.449-0.971,0.8c-0.229,0.353-0.345,0.74-0.345,1.168
		c0,0.655,0.248,1.203,0.745,1.644c0.497,0.438,1.227,0.653,2.184,0.653c0.945,0,1.791-0.207,2.526-0.619
		c0.738-0.415,1.28-0.982,1.627-1.702c0.267-0.558,0.396-1.376,0.396-2.461L179.315,136.213L179.315,136.213z"/>
	<path fill="#FFFFFF" d="M185.604,128.981h2.461v6.275c0.784,0,1.333-0.15,1.646-0.451c0.314-0.301,0.777-1.176,1.391-2.625
		c0.48-1.146,0.875-1.905,1.176-2.27c0.301-0.365,0.646-0.61,1.039-0.738c0.392-0.128,1.021-0.191,1.887-0.191h0.492v2.037
		l-0.687-0.014c-0.646,0-1.062,0.096-1.241,0.287c-0.191,0.2-0.483,0.798-0.875,1.791c-0.374,0.946-0.719,1.604-1.025,1.969
		c-0.31,0.364-0.789,0.697-1.436,0.998c1.057,0.282,2.096,1.267,3.114,2.953l2.693,4.498h-2.707l-2.625-4.498
		c-0.538-0.902-1.007-1.497-1.408-1.784c-0.398-0.287-0.88-0.431-1.436-0.431v6.713h-2.461L185.604,128.981L185.604,128.981z"/>
	<path fill="#FFFFFF" d="M207.656,138.182l2.42,0.314c-0.265,1.668-0.938,2.974-2.03,3.917c-1.089,0.941-2.427,1.415-4.013,1.415
		c-1.987,0-3.584-0.648-4.792-1.948c-1.208-1.299-1.812-3.16-1.812-5.585c0-1.567,0.26-2.939,0.776-4.115
		c0.521-1.176,1.313-2.058,2.372-2.646c1.063-0.59,2.217-0.884,3.466-0.884c1.577,0,2.866,0.398,3.869,1.196
		c1.002,0.798,1.646,1.93,1.928,3.397l-2.393,0.368c-0.228-0.979-0.631-1.709-1.21-2.2c-0.579-0.492-1.278-0.738-2.099-0.738
		c-1.24,0-2.247,0.444-3.021,1.333c-0.772,0.889-1.162,2.295-1.162,4.218c0,1.95,0.374,3.368,1.121,4.251
		c0.747,0.885,1.724,1.325,2.926,1.325c0.969,0,1.772-0.296,2.42-0.889C207.073,140.323,207.483,139.412,207.656,138.182z"/>
	<path fill="#FFFFFF" d="M213.416,143.809c-0.952,0-1.624-0.757-1.624-1.732c0-1.036,0.7-1.768,1.652-1.768
		c1.008,0,1.652,0.729,1.652,1.768c0,0.979-0.646,1.732-1.652,1.732H213.416z M213.444,133.924c-0.952,0-1.624-0.756-1.624-1.735
		c0-1.036,0.7-1.765,1.652-1.765c1.008,0,1.649,0.729,1.649,1.765c0,0.979-0.644,1.735-1.649,1.735H213.444z"/>
	<path fill="#FFFFFF" d="M297.892,124.069c-2.045,2.771-3.5,6.386-3.5,11.479c0,4.984,1.539,8.54,3.5,11.341h-1.904
		c-1.764-2.324-3.668-5.908-3.668-11.368c0.027-5.486,1.904-9.101,3.668-11.452H297.892L297.892,124.069z"/>
	<path fill="#FFFFFF" d="M305.533,143.809c-3.556,0-5.991-3.332-6.048-9.353c0-6.132,2.66-9.464,6.355-9.464
		c3.809,0,6.02,3.416,6.02,9.212c0,6.188-2.323,9.604-6.299,9.604L305.533,143.809L305.533,143.809z M305.646,141.906
		c2.492,0,3.696-2.94,3.696-7.59c0-4.479-1.12-7.42-3.696-7.42c-2.239,0-3.695,2.855-3.695,7.42c-0.057,4.731,1.4,7.59,3.668,7.59
		H305.646z"/>
	<path fill="#FFFFFF" d="M321.719,143.5v-4.956h-8.456v-1.596l8.12-11.648h2.658v11.34h2.55v1.904h-2.55v4.956H321.719z
		 M321.719,136.64v-6.104c0-0.952,0.025-1.904,0.085-2.856h-0.085c-0.563,1.064-1.008,1.849-1.515,2.717l-4.449,6.188v0.056
		L321.719,136.64L321.719,136.64z"/>
	<path fill="#FFFFFF" d="M336.08,143.5v-4.956h-8.456v-1.596l8.12-11.648h2.659v11.34h2.549v1.904h-2.549v4.956H336.08z
		 M336.08,136.64v-6.104c0-0.952,0.028-1.904,0.084-2.856h-0.084c-0.56,1.064-1.009,1.849-1.513,2.717l-4.451,6.188v0.056
		L336.08,136.64L336.08,136.64z"/>
	<path fill="#FFFFFF" d="M342.13,146.889c1.96-2.771,3.5-6.385,3.5-11.425s-1.515-8.596-3.5-11.396h1.901
		c1.767,2.298,3.668,5.907,3.668,11.396c-0.025,5.488-1.901,9.044-3.668,11.425H342.13z"/>
	<path fill="#FFFFFF" d="M356.719,143.5v-1.513l1.933-1.877c4.647-4.424,6.775-6.774,6.775-9.521c0-1.848-0.867-3.556-3.584-3.556
		c-1.65,0-3.023,0.84-3.863,1.54l-0.783-1.736c1.23-1.036,3.052-1.848,5.15-1.848c3.894,0,5.545,2.688,5.545,5.292
		c0,3.357-2.438,6.074-6.271,9.771l-1.428,1.346v0.059h8.146v2.044L356.719,143.5L356.719,143.5z"/>
	<path fill="#FFFFFF" d="M376.878,143.809c-3.559,0-5.99-3.332-6.051-9.353c0-6.132,2.66-9.464,6.355-9.464
		c3.809,0,6.021,3.416,6.021,9.212c0,6.188-2.321,9.604-6.3,9.604L376.878,143.809L376.878,143.809z M376.987,141.906
		c2.492,0,3.697-2.94,3.697-7.59c0-4.479-1.121-7.42-3.697-7.42c-2.239,0-3.695,2.855-3.695,7.42c-0.057,4.731,1.4,7.59,3.671,7.59
		H376.987z"/>
	<path fill="#FFFFFF" d="M393.06,143.5v-4.956h-8.457v-1.596l8.121-11.648h2.659v11.34h2.548v1.904h-2.548v4.956H393.06z
		 M393.06,136.64v-6.104c0-0.952,0.027-1.904,0.084-2.856h-0.084c-0.563,1.064-1.009,1.849-1.513,2.717l-4.452,6.188v0.056
		L393.06,136.64L393.06,136.64z"/>
	<path fill="#FFFFFF" d="M406.302,135.044v1.792h-6.916v-1.792H406.302z"/>
	<path fill="#FFFFFF" d="M414.509,124.992c3.524,0,5.316,2.184,5.316,4.479c0,1.54-0.78,3.221-3.021,4.257v0.084
		c2.269,0.896,3.668,2.521,3.668,4.704c0,3.191-2.716,5.291-6.188,5.291c-3.809,0-6.104-2.238-6.104-4.896
		c0-2.297,1.371-3.948,3.584-4.9v-0.084c-2.045-0.952-2.912-2.521-2.912-4.088c0-2.884,2.436-4.844,5.627-4.844L414.509,124.992
		L414.509,124.992z M414.365,142.016c2.212,0,3.644-1.371,3.644-3.248c0-2.184-1.54-3.271-4.004-3.976
		c-2.131,0.616-3.275,2.044-3.275,3.78c-0.084,1.817,1.313,3.44,3.611,3.44L414.365,142.016L414.365,142.016z M414.425,126.756
		c-2.044,0-3.164,1.344-3.164,2.912c-0.027,1.819,1.372,2.8,3.473,3.358c1.567-0.53,2.771-1.65,2.771-3.305
		c0-1.455-0.868-2.968-3.056-2.968L414.425,126.756L414.425,126.756z"/>
	<path fill="#FFFFFF" d="M433.632,127.372h-6.943l-0.7,4.62c0.421-0.058,0.813-0.112,1.483-0.112c1.429,0,2.801,0.309,3.92,0.979
		c1.429,0.783,2.604,2.382,2.604,4.731c0,3.557-2.826,6.217-6.773,6.217c-1.987,0-3.643-0.561-4.536-1.119l0.616-1.877
		c0.756,0.447,2.237,1.008,3.92,1.008c2.296,0,4.313-1.512,4.284-3.977c0-2.407-1.599-4.06-5.208-4.06
		c-1.063,0-1.877,0.084-2.551,0.194l1.179-8.681h8.708L433.632,127.372L433.632,127.372z"/>
	<path fill="#FFFFFF" d="M443.624,135.044v1.792h-6.916v-1.792H443.624z"/>
	<path fill="#FFFFFF" d="M451.52,143.809c-3.556,0-5.99-3.332-6.048-9.353c0-6.132,2.66-9.464,6.354-9.464
		c3.811,0,6.021,3.416,6.021,9.212c0,6.188-2.323,9.604-6.3,9.604L451.52,143.809L451.52,143.809z M451.635,141.906
		c2.489,0,3.693-2.94,3.693-7.59c0-4.479-1.12-7.42-3.693-7.42c-2.239,0-3.695,2.855-3.695,7.42c-0.057,4.731,1.399,7.59,3.668,7.59
		H451.635z"/>
	<path fill="#FFFFFF" d="M465.436,127.596h-0.057l-3.164,1.708l-0.479-1.876l3.979-2.128h2.102v18.2h-2.381V127.596z"/>
</g>
</svg>
