<?xml version="1.0" encoding="utf-8"?>
<!-- Generator: Adobe Illustrator 15.0.2, SVG Export Plug-In . SVG Version: 6.00 Build 0)  -->
<!DOCTYPE svg PUBLIC "-//W3C//DTD SVG 1.1//EN" "http://www.w3.org/Graphics/SVG/1.1/DTD/svg11.dtd">
<svg version="1.1" id="Layer_1" xmlns="http://www.w3.org/2000/svg" xmlns:xlink="http://www.w3.org/1999/xlink" x="0px" y="0px"
	 width="148.679px" height="151.316px" viewBox="0 0 148.679 151.316" enable-background="new 0 0 148.679 151.316"
	 xml:space="preserve">
<path fill="#FFFFFF" d="M73.02,151.316c-41.783,0-75.656-33.873-75.656-75.656C-2.637,33.873,31.234,0.002,73.02,0
	c41.786,0,75.66,33.873,75.66,75.66C148.679,117.443,114.806,151.316,73.02,151.316z"/>
<circle fill="#54B0FF" cx="73.021" cy="75.659" r="58.419"/>
<g>
	<path fill-rule="evenodd" clip-rule="evenodd" fill="#FFFFFF" d="M45.33,91.478l1.81-33.268c0.28-5.162,3.287-9.302,6.658-9.197
		l40.534,1.259c3.368,0.104,5.887,4.411,5.594,9.572l-0.41,7.238c-2.094,1.278-3.676,3.547-5.374,7.213l-35.819-2.896l-0.208-0.015
		l-0.15,0.238L45.33,91.478z"/>
	<path fill-rule="evenodd" clip-rule="evenodd" fill="#FFFFFF" d="M58.168,73.447l36.078,2.914c4.29-9.439,7.662-9.639,20.768-7.436
		L97.958,95.51l-52.787-1.638L58.168,73.447z"/>
</g>
<g opacity="0.4">
	<g opacity="0.5">
		<path fill="#FFFFFF" d="M14.644,75.658c0,32.263,26.156,58.419,58.418,58.419c11.758,0,22.697-3.486,31.862-9.463
			C27.74,116.638,14.644,75.658,14.644,75.658z"/>
	</g>
	<g opacity="0.5">
		<path fill="#FFFFFF" d="M131.398,75.658c0,0-13.096,40.979-90.28,48.956c9.165,5.977,20.104,9.463,31.862,9.463
			C105.243,134.077,131.398,107.921,131.398,75.658z"/>
	</g>
</g>
</svg>
