<?xml version="1.0" encoding="utf-8"?>
<!-- Generator: Adobe Illustrator 15.0.2, SVG Export Plug-In . SVG Version: 6.00 Build 0)  -->
<!DOCTYPE svg PUBLIC "-//W3C//DTD SVG 1.1//EN" "http://www.w3.org/Graphics/SVG/1.1/DTD/svg11.dtd">
<svg version="1.1" id="Layer_1" xmlns="http://www.w3.org/2000/svg" xmlns:xlink="http://www.w3.org/1999/xlink" x="0px" y="0px"
	 width="149.18px" height="147.146px" viewBox="0 0 149.18 147.146" enable-background="new 0 0 149.18 147.146"
	 xml:space="preserve">
<ellipse fill="#4FC7F4" cx="74.59" cy="73.573" rx="74.59" ry="73.572"/>
<ellipse fill="#FFFFFF" cx="74.59" cy="73.573" rx="59.043" ry="58.236"/>
<path fill-rule="evenodd" clip-rule="evenodd" fill="#4D4D4D" d="M45.614,100.979c0,0-1.044-8.471,0.849-13.354
	c1.893-4.886,3.154-5.974,8.983-6.791c5.829-0.818,9.04-3.077,9.858-3.819c0.82-0.745,2.138-1.542,2.928-1.892
	c0,0-0.229-5.812-3.1-9.213c0,0-1.097-0.401-1.285-1.175s-0.752-4.176,0.063-5.6c0,0,0.535-0.672,0.478-1.154
	c-0.059-0.483-0.685-4.767,3.194-8.227c0,0,1.146-1.818-1.63-2.121c0,0,1.291-0.663,3.21,0.3c0,0-0.775-1.151,0.447-1.766
	c0,0-0.522,1.851,1.514,1.239c2.037-0.616,4.935-1.158,6.86-0.453c1.925,0.705,2.387,1.685,4.842,1.823s3.335,3.229,3.399,4.396
	c0.063,1.164-0.062,5.901,0.388,6.539c0.45,0.635,0.603,1.102,0.45,2.236c-0.149,1.138-1.073,4.084-1.592,4.133
	c-0.515,0.044-0.953,0.478-0.984,0.665c-0.032,0.184-1.503,4.255-1.479,5.694c0.025,1.442,0.058,3.089,1.195,3.424
	c1.141,0.337,2.617,2.368,3.53,3.271c0.915,0.901,6.283,2.125,8.715,3.248c2.433,1.125,3.422,0.957,4.844,5.646
	c1.42,4.694,2.545,9.513,2.562,12.949H45.614z"/>
</svg>
