<?xml version="1.0" encoding="utf-8"?>
<!-- Generator: Adobe Illustrator 15.0.2, SVG Export Plug-In . SVG Version: 6.00 Build 0)  -->
<!DOCTYPE svg PUBLIC "-//W3C//DTD SVG 1.1//EN" "http://www.w3.org/Graphics/SVG/1.1/DTD/svg11.dtd">
<svg version="1.1" id="Layer_1" xmlns="http://www.w3.org/2000/svg" xmlns:xlink="http://www.w3.org/1999/xlink" x="0px" y="0px"
	 width="116.796px" height="116.667px" viewBox="14.644 17.24 116.796 116.667"
	 enable-background="new 14.644 17.24 116.796 116.667" xml:space="preserve">
<circle fill="#54B0FF" cx="73.021" cy="75.659" r="58.419"/>
<g>
	<path fill="#FFFFFF" d="M45.33,91.478l1.81-33.269c0.279-5.162,3.287-9.302,6.657-9.195l40.534,1.259
		c3.368,0.104,5.888,4.411,5.594,9.57l-0.409,7.238c-2.095,1.278-3.677,3.547-5.374,7.213l-35.818-2.896l-0.208-0.017l-0.15,0.238
		L45.33,91.478z"/>
	<path fill="#FFFFFF" d="M58.168,73.447l36.078,2.914c4.29-9.439,7.662-9.639,20.769-7.438L97.958,95.51l-52.787-1.638
		L58.168,73.447z"/>
</g>
<g opacity="0.4">
	<g opacity="0.5">
		<path fill="#FFFFFF" d="M14.644,75.658c0,32.263,26.155,58.419,58.418,58.419c11.758,0,22.696-3.486,31.861-9.463
			C27.74,116.638,14.644,75.658,14.644,75.658z"/>
	</g>
	<g opacity="0.5">
		<path fill="#FFFFFF" d="M131.398,75.658c0,0-13.097,40.979-90.279,48.956c9.165,5.977,20.104,9.463,31.861,9.463
			C105.243,134.077,131.398,107.921,131.398,75.658z"/>
	</g>
</g>
</svg>
