<?xml version="1.0" encoding="utf-8"?>
<!-- Generator: Adobe Illustrator 15.0.2, SVG Export Plug-In . SVG Version: 6.00 Build 0)  -->
<!DOCTYPE svg PUBLIC "-//W3C//DTD SVG 1.1//EN" "http://www.w3.org/Graphics/SVG/1.1/DTD/svg11.dtd">
<svg version="1.1" id="Layer_1" xmlns="http://www.w3.org/2000/svg" xmlns:xlink="http://www.w3.org/1999/xlink" x="0px" y="0px"
	 width="151.316px" height="153.105px" viewBox="0 0 151.316 153.105" enable-background="new 0 0 151.316 153.105"
	 xml:space="preserve">
<circle fill="#FFFFFF" cx="75.66" cy="77.447" r="75.658"/>
<circle fill="#00A99D" cx="75.659" cy="77.448" r="58.419"/>
<g>
	<path fill="#FFFFFF" d="M85.539,109.776l-11.227-28.85l-0.628-1.62h-2.851H39.775c0.473,9.003,4.433,17.092,10.547,22.939
		c0.886,0.846,1.814,1.644,2.789,2.403c5.784,4.456,13.039,7.119,20.91,7.119C78.062,111.768,81.938,111.062,85.539,109.776z"/>
	<path fill="#FFFFFF" d="M74.889,41.595c-3.44,0-6.757,0.508-9.891,1.452c-1.181,0.352-2.336,0.76-3.455,1.237
		c-7.008,2.959-12.8,8.195-16.513,14.756c0,0-0.746,1.215-1.61,3.218h-0.012c-0.025,0.06-0.044,0.124-0.067,0.183
		c-0.337,0.792-0.679,1.693-1.01,2.703c-0.003,0.008-0.007,0.016-0.01,0.023h0.001c-0.324,0.99-0.635,2.054-0.887,3.213
		c-0.414,1.844-0.693,3.73-0.796,5.669h32.482h1.864l1.446-1.618l20.44-22.863C90.919,44.589,83.255,41.584,74.889,41.595z"/>
	<path fill="#FFFFFF" d="M79.207,78.948L90.516,108c10.951-5.291,18.659-16.234,19.337-29.052c0.025-0.479,0.034-0.964,0.038-1.446
		H78.65L79.207,78.948z"/>
	<path fill="#FFFFFF" d="M107.502,48.353L87.18,69.694l-2.012,2.118l31.12-2.67C115.773,61.193,112.572,53.938,107.502,48.353z"/>
</g>
<g>
	<g>
		<g>
			<path fill="#FFFFFF" d="M159.904,79.238h-1.385V68.701h1.385V79.238z"/>
			<path fill="#FFFFFF" d="M170.413,79.238h-1.472l-5.4-8.447l-0.043,8.447H162.2V68.701h1.464l5.452,8.547l0.019-8.547h1.278
				V79.238z"/>
			<path fill="#FFFFFF" d="M179.441,69.884h-5.416v3.33h4.75v1.193h-4.75v4.83h-1.387V68.701h6.803V69.884z"/>
			<path fill="#FFFFFF" d="M190.266,73.96c0,1.537-0.406,2.811-1.218,3.822c-0.911,1.141-2.151,1.707-3.719,1.707
				c-1.558,0-2.797-0.559-3.716-1.68c-0.836-1.029-1.252-2.313-1.252-3.85c0-1.527,0.416-2.801,1.252-3.828
				c0.905-1.119,2.146-1.678,3.716-1.678c1.573,0,2.813,0.559,3.719,1.678C189.859,71.136,190.266,72.412,190.266,73.96z
				 M188.905,73.96c0-1.203-0.272-2.197-0.822-2.98c-0.63-0.91-1.55-1.367-2.754-1.367c-1.173,0-2.081,0.457-2.725,1.367
				c-0.572,0.801-0.86,1.795-0.86,2.98c0,1.188,0.279,2.176,0.834,2.973c0.632,0.908,1.547,1.367,2.751,1.367
				c1.169,0,2.081-0.459,2.736-1.367C188.627,76.148,188.905,75.162,188.905,73.96z"/>
			<path fill="#FFFFFF" d="M200.923,79.238h-0.867l-0.36-1.324c-0.712,1.049-1.813,1.576-3.313,1.576
				c-1.461,0-2.658-0.527-3.592-1.576c-0.899-1.004-1.353-2.252-1.353-3.734c0-1.635,0.409-2.975,1.219-4.016
				c0.896-1.137,2.138-1.709,3.726-1.709c1.188,0,2.153,0.271,2.902,0.809c0.811,0.578,1.32,1.471,1.523,2.68h-1.368
				c-0.133-0.764-0.485-1.35-1.059-1.762c-0.532-0.377-1.198-0.568-1.999-0.568c-1.18,0-2.088,0.473-2.725,1.412
				c-0.555,0.813-0.834,1.834-0.834,3.068c0,1.148,0.298,2.119,0.894,2.91c0.661,0.865,1.548,1.297,2.665,1.297
				c1.029,0,1.841-0.322,2.438-0.963c0.582-0.631,0.875-1.445,0.875-2.457h-3.313v-1.189h4.54V79.238z"/>
			<path fill="#FFFFFF" d="M211.311,79.238h-1.525c-0.193-0.199-0.288-0.617-0.288-1.254c0-0.695-0.029-1.146-0.089-1.35
				c-0.113-0.781-0.312-1.295-0.602-1.533c-0.285-0.24-0.66-0.359-1.116-0.359h-3.364v4.496h-1.386V68.701h4.882
				c0.981,0,1.75,0.248,2.305,0.742c0.556,0.494,0.832,1.164,0.832,2.012c0,1.402-0.597,2.297-1.795,2.68
				c0.742,0.158,1.22,0.621,1.436,1.385c0.024,0.381,0.07,0.932,0.141,1.65l0.098,0.771C210.838,78.4,210.994,78.833,211.311,79.238
				z M209.592,71.681c0-1.197-0.609-1.797-1.83-1.797h-3.436v3.672h2.873c0.735,0,1.296-0.119,1.675-0.359
				C209.353,72.888,209.592,72.382,209.592,71.681z"/>
			<path fill="#FFFFFF" d="M221.215,79.238h-1.5l-1.139-3.184h-4.363l-1.16,3.184h-1.428l4.041-10.537h1.525L221.215,79.238z
				 M218.129,74.88l-1.699-4.908l-1.797,4.908H218.129z"/>
			<path fill="#FFFFFF" d="M229.938,71.816c0,2.072-1.063,3.107-3.184,3.107h-3.156v4.314h-1.383V68.701h4.539
				c0.998,0,1.779,0.271,2.339,0.811C229.656,70.052,229.938,70.82,229.938,71.816z M228.553,71.816
				c0-1.287-0.756-1.932-2.265-1.932h-2.69v3.85h2.69C227.797,73.734,228.553,73.093,228.553,71.816z"/>
			<path fill="#FFFFFF" d="M239.78,79.238h-1.369v-4.83h-5.441v4.83h-1.387V68.701h1.387v4.514h5.441v-4.514h1.369V79.238z"/>
			<path fill="#FFFFFF" d="M243.488,79.238h-1.387V68.701h1.387V79.238z"/>
			<path fill="#FFFFFF" d="M254.531,75.25c-0.131,1.324-0.57,2.357-1.324,3.096c-0.777,0.764-1.824,1.145-3.139,1.145
				c-1.641,0-2.89-0.59-3.742-1.777c-0.701-0.988-1.052-2.225-1.052-3.707c0-1.604,0.419-2.908,1.254-3.918
				c0.893-1.088,2.108-1.633,3.646-1.633c1.139,0,2.08,0.293,2.822,0.867c0.777,0.596,1.254,1.449,1.43,2.553h-1.369
				c-0.286-1.506-1.248-2.262-2.883-2.262c-1.176,0-2.072,0.434-2.691,1.299c-0.549,0.775-0.823,1.771-0.823,2.988
				c0,1.256,0.262,2.271,0.788,3.049c0.614,0.902,1.523,1.352,2.727,1.352c0.905,0,1.627-0.281,2.166-0.84
				c0.537-0.563,0.806-1.299,0.806-2.211H254.531z"/>
		</g>
	</g>
	<g>
		<g>
			<path fill="#FFFFFF" d="M186.211,90.789c0,0.566-0.229,0.994-0.688,1.287c-0.384,0.236-0.877,0.359-1.48,0.359
				c-0.647,0-1.151-0.133-1.517-0.396c-0.438-0.318-0.656-0.775-0.656-1.373h0.844c0,0.672,0.457,1.008,1.373,1.008
				c0.366,0,0.635-0.039,0.807-0.119c0.289-0.135,0.432-0.35,0.432-0.641c0-0.338-0.256-0.588-0.768-0.756l-0.934-0.207
				c-0.192-0.047-0.412-0.115-0.659-0.205c-0.19-0.076-0.347-0.158-0.466-0.248c-0.349-0.252-0.523-0.596-0.523-1.035
				c0-0.496,0.188-0.863,0.564-1.104c0.396-0.254,0.846-0.383,1.351-0.383c0.637,0,1.125,0.111,1.466,0.336
				c0.418,0.275,0.629,0.709,0.629,1.301h-0.846c-0.033-0.301-0.161-0.523-0.383-0.674c-0.209-0.137-0.473-0.207-0.791-0.207
				c-0.303,0-0.561,0.051-0.781,0.145c-0.213,0.102-0.32,0.271-0.32,0.525c0,0.246,0.182,0.451,0.551,0.609l1.143,0.307
				c0.705,0.189,1.156,0.387,1.357,0.598C186.111,90.126,186.211,90.416,186.211,90.789z"/>
			<path fill="#FFFFFF" d="M191.672,92.302c-0.15,0.088-0.354,0.133-0.612,0.133c-0.468,0-0.702-0.27-0.702-0.809
				c-0.459,0.539-1.063,0.809-1.809,0.809c-0.495,0-0.891-0.111-1.187-0.334c-0.327-0.254-0.493-0.631-0.493-1.129
				c0-0.412,0.109-0.742,0.326-0.988c0.224-0.262,0.689-0.467,1.395-0.619c0.268-0.037,0.667-0.109,1.2-0.213
				c0.349-0.088,0.526-0.273,0.526-0.557c0-0.334-0.124-0.568-0.372-0.713c-0.167-0.1-0.427-0.15-0.779-0.15
				c-0.632,0-1.024,0.172-1.185,0.52c-0.058,0.125-0.085,0.281-0.085,0.473h-0.839c0-0.584,0.22-1.039,0.659-1.354
				c0.363-0.264,0.861-0.395,1.492-0.395c0.575,0,1.015,0.088,1.323,0.264c0.416,0.236,0.625,0.629,0.625,1.178v2.676
				c0,0.242,0.009,0.4,0.03,0.473c0.031,0.055,0.102,0.092,0.208,0.107c0.098,0,0.188-0.016,0.277-0.047V92.302z M190.298,90.494
				v-0.869c-0.12,0.092-0.339,0.166-0.659,0.229c-0.211,0.016-0.508,0.061-0.887,0.137c-0.286,0.031-0.518,0.111-0.688,0.24
				c-0.214,0.166-0.319,0.393-0.319,0.684c0,0.506,0.332,0.76,0.995,0.76c0.494,0,0.895-0.139,1.193-0.412
				C190.176,91.035,190.298,90.781,190.298,90.494z"/>
			<path fill="#FFFFFF" d="M199.633,92.312h-0.844V88.89c0-0.771-0.334-1.158-0.996-1.158c-0.398,0-0.721,0.121-0.965,0.363
				c-0.243,0.246-0.365,0.566-0.365,0.967v3.25h-0.856V88.89c0-0.771-0.322-1.158-0.965-1.158c-0.422,0-0.769,0.17-1.036,0.516
				c-0.216,0.275-0.322,0.543-0.322,0.814v3.25h-0.84v-5.211h0.791v0.764c0.407-0.592,0.967-0.889,1.684-0.889
				c0.311,0,0.594,0.072,0.851,0.215c0.244,0.137,0.424,0.359,0.537,0.674c0.378-0.592,0.912-0.889,1.608-0.889
				c1.146,0,1.719,0.506,1.719,1.516V92.312z"/>
			<path fill="#FFFFFF" d="M205.77,89.714c0,0.791-0.192,1.43-0.574,1.912c-0.431,0.539-1.016,0.809-1.762,0.809
				c-0.338,0-0.633-0.053-0.889-0.162c-0.335-0.143-0.59-0.361-0.766-0.66l-0.033,2.703h-0.837v-7.215h0.837v0.703
				c0.273-0.555,0.828-0.828,1.67-0.828c0.73,0,1.313,0.271,1.754,0.816C205.568,88.279,205.77,88.921,205.77,89.714z
				 M204.863,89.656c0-0.529-0.125-0.973-0.377-1.338c-0.275-0.391-0.673-0.586-1.192-0.586c-0.542,0-0.942,0.191-1.194,0.572
				c-0.254,0.385-0.38,0.852-0.38,1.398c0,0.576,0.123,1.033,0.371,1.377c0.279,0.396,0.696,0.594,1.252,0.594
				c0.53,0,0.929-0.213,1.19-0.639C204.756,90.681,204.863,90.222,204.863,89.656z"/>
			<path fill="#FFFFFF" d="M207.632,92.312h-0.839v-7.199h0.839V92.312z"/>
			<path fill="#FFFFFF" d="M213.385,89.96h-3.836c0,0.502,0.133,0.91,0.397,1.221c0.278,0.328,0.676,0.492,1.191,0.492
				c0.739,0,1.183-0.336,1.33-1.008h0.828c-0.094,0.549-0.339,0.984-0.739,1.314c-0.369,0.303-0.854,0.455-1.448,0.455
				c-0.8,0-1.413-0.266-1.842-0.791c-0.394-0.482-0.595-1.137-0.595-1.959c0-0.787,0.23-1.436,0.681-1.945
				c0.451-0.51,1.021-0.764,1.712-0.764c0.813,0,1.42,0.336,1.828,1.006C213.223,88.527,213.385,89.187,213.385,89.96z
				 M212.484,89.21c0-0.422-0.141-0.775-0.422-1.055c-0.281-0.281-0.631-0.424-1.052-0.424c-0.411,0-0.763,0.145-1.055,0.436
				c-0.271,0.279-0.407,0.627-0.407,1.043H212.484z"/>
			<path fill="#FFFFFF" d="M220.408,92.312h-0.643c-0.484,0-0.804-0.07-0.958-0.211c-0.169-0.152-0.253-0.465-0.253-0.936v-3.314
				h-0.875v-0.75h0.875v-1.574h0.846v1.574h1.008v0.75H219.4v3.242c0,0.191,0.033,0.32,0.102,0.393
				c0.079,0.057,0.254,0.08,0.521,0.08h0.385V92.312z"/>
			<path fill="#FFFFFF" d="M225.787,89.96h-3.836c0,0.502,0.133,0.91,0.396,1.221c0.281,0.328,0.678,0.492,1.193,0.492
				c0.738,0,1.181-0.336,1.329-1.008h0.825c-0.091,0.549-0.335,0.984-0.736,1.314c-0.369,0.303-0.854,0.455-1.448,0.455
				c-0.799,0-1.413-0.266-1.841-0.791c-0.396-0.482-0.594-1.137-0.594-1.959c0-0.787,0.227-1.436,0.68-1.945
				c0.449-0.51,1.021-0.764,1.713-0.764c0.811,0,1.42,0.336,1.826,1.006C225.623,88.527,225.787,89.187,225.787,89.96z
				 M224.889,89.21c0-0.422-0.142-0.775-0.423-1.055c-0.283-0.281-0.632-0.424-1.052-0.424c-0.411,0-0.764,0.145-1.053,0.436
				c-0.273,0.279-0.41,0.627-0.41,1.043H224.889z"/>
			<path fill="#FFFFFF" d="M231.052,92.312h-1.077l-1.414-2.154l-1.422,2.154h-1.028l1.91-2.754l-1.766-2.457h1.065l1.24,1.816
				l1.27-1.816h1.007l-1.755,2.396L231.052,92.312z"/>
			<path fill="#FFFFFF" d="M233.959,92.312h-0.641c-0.482,0-0.802-0.07-0.96-0.211c-0.167-0.152-0.251-0.465-0.251-0.936v-3.314
				h-0.875v-0.75h0.875v-1.574h0.845v1.574h1.007v0.75h-1.007v3.242c0,0.191,0.035,0.32,0.104,0.393
				c0.078,0.057,0.25,0.08,0.52,0.08h0.383V92.312z"/>
		</g>
	</g>
</g>
<g opacity="0.4">
	<g opacity="0.5">
		<path fill="#FFFFFF" d="M17.281,77.447c0,32.263,26.156,58.419,58.418,58.419c11.758,0,22.697-3.486,31.861-9.463
			C30.377,118.426,17.281,77.447,17.281,77.447z"/>
	</g>
	<g opacity="0.5">
		<path fill="#FFFFFF" d="M134.035,77.447c0,0-13.096,40.979-90.279,48.956c9.165,5.977,20.104,9.463,31.861,9.463
			C107.88,135.866,134.035,109.709,134.035,77.447z"/>
	</g>
</g>
</svg>
