<?xml version="1.0" encoding="utf-8"?>
<!-- Generator: Adobe Illustrator 15.0.2, SVG Export Plug-In . SVG Version: 6.00 Build 0)  -->
<!DOCTYPE svg PUBLIC "-//W3C//DTD SVG 1.1//EN" "http://www.w3.org/Graphics/SVG/1.1/DTD/svg11.dtd">
<svg version="1.1" id="Слой_1" xmlns="http://www.w3.org/2000/svg" xmlns:xlink="http://www.w3.org/1999/xlink" x="0px" y="0px"
	 width="5760px" height="2100px" viewBox="0 0 5760 2100" enable-background="new 0 0 5760 2100" xml:space="preserve">
<image overflow="visible" width="5760" height="2100" xlink:href="photo.jpg" >
</image>
<linearGradient id="path4414_1_" gradientUnits="userSpaceOnUse" x1="-1265.4773" y1="2943.2363" x2="-1259.2471" y2="3403.6843">
	<stop  offset="0" style="stop-color:#216778"/>
	<stop  offset="0.5479" style="stop-color:#87CDDE"/>
	<stop  offset="0.5831" style="stop-color:#00222B"/>
	<stop  offset="1" style="stop-color:#006680"/>
</linearGradient>
<path id="path4414" inkscape:connector-curvature="0" fill="none" stroke="url(#path4414_1_)" stroke-width="1.254" d="
	M877.868,462.463c87.608,54.816,145.477,149.425,145.477,256.95l0,0c0,143.192-102.627,263.483-241.445,297.388"/>
<linearGradient id="path9030-1-6-3_1_" gradientUnits="userSpaceOnUse" x1="-1809.0488" y1="2984.6436" x2="-1789.4556" y2="3435.3748">
	<stop  offset="0" style="stop-color:#216778"/>
	<stop  offset="0.4199" style="stop-color:#87CDDE"/>
	<stop  offset="0.4582" style="stop-color:#00222B"/>
	<stop  offset="1" style="stop-color:#216778"/>
</linearGradient>
<path id="path9030-1-6-3" inkscape:connector-curvature="0" fill="none" stroke="url(#path9030-1-6-3_1_)" stroke-width="1.254" d="
	M560.311,994.937c-106.355-50.031-179.533-154.611-179.533-275.524c0-169.52,143.841-306.937,321.28-306.937
	c38.852,0,76.094,6.586,110.563,18.655"/>
<path id="path9033-5-1-7" inkscape:connector-curvature="0" fill="none" stroke="#FFFFFF" stroke-width="1.881" d="
	M573.813,1014.903c-120.931-48.265-205.912-162.341-205.912-295.376c0-176.729,149.96-319.986,334.942-319.986
	s334.945,143.257,334.945,319.986l0,0c0,158.236-120.231,289.645-278.183,315.405"/>
<path id="path25376-9-4-93-8-4-8" inkscape:connector-curvature="0" fill="none" d="M844.1,457.895
	c-44.785,11.127-94.888,19.038-182.306,5.722c-2.807,0.204-4.233,1.674-3.918,4.849v16.552c-12.535-0.581-25.912-0.524-42.483-5.122
	c-1.531-0.424-4.827,2.375-4.789,2.479v39.561c-21.26,7.997-38.374,16.682-55.972,29.59c-8.987-3.969-17.303-7.114-29.896-15.679
	c-3.14,0.461-3.002,1.837-3.14,3.11v43.149c-35.646,37.399-54.525,83.451-54.525,136.584c0,50.954,19.808,97.748,52.877,134.487
	c9.734,88.9,72.241,155.78,132.889,189.892c14.523-6.774,29.712-15.052,41.665-26.753l21,9.578
	c71.023-34.784,118.104-73.547,137.063-139.615c54.859-39.177,90.041-99.672,90.041-167.588c0-75.682-38.623-132.55-90.767-169.282
	l0.334-85.195C852.211,457.847,848.188,457.31,844.1,457.895z"/>
<path id="path25379-16-2-0-5-85-8" inkscape:connector-curvature="0" fill="none" stroke="#B3B3B3" stroke-width="0.4958" d="
	M545.212,575.659c99.278,36.752,193.911,32.824,285.66,3.607v294.162c-92.298,55.749-201.376,52.362-286.602-31.165L545.212,575.659
	z"/>
<path id="path25358-2-0-1-7-3-5" inkscape:connector-curvature="0" fill="#00E3FF" stroke="#E6E6E6" stroke-width="0.4958" d="
	M606.482,910.273c74.943,32.899,150.173,28.21,220.615-10.81c-23.512,47.85-65.916,77.625-111.243,102.229
	C675.799,981.852,633.709,958.197,606.482,910.273z"/>
<path id="path25356-7-5-9-0-5-7" inkscape:connector-curvature="0" fill="#00E3FF" stroke="#E6E6E6" stroke-width="0.4958" d="
	M850.844,581.02c0,0,67.995,54.681,67.995,137.563c0,87.612-68.662,141.389-68.662,141.389L850.844,581.02z"/>
<path id="path9722-4-9-4-0-7-4-3-8-6-3-2-88-3-3-4" inkscape:connector-curvature="0" fill="#FFFFFF" d="M824.964,472.169
	c-50.247,8.446-103.413,10.011-160.155,0.154v40.943l4.245-0.553l-0.124-36.252c54.355,9.854,131.542,7.243,171.349-4.383
	l-1.237,81.848c-34.076-21.766-85.625-40.705-134.799-39.793c-24.276,0.447-53.165,5.745-79.941,14.856l-0.163-33.97
	c11.428,2.004,24.303,3.375,36.745,4.296v-4.255c-13.908-1.188-28.352-2.87-41.076-5.005v40.506
	c-21.189,7.58-40.788,17.232-55.311,27.742l5.81,2.442c31.806-24.308,91.532-42.162,134.551-42.162
	c51.798,0,99.395,16.214,137.063,43.347c-8.099,2.8-97.022,32.784-178.395,27.109c-85.304-5.948-132.523-37.116-132.523-37.116
	l-0.374,288.875c-28.881-32.377-46.609-78.003-46.609-121.561c0-45.051,12.18-82.364,39.76-115.851v-8.355
	c-31.296,35.268-45.864,75.919-45.864,124.759c0,47.291,20.895,95.794,52.589,130.39c1.753,71.542,63.586,151.362,123.457,181.734
	c11.879-5.36,22.791-12.141,32.042-21.279l-5.691-3.072c-7.34,7.076-15.753,12.77-26.194,16.472
	C589.447,989.658,539.685,909.55,537.44,856.088c14.628,14.843,31.519,27.727,50.149,38.184
	c9.917,48.767,71.423,98.886,127.708,121.994c56.508-24.672,126.23-85.933,126.95-133.582c0.059-0.038,0.11-0.076,0.169-0.12
	l1.066-319.492c50.123,36.786,82.204,93.063,82.204,156.166c0,68.042-34.292,119.719-76.133,150.727v6.265
	c42.574-29.699,81.046-85.657,81.046-156.439c0-73.261-41.495-131.826-87.144-162.469l1.236-89.925L824.964,472.169z
	 M537.022,559.69c0,0,40.219,28.06,122.75,33.804c82.524,5.75,178.885-25.22,178.885-25.22l-1.072,310.946
	c-32.598,21.323-91.232,40.749-134.218,40.749c-67.458,0-126.257-29.499-166.423-74.081L537.022,559.69L537.022,559.69z
	 M836.969,886.197c-7.209,46.235-70.115,99.798-121.553,123.101c-51.47-21.927-105.192-64.058-119.329-110.412
	c32.126,16.295,68.984,25.533,108.155,25.533C746.568,924.418,799.446,910.078,836.969,886.197z"/>
<path id="path4110-2-5-9-67-8-4-1-8-2-9-2-4-9-3-7-6-6-9-1-4-1-8-7-3-2-9-7" inkscape:connector-curvature="0" fill="#FFFFFF" stroke="#FFFFFF" stroke-width="0.4958" d="
	M691.435,650.35l-22.007,76.624l-4.893-7.987l-94.359,3.268l90.29,3.877l9.368,23.799l16.852-55.824l7.431,104.296l22.007-78.964
	l4.343,7.761l94.3-4.625l-90.302-2.514l-8.675-21.166l-16.57,55.831L691.435,650.35z"/>
<g id="text3318-1-3-3-23-0-2-6-2-8-0-1-6-9-6-1-5-1-6-7-0-8-02-6-0-6-8-0-5" transform="scale(0.96910437,1.0318806)">
	<path id="path3387" fill="#FFFFFF" stroke="#FFFFFF" stroke-width="0.4958" d="M577.431,682.386v-3.611l12.272-1.846v-80.553
		l-12.272-1.772v-3.615h97.016v3.615l-12.259,1.772v80.553l12.259,1.846v3.611h-38.234v-3.611l12.272-1.846v-79.804h-45.011v79.804
		l12.272,1.846v3.611H577.431"/>
</g>
<g id="text3318-1-3-3-6-9-5-6-7-3-9-3-1-2-9-9-4-3-1-6-3-6-8-87-2-9-4-0-6-0" transform="scale(0.9880473,1.0120973)">
	<path id="path3390" fill="#FFFFFF" stroke="#FFFFFF" stroke-width="0.4958" d="M786.711,695.192
		c-7.787,0-14.731-1.043-20.863-3.129c-6.072-2.087-11.222-5.098-15.447-9.048c-4.177-3.942-7.356-8.749-9.546-14.421
		c-2.178-5.719-3.271-12.155-3.271-19.321c0-8.161,1.086-15.234,3.271-21.227c2.231-5.983,5.442-10.925,9.613-14.825
		c4.223-3.945,9.401-6.87,15.526-8.773c6.117-1.904,13.123-2.859,20.995-2.859c3.277,0,6.37,0.114,9.263,0.341
		c2.894,0.181,5.648,0.435,8.256,0.752c2.662,0.316,5.177,0.677,7.548,1.086c2.377,0.41,4.68,0.838,6.912,1.295l0.424,19.928h-4.694
		l-2.139-11.835c-3.316-1.95-7.189-3.446-11.605-4.489c-4.364-1.087-8.826-1.636-13.388-1.636c-5.548,0-10.507,0.73-14.878,2.177
		c-4.317,1.453-7.971,3.834-10.964,7.147c-2.993,3.266-5.297,7.594-6.913,12.99c-1.569,5.353-2.35,11.946-2.35,19.796
		c0,6.891,0.781,12.903,2.35,18.026c1.57,5.079,3.828,9.323,6.767,12.72c2.945,3.359,6.522,5.874,10.752,7.557
		c4.272,1.677,9.111,2.515,14.52,2.515c2.947,0,5.747-0.18,8.402-0.54c2.709-0.36,5.197-0.864,7.482-1.497
		c2.324-0.633,4.383-1.36,6.191-2.18c1.854-0.857,3.39-1.745,4.628-2.651l2.635-13.602h4.628l-0.424,21.426
		c-1.993,0.546-4.27,1.086-6.833,1.633c-2.561,0.496-5.297,0.95-8.189,1.36c-2.894,0.41-5.932,0.727-9.111,0.956
		C793.073,695.079,789.895,695.192,786.711,695.192"/>
</g>
<g id="text3318-1-3-3-2-6-4-1-3-9-9-6-5-1-6-2-0-2-1-0-4-0-6-1-2-3-1-0-4-4" transform="scale(0.9762946,1.024281)">
	<path id="path3393" fill="#FFFFFF" stroke="#FFFFFF" stroke-width="0.4958" d="M571.677,819.345v-3.67l12.444-1.864v-81.688
		l-12.444-1.797v-3.664h38.85v3.664l-12.449,1.797v36.421h45.645v-36.421l-12.437-1.797v-3.664h38.771v3.664l-12.436,1.797v81.688
		l12.436,1.864v3.67h-38.771v-3.67l12.437-1.864v-39.047h-45.645v39.047l12.449,1.864v3.67H571.677"/>
</g>
<g id="text3318-1-3-3-2-3-7-4-0-4-1-3-1-6-7-4-2-6-9-1-3-5-3-3-3-3-8-2-1-0-1" transform="scale(0.98100663,1.0193611)">
	<path id="path3396" fill="#FFFFFF" stroke="#FFFFFF" stroke-width="0.4958" d="M829.473,730.249v3.68l-11.27,1.806l-30.888,31.386
		l35.829,50.703l10.543,1.873v3.681h-24.566l-31.988-46.528l-12.43,10.622v30.351l13.957,1.873v3.681h-40.491v-3.681l12.504-1.873
		v-82.083l-12.504-1.813v-3.674h39.037v3.674l-12.504,1.813v44.228l43.544-44.228l-9.302-1.813v-3.674h30.528"/>
</g>
<path id="path6978-8-5-3-2-0-0-4-4-9-0-5-2-1-5-4-7-7-8-12-6" inkscape:connector-curvature="0" d="M672.24,965.268l-0.432,1.144
	l-0.902,1.546l-8.969-9.911l1.171-2.514l2.303,1.082l7.615-17.596l-4.239,0.15l0.602-1.628l7.91-3.859l4.638,1.415l-11.095,26.991"
	/>
<path id="path6980-9-2-7-3-3-8-1-1-50-8-3-6-8-7-81-8-5-6-3-9" inkscape:connector-curvature="0" d="M686.043,947.402
	c0.262-2.445,0.778-4.506,1.557-6.191c0.786-1.697,1.792-3.004,3.01-3.896c1.229-0.911,2.656-1.433,4.278-1.553
	c1.622-0.15,3.402,0.101,5.325,0.742c2.198,0.729,4.043,1.835,5.548,3.318c1.524,1.489,2.695,3.406,3.52,5.744
	c0.844,2.319,1.354,5.097,1.531,8.32c0.183,3.23,0.033,6.945-0.419,11.137c-0.498,4.599-1.334,8.339-2.512,11.211
	c-1.165,2.86-2.539,5.027-4.148,6.504c-1.596,1.459-2.616,1.232-4.54,1.478c-1.91,0.251-3.833-0.554-5.809-1.219
	c-1.74-0.572-3.311-1.754-4.672-2.477c-2.38-1.276-3.61-3.601-4.029-5.034v-9.873l7.02,5.43l0.49,2.833
	c-0.38,1.182-0.766,2.238-1.152,3.582c0.89,0.648,1.76,1.106,2.604,1.389c0.889,0.295,1.752,0.277,2.59-0.056
	c0.851-0.358,1.636-1.12,2.368-2.27c0.759-1.15,0.759-1.049,1.296-2.544c0.628-2.023,1.177-4.569,1.622-7.636
	c-0.955,0.101-1.923,0.107-2.904,0.025c-0.994-0.076-2.028-0.308-3.101-0.673c-1.648-0.546-3.114-1.357-4.409-2.425
	c-1.27-1.088-2.336-2.401-3.187-3.94c-0.831-1.553-1.42-3.331-1.772-5.335C685.815,951.989,685.781,949.79,686.043,947.402
	 M694.358,950.317c-0.202,1.848-0.269,3.456-0.202,4.833c0.078,1.357,0.274,2.494,0.562,3.431c0.314,0.937,0.707,1.679,1.204,2.244
	c0.51,0.534,1.086,0.917,1.752,1.137c1.439,0.477,2.879,0.741,4.318,0.779l0.052-0.496c0.746-6.85,0.98-12.117,0.693-15.799
	c-0.262-3.677-1.217-5.789-2.865-6.335c-1.465-0.49-2.656,0.144-3.546,1.911C695.424,943.788,694.77,946.546,694.358,950.317"/>
<path id="path6982-2-9-5-7-6-9-6-5-48-0-6-6-4-9-7-1-6-0-1-3" inkscape:connector-curvature="0" d="M742.153,944.228
	c0.274,2.451-0.026,4.751-0.91,6.9c-0.876,2.124-2.25,3.947-4.108,5.468c1.098,0.044,2.132,0.257,3.081,0.641
	c0.955,0.382,1.792,0.949,2.524,1.696c0.72,0.729,1.321,1.647,1.792,2.766c0.484,1.099,0.799,2.4,0.969,3.89
	c0.478,4.242-0.262,7.85-2.205,10.815c-1.93,2.96-5.188,5.316-9.78,7.051c-4.357,1.653-7.739,1.842-10.159,0.572
	c-2.402-1.295-3.841-4.097-4.325-8.402c-0.17-1.471-0.15-2.884,0.026-4.229c0.196-1.376,0.537-2.652,1.027-3.84
	c0.51-1.219,1.151-2.344,1.924-3.381c0.771-1.055,1.667-2.017,2.695-2.872c-2.021-0.095-3.65-0.804-4.9-2.118
	c-1.243-1.319-2.008-3.23-2.29-5.726c-0.195-1.766-0.124-3.45,0.236-5.078c0.374-1.652,1.021-3.173,1.943-4.568
	c0.916-1.421,2.126-2.696,3.611-3.822c1.485-1.138,3.251-2.099,5.272-2.866c1.969-0.748,3.735-1.144,5.312-1.144
	c1.589-0.044,2.957,0.251,4.109,0.886c1.163,0.628,2.1,1.564,2.799,2.815c0.701,1.219,1.146,2.734,1.341,4.544 M737.03,968.806
	c-0.177-1.584-0.425-2.947-0.74-4.084c-0.301-1.163-0.693-2.086-1.184-2.759c-0.471-0.704-1.046-1.15-1.733-1.333
	c-0.661-0.208-1.465-0.138-2.401,0.214c-0.909,0.338-1.641,0.854-2.185,1.527c-0.529,0.64-0.929,1.458-1.189,2.438
	c-0.243,0.956-0.367,2.074-0.367,3.35c-0.019,1.263,0.072,2.683,0.255,4.261c0.17,1.521,0.386,2.84,0.661,3.972
	c0.269,1.106,0.614,1.998,1.047,2.671c0.445,0.647,0.981,1.074,1.603,1.275c0.641,0.177,1.419,0.088,2.335-0.257
	c0.929-0.357,1.687-0.848,2.256-1.483c0.589-0.666,1.028-1.458,1.321-2.382c0.309-0.956,0.478-2.042,0.504-3.262
	C737.253,971.703,737.186,970.327,737.03,968.806 M733.674,947.438c-0.131-1.207-0.321-2.3-0.55-3.28
	c-0.234-0.98-0.549-1.779-0.948-2.395c-0.379-0.646-0.857-1.068-1.42-1.275c-0.543-0.24-1.204-0.208-1.976,0.087
	c-0.758,0.283-1.347,0.729-1.779,1.333c-0.432,0.584-0.746,1.308-0.936,2.175c-0.202,0.842-0.301,1.797-0.301,2.865
	c0.026,1.062,0.091,2.2,0.215,3.407c0.15,1.293,0.327,2.438,0.544,3.424c0.236,0.974,0.529,1.772,0.889,2.382
	c0.354,0.603,0.792,1.006,1.315,1.207c0.523,0.202,1.158,0.158,1.91-0.131c0.772-0.289,1.394-0.723,1.845-1.289
	c0.478-0.578,0.825-1.276,1.041-2.105c0.236-0.835,0.36-1.785,0.366-2.859C733.902,949.915,733.824,948.727,733.674,947.438"/>
<path id="path6984-1-7-6-7-2-3-3-2-1-2-1-9-8-4-3-8-0-9-08-1" inkscape:connector-curvature="0" d="M765.761,957.619l0.367,0.548
	l0.398,1.614l-10.205,11.149l-0.962-3.494l1.977-4.645l-4.743-22.146l-3.055,3.274l-1.329-4.6l5.751-6.687l3.4-1.093l6.347,26.596"
	/>
<path id="path4298-01-3-9-0-1-1-0-1-2-3-0-4-7-9-8-0-0-7-9-4-5-7-9-7-5-59-8" inkscape:connector-curvature="0" fill="#222222" d="
	M861.259,668.911c-0.288,0.035-0.596,0.013-0.87,0.079v0.047c-4.174,0.864-6.607,3.975-6.379,8.283
	c0.092,3.532,3.899,7.491,8.125,6.97c1.498-0.189,2.827-0.729,3.912-1.533l10.422,8.892l0.706,21.286l-0.085,0.138l28.536,22.7
	l-3.879,36.889l9.61,8.195l1.838-3.337l-7.746-6.285l3.906-37.336l0.085-0.05l-28.843-22.775l-0.949-21.053l-11.212-10.228
	c0.49-1.17,0.693-2.539,0.549-4.029C868.532,671.114,864.941,668.669,861.259,668.911L861.259,668.911z M861.259,672.61
	c2.067-0.211,3.898,1.351,4.102,3.437s-1.315,3.941-3.382,4.154c-2.067,0.208-3.86-1.313-4.057-3.396
	C857.719,674.722,859.19,672.823,861.259,672.61L861.259,672.61z M862.651,692.686c-0.281,0-0.582,0.05-0.87,0.075
	c-0.294,0.032-0.549,0.013-0.831,0.082c-4.167,0.861-5.861,4.154-5.724,8.12c0.203,3.281,3.022,5.907,6.267,6.517l0.478,9.188
	l31.446,24.868l-3.579,38.763c-1.066,0.943-1.733,2.224-2.093,3.701l-1.439,2.352l-6.568,46.736l4.278-6.291l4.985-34.885
	c1.419,1.886,3.604,2.772,5.731,2.671c4.632-0.232,7.424-3.833,7.156-8.503c-0.242-4.027-3.964-7.038-7.896-6.661
	c-0.105,0.019-0.256-0.088-0.393-0.202l0.157-0.357l3.546-38.77l-32.31-25.496l-0.354-7.165c3.611-0.867,5.514-4.38,5.26-7.749
	C869.618,695.984,866.805,692.691,862.651,692.686L862.651,692.686z M894.215,693.119c-0.287,0.031-0.595,0.012-0.87,0.082
	c-4.173,0.861-5.985,4.167-5.764,8.346c0.184,1.898,0.845,3.394,1.871,4.456l0.085,0.044c0.405,0.402,0.844,0.722,1.348,1
	l27.115,21.995l-0.026-4.229l-20.436-17.339c2.976-1.119,5.108-3.953,4.729-7.905C901.824,694.91,898.468,692.912,894.215,693.119
	L894.215,693.119z M862.22,696.393c2.067-0.207,3.898,1.358,4.102,3.438c0.203,2.086-1.315,3.939-3.382,4.154
	c-2.067,0.207-3.899-1.313-4.101-3.394C858.641,698.505,860.153,696.606,862.22,696.393z M894.7,696.714
	c2.067-0.214,3.898,1.352,4.102,3.432c0.203,2.086-1.315,3.939-3.382,4.154c-2.067,0.213-3.899-1.308-4.103-3.394
	C891.115,698.819,892.632,696.921,894.7,696.714z M867.819,730.725c-0.287,0.032-0.595,0.013-0.87,0.082
	c-4.174,0.861-6.483,4.261-6.064,8.622c0.452,4.651,3.709,6.769,7.89,6.537c2.408-0.133,4.193-1.063,5.365-2.609l7.516,6.027
	l-2.642,24.108l-4.103,6.114l-7.569,66.132l4.318-5.16l7-60.029l3.866-5.141l2.912-27.551l-9.905-8.038
	c0.092-0.673,0.132-1.363,0.092-2.118C875.428,733.446,872.432,730.254,867.819,730.725L867.819,730.725z M868.01,734.591
	c2.067-0.202,3.898,1.357,4.102,3.437c0.196,2.086-1.321,3.94-3.389,4.154c-2.067,0.207-3.898-1.313-4.095-3.394
	C864.425,736.701,865.935,734.804,868.01,734.591z M867.551,752.89c-0.287,0.032-0.595,0.013-0.876,0.076
	c-4.168,0.861-6.058,4.575-5.855,8.126c-0.026,2.533,1.394,5.153,3.951,6.354l-10.82,90.892l3.997-3.915l10.467-86.38
	c2.911-0.238,6.692-2.67,6.653-7.855C875.035,755.329,871.176,752.646,867.551,752.89L867.551,752.89z M867.512,756.63
	c2.067-0.207,3.853,1.357,4.056,3.437c0.202,2.086-1.27,3.94-3.336,4.149c-2.067,0.213-3.899-1.308-4.102-3.394
	C863.927,758.735,865.445,756.843,867.512,756.63z M894.477,783.012c2.067-0.208,3.899,1.357,4.102,3.437
	c0.282,2.583-1.393,4.249-3.46,4.462c-2.061,0.208-4.095-1.734-3.978-3.707C890.938,785.118,892.41,783.219,894.477,783.012z"/>
<path id="path25330-0-4-8-7-8-8" inkscape:connector-curvature="0" stroke="#E6E6E6" stroke-width="0.4958" d="M578.17,563.105
	c0,0,44.863,20.038,111.014,18.58c71.776-1.577,135.016-23.148,135.016-23.148s-58.281-34.772-123.018-33.694
	C624.812,526.115,578.17,563.105,578.17,563.105z"/>
<path id="path25340-5-5-8-9-4-6" inkscape:connector-curvature="0" fill="#00E3FF" stroke="#E6E6E6" stroke-width="0.4958" d="
	M675.302,510.929v-27.747c44.739,9.538,108.757,8.843,156.165-0.319l-0.333,57.773c0,0-50.189-25.375-92.312-30.103
	C710.595,507.36,675.302,510.929,675.302,510.929L675.302,510.929z"/>
<path id="path25350-5-3-7-9-0-1" inkscape:connector-curvature="0" stroke="#E6E6E6" stroke-width="0.4958" d="M630.177,522.108
	v-20.697c9.066,1.922,19.488,3.497,29.006,3.824l-0.34,8.597C650.286,515.661,639.623,518.605,630.177,522.108z"/>
<path id="path25352-6-0-8-6-5-8" inkscape:connector-curvature="0" stroke="#E6E6E6" stroke-width="0.4958" d="M523.114,820.65
	l0.883-207.159c0,0-35.267,41.032-33.475,106.852C492.106,778.538,523.114,820.65,523.114,820.65z"/>
<path id="path25354-9-7-6-6-0-4" inkscape:connector-curvature="0" stroke="#E6E6E6" stroke-width="0.4958" d="M544.192,870.485
	l38.662,27.382c12.089,46.235,50.803,77.494,92.658,107l-21.327,12.738C593.961,978.409,561.842,927.467,544.192,870.485z"/>
<g id="text31669-8" transform="matrix(-0.154401,0.28951641,-0.28951641,-0.154401,546.31596,1997.3979)">
	<path id="path3244" fill="#FFFFFF" d="M-2837.665,1546.895l2.274,0.438l0.031,7.711l50.447,9.811l2.219-7.284l2.274,0.438
		l-3.485,23.345l-2.263-0.417l0.003-7.686l-22.482-4.39l-4.089,27.462l22.492,4.366l2.215-7.282l2.266,0.463l-3.456,23.309
		l-2.274-0.437l0.011-7.714l-50.457-9.783l-2.252,7.257l-2.283-0.457l3.476-23.32l2.266,0.466l0.049,7.701l24.112,4.673
		l4.079-27.435l-24.113-4.675l-2.252,7.254l-2.283-0.454L-2837.665,1546.895"/>
	<path id="path3246" fill="#FFFFFF" d="M-2849.093,1629.048l-2.213-0.608l4.261-18.833l2.227,0.597l-0.344,6.803l49.104,34.236
		l-1.852,8.127l-58.094,5.606l-2.784,6.952l-2.229-0.596l5.474-24.251l2.238,0.613l-0.612,8.01l17.566-1.21l5.106-22.584
		l-14.966-10.232L-2849.093,1629.048 M-2802.577,1651.599l-25.164-17.354l-4.518,19.943L-2802.577,1651.599"/>
	<path id="path3248" fill="#FFFFFF" d="M-2873.905,1725.273l-3.135,7.227l-20.22-8.036l0.837-2.706l19.353,1.97l15.134-49.241
		l2.176,0.784l-1.081,7.581l48.708,17.455l3.28-6.79l2.202,0.792l-6.933,22.406l-2.178-0.783l1.133-7.563l-48.302-17.306
		l-8.082,26.362l48.294,17.288l3.282-6.786l2.174,0.782l-6.867,22.373l-2.192-0.774l1.148-7.574L-2873.905,1725.273"/>
	<path id="path3250" fill="#FFFFFF" d="M-2884.031,1752.93l-3.688,6.556l-2.154-0.907l8.113-21.909l2.138,0.916l-1.523,7.479
		l47.801,20.194l3.672-6.588l2.118,0.923l-8.095,21.9l-2.147-0.933l1.552-7.473L-2884.031,1752.93"/>
	<path id="path3252" fill="#FFFFFF" d="M-2869.086,1786.489c-3.677-1.81-7.129-3.156-10.365-4.05
		c-3.2-0.916-6.175-1.205-8.868-0.877c-2.699,0.309-5.125,1.335-7.292,3.054c-2.113,1.737-3.939,4.337-5.453,7.766
		c-1.497,3.465-2.191,6.593-2.038,9.447c0.156,2.857,1.01,5.474,2.501,7.863c1.516,2.399,3.617,4.625,6.364,6.641
		c2.735,1.997,5.952,3.918,9.634,5.73c3.668,1.793,7.093,3.13,10.294,3.999c3.191,0.897,6.114,1.17,8.779,0.788
		c2.662-0.337,5.053-1.388,7.168-3.121c2.096-1.728,3.904-4.32,5.4-7.786c1.504-3.447,2.193-6.59,2.1-9.411
		c-0.119-2.829-0.922-5.432-2.404-7.802c-1.474-2.356-3.554-4.546-6.246-6.544
		C-2862.241,1790.159-2865.413,1788.284-2869.086,1786.489 M-2865.453,1778.159c4.677,2.296,8.474,4.856,11.372,7.649
		c2.904,2.836,4.969,5.892,6.22,9.178c1.256,3.287,1.696,6.801,1.319,10.575c-0.341,3.749-1.435,7.722-3.281,11.915
		c-1.766,4.06-3.886,7.451-6.328,10.155c-2.478,2.721-5.282,4.671-8.5,5.842c-3.18,1.155-6.759,1.526-10.67,1.036
		c-3.921-0.437-8.232-1.843-12.926-4.13c-4.675-2.298-8.484-4.878-11.423-7.783c-2.892-2.865-4.969-5.98-6.231-9.328
		c-1.249-3.358-1.736-6.917-1.41-10.705c0.313-3.761,1.352-7.636,3.131-11.706c1.767-4.059,3.897-7.43,6.375-10.109
		c2.523-2.676,5.369-4.58,8.589-5.754c3.242-1.162,6.829-1.517,10.782-1.028C-2874.474,1774.473-2870.145,1775.87-2865.453,1778.159
		"/>
	<path id="path3254" fill="#FFFFFF" d="M-2917.481,1823.056l2.01,1.163l-2.472,7.171l45.015,26.404l4.49-5.985l2.019,1.18
		l-10.937,20.522l-2.02-1.182l2.523-7.153l-20.081-11.772l-12.833,24.127l20.065,11.783l4.482-6.006l2.018,1.184l-10.9,20.499
		l-2.021-1.182l2.516-7.17l-44.988-26.395l-4.545,5.971l-2.012-1.167l10.905-20.5l2.02,1.182l-2.471,7.172l21.51,12.612
		l12.832-24.127l-21.511-12.617l-4.532,5.989l-2.003-1.192L-2917.481,1823.056"/>
	<path id="path3256" fill="#FFFFFF" d="M-2955.172,1895.533l-1.923-1.326l10.209-16.065l1.939,1.315l-2.547,6.217l35.742,48.658
		l-4.399,6.934l-57.346-14.721l-4.916,5.514l-1.932-1.343l13.145-20.658l1.932,1.343l-3.195,7.237l17.165,4.878l12.264-19.216
		l-10.986-14.656L-2955.172,1895.533 M-2918.088,1932.425l-18.377-24.772l-10.826,17.026L-2918.088,1932.425"/>
	<path id="path3258" fill="#FFFFFF" d="M-2986.105,1936.886c0.779-1.026,1.648-1.875,2.621-2.575
		c0.924-0.671,1.932-1.143,2.951-1.393l7.691,5.797l-1.161,1.567l-4.302-0.866c-0.678-0.003-1.31,0.152-1.858,0.424
		c-0.565,0.322-1.058,0.745-1.441,1.288c-0.729,0.955-0.925,2.212-0.549,3.816c0.364,1.615,1.418,3.674,3.136,6.168
		c1.742,2.53,4.236,5.54,7.497,9.086c3.226,3.567,7.395,7.759,12.479,12.573l9.986,9.521l5.344-5.201l1.825,1.469l-26.839,35.844
		l-1.833-1.482l3.556-6.642l-40.923-32.858l-5.38,5.173l-1.823-1.465l13.829-18.473l1.834,1.486l-3.486,6.647l40.528,32.571
		l10.365-13.862l-10.071-9.565c-5.223-4.988-9.664-9.446-13.345-13.423c-3.676-3.958-6.549-7.514-8.632-10.693
		c-2.026-3.144-3.242-5.955-3.606-8.429C-2988.068,1940.98-2987.529,1938.818-2986.105,1936.886"/>
	<path id="path3260" fill="#FFFFFF" d="M-3030.289,2019.492c1.502,1.388,2.998,2.444,4.482,3.189c1.48,0.701,2.979,1.032,4.53,0.927
		c1.553-0.057,3.136-0.586,4.754-1.586c1.618-0.954,3.32-2.447,5.064-4.507l4.315-5.011l-18.528-16.962l-4.162,4.817
		c-1.755,2.041-3.057,3.912-3.9,5.627c-0.855,1.698-1.279,3.301-1.277,4.815c-0.01,1.565,0.397,3.018,1.183,4.41
		C-3033.043,2016.643-3031.87,2018.075-3030.289,2019.492 M-3009.829,2021.751c-2.586,3.007-5.07,5.188-7.49,6.594
		c-2.421,1.406-4.721,2.179-6.908,2.353c-2.189,0.171-4.241-0.18-6.177-1.045c-1.956-0.856-3.732-2.03-5.368-3.509
		c-1.672-1.551-3.006-3.234-3.992-5.123c-1.002-1.838-1.519-3.87-1.545-6.116c-0.011-2.254,0.547-4.673,1.678-7.312
		c1.117-2.63,3.012-5.468,5.637-8.518l15.603-18.083l1.725,1.564l-3.956,6.383l38.77,35.494l5.356-4.371l1.744,1.603l-15.848,18.393
		l-1.747-1.602l5.104-7.734l-16.951-15.501L-3009.829,2021.751"/>
	<path id="path3262" fill="#FFFFFF" d="M-3051.361,2019.296l1.643,1.699l-4.383,6.11l36.392,38.075l6.011-4.402l1.627,1.709
		l-16.256,16.328l-1.635-1.725l4.408-6.056l-16.227-16.995l-19.097,19.177l16.218,16.976l6.018-4.386l1.627,1.709l-16.214,16.284
		l-1.626-1.708l4.391-6.047l-36.371-38.084l-6.039,4.347l-1.627-1.709l16.214-16.281l1.625,1.705l-4.374,6.086l17.393,18.201
		l19.091-19.154l-17.391-18.199l-6.037,4.35l-1.627-1.709L-3051.361,2019.296"/>
	<path id="path3264" fill="#FFFFFF" d="M-3096.294,2064.114l1.495,1.822l-4.84,5.703l33.514,40.736l6.335-3.873l1.518,1.832
		l-17.497,14.934l-1.504-1.839l4.86-5.665l-27.478-33.409l5.805,49.551l1.133,1.388l6.351-3.885l1.518,1.831l-17.454,14.892
		l-1.522-1.833l4.861-5.667l-33.499-40.749l-6.351,3.843l-1.537-1.825l17.472-14.9l1.493,1.828l-4.83,5.715l27.843,33.847
		l-5.806-49.553l-1.496-1.825l-6.369,3.85l-1.493-1.826L-3096.294,2064.114"/>
	<path id="path3266" fill="#FFFFFF" d="M-3144.652,2105.11l1.379,1.931l-5.271,5.295l30.46,43.162l6.622-3.376l1.363,1.941
		l-18.588,13.458l-1.361-1.938l5.274-5.253l-24.942-35.372l2.056,49.723l1.038,1.457l6.633-3.355l1.375,1.933l-18.58,13.432
		l-1.361-1.939l5.293-5.265l-30.453-43.139l-6.651,3.321l-1.38-1.932l18.571-13.449l1.371,1.957l-5.254,5.288l25.297,35.835
		l-2.073-49.715l-1.374-1.93l-6.669,3.329l-1.361-1.939L-3144.652,2105.11 M-3130.775,2175.371c2.55-1.856,4.855-3.109,6.873-3.756
		c1.988-0.63,3.783-0.844,5.369-0.603c1.61,0.295,3.025,0.917,4.27,1.902c1.251,0.96,2.381,2.142,3.422,3.488l-5.684,4.114
		c-1.918-2.411-3.927-3.825-6.021-4.245c-2.127-0.449-4.243,0.136-6.406,1.698c-2.149,1.554-3.374,3.405-3.655,5.565
		c-0.308,2.151,0.381,4.541,2.013,7.152l-5.686,4.115c-0.932-1.421-1.65-2.891-2.156-4.409c-0.494-1.499-0.622-3.08-0.344-4.719
		c0.27-1.568,1.028-3.237,2.305-4.957C-3135.253,2179.024-3133.351,2177.217-3130.775,2175.371"/>
	<path id="path3268" fill="#FFFFFF" d="M-3224.028,2159.17l1.176,2.04l-7.271,5.618l26.155,45.544l1.896-1.081
		c3.215-1.871,5.886-3.498,8.012-4.925c2.081-1.427,3.538-2.521,4.346-3.245l-3.676-8.682l2.498-1.423l7.013,12.211l-43.658,25.226
		l-7.013-12.211l2.512-1.478l5.66,7.559c0.494-0.172,1.223-0.47,2.147-0.899c0.908-0.413,1.975-0.939,3.157-1.569
		c1.204-0.595,2.487-1.279,3.905-2.035c1.371-0.731,2.771-1.525,4.206-2.334l1.822-1.063l-26.117-45.475l-8.467,3.499l-1.183-2.057
		L-3224.028,2159.17"/>
	<path id="path3270" fill="#FFFFFF" d="M-3259.904,2182.458l-6.066,4.298l23.381,47.386l7.131-2.176l1.04,2.112l-38.598,18.915
		l-6.352-12.884l2.54-1.22l5.508,8.089c0.887-0.291,1.933-0.693,3.147-1.179c1.198-0.483,2.394-1.005,3.614-1.57
		c1.214-0.529,2.356-1.074,3.442-1.606c1.083-0.487,1.913-0.885,2.524-1.167l8.396-4.114l-10.371-20.999l-13.899,6.782l1.978,7.01
		l-2.447,1.193l-8.161-16.526l2.473-1.185l4.386,5.91l13.891-6.798l-10.825-21.932l-10.143,4.959
		c-1.583,0.775-3.071,1.525-4.465,2.247c-1.371,0.731-2.62,1.397-3.702,2.018c-1.114,0.594-2.041,1.135-2.791,1.601
		c-0.783,0.485-1.339,0.873-1.681,1.123l2.719,11l-2.522,1.254l-6.28-14.545l41.079-20.123L-3259.904,2182.458"/>
	<path id="path3272" fill="#FFFFFF" d="M-3317.893,2211.263l-7.055,1.502l-0.905-2.184l17.391-6.949l0.9,2.208l-5.41,3.452
		l-7.832,32.285l25.212,17.644l6.434-1.326l0.913,2.202l-21.965,8.752l-0.907-2.182l6.322-3.778l-18.057-12.693l-5.324,22.046
		l7.025-1.558l0.917,2.199l-17.436,6.953l-0.896-2.189l5.419-3.433l6.45-26.714l-29.839-20.826l-6.495,1.293l-0.898-2.188
		l21.95-8.768l0.904,2.186l-6.293,3.828l22.798,15.928L-3317.893,2211.263"/>
	<path id="path3274" fill="#FFFFFF" d="M-3367.872,2227.136l0.733,2.253l-6.666,3.306l16.346,50.19l7.385-1.068l0.724,2.255
		l-21.963,6.743l-0.715-2.238l6.672-3.264l-7.279-22.376l-25.809,7.938l7.277,22.351l7.384-1.047l0.743,2.25l-21.928,6.746
		l-0.716-2.241l6.668-3.284l-16.337-50.17l-7.405,1.01l-0.743-2.25l21.93-6.746l0.725,2.258l-6.658,3.303l7.8,23.992l25.81-7.933
		l-7.804-23.993l-7.411,1.018l-0.725-2.238L-3367.872,2227.136"/>
	<path id="path3276" fill="#FFFFFF" d="M-3443.452,2252.42l-7.456,0.586l-0.618-2.295l22.307-5.432l0.612,2.293l-6.858,2.892
		l13.574,50.967l7.453-0.632l0.607,2.274l-22.303,5.457l-0.607-2.296l6.851-2.864L-3443.452,2252.42"/>
	<path id="path3278" fill="#FFFFFF" d="M-3508.147,2261.842l23.436-4.39l0.494,2.336l-7.843,2.671l4.168,19.581
		c0.688-0.458,1.583-0.979,2.68-1.612c1.082-0.577,2.247-1.198,3.51-1.825c1.277-0.594,2.604-1.163,3.979-1.694
		c1.376-0.531,2.709-0.926,4.002-1.165c2.897-0.528,5.443-0.643,7.652-0.328c2.174,0.332,4.055,1.089,5.653,2.295
		c1.582,1.258,2.905,2.949,3.98,5.107c1.078,2.163,1.958,4.81,2.608,7.941l3.715,17.427l6.652-0.066l0.488,2.316l-21.751,4.051
		l-0.495-2.31l7.006-2.495l-3.687-17.375c-0.472-2.189-1.054-4.049-1.777-5.606c-0.702-1.521-1.58-2.726-2.649-3.626
		c-1.098-0.882-2.4-1.452-3.917-1.729c-1.549-0.257-3.352-0.179-5.436,0.187c-1.02,0.207-2.034,0.454-3.083,0.768
		c-1.066,0.364-2.088,0.727-3.091,1.129c-1.021,0.406-1.979,0.802-2.859,1.208c-0.899,0.411-1.705,0.771-2.398,1.097l6,28.229
		l7.502-0.225l0.494,2.312l-22.605,4.215l-0.498-2.312l7.016-2.477l-10.96-51.526l-7.492,0.202L-3508.147,2261.842"/>
	<path id="path3280" fill="#FFFFFF" d="M-3513.211,2262.689l0.324,2.357l-7.183,1.977l7.259,52.053l7.506,0.359l0.32,2.314
		l-22.935,2.495l-0.332-2.331l7.193-1.939l-3.244-23.217l-26.944,2.938l3.226,23.202l7.505,0.357l0.32,2.315l-22.893,2.493
		l-0.324-2.335l7.193-1.939l-7.257-52.05l-7.508-0.383l-0.332-2.351l22.905-2.477l0.322,2.334l-7.183,1.977l3.459,24.885
		l26.966-2.923l-3.48-24.876l-7.506-0.4l-0.323-2.314L-3513.211,2262.689"/>
	<path id="path3282" fill="#FFFFFF" d="M-3576.494,2269.366l0.142,2.344l-7.339,1.406l3.303,52.308l7.483,0.958l0.142,2.344
		l-23.133,0.629l-0.14-2.34l7.33-1.356l-2.698-42.894l-24.587,41.878l0.091,1.756l7.487,0.934l0.142,2.366l-23.084,0.63
		l-0.143-2.344l7.33-1.356l-3.296-52.313l-7.472-0.987l-0.151-2.36l23.083-0.63l0.144,2.344l-7.328,1.4l2.742,43.479l24.587-41.898
		l-0.15-2.337l-7.483-0.979l-0.142-2.344L-3576.494,2269.366"/>
	<path id="path3284" fill="#FFFFFF" d="M-3640.298,2270.903l-0.031,2.364l-7.438,0.783l-0.707,52.277l7.408,1.542l-0.042,2.348
		l-23.173-1.245l0.042-2.324l7.422-0.772l0.597-42.844l-27.802,39.614l-0.029,1.778l7.42,1.558l-0.042,2.326l-23.128-1.222
		l0.029-2.343l7.434-0.757l0.716-52.26l-7.404-1.588l0.022-2.363l23.148,1.237l-0.037,2.346l-7.433,0.802l-0.597,43.43
		l27.793-39.631l0.031-2.346l-7.401-1.586l0.03-2.345l23.182,1.219 M-3670.661,2333.734c3.186,0.151,5.824,0.621,7.849,1.369
		c2.001,0.764,3.598,1.743,4.746,2.915c1.148,1.219,1.923,2.568,2.37,4.115c0.443,1.526,0.677,3.142,0.703,4.798l-7.076-0.36
		c-0.127-3.051-0.936-5.399-2.421-7.044c-1.453-1.624-3.537-2.521-6.21-2.654c-2.679-0.156-4.786,0.517-6.292,2
		c-1.521,1.486-2.394,3.736-2.602,6.764l-7.085-0.38c0.085-1.671,0.374-3.249,0.848-4.723c0.481-1.498,1.325-2.762,2.526-3.853
		c1.145-1.066,2.762-1.86,4.823-2.395C-3676.469,2333.757-3673.858,2333.561-3670.661,2333.734"/>
	<path id="path3286" fill="#FFFFFF" d="M-3739.412,2318.948l6.33,2.183l-0.258,2.328l-23.887-3.844l0.274-2.319l7.415,0.024
		l-13.392-32.989l-18.786,27.827l6.285,2.159l-0.273,2.315l-16.963-2.726l0.264-2.332l5.572-0.261l23.05-33.17
		c2.038-2.939,3.897-5.56,5.619-7.785c1.677-2.228,3.359-4.077,5.019-5.525c1.649-1.468,3.36-2.494,5.106-3.107
		c1.74-0.587,3.677-0.698,5.809-0.363c1.288,0.217,2.539,0.589,3.762,1.154c1.207,0.533,2.2,1.156,2.965,1.856l-0.842,10.594
		l-1.93-0.305l-1.601-4.567c-0.413-0.775-0.976-1.38-1.704-1.896c-0.757-0.499-1.538-0.829-2.332-0.947
		c-1.027-0.154-2.043-0.106-3.043,0.176c-1.012,0.293-2.055,0.802-3.111,1.592c-1.081,0.779-2.188,1.801-3.325,3.084
		c-1.137,1.286-2.35,2.88-3.601,4.769L-3739.412,2318.948"/>
	<path id="path3288" fill="#FFFFFF" d="M-3788.505,2254.634l-0.428,2.31l-7.508-0.607l-9.907,50.927l7.069,2.872l-0.438,2.29
		l-22.746-5.49l0.446-2.295l7.509,0.65l4.409-22.709l-26.728-6.445l-4.407,22.709l7.066,2.877l-0.447,2.271l-22.696-5.475
		l0.44-2.292l7.5,0.633l9.897-50.92l-7.063-2.924l0.45-2.274l22.694,5.479l-0.449,2.27l-7.498-0.587l-4.728,24.347l26.721,6.45
		l4.715-24.345l-7.049-2.904l0.446-2.294L-3788.505,2254.634"/>
	<path id="path3290" fill="#FFFFFF" d="M-3867.758,2237.474l-6.896-3.326l0.569-2.248l22.416,6.802l-0.562,2.242l-7.485-1.025
		l-12.721,50.145l6.924,3.291l-0.572,2.248l-22.423-6.796l0.581-2.254l7.465,1.08L-3867.758,2237.474"/>
	<path id="path3292" fill="#FFFFFF" d="M-3929.933,2259.424c-0.507,1.652-0.703,3.176-0.602,4.569
		c0.094,1.395,0.538,2.675,1.367,3.882c0.801,1.198,1.997,2.325,3.578,3.334c1.573,1.036,3.594,2.014,6.058,2.891l8.519,3.093
		l6.592-21.14l-9.011-3.261c-2.553-0.92-4.76-1.437-6.584-1.502c-1.853-0.051-3.405,0.232-4.666,0.861
		c-1.313,0.631-2.36,1.574-3.189,2.831C-3928.702,2256.239-3929.398,2257.715-3929.933,2259.424 M-3925.856,2231.493
		c-0.609,1.949-0.818,3.735-0.628,5.396c0.165,1.627,0.764,3.14,1.791,4.535c1.003,1.431,2.455,2.713,4.383,3.923
		c1.9,1.2,4.296,2.338,7.183,3.374l9.87,3.572l7.33-23.5c-1.247-0.529-2.548-1.034-3.909-1.552
		c-1.164-0.487-2.455-0.995-3.875-1.549c-1.421-0.505-2.844-1.015-4.239-1.536c-2.58-0.928-4.856-1.433-6.821-1.493
		c-1.953-0.063-3.671,0.222-5.094,0.89c-1.456,0.685-2.667,1.69-3.649,3.029
		C-3924.467,2227.951-3925.256,2229.589-3925.856,2231.493 M-3879.726,2230.479l-0.684,2.218l-7.44-1.453l-15.35,49.286l6.747,3.654
		l-0.694,2.202l-25.243-9.156c-3.87-1.393-6.997-2.866-9.378-4.397c-2.396-1.523-4.202-3.136-5.413-4.841
		c-1.205-1.709-1.894-3.51-2.034-5.38c-0.157-1.859,0.083-3.794,0.713-5.826c0.541-1.756,1.323-3.256,2.353-4.484
		c1-1.257,2.177-2.244,3.547-2.975c1.314-0.748,2.804-1.228,4.43-1.462c1.624-0.23,3.315-0.21,5.082,0.025
		c-2.313-1.117-4.307-2.378-6.008-3.8c-1.718-1.409-3.074-2.972-4.069-4.632c-0.973-1.603-1.584-3.36-1.799-5.185
		c-0.25-1.858-0.073-3.758,0.528-5.707c0.754-2.436,1.85-4.51,3.313-6.24c1.416-1.703,3.231-2.964,5.397-3.782
		c2.172-0.794,4.75-1.086,7.711-0.926c2.955,0.208,6.361,1.014,10.203,2.399c3.071,1.122,6.126,2.268,9.131,3.445
		c3.019,1.19,5.84,2.262,8.411,3.198L-3879.726,2230.479"/>
	<path id="path3294" fill="#FFFFFF" d="M-3936.813,2211.982l-7.332-1.966l-18.69,47.93l6.488,4.107l-0.84,2.147l-40.403-17.861
		l5.074-13.011l2.649,1.163l-2.144,9.37c0.816,0.49,1.832,1.054,3.025,1.685c1.166,0.599,2.386,1.214,3.628,1.772
		c1.243,0.623,2.414,1.172,3.551,1.674c1.11,0.538,1.984,0.93,2.59,1.194l8.796,3.895l8.29-21.254l-14.547-6.429l-3.775,5.923
		l-2.562-1.12l6.508-16.715l2.562,1.12l-1.314,7.122l14.535,6.436l8.657-22.174l-10.599-4.695c-1.666-0.739-3.241-1.413-4.718-2.026
		c-1.497-0.605-2.848-1.147-4.035-1.601c-1.212-0.483-2.229-0.844-3.105-1.145c-0.886-0.295-1.541-0.487-1.969-0.574l-6.211,9.048
		l-2.658-1.18l6.354-14.031l43.029,19.035L-3936.813,2211.982"/>
	<path id="path3296" fill="#FFFFFF" d="M-4034.735,2208.259c-0.973,2.103-1.582,4.052-1.82,5.806
		c-0.254,1.763-0.098,3.395,0.491,4.89c0.54,1.522,1.542,2.952,2.989,4.302c1.449,1.329,3.394,2.642,5.844,3.911l3.824,1.983
		l11.647-24.968l-4.062-2.124c-2.445-1.271-4.633-2.049-6.535-2.321c-1.945-0.251-3.677-0.095-5.182,0.479
		c-1.52,0.586-2.87,1.556-4.03,2.942C-4032.73,2204.548-4033.782,2206.26-4034.735,2208.259 M-4010.1,2200.636l8.176-17.556
		l-7.816-5.371l0.966-2.095l22.087,11.496l-0.985,2.059l-6.71-2.159l-21.679,46.493l6.249,4.53l-0.973,2.103l-19.772-10.289
		c-3.683-1.923-6.549-3.919-8.615-6.004c-2.108-2.062-3.582-4.212-4.407-6.391c-0.838-2.177-1.128-4.347-0.866-6.544
		c0.252-2.238,0.885-4.428,1.89-6.614c0.998-2.157,2.29-4.045,3.854-5.714c1.529-1.674,3.359-2.921,5.531-3.673
		c2.145-0.779,4.65-0.99,7.487-0.65c2.851,0.333,6.086,1.456,9.673,3.315L-4010.1,2200.636"/>
	<path id="path3298" fill="#FFFFFF" d="M-4058.271,2146.562c4.125,2.502,7.491,5.313,10.102,8.44
		c2.578,3.123,4.385,6.45,5.416,10.013c1.016,3.55,1.22,7.234,0.642,11.115c-0.59,3.884-2.004,7.801-4.193,11.817
		c-2.504,4.543-5.267,8.138-8.255,10.772c-3.026,2.609-6.246,4.326-9.667,5.156c-3.448,0.845-7.094,0.803-10.926-0.093
		c-3.831-0.893-7.826-2.606-12.028-5.153c-1.721-1.049-3.338-2.107-4.789-3.14c-1.496-1.056-2.877-2.081-4.145-3.077
		c-1.334-1.049-2.55-2.052-3.692-3.049c-1.129-0.978-2.224-1.978-3.258-2.916l5.884-11.274l2.492,1.52l-2.492,7.294
		c1.161,2.135,2.754,4.225,4.772,6.219c1.986,2.016,4.177,3.74,6.597,5.207c2.953,1.793,5.81,2.979,8.567,3.567
		c2.744,0.592,5.409,0.436,8.017-0.435c2.581-0.879,5.143-2.519,7.658-5.032c2.46-2.49,4.909-5.918,7.315-10.274
		c2.121-3.841,3.55-7.452,4.291-10.805c0.72-3.346,0.832-6.431,0.313-9.276c-0.522-2.791-1.65-5.355-3.377-7.642
		c-1.759-2.317-4.065-4.34-6.93-6.068c-1.558-0.93-3.107-1.733-4.635-2.407c-1.539-0.669-3.022-1.189-4.421-1.573
		c-1.425-0.37-2.74-0.638-3.957-0.782c-1.247-0.106-2.335-0.109-3.263,0.022l-5.575,6.728l-2.457-1.496l6.803-11.806
		c1.232,0.338,2.608,0.778,4.125,1.281c1.517,0.545,3.117,1.183,4.778,1.881c1.654,0.698,3.375,1.499,5.124,2.398
		C-4061.689,2144.587-4059.975,2145.527-4058.271,2146.562"/>
	<path id="path3300" fill="#FFFFFF" d="M-4083.342,2132.275l-1.25,1.91l-6.847-3.418l-27.923,42.682l5.59,5.331l-1.249,1.934
		l-19.41-13.781l1.261-1.893l6.824,3.458l22.897-34.99l-44.758,17.363l-0.94,1.449l5.617,5.365l-1.266,1.896l-19.355-13.719
		l1.25-1.931l6.825,3.477l27.931-42.687l-5.583-5.384l1.26-1.913l19.371,13.755l-1.268,1.897l-6.85-3.444l-23.205,35.469
		l44.759-17.362l1.246-1.929l-5.573-5.388l1.259-1.893L-4083.342,2132.275"/>
	<path id="path3302" fill="#FFFFFF" d="M-4145.418,2086.839l-1.383,1.824l-8.034-5.071l-30.696,40.186l1.738,1.424
		c3.005,2.463,5.588,4.476,7.732,5.999c2.138,1.523,3.693,2.547,4.681,3.059l6.394-6.39l2.31,1.886l-8.238,10.767l-40.541-33.176
		l8.23-10.784l2.335,1.921l-4.521,7.923c0.338,0.409,0.889,0.993,1.654,1.738c0.756,0.726,1.655,1.56,2.697,2.493
		c1.024,0.948,2.167,1.966,3.418,3.014c1.239,1.102,2.513,2.163,3.834,3.24l1.701,1.4l30.649-40.117l-6.608-6.916l1.375-1.816
		L-4145.418,2086.839"/>
	<path id="path3304" fill="#FFFFFF" d="M-4181.04,2060.419l-6.382-4.348l-33.476,38.167l4.887,6.071l-1.509,1.709l-32.777-30.468
		l9.082-10.379l2.15,1.994l-5.098,7.984c0.617,0.73,1.397,1.583,2.336,2.572c0.934,0.995,1.898,1.969,2.898,2.93
		c0.974,0.991,1.92,1.911,2.837,2.777c0.884,0.841,1.578,1.51,2.089,1.982l7.131,6.635l14.848-16.933l-11.807-10.965l-5.544,4.22
		l-2.076-1.919l11.664-13.317l2.096,1.957l-3.583,6.159l11.797,10.97l15.498-17.664l-8.615-8.014
		c-1.339-1.229-2.618-2.4-3.838-3.512c-1.236-1.059-2.34-2.007-3.353-2.867c-0.978-0.834-1.846-1.549-2.578-2.106
		c-0.75-0.595-1.302-0.977-1.693-1.219l-8.886,6.272l-2.158-2.01l10.654-10.834l34.891,32.412L-4181.04,2060.419"/>
	<path id="path3306" fill="#FFFFFF" d="M-4228.093,2012.351l-1.605,1.622l-7.351-6.067l-35.723,35.504l1.556,1.655
		c2.684,2.839,5.002,5.148,6.944,6.94c1.925,1.795,3.359,3.019,4.284,3.656l7.175-5.451l2.053,2.157l-9.569,9.532l-36.168-38.148
		l9.576-9.536l2.071,2.194l-5.518,7.191c0.288,0.479,0.772,1.125,1.447,1.961c0.657,0.827,1.448,1.759,2.365,2.808
		c0.894,1.082,1.9,2.216,3.033,3.466c1.086,1.225,2.211,2.457,3.395,3.701l1.512,1.592l35.646-35.462l-5.707-7.712l1.599-1.619
		L-4228.093,2012.351"/>
	<path id="path3308" fill="#FFFFFF" d="M-4319.797,1991.299l3.303,6.01l-1.77,1.421l-15.342-19.545l1.765-1.438l5.542,5.269
		l12.108-32.53l-32.806,6.152l3.265,5.961l-1.761,1.415l-10.912-13.885l1.762-1.437l4.366,3.772l39.592-6.922
		c3.518-0.611,6.657-1.112,9.47-1.435c2.757-0.387,5.247-0.496,7.475-0.328c2.21,0.134,4.203,0.629,5.919,1.454
		c1.694,0.815,3.226,2.098,4.597,3.831c0.841,1.088,1.52,2.217,2.064,3.463c0.535,1.251,0.869,2.385,0.982,3.407l-7.768,6.809
		l-1.224-1.564l1.866-4.338c0.188-0.824,0.181-1.676-0.012-2.527c-0.248-0.907-0.607-1.663-1.126-2.336
		c-0.656-0.822-1.448-1.488-2.402-2.018c-0.957-0.529-2.085-0.875-3.406-1.074c-1.341-0.234-2.846-0.289-4.552-0.193
		c-1.732,0.111-3.71,0.351-5.921,0.763L-4319.797,1991.299"/>
	<path id="path3310" fill="#FFFFFF" d="M-4391.989,1897.796l1.856-1.305l4.801,5.098l26.535,4.716l13.291-36.009l-2.681-6.005
		l1.863-1.287l8.487,12.511l-12.52,32.572l9.667,2.617l15.363-10.632l-3.881-7.783l1.873-1.269l13.958,20.573l-1.855,1.306
		l-5.259-5.69l-41.539,28.751l3.404,6.995l-1.863,1.289l-13.468-19.865l1.871-1.293l5.228,5.732l22.381-15.508l-37.417-6.662
		l2.301,5.371l-1.855,1.306L-4391.989,1897.796"/>
	<path id="path3312" fill="#FFFFFF" d="M-4400.172,1851.049c-1.946,1.173-3.501,2.409-4.619,3.729
		c-1.156,1.296-1.881,2.722-2.161,4.316c-0.332,1.533-0.214,3.28,0.313,5.167c0.547,1.921,1.536,4.06,2.977,6.455l2.259,3.767
		l23.183-14.082l-2.379-3.974c-1.439-2.393-2.91-4.233-4.424-5.547c-1.542-1.303-3.105-2.097-4.717-2.454
		c-1.605-0.365-3.288-0.324-5.023,0.167C-4396.496,1849.088-4398.292,1849.912-4400.172,1851.049 M-4374.924,1858.418l16.291-9.887
		l-3.92-8.777l1.939-1.167l13.001,21.672l-1.938,1.169l-4.63-5.484l-43.175,26.189l2.998,7.17l-1.939,1.167l-11.643-19.413
		c-2.157-3.596-3.579-6.814-4.27-9.677c-0.728-2.889-0.869-5.433-0.43-7.703c0.417-2.231,1.319-4.183,2.707-5.873
		c1.382-1.685,3.083-3.134,5.106-4.347c2.004-1.207,4.112-2.058,6.327-2.585c2.207-0.519,4.436-0.514,6.706,0.06
		c2.264,0.558,4.524,1.748,6.797,3.605c2.282,1.857,4.489,4.568,6.606,8.094L-4374.924,1858.418"/>
	<path id="path3314" fill="#FFFFFF" d="M-4378.108,1812.257l2.002-1.068l9.154,17.488l-2.012,1.031l-4.182-5.499l-57.623,7.096
		l-3.937-7.524l38.293-44.014l-2.509-7.27l2.012-1.051l11.756,22.471l-1.995,1.064l-4.781-6.625l-11.879,12.933l10.95,20.917
		l17.457-2.309L-4378.108,1812.257 M-4426.303,1826.572l29.427-3.76l-9.699-18.51L-4426.303,1826.572"/>
	<path id="path3316" fill="#FFFFFF" d="M-4408.092,1754.203l-2.137-7.467l2.068-0.926l9.957,21.784l-2.06,0.938l-4.249-6.522
		l-46.06,20.722l2.188,7.441l-2.058,0.942l-9.975-21.797l2.07-0.922l4.215,6.541L-4408.092,1754.203 M-4469.285,1772.944
		c1.093-0.497,2.197-0.539,3.32-0.146c1.097,0.41,1.907,1.199,2.421,2.345c0.277,0.579,0.404,1.144,0.429,1.741
		c0.007,0.56-0.081,1.126-0.276,1.68c-0.195,0.51-0.486,0.983-0.854,1.409c-0.372,0.422-0.814,0.772-1.367,1.019
		c-1.084,0.49-2.181,0.509-3.296,0.065c-1.117-0.443-1.937-1.249-2.461-2.395c-0.523-1.145-0.579-2.245-0.166-3.344
		C-4471.125,1774.215-4470.379,1773.412-4469.285,1772.944 M-4462.67,1787.402c1.095-0.493,2.205-0.523,3.321-0.122
		c1.106,0.427,1.908,1.195,2.439,2.337c0.258,0.562,0.395,1.144,0.41,1.724c0.007,0.582-0.073,1.144-0.256,1.695
		c-0.194,0.532-0.476,1.021-0.848,1.444c-0.36,0.444-0.812,0.776-1.365,1.023c-0.541,0.245-1.099,0.36-1.669,0.349
		c-0.571-0.012-1.112-0.131-1.622-0.356c-0.536-0.212-1.025-0.514-1.447-0.9c-0.432-0.402-0.782-0.895-1.037-1.455
		c-0.523-1.146-0.588-2.263-0.168-3.348C-4464.508,1788.697-4463.755,1787.889-4462.67,1787.402"/>
	<path id="path3318" fill="#FFFFFF" d="M-4410.948,1740.521l-2.127,0.797l-3.896-6.737l-47.219,17.999l1.778,7.547l-2.108,0.809
		l-8.787-22.317l2.108-0.809l3.854,6.76l21.045-8.038l-10.327-26.242l-21.055,8.021l1.788,7.564l-2.118,0.792l-8.777-22.277
		l2.109-0.808l3.862,6.751l47.202-18.009l-1.726-7.553l2.116-0.811l8.778,22.297l-2.125,0.796l-3.889-6.742l-22.568,8.602
		l10.327,26.242l22.566-8.601l-1.735-7.57l2.127-0.797L-4410.948,1740.521"/>
	<path id="path3320" fill="#FFFFFF" d="M-4435.012,1678.878l-2.175,0.64l-3.39-7.004l-48.544,14.186l1.203,7.65l-2.176,0.641
		l-7.118-22.89l2.167-0.636l3.356,7.024l39.807-11.648l-46.543-15.738l-1.64,0.49l1.221,7.64l-2.185,0.624l-7.106-22.827
		l2.167-0.636l3.355,6.999l48.555-14.188l-1.178-7.641l2.178-0.642l7.115,22.844l-2.169,0.638l-3.406-7.019l-40.335,11.795
		l46.543,15.738l2.168-0.637l-1.168-7.646l2.174-0.64L-4435.012,1678.878"/>
	<path id="path3322" fill="#FFFFFF" d="M-4540.756,1319.558l0.532-8.688l20.562,4.873l-0.208,3.253L-4540.756,1319.558
		 M-4541.794,1336.517l0.532-8.688l20.562,4.872l-0.215,3.259L-4541.794,1336.517"/>
	<path id="path3324" fill="#FFFFFF" d="M-4533.17,1244.382l2.261,0.353l0.33,6.968l17.195,21.717l33.83-16.505l1.892-6.161
		l2.27,0.37l-1.736,14.777l-30.962,14.615l5.672,8.523l18.729,3.025l2.145-8.192l2.27,0.348l-2.854,24.365l-2.27-0.37l-0.274-7.695
		l-50.655-8.188l-1.996,7.345l-2.28-0.367l2.75-23.495l2.271,0.369l0.239,7.713l27.307,4.396l-24.231-30.598l-1.773,5.422
		l-2.273-0.372L-4533.17,1244.382"/>
	<path id="path3326" fill="#FFFFFF" d="M-4475.019,1248.755l-2.232-0.524l0.271-7.694l-50.098-11.921l-2.516,7.148l-2.242-0.52
		l4.415-23.166l2.252,0.539l-0.307,7.689l41.057,9.761l-34.186-36.585l-1.695-0.408l-2.516,7.17l-2.243-0.544l4.4-23.111
		l2.252,0.539l-0.307,7.688l50.096,11.92l2.56-7.148l2.243,0.522l-4.417,23.12l-2.243-0.544l0.28-7.675l-41.623-9.911l34.177,36.569
		l2.243,0.544l2.567-7.154l2.243,0.544l-4.407,23.159"/>
	<path id="path3328" fill="#FFFFFF" d="M-4461.574,1167.991l2.945-6.969l2.213,0.672l-5.66,22.744l-2.222-0.647l0.692-7.642
		l-49.472-14.717l-2.914,6.974l-2.214-0.651l5.66-22.766l2.212,0.651l-0.723,7.638L-4461.574,1167.991 M-4521.837,1141.858
		c1.172,0.345,2.076,1.04,2.725,2.092c0.614,1.028,0.772,2.143,0.468,3.323c-0.145,0.597-0.403,1.116-0.745,1.549
		c-0.354,0.46-0.771,0.817-1.262,1.101c-0.471,0.251-1.007,0.404-1.559,0.472c-0.548,0.088-1.131,0.036-1.707-0.129
		c-1.173-0.349-2.069-1.069-2.675-2.123c-0.605-1.055-0.755-2.194-0.459-3.369c0.303-1.18,0.939-2.061,1.945-2.62
		C-4524.103,1141.597-4523.01,1141.509-4521.837,1141.858 M-4525.604,1156.972c1.173,0.346,2.082,1.038,2.73,2.09
		c0.625,1.048,0.767,2.146,0.477,3.339c-0.145,0.597-0.393,1.114-0.754,1.552c-0.342,0.456-0.771,0.797-1.258,1.079
		c-0.493,0.285-0.999,0.489-1.558,0.558c-0.561,0.075-1.139,0.024-1.718-0.145c-0.586-0.185-1.108-0.448-1.548-0.824
		c-0.457-0.389-0.809-0.832-1.064-1.329c-0.299-0.519-0.485-1.052-0.581-1.633c-0.101-0.578-0.074-1.16,0.073-1.757
		c0.295-1.196,0.95-2.065,1.946-2.618c1.015-0.541,2.101-0.644,3.271-0.299"/>
	<path id="path3330" fill="#FFFFFF" d="M-4485.686,1103.485c-1.642-0.593-3.123-0.843-4.484-0.774
		c-1.354,0.048-2.59,0.478-3.731,1.268c-1.151,0.795-2.188,1.98-3.097,3.573c-0.938,1.583-1.793,3.623-2.56,6.133l-2.634,8.657
		l20.903,7.426l2.792-9.15c0.798-2.573,1.189-4.815,1.187-6.711c-0.036-1.878-0.391-3.497-1.051-4.816
		c-0.688-1.351-1.648-2.464-2.908-3.355C-4482.514,1104.841-4483.988,1104.069-4485.686,1103.485 M-4458.268,1108.539
		c-1.912-0.672-3.677-0.952-5.278-0.796c-1.585,0.118-3.038,0.669-4.362,1.69c-1.323,0.979-2.532,2.437-3.608,4.366
		c-1.112,1.925-2.107,4.354-3.001,7.272l-3.06,10.014l23.264,8.292c0.456-1.26,0.902-2.584,1.342-3.97
		c0.426-1.175,0.861-2.495,1.339-3.922c0.439-1.456,0.891-2.892,1.313-4.317c0.796-2.615,1.184-4.925,1.167-6.948
		c-0.041-2.012-0.394-3.768-1.095-5.247c-0.729-1.531-1.768-2.808-3.125-3.845
		C-4454.729,1110.089-4456.354,1109.239-4458.268,1108.539 M-4455.25,1155.941l-2.183-0.779l1.08-7.579l-48.763-17.355l-3.263,6.803
		l-2.174-0.763l7.818-25.614c1.191-3.934,2.5-7.096,3.893-9.51c1.378-2.406,2.873-4.198,4.481-5.394
		c1.619-1.18,3.337-1.823,5.163-1.919c1.802-0.099,3.708,0.213,5.707,0.91c1.74,0.635,3.227,1.492,4.481,2.584
		c1.254,1.072,2.275,2.312,3.071,3.741c0.748,1.364,1.305,2.918,1.602,4.591c0.284,1.677,0.34,3.408,0.191,5.207
		c0.99-2.338,2.142-4.352,3.453-6.046c1.319-1.72,2.767-3.056,4.333-4.005c1.54-0.959,3.21-1.53,4.999-1.696
		c1.799-0.188,3.655,0.039,5.578,0.732c2.386,0.853,4.46,2.05,6.218,3.599c1.731,1.517,3.035,3.397,3.936,5.673
		c0.864,2.253,1.279,4.902,1.234,7.93c-0.072,3.044-0.703,6.497-1.885,10.406c-0.959,3.109-1.942,6.21-2.973,9.266
		c-1.018,3.076-1.929,5.908-2.73,8.529L-4455.25,1155.941"/>
	<path id="path3332" fill="#FFFFFF" d="M-4425.656,1070.114c-1.705,4.456-3.856,8.157-6.427,11.11
		c-2.573,2.93-5.488,5.095-8.747,6.473c-3.26,1.354-6.795,1.928-10.633,1.714c-3.862-0.244-7.907-1.273-12.151-3.123
		c-4.83-2.121-8.772-4.561-11.825-7.361c-3.058-2.822-5.272-5.935-6.656-9.309c-1.416-3.446-2.004-7.155-1.784-11.138
		c0.22-3.98,1.191-8.225,2.928-12.723c0.718-1.874,1.464-3.604,2.233-5.192c0.738-1.611,1.486-3.118,2.257-4.525
		c0.775-1.43,1.532-2.782,2.293-4.024c0.775-1.25,1.529-2.443,2.282-3.612l11.882,4.894l-1.038,2.697l-7.466-1.846
		c-1.883,1.389-3.615,3.215-5.194,5.459c-1.609,2.213-2.907,4.625-3.902,7.233c-1.235,3.165-1.881,6.178-1.997,9.039
		c-0.086,2.849,0.508,5.536,1.83,8.108c1.267,2.559,3.33,5.004,6.164,7.311c2.819,2.269,6.548,4.442,11.194,6.456
		c4.076,1.783,7.804,2.891,11.174,3.328c3.354,0.427,6.351,0.227,9.005-0.578c2.627-0.811,4.9-2.205,6.822-4.178
		c1.928-2.003,3.496-4.554,4.69-7.632c0.645-1.678,1.147-3.324,1.52-4.946c0.369-1.622,0.625-3.179,0.752-4.648
		c0.134-1.497,0.166-2.848,0.07-4.104c-0.105-1.278-0.293-2.399-0.555-3.32l-7.46-5.017l1.011-2.639l12.589,5.78
		c-0.117,1.283-0.307,2.719-0.542,4.313c-0.262,1.607-0.598,3.279-1,5.029c-0.39,1.768-0.868,3.581-1.445,5.447
		C-4424.325,1066.465-4424.954,1068.316-4425.656,1070.114"/>
	<path id="path3334" fill="#FFFFFF" d="M-4414.654,1002.56c-1.803-0.914-3.497-1.525-5.098-1.845
		c-1.613-0.314-3.137-0.202-4.568,0.311c-1.456,0.484-2.832,1.445-4.147,2.844c-1.281,1.383-2.496,3.321-3.645,5.787l-2.803,6.059
		l22.102,11.44l2.699-5.824c1.15-2.464,1.895-4.648,2.257-6.555c0.367-1.892,0.34-3.571-0.032-5.044
		c-0.399-1.505-1.155-2.821-2.285-3.959C-4411.302,1004.591-4412.798,1003.535-4414.654,1002.56 M-4434.764,1005.985
		c1.69-3.612,3.487-6.446,5.433-8.453c1.936-2.049,3.926-3.428,5.966-4.199c2.042-0.773,4.098-0.991,6.176-0.674
		c2.068,0.298,4.075,0.943,6.034,1.954c1.99,1.043,3.685,2.308,5.133,3.884c1.44,1.517,2.442,3.356,3.059,5.533
		c0.62,2.177,0.717,4.701,0.312,7.583c-0.378,2.87-1.436,6.144-3.144,9.857l-10.162,21.892l-2.065-1.068l2.12-7.3l-46.232-23.925
		l-3.967,5.708l-2.068-1.066l10.321-22.246l2.065,1.067l-2.835,8.924l20.183,10.451L-4434.764,1005.985"/>
	<path id="path3336" fill="#FFFFFF" d="M-4419.068,918.802l1.996,1.196l-2.235,6.499l8.271,26.412l37.866-2.074l4.039-4.886
		l1.993,1.197l-7.018,12.846l-34.492,1.448l2.235,9.969l16.533,9.961l5.015-6.697l1.994,1.218l-11.577,21.154l-2.001-1.213
		l2.559-7.149l-44.726-26.92l-4.563,5.937l-1.993-1.197l11.165-20.395l1.986,1.201l-2.585,7.12l24.104,14.509l-11.651-37.26
		l-3.659,4.277l-1.994-1.219L-4419.068,918.802"/>
	<path id="path3338" fill="#FFFFFF" d="M-4365.909,945.135l-1.916-1.351l3.061-6.923l-42.802-30.133l-4.985,5.572l-1.916-1.35
		l12.617-19.449l1.913,1.348l-3.094,6.893l35.099,24.712l-18.826-46.54l-1.446-1.039l-4.982,5.575l-1.913-1.329l12.581-19.431
		l1.924,1.347l-3.088,6.912l42.806,30.134l5.01-5.542l1.915,1.352l-12.582,19.41l-1.933-1.364l3.071-6.903l-35.568-25.05
		l18.821,46.543l1.923,1.346l5.01-5.542l1.917,1.356L-4365.909,945.135"/>
	<path id="path3340" fill="#FFFFFF" d="M-4330.952,891.648l-1.816-1.495l3.563-6.645l-40.553-33.304l-5.398,5.139l-1.817-1.493
		l14.07-18.35l1.826,1.51l-3.616,6.609l33.246,27.302l-15.342-47.742l-1.38-1.117l-5.4,5.14l-1.816-1.495l14.037-18.308l1.826,1.489
		l-3.618,6.609l40.571,33.314l5.426-5.11l1.818,1.495l-14.03,18.305l-1.826-1.51l3.573-6.63l-33.695-27.673l15.361,47.734
		l1.817,1.493l5.427-5.111l1.827,1.49L-4330.952,891.648 M-4363.035,827.28c-1.932,2.519-3.781,4.39-5.516,5.586
		c-1.724,1.188-3.379,1.89-4.966,2.104c-1.602,0.178-3.111-0.034-4.562-0.616c-1.443-0.61-2.834-1.406-4.166-2.432l4.292-5.588
		c2.46,1.783,4.748,2.593,6.866,2.391c2.119-0.179,3.986-1.333,5.618-3.447c1.621-2.129,2.281-4.269,1.985-6.459
		c-0.318-2.18-1.592-4.303-3.84-6.381l4.3-5.592c1.256,1.115,2.347,2.342,3.231,3.655c0.896,1.331,1.416,2.815,1.596,4.482
		c0.172,1.623-0.104,3.467-0.848,5.491C-4359.755,822.478-4361.084,824.75-4363.035,827.28"/>
	<path id="path3342" fill="#FFFFFF" d="M-4277.667,824.503l-1.669-1.665l4.25-6.198l-37.135-37.315l-5.9,4.524l-1.671-1.664
		l40.272-42.242l1.66,1.69l-4.277,6.147l37.129,37.32l5.934-4.499l1.671,1.686l-15.87,16.642l-1.672-1.684l4.242-6.195
		l-36.775-36.966l-18.683,19.589l36.785,36.986l5.936-4.498l1.677,1.681L-4277.667,824.503"/>
	<path id="path3344" fill="#FFFFFF" d="M-4245.739,749.337c2.717,3.162,5.386,5.805,8.034,7.965c2.64,2.138,5.276,3.624,7.913,4.455
		c2.635,0.829,5.29,0.928,7.985,0.283c2.658-0.674,5.375-2.259,8.13-4.742c2.764-2.471,4.645-5.01,5.641-7.619
		c0.957-2.636,1.227-5.331,0.754-8.11c-0.455-2.805-1.555-5.677-3.294-8.612c-1.747-2.956-3.986-6.01-6.692-9.151
		c-2.699-3.128-5.368-5.771-7.97-7.886c-2.631-2.122-5.25-3.572-7.875-4.343c-2.609-0.8-5.236-0.866-7.884-0.177
		c-2.64,0.708-5.341,2.281-8.096,4.768c-2.763,2.469-4.661,4.997-5.676,7.591c-1.003,2.593-1.291,5.255-0.837,8.019
		c0.425,2.708,1.514,5.54,3.227,8.466c1.739,2.94,3.958,5.959,6.648,9.088 M-4252.401,755.307
		c-3.459-4.006-5.974-7.865-7.572-11.596c-1.568-3.753-2.281-7.37-2.151-10.829c0.138-3.485,1.112-6.832,2.926-10.059
		c1.829-3.232,4.409-6.349,7.772-9.363c3.245-2.928,6.543-5.07,9.886-6.493c3.372-1.412,6.777-1.985,10.217-1.72
		c3.443,0.267,6.888,1.435,10.342,3.477c3.458,2.065,6.911,5.081,10.365,9.093c3.459,4.007,5.984,7.926,7.562,11.74
		c1.56,3.776,2.275,7.442,2.113,10.983c-0.144,3.536-1.122,6.95-2.896,10.221c-1.774,3.228-4.289,6.288-7.533,9.217
		c-3.255,2.91-6.569,5.062-9.924,6.443c-3.399,1.359-6.821,1.899-10.265,1.609c-3.461-0.301-6.922-1.481-10.406-3.554
		C-4245.478,762.369-4248.948,759.318-4252.401,755.307"/>
	<path id="path3346" fill="#FFFFFF" d="M-4184.916,736.984c-1.013,0.792-2.086,1.386-3.199,1.797
		c-1.099,0.384-2.171,0.572-3.235,0.531l-6.049-7.578l1.521-1.196l3.972,1.973c0.68,0.179,1.331,0.216,1.94,0.095
		c0.635-0.156,1.218-0.423,1.735-0.835c0.946-0.731,1.451-1.904,1.486-3.503c0.052-1.655-0.46-3.915-1.512-6.744
		c-1.047-2.875-2.717-6.436-4.995-10.688c-2.271-4.278-5.271-9.391-9.001-15.332l-7.348-11.763l-6.53,3.55l-1.418-1.888
		l35.245-27.135l1.421,1.887l-5.137,5.428l31.618,42.272l6.549-3.513l1.41,1.91l-18.17,13.964l-1.409-1.893l5.111-5.458
		l-31.325-41.887l-13.616,10.495l7.401,11.822c3.847,6.152,7.047,11.608,9.617,16.385c2.595,4.76,4.519,8.934,5.73,12.513
		c1.186,3.545,1.65,6.554,1.374,9.005C-4181.964,733.606-4183.033,735.552-4184.916,736.984"/>
	<path id="path3348" fill="#FFFFFF" d="M-4130.757,691.541l6.735-3.164l1.324,1.96l-18.911,12.935l-1.326-1.961l5.4-5.14
		l-29.404-43.902l-6.7,3.189l-1.328-1.958l18.913-12.932l1.309,1.965l-5.408,5.122L-4130.757,691.541"/>
	<path id="path3350" fill="#FFFFFF" d="M-4108.761,681.3l-1.219-2.038l7.143-5.776l-27.1-44.996l-1.867,1.134
		c-3.193,1.951-5.811,3.64-7.881,5.129c-2.08,1.47-3.51,2.574-4.283,3.323l3.837,8.619l-2.434,1.501l-7.265-12.075l43.043-26.212
		l7.274,12.05l-2.477,1.503l-5.815-7.407c-0.494,0.177-1.215,0.493-2.131,0.934c-0.888,0.451-1.926,0.983-3.119,1.641
		c-1.166,0.622-2.458,1.333-3.83,2.134c-1.366,0.776-2.761,1.585-4.176,2.429l-1.788,1.088l27.062,44.925l8.382-3.7l1.234,2.03
		L-4108.761,681.3"/>
	<path id="path3352" fill="#FFFFFF" d="M-4073.411,657.182l5.965-4.444l-24.382-46.898l-7.065,2.344l-1.099-2.102l38.16-19.784
		l6.619,12.737l-2.504,1.291l-5.686-7.973c-0.867,0.328-1.885,0.735-3.1,1.267c-1.186,0.499-2.374,1.042-3.576,1.639
		c-1.21,0.576-2.355,1.118-3.401,1.675c-1.094,0.517-1.914,0.933-2.505,1.248l-8.294,4.31l10.82,20.779l13.724-7.115l-2.135-6.976
		l2.437-1.252l8.499,16.345l-2.437,1.252l-4.513-5.816l-13.731,7.142l11.281,21.685l10.022-5.186
		c1.564-0.812,3.033-1.596,4.412-2.353c1.366-0.776,2.581-1.467,3.677-2.099c1.09-0.645,1.988-1.193,2.727-1.679
		c0.774-0.504,1.331-0.888,1.664-1.156l-2.944-10.973l2.494-1.308l6.588,14.428l-40.616,21.072L-4073.411,657.182"/>
	<path id="path3354" fill="#FFFFFF" d="M-4016.12,627.036l7.004-1.679l0.955,2.157l-17.202,7.344l-0.956-2.153l5.334-3.594
		l7.1-32.483l-25.569-17.091l-6.392,1.486l-0.967-2.173l21.757-9.274l0.954,2.155l-6.22,3.928l18.308,12.313l4.836-22.193
		l-6.986,1.717l-0.954-2.158l17.253-7.369l0.939,2.162l-5.353,3.555l-5.849,26.89l30.269,20.127l6.445-1.428l0.955,2.157
		l-21.736,9.266l-0.953-2.158l6.199-3.964l-23.105-15.4L-4016.12,627.036"/>
	<path id="path3356" fill="#FFFFFF" d="M-3966.553,610.001l-0.778-2.226l6.576-3.463l-17.394-49.832l-7.361,1.212l-0.776-2.229
		l21.787-7.258l0.775,2.231l-6.593,3.425l7.769,22.224l25.578-8.532l-7.746-22.218l-7.378,1.225l-0.774-2.229l21.768-7.249
		l0.775,2.228l-6.608,3.437l17.409,49.824l7.383-1.18l0.774,2.229l-21.743,7.258l-0.785-2.244l6.576-3.463l-8.313-23.81
		l-25.604,8.524l8.322,23.83l7.373-1.2l0.785,2.248L-3966.553,610.001"/>
	<path id="path3358" fill="#FFFFFF" d="M-3891.6,582.977l7.444-0.74l0.666,2.269l-22.178,5.952l-0.65-2.276l6.776-3.047
		l-14.631-50.676l-7.441,0.782l-0.65-2.274l22.146-5.935l0.665,2.265l-6.785,3.033L-3891.6,582.977"/>
	<path id="path3360" fill="#FFFFFF" d="M-3827.179,572.096l-23.302,4.903l-0.547-2.285l7.794-2.889l-4.591-19.472
		c-0.697,0.441-1.572,0.999-2.632,1.655c-1.064,0.61-2.222,1.251-3.482,1.899c-1.266,0.633-2.574,1.239-3.949,1.791
		c-1.351,0.563-2.688,0.983-3.956,1.253c-2.886,0.612-5.429,0.769-7.634,0.499c-2.189-0.278-4.069-0.991-5.717-2.169
		c-1.597-1.204-2.961-2.871-4.08-5.01c-1.117-2.136-2.042-4.763-2.78-7.895l-4.067-17.354l-6.643,0.2l-0.547-2.284l21.643-4.562
		l0.556,2.304l-6.965,2.65l4.066,17.31c0.521,2.164,1.155,4.039,1.885,5.572c0.736,1.503,1.658,2.708,2.723,3.56
		c1.117,0.877,2.445,1.412,3.958,1.644c1.549,0.213,3.357,0.105,5.429-0.319c1.01-0.223,2.018-0.492,3.066-0.848
		c1.049-0.355,2.07-0.761,3.063-1.18c1.008-0.425,1.958-0.84,2.813-1.274c0.897-0.434,1.694-0.812,2.388-1.139l-6.611-28.107
		l-7.482,0.375l-0.53-2.293l22.48-4.737l0.536,2.311l-6.947,2.644l12.047,51.285l7.503-0.343L-3827.179,572.096"/>
	<path id="path3362" fill="#FFFFFF" d="M-3822.123,571.118l-0.393-2.322l7.141-2.159l-8.365-51.915l-7.515-0.17l-0.375-2.333
		l22.871-3.023l0.376,2.331l-7.144,2.113l3.724,23.143l26.878-3.537l-3.725-23.138l-7.508-0.199l-0.38-2.306l22.827-3.024
		l0.376,2.331l-7.142,2.116l8.368,51.913l7.515,0.219l0.374,2.329l-22.81,3.015l-0.385-2.348l7.133-2.133l-3.993-24.827
		l-26.877,3.532l3.993,24.827l7.518,0.217l0.372,2.333L-3822.123,571.118"/>
	<path id="path3364" fill="#FFFFFF" d="M-3759.056,562.995l-0.202-2.334l7.288-1.558l-4.418-52.28l-7.498-0.793l-0.203-2.331
		l23.09-1.152l0.201,2.331l-7.305,1.523l3.648,42.861l23.637-42.454l-0.144-1.775l-7.489-0.774l-0.211-2.35l23.063-1.16l0.186,2.343
		l-7.29,1.514l4.435,52.27l7.483,0.844l0.203,2.334l-23.038,1.167l-0.211-2.35l7.304-1.566l-3.69-43.429l-23.637,42.454l0.186,2.343
		l7.501,0.837l0.2,2.33L-3759.056,562.995"/>
	<path id="path3366" fill="#FFFFFF" d="M-3695.373,560.011l-0.012-2.344l7.406-0.966l-0.429-52.329l-7.427-1.394l-0.012-2.344
		l23.186,0.697l0.021,2.362l-7.438,0.914l0.368,42.895l26.899-40.285l-0.016-1.779l-7.417-1.374l-0.03-2.335l23.141,0.696
		l0.012,2.344l-7.425,0.932l0.434,52.304l7.448,1.427l0.012,2.344l-23.142-0.698l-0.011-2.342l7.405-0.969l-0.345-43.467
		l-26.9,40.283l0.021,2.362l7.44,1.411l0.012,2.344l-23.169-0.706 M-3666.406,496.455c-3.201-0.098-5.829-0.506-7.852-1.211
		c-2.036-0.724-3.638-1.654-4.836-2.797c-1.156-1.193-1.965-2.546-2.445-4.053c-0.469-1.534-0.735-3.133-0.806-4.812l7.076,0.203
		c0.197,3.057,1.048,5.383,2.559,6.997c1.511,1.609,3.61,2.456,6.275,2.528c2.673,0.086,4.759-0.64,6.233-2.15
		c1.492-1.519,2.312-3.808,2.459-6.827l7.079,0.203c-0.051,1.698-0.304,3.257-0.742,4.756c-0.439,1.497-1.266,2.8-2.427,3.917
		c-1.138,1.079-2.735,1.911-4.76,2.513C-3660.606,496.302-3663.214,496.538-3666.406,496.455"/>
	<path id="path3368" fill="#FFFFFF" d="M-3592.833,562.899l7.311,2.068l-0.171,2.326l-23.062-2.703l0.169-2.33l7.497-0.313
		l3.871-52.001l-7.326-2.013l0.187-2.338l23.063,2.706l-0.171,2.327l-7.486,0.285L-3592.833,562.899"/>
	<path id="path3370" fill="#FFFFFF" d="M-3579.916,567.623l0.311-2.311l7.501,0.11l6.752-51.568l-7.204-2.44l0.306-2.31l22.973,4.04
		l-0.307,2.311l-7.491-0.166l-3.022,22.987l26.994,4.745l3.021-22.986l-7.212-2.414l0.301-2.329l22.926,4.043l-0.29,2.302
		l-7.508-0.157l-6.75,51.572l7.199,2.465l-0.3,2.329l-22.93-4.041l0.284-2.32l7.528,0.119l3.222-24.652l-26.993-4.74l-3.22,24.651
		l7.196,2.466l-0.307,2.311l-22.972-4.041"/>
	<path id="path3372" fill="#FFFFFF" d="M-3486.581,587.599c-4.619-1.173-8.613-2.883-11.968-5.142
		c-3.333-2.22-6.004-4.908-7.992-8.029c-1.947-3.119-3.219-6.643-3.762-10.555c-0.557-3.928-0.362-8.167,0.57-12.687
		c1.069-5.159,2.642-9.452,4.707-12.904c2.112-3.456,4.662-6.08,7.652-7.921c3.021-1.862,6.476-2.912,10.361-3.2
		c3.885-0.286,8.158,0.19,12.847,1.374c1.93,0.485,3.756,1.024,5.433,1.601c1.691,0.565,3.298,1.134,4.805,1.728
		c1.539,0.605,2.99,1.207,4.338,1.822c1.346,0.614,2.653,1.23,3.941,1.855l-2.37,12.652l-2.787-0.706l0.277-7.785
		c-1.706-1.735-3.828-3.271-6.292-4.598c-2.449-1.338-5.032-2.356-7.724-3.045c-3.291-0.842-6.33-1.119-9.1-0.862
		s-5.235,1.211-7.465,2.851c-2.204,1.604-4.125,3.984-5.799,7.159c-1.631,3.13-2.961,7.185-3.973,12.129
		c-0.905,4.37-1.231,8.271-0.965,11.745c0.261,3.455,1.061,6.461,2.354,9.049c1.309,2.579,3.109,4.69,5.393,6.41
		c2.308,1.684,5.092,2.956,8.281,3.763c1.753,0.441,3.445,0.76,5.058,0.939c1.659,0.179,3.207,0.235,4.647,0.166
		c1.457-0.032,2.765-0.188,3.948-0.412c1.215-0.284,2.238-0.603,3.095-0.993l3.346-8.178l2.732,0.686l-3.046,13.466
		c-1.257,0.038-2.667,0.044-4.264,0.014c-1.596-0.099-3.259-0.207-5.046-0.38c-1.752-0.196-3.605-0.452-5.52-0.787
		C-3482.784,588.489-3484.701,588.066-3486.581,587.599"/>
	<path id="path3374" fill="#FFFFFF" d="M-3448.233,597.516l0.632-2.233l9.155,1.781l13.843-49.501l-2.126-0.694
		c-3.636-1.203-6.706-2.117-9.214-2.748c-2.499-0.656-4.321-1.016-5.406-1.136l-3.574,8.436l-2.798-0.93l3.72-13.257l48.994,16.122
		l-3.692,13.269l-2.836-0.928l1.337-9.165c-0.449-0.28-1.174-0.617-2.158-1.04c-0.933-0.408-2.056-0.848-3.338-1.338
		c-1.283-0.493-2.679-1.033-4.24-1.557c-1.493-0.56-3.046-1.111-4.646-1.635l-2.053-0.668l-13.788,49.404l8.516,4.043l-0.603,2.244
		L-3448.233,597.516"/>
	<path id="path3376" fill="#FFFFFF" d="M-3406.824,611.135l0.772-2.174l7.384,1.756l17.403-48.485l-6.602-3.913l0.774-2.175
		l21.785,8.944l-0.771,2.175l-7.36-1.792l-14.272,39.74l39.287-27.594l0.597-1.651l-6.603-3.913l0.773-2.175l21.752,8.916
		l-0.772,2.174l-7.359-1.791l-17.405,48.484l6.586,3.969l-0.79,2.182l-21.743-8.943l0.773-2.175l7.367,1.765l14.465-40.277
		l-39.272,27.589l-0.772,2.174l6.57,3.973l-0.772,2.174L-3406.824,611.135"/>
	<path id="path3378" fill="#FFFFFF" d="M-3336.79,641.188l0.913-2.114l8.883,3.103l20.695-46.67l-2.004-0.987
		c-3.432-1.717-6.376-3.085-8.783-4.06c-2.413-1.017-4.139-1.655-5.213-1.919l-4.738,7.77l-2.64-1.329l5.547-12.514l46.5,23.126
		l-5.545,12.513l-2.683-1.323l2.627-8.834c-0.44-0.334-1.113-0.788-2.021-1.344c-0.866-0.53-1.923-1.12-3.152-1.799
		c-1.177-0.703-2.512-1.415-3.979-2.17c-1.415-0.782-2.88-1.537-4.416-2.298l-1.925-0.962l-20.673,46.589l7.923,5.243l-0.926,2.096
		L-3336.79,641.188"/>
	<path id="path3380" fill="#FFFFFF" d="M-3265.874,615.997l-5.211-4.36l1.064-2.035l21.21,12.457l-1.073,2.019l-6.988-2.803
		l0.945,35.264l27.627-18.485l-5.185-4.352l1.099-2.01l15.081,8.86l-1.091,2.027l-5.358-1.866l-33.586,21.845
		c-2.959,1.941-5.646,3.622-8.074,5.053c-2.377,1.403-4.613,2.46-6.698,3.187c-2.079,0.702-4.062,1.014-5.932,0.926
		c-1.847-0.12-3.712-0.731-5.626-1.837c-1.142-0.676-2.187-1.497-3.136-2.461c-0.966-0.954-1.659-1.894-2.147-2.808l4.551-9.411
		l1.728,1.001l-0.124,4.812c0.121,0.84,0.447,1.613,0.954,2.362c0.524,0.736,1.147,1.331,1.862,1.739
		c0.913,0.53,1.885,0.846,2.927,0.97c1.058,0.112,2.221,0.012,3.502-0.309c1.293-0.304,2.713-0.814,4.229-1.554
		c1.558-0.787,3.259-1.785,5.118-3.025L-3265.874,615.997"/>
	<path id="path3382" fill="#FFFFFF" d="M-3233.054,699.88l1.207-1.93l8.391,4.337l27.019-42.948l-1.848-1.274
		c-3.202-2.178-5.923-3.937-8.183-5.287c-2.268-1.318-3.896-2.213-4.923-2.635l-5.789,6.971l-2.454-1.673l7.247-11.525
		l43.104,29.501l-7.24,11.498l-2.479-1.683l3.832-8.324c-0.389-0.4-0.991-0.919-1.813-1.607c-0.824-0.647-1.777-1.381-2.887-2.235
		c-1.106-0.857-2.318-1.747-3.663-2.723c-1.313-0.949-2.675-1.92-4.08-2.885l-1.807-1.231l-26.972,42.877l7.165,6.307l-1.225,1.938
		L-3233.054,699.88"/>
	<path id="path3384" fill="#FFFFFF" d="M-3147.477,690.168l6.944,5.289l-14.181,15.248l-2.609-1.999L-3147.477,690.168
		 M-3161.037,679.801l6.937,5.313l-14.195,15.231l-2.604-1.998L-3161.037,679.801"/>
</g>
</svg>
