<?xml version="1.0" encoding="utf-8"?>
<!-- Generator: Adobe Illustrator 15.0.2, SVG Export Plug-In . SVG Version: 6.00 Build 0)  -->
<!DOCTYPE svg PUBLIC "-//W3C//DTD SVG 1.1//EN" "http://www.w3.org/Graphics/SVG/1.1/DTD/svg11.dtd">
<svg version="1.1" id="Слой_1" xmlns="http://www.w3.org/2000/svg" xmlns:xlink="http://www.w3.org/1999/xlink" x="0px" y="0px"
	 width="50px" height="49.985px" viewBox="0 0 50 49.985" enable-background="new 0 0 50 49.985" xml:space="preserve">
<polygon fill="#222222" points="0,-0.015 0,49.985 50,49.985 50,-0.015 0,-0.015 "/>
<path fill="#FFFFFF" d="M41.6,19.459c-1.175,0.502-2.437,0.841-3.762,0.994c1.352-0.781,2.391-2.018,2.88-3.492
	c-1.266,0.723-2.667,1.249-4.16,1.532c-1.194-1.227-2.896-1.993-4.78-1.993c-3.617,0-6.549,2.826-6.549,6.311
	c0,0.495,0.058,0.977,0.169,1.438c-5.443-0.264-10.269-2.775-13.499-6.594c-0.563,0.932-0.887,2.016-0.887,3.172
	c0,2.189,1.156,4.122,2.914,5.253c-1.074-0.033-2.083-0.317-2.967-0.79c0,0.026,0,0.053,0,0.079c0,3.058,2.258,5.608,5.253,6.188
	c-0.549,0.145-1.128,0.222-1.725,0.222c-0.422,0-0.832-0.041-1.232-0.114c0.833,2.507,3.252,4.332,6.118,4.383
	c-2.241,1.692-5.065,2.702-8.134,2.702c-0.529,0-1.05-0.03-1.563-0.088c2.898,1.791,6.341,2.835,10.04,2.835
	c12.047,0,18.634-9.617,18.634-17.957c0-0.273-0.006-0.546-0.019-0.816C39.611,21.837,40.722,20.725,41.6,19.459L41.6,19.459z"/>
</svg>
