<?xml version="1.0" encoding="utf-8"?>
<!-- Generator: Adobe Illustrator 15.0.2, SVG Export Plug-In . SVG Version: 6.00 Build 0)  -->
<!DOCTYPE svg PUBLIC "-//W3C//DTD SVG 1.1//EN" "http://www.w3.org/Graphics/SVG/1.1/DTD/svg11.dtd">
<svg version="1.1" id="Слой_1" xmlns="http://www.w3.org/2000/svg" xmlns:xlink="http://www.w3.org/1999/xlink" x="0px" y="0px"
	 width="50px" height="50px" viewBox="0 0 50 50" enable-background="new 0 0 50 50" xml:space="preserve">
<polygon fill="#222222" points="0,0 0,50 50,50 50,0 "/>
<path fill="#FFFFFF" d="M15.383,15.847h11.361c3.736,0,6.92,1.83,6.916,5.53c-0.002,3.09-1.123,4.291-3.424,5.65
	c0.197,0.162,1.516,0.555,1.957,0.772c0.709,0.349,1.127,0.702,1.594,1.176c1.305,1.325,1.547,2.538,1.547,4.618
	c0,4.826-4.67,7.252-9.168,7.252H15.334L15.383,15.847L15.383,15.847z M21.556,22.414l-0.001,3.247c2.927,0,5.677,0.385,5.677-2.786
	c0-2.936-3.112-2.452-5.679-2.452L21.556,22.414L21.556,22.414z M21.554,36.244c3.208,0,7.168,0.527,7.239-3.111
	c0.072-3.794-4.07-3.109-7.237-3.109L21.554,36.244L21.554,36.244z"/>
</svg>
